<?xml version="1.0" standalone="no"?>
 <!DOCTYPE svg PUBLIC "-//W3C//DTD SVG 1.1//EN" 
 "http://www.w3.org/Graphics/SVG/1.1/DTD/svg11.dtd"> 
<svg
  xmlns:svg="http://www.w3.org/2000/svg"
  xmlns="http://www.w3.org/2000/svg"
  xmlns:xlink="http://www.w3.org/1999/xlink"
  version="1.1"
  width="16.217900cm" height="15.557500cm" viewBox="0 0 63850 61250">
<title>SVG Picture created as split_3x_plate-brd.svg date 2021/01/19 14:14:28 </title>
  <desc>Picture generated by PCBNEW </desc>
<g style="fill:#000000; fill-opacity:1;stroke:#000000; stroke-opacity:1;
stroke-linecap:round; stroke-linejoin:round;"
 transform="translate(0 0) scale(1 1)">
</g>
<g style="fill:#000000; fill-opacity:0.0; 
stroke:#000000; stroke-width:-0.000393701; stroke-opacity:1; 
stroke-linecap:round; stroke-linejoin:round;">
<g >
</g>
<g style="fill:#000000; fill-opacity:1.0; 
stroke:#000000; stroke-width:0; stroke-opacity:1; 
stroke-linecap:round; stroke-linejoin:round;">
<circle cx="20196.9" cy="19724.4" r="433.071" /> 
</g>
<g style="fill:#000000; fill-opacity:1.0; 
stroke:#000000; stroke-width:39.3701; stroke-opacity:1; 
stroke-linecap:round; stroke-linejoin:round;">
</g>
<g >
</g>
<g style="fill:#000000; fill-opacity:1.0; 
stroke:#000000; stroke-width:39.3701; stroke-opacity:1; 
stroke-linecap:round; stroke-linejoin:round;">
</g>
<g style="fill:#000000; fill-opacity:1.0; 
stroke:#000000; stroke-width:0; stroke-opacity:1; 
stroke-linecap:round; stroke-linejoin:round;">
<circle cx="29566.9" cy="35866.1" r="433.071" /> 
</g>
<g style="fill:#000000; fill-opacity:1.0; 
stroke:#000000; stroke-width:39.3701; stroke-opacity:1; 
stroke-linecap:round; stroke-linejoin:round;">
</g>
<g >
</g>
<g style="fill:#000000; fill-opacity:1.0; 
stroke:#000000; stroke-width:39.3701; stroke-opacity:1; 
stroke-linecap:round; stroke-linejoin:round;">
</g>
<g style="fill:#000000; fill-opacity:1.0; 
stroke:#000000; stroke-width:0; stroke-opacity:1; 
stroke-linecap:round; stroke-linejoin:round;">
<circle cx="35196.9" cy="12874" r="433.071" /> 
</g>
<g style="fill:#000000; fill-opacity:1.0; 
stroke:#000000; stroke-width:39.3701; stroke-opacity:1; 
stroke-linecap:round; stroke-linejoin:round;">
</g>
<g >
</g>
<g style="fill:#000000; fill-opacity:1.0; 
stroke:#000000; stroke-width:39.3701; stroke-opacity:1; 
stroke-linecap:round; stroke-linejoin:round;">
</g>
<g style="fill:#000000; fill-opacity:1.0; 
stroke:#000000; stroke-width:0; stroke-opacity:1; 
stroke-linecap:round; stroke-linejoin:round;">
<circle cx="58609.7" cy="41609.3" r="433.071" /> 
</g>
<g style="fill:#000000; fill-opacity:1.0; 
stroke:#000000; stroke-width:39.3701; stroke-opacity:1; 
stroke-linecap:round; stroke-linejoin:round;">
</g>
<g >
</g>
<g >
</g>
<g >
</g>
</g>
<g style="fill:#000000; fill-opacity:1.0; 
stroke:#000000; stroke-width:39.3701; stroke-opacity:1; 
stroke-linecap:round; stroke-linejoin:round;">
</g>
<g style="fill:#000000; fill-opacity:0.0; 
stroke:#000000; stroke-width:19.685; stroke-opacity:1; 
stroke-linecap:round; stroke-linejoin:round;">
<path d="M47795.3 34291.3 A9519.65 9519.65 0.0 0 0 52122.9 39333.1" />
<path d="M50255 29291
L50236 30118
" />
<path d="M60205 40739
L52122 39333
" />
<path d="M48779 44448
L53070 40905
" />
<path d="M48779 44448
L52401 48818
" />
<path d="M52401 48818
L56692 45275
" />
<path d="M53070 40905
L56692 45275
" />
<path d="M60357 43348.1 A1947.38 1947.38 0.0 0 0 60205.3 40739.4" />
<path d="M46299 43149
L41456 40393
" />
<path d="M44251 35551
L41456 40393
" />
<path d="M46299 43149
L49133 38267
" />
<path d="M44251 35551
L49133 38267
" />
<path d="M47795 34291
L50236 30118
" />
<path d="M32992 39015
L38425 39960
" />
<path d="M33897 33543
L32992 39015
" />
<path d="M39370 34527
L33897 33543
" />
<path d="M38425 39960
L39370 34527
" />
<path d="M43661 22539
L49173 22539
" />
<path d="M49173 22539
L49173 28051
" />
<path d="M43661 28051
L43661 22539
" />
<path d="M49173 28051
L43661 28051
" />
<path d="M43661 15019
L49173 15019
" />
<path d="M49173 15019
L49173 20531
" />
<path d="M43661 20531
L43661 15019
" />
<path d="M49173 20531
L43661 20531
" />
<path d="M43622 7539
L49133 7539
" />
<path d="M49133 7539
L49133 13051
" />
<path d="M43622 13051
L43622 7539
" />
<path d="M49133 13051
L43622 13051
" />
<path d="M36141 21318
L41653 21318
" />
<path d="M41653 21318
L41653 26830
" />
<path d="M36141 26830
L36141 21318
" />
<path d="M41653 26830
L36141 26830
" />
<path d="M36141 13838
L41653 13838
" />
<path d="M41653 13838
L41653 19350
" />
<path d="M36141 19350
L36141 13838
" />
<path d="M41653 19350
L36141 19350
" />
<path d="M36141 6358
L41653 6358
" />
<path d="M41653 6358
L41653 11870
" />
<path d="M36141 11870
L36141 6358
" />
<path d="M41653 11870
L36141 11870
" />
<path d="M28661 18602
L34173 18602
" />
<path d="M34173 18602
L34173 24114
" />
<path d="M28661 24114
L28661 18602
" />
<path d="M34173 24114
L28661 24114
" />
<path d="M28622 11082
L34133 11082
" />
<path d="M34133 11082
L34133 16594
" />
<path d="M28622 16594
L28622 11082
" />
<path d="M34133 16594
L28622 16594
" />
<path d="M28622 3602
L34133 3602
" />
<path d="M34133 3602
L34133 9114
" />
<path d="M28622 9114
L28622 3602
" />
<path d="M34133 9114
L28622 9114
" />
<path d="M21122 20925
L26633 20925
" />
<path d="M26633 20925
L26633 26437
" />
<path d="M21122 26437
L21122 20925
" />
<path d="M26633 26437
L21122 26437
" />
<path d="M21122 13444
L26633 13444
" />
<path d="M26633 13444
L26633 18956
" />
<path d="M21122 18956
L21122 13444
" />
<path d="M26633 18956
L21122 18956
" />
<path d="M21122 5964
L26633 5964
" />
<path d="M26633 5964
L26633 11476
" />
<path d="M21122 11476
L21122 5964
" />
<path d="M26633 11476
L21122 11476
" />
<path d="M19153 31161
L13641 31161
" />
<path d="M19153 25649
L19153 31161
" />
<path d="M13641 25649
L19153 25649
" />
<path d="M13641 31161
L13641 25649
" />
<path d="M19251 23681
L19153 23681
" />
<path d="M19251 18070
L19251 23681
" />
<path d="M19153 18070
L19251 18070
" />
<path d="M13641 23681
L13641 18070
" />
<path d="M19153 23681
L13641 23681
" />
<path d="M13641 18070
L19153 18070
" />
<path d="M13641 16200
L13641 10590
" />
<path d="M19251 16200
L13641 16200
" />
<path d="M19251 10590
L19251 16200
" />
<path d="M13641 10590
L19251 10590
" />
<path d="M50172 6296
L50255 29291
" />
<path d="M29980 40902.8 A23180.1 23180.1 0.0 0 0 12675.1 32691.5" />
<path d="M52176.6 50257 A24733.8 24733.8 0.0 0 0 29980 40902.8" />
<path d="M52176.6 50257 A17575.1 17575.1 0.0 0 0 60357 43348.1" />
<path d="M12657 9269
L12675 32691
" />
<path d="M50172.2 6296.75 A36896.2 36896.2 0.0 0 0 12657.3 9269.97" />
<g >
</g>
<g >
</g>
<g >
</g>
<g >
</g>
<g >
</g>
</g> 
</svg>
