<?xml version="1.0" standalone="no"?>
 <!DOCTYPE svg PUBLIC "-//W3C//DTD SVG 1.1//EN" 
 "http://www.w3.org/Graphics/SVG/1.1/DTD/svg11.dtd"> 
<svg
  xmlns:svg="http://www.w3.org/2000/svg"
  xmlns="http://www.w3.org/2000/svg"
  xmlns:xlink="http://www.w3.org/1999/xlink"
  version="1.1"
  width="4.185920cm" height="6.560820cm" viewBox="0 0 16480 25830">
<title>SVG Picture created as split_3x_cover-brd.svg date 2020/11/24 13:04:41 </title>
  <desc>Picture generated by PCBNEW </desc>
<g style="fill:#000000; fill-opacity:1;stroke:#000000; stroke-opacity:1;
stroke-linecap:round; stroke-linejoin:round;"
 transform="translate(0 0) scale(1 1)">
</g>
<g style="fill:#000000; fill-opacity:0.0; 
stroke:#000000; stroke-width:-0.000393701; stroke-opacity:1; 
stroke-linecap:round; stroke-linejoin:round;">
<g >
</g>
<g style="fill:#000000; fill-opacity:1.0; 
stroke:#000000; stroke-width:0; stroke-opacity:1; 
stroke-linecap:round; stroke-linejoin:round;">
<circle cx="3713.44" cy="1680.86" r="433.071" /> 
</g>
<g style="fill:#000000; fill-opacity:1.0; 
stroke:#000000; stroke-width:39.3701; stroke-opacity:1; 
stroke-linecap:round; stroke-linejoin:round;">
</g>
<g >
</g>
<g style="fill:#000000; fill-opacity:1.0; 
stroke:#000000; stroke-width:39.3701; stroke-opacity:1; 
stroke-linecap:round; stroke-linejoin:round;">
</g>
<g style="fill:#000000; fill-opacity:1.0; 
stroke:#000000; stroke-width:0; stroke-opacity:1; 
stroke-linecap:round; stroke-linejoin:round;">
<circle cx="12768.6" cy="24220.2" r="433.071" /> 
</g>
<g style="fill:#000000; fill-opacity:1.0; 
stroke:#000000; stroke-width:39.3701; stroke-opacity:1; 
stroke-linecap:round; stroke-linejoin:round;">
</g>
<g >
</g>
<g style="fill:#000000; fill-opacity:1.0; 
stroke:#000000; stroke-width:39.3701; stroke-opacity:1; 
stroke-linecap:round; stroke-linejoin:round;">
</g>
<g style="fill:#000000; fill-opacity:1.0; 
stroke:#000000; stroke-width:0; stroke-opacity:1; 
stroke-linecap:round; stroke-linejoin:round;">
<circle cx="5878.8" cy="19791.1" r="433.071" /> 
</g>
<g style="fill:#000000; fill-opacity:1.0; 
stroke:#000000; stroke-width:39.3701; stroke-opacity:1; 
stroke-linecap:round; stroke-linejoin:round;">
</g>
<g >
</g>
<g >
</g>
<g >
</g>
</g>
<g style="fill:#000000; fill-opacity:1.0; 
stroke:#000000; stroke-width:39.3701; stroke-opacity:1; 
stroke-linecap:round; stroke-linejoin:round;">
</g>
<g style="fill:#000000; fill-opacity:0.0; 
stroke:#000000; stroke-width:19.685; stroke-opacity:1; 
stroke-linecap:round; stroke-linejoin:round;">
<path d="M5066.3 408.136 A379.821 379.821 0.0 0 0 4789.81 131.277" />
<path d="M2537.68 314.356 A266.55 266.55 0.0 0 0 2462.64 499.757" />
<path d="M4789.81 131.277 A3245.82 3245.82 0.0 0 0 2537.68 314.356" />
<path d="M13148 25533.4 A969.375 969.375 0.0 0 0 14441.8 25007.6" />
<path d="M3690 20008
L13148 25533
" />
<path d="M2433.91 17921 A2362.2 2362.2 0.0 0 0 3690.87 20008.7" />
<path d="M2462 499
L2433 17921
" />
<path d="M14441.8 6011.57 A1968.5 1968.5 0.0 0 0 12473.3 4043.06" />
<path d="M5366 2805
L5386 2861
" />
<path d="M5386.67 2861.96 A1181.1 1181.1 0.0 0 0 6567.77 4043.06" />
<path d="M14441 6011
L14441 25007
" />
<path d="M6567 4043
L12473 4043
" />
<path d="M5366.72 2805.16 A8652.69 8652.69 0.0 0 0 5066.3 408.135" />
<g >
</g>
<g >
</g>
<g >
</g>
<g >
</g>
</g> 
</svg>
