%TF.GenerationSoftware,KiCad,Pcbnew,5.1.7*%
%TF.CreationDate,2020-11-16T23:11:26+01:00*%
%TF.ProjectId,split_3x,73706c69-745f-4337-982e-6b696361645f,rev?*%
%TF.SameCoordinates,Original*%
%TF.FileFunction,Legend,Top*%
%TF.FilePolarity,Positive*%
%FSLAX46Y46*%
G04 Gerber Fmt 4.6, Leading zero omitted, Abs format (unit mm)*
G04 Created by KiCad (PCBNEW 5.1.7) date 2020-11-16 23:11:26*
%MOMM*%
%LPD*%
G01*
G04 APERTURE LIST*
%ADD10C,0.300000*%
%ADD11C,0.400000*%
%ADD12C,0.150000*%
%ADD13C,0.120000*%
%ADD14C,0.200000*%
G04 APERTURE END LIST*
D10*
X194428571Y-102464285D02*
X192928571Y-102464285D01*
X193500000Y-102464285D02*
X193428571Y-102321428D01*
X193428571Y-102035714D01*
X193500000Y-101892857D01*
X193571428Y-101821428D01*
X193714285Y-101750000D01*
X194142857Y-101750000D01*
X194285714Y-101821428D01*
X194357142Y-101892857D01*
X194428571Y-102035714D01*
X194428571Y-102321428D01*
X194357142Y-102464285D01*
X193428571Y-101250000D02*
X194428571Y-100892857D01*
X193428571Y-100535714D02*
X194428571Y-100892857D01*
X194785714Y-101035714D01*
X194857142Y-101107142D01*
X194928571Y-101250000D01*
X194428571Y-98821428D02*
X192928571Y-98821428D01*
X194000000Y-98321428D01*
X192928571Y-97821428D01*
X194428571Y-97821428D01*
X194428571Y-96464285D02*
X193642857Y-96464285D01*
X193500000Y-96535714D01*
X193428571Y-96678571D01*
X193428571Y-96964285D01*
X193500000Y-97107142D01*
X194357142Y-96464285D02*
X194428571Y-96607142D01*
X194428571Y-96964285D01*
X194357142Y-97107142D01*
X194214285Y-97178571D01*
X194071428Y-97178571D01*
X193928571Y-97107142D01*
X193857142Y-96964285D01*
X193857142Y-96607142D01*
X193785714Y-96464285D01*
X193428571Y-95750000D02*
X194428571Y-95750000D01*
X193571428Y-95750000D02*
X193500000Y-95678571D01*
X193428571Y-95535714D01*
X193428571Y-95321428D01*
X193500000Y-95178571D01*
X193642857Y-95107142D01*
X194428571Y-95107142D01*
X193428571Y-93750000D02*
X194642857Y-93750000D01*
X194785714Y-93821428D01*
X194857142Y-93892857D01*
X194928571Y-94035714D01*
X194928571Y-94250000D01*
X194857142Y-94392857D01*
X194357142Y-93750000D02*
X194428571Y-93892857D01*
X194428571Y-94178571D01*
X194357142Y-94321428D01*
X194285714Y-94392857D01*
X194142857Y-94464285D01*
X193714285Y-94464285D01*
X193571428Y-94392857D01*
X193500000Y-94321428D01*
X193428571Y-94178571D01*
X193428571Y-93892857D01*
X193500000Y-93750000D01*
X194428571Y-92821428D02*
X194357142Y-92964285D01*
X194285714Y-93035714D01*
X194142857Y-93107142D01*
X193714285Y-93107142D01*
X193571428Y-93035714D01*
X193500000Y-92964285D01*
X193428571Y-92821428D01*
X193428571Y-92607142D01*
X193500000Y-92464285D01*
X193571428Y-92392857D01*
X193714285Y-92321428D01*
X194142857Y-92321428D01*
X194285714Y-92392857D01*
X194357142Y-92464285D01*
X194428571Y-92607142D01*
X194428571Y-92821428D01*
X194428571Y-90535714D02*
X192928571Y-90535714D01*
X192928571Y-90035714D02*
X194428571Y-89535714D01*
X192928571Y-89035714D01*
X194285714Y-88535714D02*
X194357142Y-88464285D01*
X194428571Y-88535714D01*
X194357142Y-88607142D01*
X194285714Y-88535714D01*
X194428571Y-88535714D01*
D11*
X191107142Y-102545892D02*
X188107142Y-102170892D01*
X188107142Y-101694702D01*
X188250000Y-101426845D01*
X188535714Y-101272083D01*
X188821428Y-101212559D01*
X189392857Y-101188750D01*
X189821428Y-101242321D01*
X190392857Y-101408988D01*
X190678571Y-101539940D01*
X190964285Y-101766130D01*
X191107142Y-102069702D01*
X191107142Y-102545892D01*
X191107142Y-100545892D02*
X189107142Y-100295892D01*
X189678571Y-100367321D02*
X189392857Y-100236369D01*
X189250000Y-100123273D01*
X189107142Y-99914940D01*
X189107142Y-99724464D01*
X191107142Y-98450654D02*
X189535714Y-98254226D01*
X189250000Y-98313750D01*
X189107142Y-98486369D01*
X189107142Y-98867321D01*
X189250000Y-99075654D01*
X190964285Y-98432797D02*
X191107142Y-98641130D01*
X191107142Y-99117321D01*
X190964285Y-99289940D01*
X190678571Y-99349464D01*
X190392857Y-99313750D01*
X190107142Y-99182797D01*
X189964285Y-98974464D01*
X189964285Y-98498273D01*
X189821428Y-98289940D01*
X190964285Y-96623273D02*
X191107142Y-96831607D01*
X191107142Y-97212559D01*
X190964285Y-97385178D01*
X190821428Y-97462559D01*
X190535714Y-97522083D01*
X189678571Y-97414940D01*
X189392857Y-97283988D01*
X189250000Y-97170892D01*
X189107142Y-96962559D01*
X189107142Y-96581607D01*
X189250000Y-96408988D01*
X189107142Y-94676845D02*
X191107142Y-94926845D01*
X189107142Y-95533988D02*
X190678571Y-95730416D01*
X190964285Y-95670892D01*
X191107142Y-95498273D01*
X191107142Y-95212559D01*
X190964285Y-95004226D01*
X190821428Y-94891130D01*
X191107142Y-93022083D02*
X191107142Y-93974464D01*
X188107142Y-93599464D01*
X191107142Y-91498273D02*
X189535714Y-91301845D01*
X189250000Y-91361369D01*
X189107142Y-91533988D01*
X189107142Y-91914940D01*
X189250000Y-92123273D01*
X190964285Y-91480416D02*
X191107142Y-91688750D01*
X191107142Y-92164940D01*
X190964285Y-92337559D01*
X190678571Y-92397083D01*
X190392857Y-92361369D01*
X190107142Y-92230416D01*
X189964285Y-92022083D01*
X189964285Y-91545892D01*
X189821428Y-91337559D01*
X191107142Y-89688750D02*
X188107142Y-89313750D01*
X190964285Y-89670892D02*
X191107142Y-89879226D01*
X191107142Y-90260178D01*
X190964285Y-90432797D01*
X190821428Y-90510178D01*
X190535714Y-90569702D01*
X189678571Y-90462559D01*
X189392857Y-90331607D01*
X189250000Y-90218511D01*
X189107142Y-90010178D01*
X189107142Y-89629226D01*
X189250000Y-89456607D01*
X188107142Y-87028035D02*
X191107142Y-86069702D01*
X188107142Y-85694702D02*
X191107142Y-87403035D01*
X188107142Y-85123273D02*
X191107142Y-84164940D01*
X188107142Y-83789940D02*
X191107142Y-85498273D01*
X188107142Y-83218511D02*
X191107142Y-82260178D01*
X188107142Y-81885178D02*
X191107142Y-83593511D01*
X191107142Y-81498273D02*
X188107142Y-81123273D01*
X191107142Y-80545892D02*
X188107142Y-80170892D01*
D12*
%TO.C,U1*%
X199017565Y-107148245D02*
X201557565Y-107148245D01*
X186317565Y-76668245D02*
X183777565Y-76668245D01*
X183777565Y-76668245D02*
X183777565Y-107148245D01*
X183777565Y-74128245D02*
X183777565Y-107148245D01*
X201557565Y-74128245D02*
X183777565Y-74128245D01*
X183777565Y-107148245D02*
X186317565Y-107148245D01*
X201557565Y-76668245D02*
X199017565Y-76668245D01*
X201557565Y-107148245D02*
X201557565Y-74128245D01*
X199017565Y-76668245D02*
X199017565Y-107148245D01*
X186317565Y-107148245D02*
X186317565Y-76668245D01*
X201557565Y-107148245D02*
X201557565Y-76668245D01*
D13*
%TO.C,Brd1*%
X177895250Y-95186500D02*
X177895250Y-85407500D01*
X177895250Y-85407500D02*
X180308250Y-85407500D01*
X180308250Y-85407500D02*
X180308250Y-95186500D01*
X177895250Y-95186500D02*
X180308250Y-95186500D01*
D12*
%TO.C,U2*%
X202708375Y-136653887D02*
X204623688Y-131391608D01*
X202744303Y-130707568D02*
X204623688Y-131391608D01*
X200828990Y-135969846D02*
X202708375Y-136653887D01*
X202829808Y-130472644D02*
X191459527Y-126334201D01*
X200743485Y-136204769D02*
X189373204Y-132066326D01*
X189373204Y-132066326D02*
X191459527Y-126334201D01*
X200743485Y-136204769D02*
X202829808Y-130472644D01*
D14*
%TO.C,D19*%
X180758000Y-133500000D02*
X180885000Y-133500000D01*
X180123000Y-133500000D02*
X179869000Y-133500000D01*
X180631000Y-133881000D02*
X180631000Y-133119000D01*
X180123000Y-133119000D02*
X180123000Y-133881000D01*
X180631000Y-133500000D02*
X180123000Y-133119000D01*
X180123000Y-133881000D02*
X180631000Y-133500000D01*
D13*
X179107000Y-134350000D02*
X179107000Y-132650000D01*
X181774000Y-134350000D02*
X181774000Y-132650000D01*
X181647000Y-134350000D02*
X181647000Y-132650000D01*
X181750000Y-134350000D02*
X179200000Y-134350000D01*
X181750000Y-132650000D02*
X179200000Y-132650000D01*
X181750000Y-134350000D02*
X181750000Y-132650000D01*
D14*
%TO.C,D18*%
X171060750Y-108500000D02*
X170933750Y-108500000D01*
X171695750Y-108500000D02*
X171949750Y-108500000D01*
X171187750Y-108119000D02*
X171187750Y-108881000D01*
X171695750Y-108881000D02*
X171695750Y-108119000D01*
X171187750Y-108500000D02*
X171695750Y-108881000D01*
X171695750Y-108119000D02*
X171187750Y-108500000D01*
D13*
X172711750Y-107650000D02*
X172711750Y-109350000D01*
X170044750Y-107650000D02*
X170044750Y-109350000D01*
X170171750Y-107650000D02*
X170171750Y-109350000D01*
X170068750Y-107650000D02*
X172618750Y-107650000D01*
X170068750Y-109350000D02*
X172618750Y-109350000D01*
X170068750Y-107650000D02*
X170068750Y-109350000D01*
D14*
%TO.C,D17*%
X166060750Y-90512500D02*
X165933750Y-90512500D01*
X166695750Y-90512500D02*
X166949750Y-90512500D01*
X166187750Y-90131500D02*
X166187750Y-90893500D01*
X166695750Y-90893500D02*
X166695750Y-90131500D01*
X166187750Y-90512500D02*
X166695750Y-90893500D01*
X166695750Y-90131500D02*
X166187750Y-90512500D01*
D13*
X167711750Y-89662500D02*
X167711750Y-91362500D01*
X165044750Y-89662500D02*
X165044750Y-91362500D01*
X165171750Y-89662500D02*
X165171750Y-91362500D01*
X165068750Y-89662500D02*
X167618750Y-89662500D01*
X165068750Y-91362500D02*
X167618750Y-91362500D01*
X165068750Y-89662500D02*
X165068750Y-91362500D01*
D14*
%TO.C,D16*%
X171060750Y-71512500D02*
X170933750Y-71512500D01*
X171695750Y-71512500D02*
X171949750Y-71512500D01*
X171187750Y-71131500D02*
X171187750Y-71893500D01*
X171695750Y-71893500D02*
X171695750Y-71131500D01*
X171187750Y-71512500D02*
X171695750Y-71893500D01*
X171695750Y-71131500D02*
X171187750Y-71512500D01*
D13*
X172711750Y-70662500D02*
X172711750Y-72362500D01*
X170044750Y-70662500D02*
X170044750Y-72362500D01*
X170171750Y-70662500D02*
X170171750Y-72362500D01*
X170068750Y-70662500D02*
X172618750Y-70662500D01*
X170068750Y-72362500D02*
X172618750Y-72362500D01*
X170068750Y-70662500D02*
X170068750Y-72362500D01*
D14*
%TO.C,D15*%
X153250000Y-117758000D02*
X153250000Y-117885000D01*
X153250000Y-117123000D02*
X153250000Y-116869000D01*
X152869000Y-117631000D02*
X153631000Y-117631000D01*
X153631000Y-117123000D02*
X152869000Y-117123000D01*
X153250000Y-117631000D02*
X153631000Y-117123000D01*
X152869000Y-117123000D02*
X153250000Y-117631000D01*
D13*
X152400000Y-116107000D02*
X154100000Y-116107000D01*
X152400000Y-118774000D02*
X154100000Y-118774000D01*
X152400000Y-118647000D02*
X154100000Y-118647000D01*
X152400000Y-118750000D02*
X152400000Y-116200000D01*
X154100000Y-118750000D02*
X154100000Y-116200000D01*
X152400000Y-118750000D02*
X154100000Y-118750000D01*
D14*
%TO.C,D14*%
X152742000Y-107250000D02*
X152615000Y-107250000D01*
X153377000Y-107250000D02*
X153631000Y-107250000D01*
X152869000Y-106869000D02*
X152869000Y-107631000D01*
X153377000Y-107631000D02*
X153377000Y-106869000D01*
X152869000Y-107250000D02*
X153377000Y-107631000D01*
X153377000Y-106869000D02*
X152869000Y-107250000D01*
D13*
X154393000Y-106400000D02*
X154393000Y-108100000D01*
X151726000Y-106400000D02*
X151726000Y-108100000D01*
X151853000Y-106400000D02*
X151853000Y-108100000D01*
X151750000Y-106400000D02*
X154300000Y-106400000D01*
X151750000Y-108100000D02*
X154300000Y-108100000D01*
X151750000Y-106400000D02*
X151750000Y-108100000D01*
D14*
%TO.C,D13*%
X152060750Y-87512500D02*
X151933750Y-87512500D01*
X152695750Y-87512500D02*
X152949750Y-87512500D01*
X152187750Y-87131500D02*
X152187750Y-87893500D01*
X152695750Y-87893500D02*
X152695750Y-87131500D01*
X152187750Y-87512500D02*
X152695750Y-87893500D01*
X152695750Y-87131500D02*
X152187750Y-87512500D01*
D13*
X153711750Y-86662500D02*
X153711750Y-88362500D01*
X151044750Y-86662500D02*
X151044750Y-88362500D01*
X151171750Y-86662500D02*
X151171750Y-88362500D01*
X151068750Y-86662500D02*
X153618750Y-86662500D01*
X151068750Y-88362500D02*
X153618750Y-88362500D01*
X151068750Y-86662500D02*
X151068750Y-88362500D01*
D14*
%TO.C,D12*%
X153479500Y-64293750D02*
X153352500Y-64293750D01*
X154114500Y-64293750D02*
X154368500Y-64293750D01*
X153606500Y-63912750D02*
X153606500Y-64674750D01*
X154114500Y-64674750D02*
X154114500Y-63912750D01*
X153606500Y-64293750D02*
X154114500Y-64674750D01*
X154114500Y-63912750D02*
X153606500Y-64293750D01*
D13*
X155130500Y-63443750D02*
X155130500Y-65143750D01*
X152463500Y-63443750D02*
X152463500Y-65143750D01*
X152590500Y-63443750D02*
X152590500Y-65143750D01*
X152487500Y-63443750D02*
X155037500Y-63443750D01*
X152487500Y-65143750D02*
X155037500Y-65143750D01*
X152487500Y-63443750D02*
X152487500Y-65143750D01*
%TO.C,D11*%
X148400000Y-118750000D02*
X150100000Y-118750000D01*
X150100000Y-118750000D02*
X150100000Y-116200000D01*
X148400000Y-118750000D02*
X148400000Y-116200000D01*
X148400000Y-118647000D02*
X150100000Y-118647000D01*
X148400000Y-118774000D02*
X150100000Y-118774000D01*
X148400000Y-116107000D02*
X150100000Y-116107000D01*
D14*
X148869000Y-117123000D02*
X149250000Y-117631000D01*
X149250000Y-117631000D02*
X149631000Y-117123000D01*
X149631000Y-117123000D02*
X148869000Y-117123000D01*
X148869000Y-117631000D02*
X149631000Y-117631000D01*
X149250000Y-117123000D02*
X149250000Y-116869000D01*
X149250000Y-117758000D02*
X149250000Y-117885000D01*
%TO.C,D10*%
X132992000Y-100250000D02*
X132865000Y-100250000D01*
X133627000Y-100250000D02*
X133881000Y-100250000D01*
X133119000Y-99869000D02*
X133119000Y-100631000D01*
X133627000Y-100631000D02*
X133627000Y-99869000D01*
X133119000Y-100250000D02*
X133627000Y-100631000D01*
X133627000Y-99869000D02*
X133119000Y-100250000D01*
D13*
X134643000Y-99400000D02*
X134643000Y-101100000D01*
X131976000Y-99400000D02*
X131976000Y-101100000D01*
X132103000Y-99400000D02*
X132103000Y-101100000D01*
X132000000Y-99400000D02*
X134550000Y-99400000D01*
X132000000Y-101100000D02*
X134550000Y-101100000D01*
X132000000Y-99400000D02*
X132000000Y-101100000D01*
D14*
%TO.C,D9*%
X133060750Y-80512500D02*
X132933750Y-80512500D01*
X133695750Y-80512500D02*
X133949750Y-80512500D01*
X133187750Y-80131500D02*
X133187750Y-80893500D01*
X133695750Y-80893500D02*
X133695750Y-80131500D01*
X133187750Y-80512500D02*
X133695750Y-80893500D01*
X133695750Y-80131500D02*
X133187750Y-80512500D01*
D13*
X134711750Y-79662500D02*
X134711750Y-81362500D01*
X132044750Y-79662500D02*
X132044750Y-81362500D01*
X132171750Y-79662500D02*
X132171750Y-81362500D01*
X132068750Y-79662500D02*
X134618750Y-79662500D01*
X132068750Y-81362500D02*
X134618750Y-81362500D01*
X132068750Y-79662500D02*
X132068750Y-81362500D01*
D14*
%TO.C,D8*%
X133060750Y-61512500D02*
X132933750Y-61512500D01*
X133695750Y-61512500D02*
X133949750Y-61512500D01*
X133187750Y-61131500D02*
X133187750Y-61893500D01*
X133695750Y-61893500D02*
X133695750Y-61131500D01*
X133187750Y-61512500D02*
X133695750Y-61893500D01*
X133695750Y-61131500D02*
X133187750Y-61512500D01*
D13*
X134711750Y-60662500D02*
X134711750Y-62362500D01*
X132044750Y-60662500D02*
X132044750Y-62362500D01*
X132171750Y-60662500D02*
X132171750Y-62362500D01*
X132068750Y-60662500D02*
X134618750Y-60662500D01*
X132068750Y-62362500D02*
X134618750Y-62362500D01*
X132068750Y-60662500D02*
X132068750Y-62362500D01*
D14*
%TO.C,D7*%
X191076750Y-120512500D02*
X191203750Y-120512500D01*
X190441750Y-120512500D02*
X190187750Y-120512500D01*
X190949750Y-120893500D02*
X190949750Y-120131500D01*
X190441750Y-120131500D02*
X190441750Y-120893500D01*
X190949750Y-120512500D02*
X190441750Y-120131500D01*
X190441750Y-120893500D02*
X190949750Y-120512500D01*
D13*
X189425750Y-121362500D02*
X189425750Y-119662500D01*
X192092750Y-121362500D02*
X192092750Y-119662500D01*
X191965750Y-121362500D02*
X191965750Y-119662500D01*
X192068750Y-121362500D02*
X189518750Y-121362500D01*
X192068750Y-119662500D02*
X189518750Y-119662500D01*
X192068750Y-121362500D02*
X192068750Y-119662500D01*
D14*
%TO.C,D6*%
X114992000Y-105500000D02*
X114865000Y-105500000D01*
X115627000Y-105500000D02*
X115881000Y-105500000D01*
X115119000Y-105119000D02*
X115119000Y-105881000D01*
X115627000Y-105881000D02*
X115627000Y-105119000D01*
X115119000Y-105500000D02*
X115627000Y-105881000D01*
X115627000Y-105119000D02*
X115119000Y-105500000D01*
D13*
X116643000Y-104650000D02*
X116643000Y-106350000D01*
X113976000Y-104650000D02*
X113976000Y-106350000D01*
X114103000Y-104650000D02*
X114103000Y-106350000D01*
X114000000Y-104650000D02*
X116550000Y-104650000D01*
X114000000Y-106350000D02*
X116550000Y-106350000D01*
X114000000Y-104650000D02*
X114000000Y-106350000D01*
D14*
%TO.C,D5*%
X114060750Y-86512500D02*
X113933750Y-86512500D01*
X114695750Y-86512500D02*
X114949750Y-86512500D01*
X114187750Y-86131500D02*
X114187750Y-86893500D01*
X114695750Y-86893500D02*
X114695750Y-86131500D01*
X114187750Y-86512500D02*
X114695750Y-86893500D01*
X114695750Y-86131500D02*
X114187750Y-86512500D01*
D13*
X115711750Y-85662500D02*
X115711750Y-87362500D01*
X113044750Y-85662500D02*
X113044750Y-87362500D01*
X113171750Y-85662500D02*
X113171750Y-87362500D01*
X113068750Y-85662500D02*
X115618750Y-85662500D01*
X113068750Y-87362500D02*
X115618750Y-87362500D01*
X113068750Y-85662500D02*
X113068750Y-87362500D01*
D14*
%TO.C,D4*%
X114010750Y-67512500D02*
X113883750Y-67512500D01*
X114645750Y-67512500D02*
X114899750Y-67512500D01*
X114137750Y-67131500D02*
X114137750Y-67893500D01*
X114645750Y-67893500D02*
X114645750Y-67131500D01*
X114137750Y-67512500D02*
X114645750Y-67893500D01*
X114645750Y-67131500D02*
X114137750Y-67512500D01*
D13*
X115661750Y-66662500D02*
X115661750Y-68362500D01*
X112994750Y-66662500D02*
X112994750Y-68362500D01*
X113121750Y-66662500D02*
X113121750Y-68362500D01*
X113018750Y-66662500D02*
X115568750Y-66662500D01*
X113018750Y-68362500D02*
X115568750Y-68362500D01*
X113018750Y-66662500D02*
X113018750Y-68362500D01*
D14*
%TO.C,D3*%
X95242000Y-117000000D02*
X95115000Y-117000000D01*
X95877000Y-117000000D02*
X96131000Y-117000000D01*
X95369000Y-116619000D02*
X95369000Y-117381000D01*
X95877000Y-117381000D02*
X95877000Y-116619000D01*
X95369000Y-117000000D02*
X95877000Y-117381000D01*
X95877000Y-116619000D02*
X95369000Y-117000000D01*
D13*
X96893000Y-116150000D02*
X96893000Y-117850000D01*
X94226000Y-116150000D02*
X94226000Y-117850000D01*
X94353000Y-116150000D02*
X94353000Y-117850000D01*
X94250000Y-116150000D02*
X96800000Y-116150000D01*
X94250000Y-117850000D02*
X96800000Y-117850000D01*
X94250000Y-116150000D02*
X94250000Y-117850000D01*
D14*
%TO.C,D2*%
X95060750Y-98512500D02*
X94933750Y-98512500D01*
X95695750Y-98512500D02*
X95949750Y-98512500D01*
X95187750Y-98131500D02*
X95187750Y-98893500D01*
X95695750Y-98893500D02*
X95695750Y-98131500D01*
X95187750Y-98512500D02*
X95695750Y-98893500D01*
X95695750Y-98131500D02*
X95187750Y-98512500D01*
D13*
X96711750Y-97662500D02*
X96711750Y-99362500D01*
X94044750Y-97662500D02*
X94044750Y-99362500D01*
X94171750Y-97662500D02*
X94171750Y-99362500D01*
X94068750Y-97662500D02*
X96618750Y-97662500D01*
X94068750Y-99362500D02*
X96618750Y-99362500D01*
X94068750Y-97662500D02*
X94068750Y-99362500D01*
D14*
%TO.C,D1*%
X95060750Y-79512500D02*
X94933750Y-79512500D01*
X95695750Y-79512500D02*
X95949750Y-79512500D01*
X95187750Y-79131500D02*
X95187750Y-79893500D01*
X95695750Y-79893500D02*
X95695750Y-79131500D01*
X95187750Y-79512500D02*
X95695750Y-79893500D01*
X95695750Y-79131500D02*
X95187750Y-79512500D01*
D13*
X96711750Y-78662500D02*
X96711750Y-80362500D01*
X94044750Y-78662500D02*
X94044750Y-80362500D01*
X94171750Y-78662500D02*
X94171750Y-80362500D01*
X94068750Y-78662500D02*
X96618750Y-78662500D01*
X94068750Y-80362500D02*
X96618750Y-80362500D01*
X94068750Y-78662500D02*
X94068750Y-80362500D01*
D14*
%TO.C,D29*%
X188673311Y-113627329D02*
X191172671Y-109298311D01*
X191172436Y-109297436D02*
X195502564Y-111797436D01*
X192742756Y-115977564D02*
X193127564Y-115911057D01*
X193127564Y-115911057D02*
X195502564Y-111797436D01*
X192742756Y-115977564D02*
X188672436Y-113627564D01*
D12*
X191010705Y-114977564D02*
X194127564Y-114179006D01*
D14*
%TO.C,D28*%
X171085811Y-58835171D02*
X175414829Y-56335811D01*
X175415064Y-56334936D02*
X177915064Y-60665064D01*
X173434936Y-62905256D02*
X173801443Y-63040064D01*
X173801443Y-63040064D02*
X177915064Y-60665064D01*
X173434936Y-62905256D02*
X171084936Y-58834936D01*
D12*
X172434936Y-61173205D02*
X175533494Y-62040064D01*
D14*
%TO.C,D27*%
X142750640Y-50249360D02*
X142750640Y-45250640D01*
X142750000Y-45250000D02*
X147750000Y-45250000D01*
X147450000Y-50250000D02*
X147750000Y-50000000D01*
X147750000Y-50000000D02*
X147750000Y-45250000D01*
X147450000Y-50250000D02*
X142750000Y-50250000D01*
D12*
X145450000Y-50250000D02*
X147750000Y-48000000D01*
D14*
%TO.C,D26*%
X112069390Y-51011860D02*
X112069390Y-46013140D01*
X112068750Y-46012500D02*
X117068750Y-46012500D01*
X116768750Y-51012500D02*
X117068750Y-50762500D01*
X117068750Y-50762500D02*
X117068750Y-46012500D01*
X116768750Y-51012500D02*
X112068750Y-51012500D01*
D12*
X114768750Y-51012500D02*
X117068750Y-48762500D01*
D14*
%TO.C,D25*%
X92069390Y-61011860D02*
X92069390Y-56013140D01*
X92068750Y-56012500D02*
X97068750Y-56012500D01*
X96768750Y-61012500D02*
X97068750Y-60762500D01*
X97068750Y-60762500D02*
X97068750Y-56012500D01*
X96768750Y-61012500D02*
X92068750Y-61012500D01*
D12*
X94768750Y-61012500D02*
X97068750Y-58762500D01*
D14*
%TO.C,D24*%
X79500640Y-81499360D02*
X79500640Y-76500640D01*
X79500000Y-76500000D02*
X84500000Y-76500000D01*
X84200000Y-81500000D02*
X84500000Y-81250000D01*
X84500000Y-81250000D02*
X84500000Y-76500000D01*
X84200000Y-81500000D02*
X79500000Y-81500000D01*
D12*
X82200000Y-81500000D02*
X84500000Y-79250000D01*
D14*
%TO.C,D23*%
X84749360Y-95500640D02*
X84749360Y-100499360D01*
X84750000Y-100500000D02*
X79750000Y-100500000D01*
X80050000Y-95500000D02*
X79750000Y-95750000D01*
X79750000Y-95750000D02*
X79750000Y-100500000D01*
X80050000Y-95500000D02*
X84750000Y-95500000D01*
D12*
X82050000Y-95500000D02*
X79750000Y-97750000D01*
%TO.C,D22*%
X111923205Y-123515064D02*
X115040064Y-122716506D01*
D14*
X113655256Y-124515064D02*
X109584936Y-122165064D01*
X114040064Y-124448557D02*
X116415064Y-120334936D01*
X113655256Y-124515064D02*
X114040064Y-124448557D01*
X112084936Y-117834936D02*
X116415064Y-120334936D01*
X109585811Y-122164829D02*
X112085171Y-117835811D01*
%TO.C,D21*%
X149074951Y-123309038D02*
X153772212Y-125018701D01*
X153773032Y-125018319D02*
X152062931Y-129716782D01*
X147467074Y-127724773D02*
X147599391Y-128092186D01*
X147599391Y-128092186D02*
X152062931Y-129716782D01*
X147467074Y-127724773D02*
X149074569Y-123308218D01*
D12*
X148151114Y-125845388D02*
X149478776Y-128776227D01*
D14*
%TO.C,D20*%
X172260687Y-135991322D02*
X176089928Y-139204437D01*
X176090830Y-139204358D02*
X172876892Y-143034580D01*
X169239506Y-139590829D02*
X169238181Y-139981339D01*
X169238181Y-139981339D02*
X172876892Y-143034580D01*
X169239506Y-139590829D02*
X172260608Y-135990420D01*
D12*
X170525081Y-138058740D02*
X170770270Y-141266914D01*
D13*
%TO.C,SW4*%
X136920096Y-128881926D02*
X137904904Y-129055574D01*
X137499324Y-128476346D02*
X137325676Y-129461154D01*
X142812059Y-133474831D02*
X142395303Y-135838370D01*
X143645570Y-128747754D02*
X143194085Y-131308254D01*
X144444352Y-124217638D02*
X144027596Y-126581177D01*
X131033842Y-123680771D02*
X130686305Y-123924119D01*
X130442957Y-123576582D02*
X131033842Y-123680771D01*
X130686305Y-123924119D02*
X130442957Y-123576582D01*
X132429697Y-122099130D02*
X130380648Y-133719862D01*
X136467409Y-122811088D02*
X132429697Y-122099130D01*
X134418360Y-134431819D02*
X130380648Y-133719862D01*
X142395303Y-135838370D02*
X138357591Y-135126412D01*
X140406640Y-123505681D02*
X144444352Y-124217638D01*
X140412500Y-128968750D02*
G75*
G03*
X140412500Y-128968750I-3000000J0D01*
G01*
%TO.C,SW3*%
X178568750Y-120512500D02*
G75*
G03*
X178568750Y-120512500I-3000000J0D01*
G01*
X180250801Y-116402950D02*
X183801505Y-118452950D01*
X177901505Y-128672050D02*
X174350801Y-126622050D01*
X170886699Y-124622050D02*
X167335995Y-122572050D01*
X176786699Y-114402950D02*
X173235995Y-112352950D01*
X173235995Y-112352950D02*
X167335995Y-122572050D01*
X170973559Y-113471603D02*
X170863752Y-113061796D01*
X170863752Y-113061796D02*
X171383367Y-113361796D01*
X171383367Y-113361796D02*
X170973559Y-113471603D01*
X183801505Y-118452950D02*
X182601505Y-120531411D01*
X181501505Y-122436667D02*
X180201505Y-124688333D01*
X179101505Y-126593589D02*
X177901505Y-128672050D01*
X175818750Y-120079487D02*
X175318750Y-120945513D01*
X175135737Y-120262500D02*
X176001763Y-120762500D01*
%TO.C,SW1*%
X204143750Y-115750000D02*
X204593750Y-115300000D01*
X204143750Y-112350000D02*
X204593750Y-112800000D01*
X199543750Y-112350000D02*
X199093750Y-112800000D01*
X199543750Y-115750000D02*
X199093750Y-115300000D01*
X200843750Y-111300000D02*
X202843750Y-111300000D01*
X204593750Y-115300000D02*
X204593750Y-112800000D01*
X200843750Y-116800000D02*
X202843750Y-116800000D01*
X199093750Y-115300000D02*
X199093750Y-112800000D01*
%TO.C,R2*%
X176795814Y-108777500D02*
X176341686Y-108777500D01*
X176795814Y-110247500D02*
X176341686Y-110247500D01*
%TO.C,R1*%
X176795814Y-105777500D02*
X176341686Y-105777500D01*
X176795814Y-107247500D02*
X176341686Y-107247500D01*
%TO.C,JP4*%
X173031250Y-95050000D02*
X173031250Y-94450000D01*
X175131250Y-95750000D02*
X173731250Y-95750000D01*
X175831250Y-94450000D02*
X175831250Y-95050000D01*
X173731250Y-93750000D02*
X175131250Y-93750000D01*
X175131250Y-93750000D02*
G75*
G02*
X175831250Y-94450000I0J-700000D01*
G01*
X175831250Y-95050000D02*
G75*
G02*
X175131250Y-95750000I-700000J0D01*
G01*
X173731250Y-95750000D02*
G75*
G02*
X173031250Y-95050000I0J700000D01*
G01*
X173031250Y-94450000D02*
G75*
G02*
X173731250Y-93750000I700000J0D01*
G01*
%TO.C,JP3*%
X173031250Y-91875000D02*
X173031250Y-91275000D01*
X175131250Y-92575000D02*
X173731250Y-92575000D01*
X175831250Y-91275000D02*
X175831250Y-91875000D01*
X173731250Y-90575000D02*
X175131250Y-90575000D01*
X175131250Y-90575000D02*
G75*
G02*
X175831250Y-91275000I0J-700000D01*
G01*
X175831250Y-91875000D02*
G75*
G02*
X175131250Y-92575000I-700000J0D01*
G01*
X173731250Y-92575000D02*
G75*
G02*
X173031250Y-91875000I0J700000D01*
G01*
X173031250Y-91275000D02*
G75*
G02*
X173731250Y-90575000I700000J0D01*
G01*
%TO.C,JP2*%
X173031250Y-88700000D02*
X173031250Y-88100000D01*
X175131250Y-89400000D02*
X173731250Y-89400000D01*
X175831250Y-88100000D02*
X175831250Y-88700000D01*
X173731250Y-87400000D02*
X175131250Y-87400000D01*
X175131250Y-87400000D02*
G75*
G02*
X175831250Y-88100000I0J-700000D01*
G01*
X175831250Y-88700000D02*
G75*
G02*
X175131250Y-89400000I-700000J0D01*
G01*
X173731250Y-89400000D02*
G75*
G02*
X173031250Y-88700000I0J700000D01*
G01*
X173031250Y-88100000D02*
G75*
G02*
X173731250Y-87400000I700000J0D01*
G01*
%TO.C,JP1*%
X173031250Y-85525000D02*
X173031250Y-84925000D01*
X175131250Y-86225000D02*
X173731250Y-86225000D01*
X175831250Y-84925000D02*
X175831250Y-85525000D01*
X173731250Y-84225000D02*
X175131250Y-84225000D01*
X175131250Y-84225000D02*
G75*
G02*
X175831250Y-84925000I0J-700000D01*
G01*
X175831250Y-85525000D02*
G75*
G02*
X175131250Y-86225000I-700000J0D01*
G01*
X173731250Y-86225000D02*
G75*
G02*
X173031250Y-85525000I0J700000D01*
G01*
X173031250Y-84925000D02*
G75*
G02*
X173731250Y-84225000I700000J0D01*
G01*
%TO.C,Brd1*%
D12*
X189888821Y-91654166D02*
X189936440Y-91511309D01*
X189984059Y-91463690D01*
X190079297Y-91416071D01*
X190222154Y-91416071D01*
X190317392Y-91463690D01*
X190365011Y-91511309D01*
X190412630Y-91606547D01*
X190412630Y-91987500D01*
X189412630Y-91987500D01*
X189412630Y-91654166D01*
X189460250Y-91558928D01*
X189507869Y-91511309D01*
X189603107Y-91463690D01*
X189698345Y-91463690D01*
X189793583Y-91511309D01*
X189841202Y-91558928D01*
X189888821Y-91654166D01*
X189888821Y-91987500D01*
X190412630Y-90987500D02*
X189745964Y-90987500D01*
X189936440Y-90987500D02*
X189841202Y-90939880D01*
X189793583Y-90892261D01*
X189745964Y-90797023D01*
X189745964Y-90701785D01*
X190412630Y-89939880D02*
X189412630Y-89939880D01*
X190365011Y-89939880D02*
X190412630Y-90035119D01*
X190412630Y-90225595D01*
X190365011Y-90320833D01*
X190317392Y-90368452D01*
X190222154Y-90416071D01*
X189936440Y-90416071D01*
X189841202Y-90368452D01*
X189793583Y-90320833D01*
X189745964Y-90225595D01*
X189745964Y-90035119D01*
X189793583Y-89939880D01*
X190412630Y-88939880D02*
X190412630Y-89511309D01*
X190412630Y-89225595D02*
X189412630Y-89225595D01*
X189555488Y-89320833D01*
X189650726Y-89416071D01*
X189698345Y-89511309D01*
%TO.C,U2*%
X194349024Y-129303945D02*
X194691044Y-128364253D01*
X195049022Y-128494546D01*
X195122230Y-128571867D01*
X195150691Y-128632901D01*
X195162865Y-128738682D01*
X195114005Y-128872924D01*
X195036684Y-128946132D01*
X194975650Y-128974592D01*
X194869869Y-128986766D01*
X194511891Y-128856473D01*
X195899220Y-128803993D02*
X195654920Y-129475202D01*
X195561313Y-129593157D01*
X195439245Y-129650078D01*
X195288717Y-129645966D01*
X195199222Y-129613392D01*
X196134966Y-129548574D02*
X196850923Y-129809161D01*
X197420628Y-129357740D02*
X198002342Y-129569467D01*
X197558818Y-129813438D01*
X197693060Y-129862298D01*
X197766267Y-129939619D01*
X197794728Y-130000653D01*
X197806902Y-130106434D01*
X197725469Y-130330170D01*
X197648148Y-130403378D01*
X197587114Y-130431839D01*
X197481333Y-130444013D01*
X197212849Y-130346293D01*
X197139641Y-130268972D01*
X197111181Y-130207938D01*
X198327747Y-129789255D02*
X198388781Y-129760794D01*
X198494562Y-129748620D01*
X198718298Y-129830053D01*
X198791506Y-129907374D01*
X198819967Y-129968408D01*
X198832141Y-130074189D01*
X198799567Y-130163684D01*
X198705960Y-130281639D01*
X197973553Y-130623166D01*
X198555267Y-130834893D01*
X199479002Y-130106927D02*
X199568496Y-130139500D01*
X199641704Y-130216821D01*
X199670165Y-130277855D01*
X199682339Y-130383636D01*
X199661939Y-130578912D01*
X199580506Y-130802648D01*
X199470612Y-130965350D01*
X199393291Y-131038558D01*
X199332257Y-131067019D01*
X199226476Y-131079193D01*
X199136982Y-131046619D01*
X199063774Y-130969299D01*
X199035313Y-130908265D01*
X199023139Y-130802484D01*
X199043539Y-130607208D01*
X199124972Y-130383472D01*
X199234866Y-130220769D01*
X199312187Y-130147561D01*
X199373221Y-130119101D01*
X199479002Y-130106927D01*
X199905911Y-131022436D02*
X200353383Y-131185303D01*
X199718696Y-131258346D02*
X200373947Y-130432660D01*
X200345158Y-131486360D01*
%TO.C, *%
%TO.C,REF\u002A\u002A*%
X189166666Y-142239880D02*
X188833333Y-141763690D01*
X188595238Y-142239880D02*
X188595238Y-141239880D01*
X188976190Y-141239880D01*
X189071428Y-141287500D01*
X189119047Y-141335119D01*
X189166666Y-141430357D01*
X189166666Y-141573214D01*
X189119047Y-141668452D01*
X189071428Y-141716071D01*
X188976190Y-141763690D01*
X188595238Y-141763690D01*
X189595238Y-141716071D02*
X189928571Y-141716071D01*
X190071428Y-142239880D02*
X189595238Y-142239880D01*
X189595238Y-141239880D01*
X190071428Y-141239880D01*
X190833333Y-141716071D02*
X190500000Y-141716071D01*
X190500000Y-142239880D02*
X190500000Y-141239880D01*
X190976190Y-141239880D01*
X191500000Y-141239880D02*
X191500000Y-141477976D01*
X191261904Y-141382738D02*
X191500000Y-141477976D01*
X191738095Y-141382738D01*
X191357142Y-141668452D02*
X191500000Y-141477976D01*
X191642857Y-141668452D01*
X192261904Y-141239880D02*
X192261904Y-141477976D01*
X192023809Y-141382738D02*
X192261904Y-141477976D01*
X192500000Y-141382738D01*
X192119047Y-141668452D02*
X192261904Y-141477976D01*
X192404761Y-141668452D01*
X119416666Y-127702380D02*
X119083333Y-127226190D01*
X118845238Y-127702380D02*
X118845238Y-126702380D01*
X119226190Y-126702380D01*
X119321428Y-126750000D01*
X119369047Y-126797619D01*
X119416666Y-126892857D01*
X119416666Y-127035714D01*
X119369047Y-127130952D01*
X119321428Y-127178571D01*
X119226190Y-127226190D01*
X118845238Y-127226190D01*
X119845238Y-127178571D02*
X120178571Y-127178571D01*
X120321428Y-127702380D02*
X119845238Y-127702380D01*
X119845238Y-126702380D01*
X120321428Y-126702380D01*
X121083333Y-127178571D02*
X120750000Y-127178571D01*
X120750000Y-127702380D02*
X120750000Y-126702380D01*
X121226190Y-126702380D01*
X121750000Y-126702380D02*
X121750000Y-126940476D01*
X121511904Y-126845238D02*
X121750000Y-126940476D01*
X121988095Y-126845238D01*
X121607142Y-127130952D02*
X121750000Y-126940476D01*
X121892857Y-127130952D01*
X122511904Y-126702380D02*
X122511904Y-126940476D01*
X122273809Y-126845238D02*
X122511904Y-126940476D01*
X122750000Y-126845238D01*
X122369047Y-127130952D02*
X122511904Y-126940476D01*
X122654761Y-127130952D01*
X133604166Y-69214880D02*
X133270833Y-68738690D01*
X133032738Y-69214880D02*
X133032738Y-68214880D01*
X133413690Y-68214880D01*
X133508928Y-68262500D01*
X133556547Y-68310119D01*
X133604166Y-68405357D01*
X133604166Y-68548214D01*
X133556547Y-68643452D01*
X133508928Y-68691071D01*
X133413690Y-68738690D01*
X133032738Y-68738690D01*
X134032738Y-68691071D02*
X134366071Y-68691071D01*
X134508928Y-69214880D02*
X134032738Y-69214880D01*
X134032738Y-68214880D01*
X134508928Y-68214880D01*
X135270833Y-68691071D02*
X134937500Y-68691071D01*
X134937500Y-69214880D02*
X134937500Y-68214880D01*
X135413690Y-68214880D01*
X135937500Y-68214880D02*
X135937500Y-68452976D01*
X135699404Y-68357738D02*
X135937500Y-68452976D01*
X136175595Y-68357738D01*
X135794642Y-68643452D02*
X135937500Y-68452976D01*
X136080357Y-68643452D01*
X136699404Y-68214880D02*
X136699404Y-68452976D01*
X136461309Y-68357738D02*
X136699404Y-68452976D01*
X136937500Y-68357738D01*
X136556547Y-68643452D02*
X136699404Y-68452976D01*
X136842261Y-68643452D01*
X95504166Y-86677380D02*
X95170833Y-86201190D01*
X94932738Y-86677380D02*
X94932738Y-85677380D01*
X95313690Y-85677380D01*
X95408928Y-85725000D01*
X95456547Y-85772619D01*
X95504166Y-85867857D01*
X95504166Y-86010714D01*
X95456547Y-86105952D01*
X95408928Y-86153571D01*
X95313690Y-86201190D01*
X94932738Y-86201190D01*
X95932738Y-86153571D02*
X96266071Y-86153571D01*
X96408928Y-86677380D02*
X95932738Y-86677380D01*
X95932738Y-85677380D01*
X96408928Y-85677380D01*
X97170833Y-86153571D02*
X96837500Y-86153571D01*
X96837500Y-86677380D02*
X96837500Y-85677380D01*
X97313690Y-85677380D01*
X97837500Y-85677380D02*
X97837500Y-85915476D01*
X97599404Y-85820238D02*
X97837500Y-85915476D01*
X98075595Y-85820238D01*
X97694642Y-86105952D02*
X97837500Y-85915476D01*
X97980357Y-86105952D01*
X98599404Y-85677380D02*
X98599404Y-85915476D01*
X98361309Y-85820238D02*
X98599404Y-85915476D01*
X98837500Y-85820238D01*
X98456547Y-86105952D02*
X98599404Y-85915476D01*
X98742261Y-86105952D01*
%TO.C, *%
%TO.C,D19*%
X179035714Y-135802380D02*
X179035714Y-134802380D01*
X179273809Y-134802380D01*
X179416666Y-134850000D01*
X179511904Y-134945238D01*
X179559523Y-135040476D01*
X179607142Y-135230952D01*
X179607142Y-135373809D01*
X179559523Y-135564285D01*
X179511904Y-135659523D01*
X179416666Y-135754761D01*
X179273809Y-135802380D01*
X179035714Y-135802380D01*
X180559523Y-135802380D02*
X179988095Y-135802380D01*
X180273809Y-135802380D02*
X180273809Y-134802380D01*
X180178571Y-134945238D01*
X180083333Y-135040476D01*
X179988095Y-135088095D01*
X181035714Y-135802380D02*
X181226190Y-135802380D01*
X181321428Y-135754761D01*
X181369047Y-135707142D01*
X181464285Y-135564285D01*
X181511904Y-135373809D01*
X181511904Y-134992857D01*
X181464285Y-134897619D01*
X181416666Y-134850000D01*
X181321428Y-134802380D01*
X181130952Y-134802380D01*
X181035714Y-134850000D01*
X180988095Y-134897619D01*
X180940476Y-134992857D01*
X180940476Y-135230952D01*
X180988095Y-135326190D01*
X181035714Y-135373809D01*
X181130952Y-135421428D01*
X181321428Y-135421428D01*
X181416666Y-135373809D01*
X181464285Y-135326190D01*
X181511904Y-135230952D01*
%TO.C,D18*%
X170354464Y-107102380D02*
X170354464Y-106102380D01*
X170592559Y-106102380D01*
X170735416Y-106150000D01*
X170830654Y-106245238D01*
X170878273Y-106340476D01*
X170925892Y-106530952D01*
X170925892Y-106673809D01*
X170878273Y-106864285D01*
X170830654Y-106959523D01*
X170735416Y-107054761D01*
X170592559Y-107102380D01*
X170354464Y-107102380D01*
X171878273Y-107102380D02*
X171306845Y-107102380D01*
X171592559Y-107102380D02*
X171592559Y-106102380D01*
X171497321Y-106245238D01*
X171402083Y-106340476D01*
X171306845Y-106388095D01*
X172449702Y-106530952D02*
X172354464Y-106483333D01*
X172306845Y-106435714D01*
X172259226Y-106340476D01*
X172259226Y-106292857D01*
X172306845Y-106197619D01*
X172354464Y-106150000D01*
X172449702Y-106102380D01*
X172640178Y-106102380D01*
X172735416Y-106150000D01*
X172783035Y-106197619D01*
X172830654Y-106292857D01*
X172830654Y-106340476D01*
X172783035Y-106435714D01*
X172735416Y-106483333D01*
X172640178Y-106530952D01*
X172449702Y-106530952D01*
X172354464Y-106578571D01*
X172306845Y-106626190D01*
X172259226Y-106721428D01*
X172259226Y-106911904D01*
X172306845Y-107007142D01*
X172354464Y-107054761D01*
X172449702Y-107102380D01*
X172640178Y-107102380D01*
X172735416Y-107054761D01*
X172783035Y-107007142D01*
X172830654Y-106911904D01*
X172830654Y-106721428D01*
X172783035Y-106626190D01*
X172735416Y-106578571D01*
X172640178Y-106530952D01*
%TO.C,D17*%
X165354464Y-89114880D02*
X165354464Y-88114880D01*
X165592559Y-88114880D01*
X165735416Y-88162500D01*
X165830654Y-88257738D01*
X165878273Y-88352976D01*
X165925892Y-88543452D01*
X165925892Y-88686309D01*
X165878273Y-88876785D01*
X165830654Y-88972023D01*
X165735416Y-89067261D01*
X165592559Y-89114880D01*
X165354464Y-89114880D01*
X166878273Y-89114880D02*
X166306845Y-89114880D01*
X166592559Y-89114880D02*
X166592559Y-88114880D01*
X166497321Y-88257738D01*
X166402083Y-88352976D01*
X166306845Y-88400595D01*
X167211607Y-88114880D02*
X167878273Y-88114880D01*
X167449702Y-89114880D01*
%TO.C,D16*%
X170354464Y-70114880D02*
X170354464Y-69114880D01*
X170592559Y-69114880D01*
X170735416Y-69162500D01*
X170830654Y-69257738D01*
X170878273Y-69352976D01*
X170925892Y-69543452D01*
X170925892Y-69686309D01*
X170878273Y-69876785D01*
X170830654Y-69972023D01*
X170735416Y-70067261D01*
X170592559Y-70114880D01*
X170354464Y-70114880D01*
X171878273Y-70114880D02*
X171306845Y-70114880D01*
X171592559Y-70114880D02*
X171592559Y-69114880D01*
X171497321Y-69257738D01*
X171402083Y-69352976D01*
X171306845Y-69400595D01*
X172735416Y-69114880D02*
X172544940Y-69114880D01*
X172449702Y-69162500D01*
X172402083Y-69210119D01*
X172306845Y-69352976D01*
X172259226Y-69543452D01*
X172259226Y-69924404D01*
X172306845Y-70019642D01*
X172354464Y-70067261D01*
X172449702Y-70114880D01*
X172640178Y-70114880D01*
X172735416Y-70067261D01*
X172783035Y-70019642D01*
X172830654Y-69924404D01*
X172830654Y-69686309D01*
X172783035Y-69591071D01*
X172735416Y-69543452D01*
X172640178Y-69495833D01*
X172449702Y-69495833D01*
X172354464Y-69543452D01*
X172306845Y-69591071D01*
X172259226Y-69686309D01*
%TO.C,D15*%
X151852380Y-118464285D02*
X150852380Y-118464285D01*
X150852380Y-118226190D01*
X150900000Y-118083333D01*
X150995238Y-117988095D01*
X151090476Y-117940476D01*
X151280952Y-117892857D01*
X151423809Y-117892857D01*
X151614285Y-117940476D01*
X151709523Y-117988095D01*
X151804761Y-118083333D01*
X151852380Y-118226190D01*
X151852380Y-118464285D01*
X151852380Y-116940476D02*
X151852380Y-117511904D01*
X151852380Y-117226190D02*
X150852380Y-117226190D01*
X150995238Y-117321428D01*
X151090476Y-117416666D01*
X151138095Y-117511904D01*
X150852380Y-116035714D02*
X150852380Y-116511904D01*
X151328571Y-116559523D01*
X151280952Y-116511904D01*
X151233333Y-116416666D01*
X151233333Y-116178571D01*
X151280952Y-116083333D01*
X151328571Y-116035714D01*
X151423809Y-115988095D01*
X151661904Y-115988095D01*
X151757142Y-116035714D01*
X151804761Y-116083333D01*
X151852380Y-116178571D01*
X151852380Y-116416666D01*
X151804761Y-116511904D01*
X151757142Y-116559523D01*
%TO.C,D14*%
X152035714Y-105852380D02*
X152035714Y-104852380D01*
X152273809Y-104852380D01*
X152416666Y-104900000D01*
X152511904Y-104995238D01*
X152559523Y-105090476D01*
X152607142Y-105280952D01*
X152607142Y-105423809D01*
X152559523Y-105614285D01*
X152511904Y-105709523D01*
X152416666Y-105804761D01*
X152273809Y-105852380D01*
X152035714Y-105852380D01*
X153559523Y-105852380D02*
X152988095Y-105852380D01*
X153273809Y-105852380D02*
X153273809Y-104852380D01*
X153178571Y-104995238D01*
X153083333Y-105090476D01*
X152988095Y-105138095D01*
X154416666Y-105185714D02*
X154416666Y-105852380D01*
X154178571Y-104804761D02*
X153940476Y-105519047D01*
X154559523Y-105519047D01*
%TO.C,D13*%
X151354464Y-86114880D02*
X151354464Y-85114880D01*
X151592559Y-85114880D01*
X151735416Y-85162500D01*
X151830654Y-85257738D01*
X151878273Y-85352976D01*
X151925892Y-85543452D01*
X151925892Y-85686309D01*
X151878273Y-85876785D01*
X151830654Y-85972023D01*
X151735416Y-86067261D01*
X151592559Y-86114880D01*
X151354464Y-86114880D01*
X152878273Y-86114880D02*
X152306845Y-86114880D01*
X152592559Y-86114880D02*
X152592559Y-85114880D01*
X152497321Y-85257738D01*
X152402083Y-85352976D01*
X152306845Y-85400595D01*
X153211607Y-85114880D02*
X153830654Y-85114880D01*
X153497321Y-85495833D01*
X153640178Y-85495833D01*
X153735416Y-85543452D01*
X153783035Y-85591071D01*
X153830654Y-85686309D01*
X153830654Y-85924404D01*
X153783035Y-86019642D01*
X153735416Y-86067261D01*
X153640178Y-86114880D01*
X153354464Y-86114880D01*
X153259226Y-86067261D01*
X153211607Y-86019642D01*
%TO.C,D12*%
X152773214Y-62896130D02*
X152773214Y-61896130D01*
X153011309Y-61896130D01*
X153154166Y-61943750D01*
X153249404Y-62038988D01*
X153297023Y-62134226D01*
X153344642Y-62324702D01*
X153344642Y-62467559D01*
X153297023Y-62658035D01*
X153249404Y-62753273D01*
X153154166Y-62848511D01*
X153011309Y-62896130D01*
X152773214Y-62896130D01*
X154297023Y-62896130D02*
X153725595Y-62896130D01*
X154011309Y-62896130D02*
X154011309Y-61896130D01*
X153916071Y-62038988D01*
X153820833Y-62134226D01*
X153725595Y-62181845D01*
X154677976Y-61991369D02*
X154725595Y-61943750D01*
X154820833Y-61896130D01*
X155058928Y-61896130D01*
X155154166Y-61943750D01*
X155201785Y-61991369D01*
X155249404Y-62086607D01*
X155249404Y-62181845D01*
X155201785Y-62324702D01*
X154630357Y-62896130D01*
X155249404Y-62896130D01*
%TO.C,D11*%
X147852380Y-118464285D02*
X146852380Y-118464285D01*
X146852380Y-118226190D01*
X146900000Y-118083333D01*
X146995238Y-117988095D01*
X147090476Y-117940476D01*
X147280952Y-117892857D01*
X147423809Y-117892857D01*
X147614285Y-117940476D01*
X147709523Y-117988095D01*
X147804761Y-118083333D01*
X147852380Y-118226190D01*
X147852380Y-118464285D01*
X147852380Y-116940476D02*
X147852380Y-117511904D01*
X147852380Y-117226190D02*
X146852380Y-117226190D01*
X146995238Y-117321428D01*
X147090476Y-117416666D01*
X147138095Y-117511904D01*
X147852380Y-115988095D02*
X147852380Y-116559523D01*
X147852380Y-116273809D02*
X146852380Y-116273809D01*
X146995238Y-116369047D01*
X147090476Y-116464285D01*
X147138095Y-116559523D01*
%TO.C,D10*%
X132285714Y-98852380D02*
X132285714Y-97852380D01*
X132523809Y-97852380D01*
X132666666Y-97900000D01*
X132761904Y-97995238D01*
X132809523Y-98090476D01*
X132857142Y-98280952D01*
X132857142Y-98423809D01*
X132809523Y-98614285D01*
X132761904Y-98709523D01*
X132666666Y-98804761D01*
X132523809Y-98852380D01*
X132285714Y-98852380D01*
X133809523Y-98852380D02*
X133238095Y-98852380D01*
X133523809Y-98852380D02*
X133523809Y-97852380D01*
X133428571Y-97995238D01*
X133333333Y-98090476D01*
X133238095Y-98138095D01*
X134428571Y-97852380D02*
X134523809Y-97852380D01*
X134619047Y-97900000D01*
X134666666Y-97947619D01*
X134714285Y-98042857D01*
X134761904Y-98233333D01*
X134761904Y-98471428D01*
X134714285Y-98661904D01*
X134666666Y-98757142D01*
X134619047Y-98804761D01*
X134523809Y-98852380D01*
X134428571Y-98852380D01*
X134333333Y-98804761D01*
X134285714Y-98757142D01*
X134238095Y-98661904D01*
X134190476Y-98471428D01*
X134190476Y-98233333D01*
X134238095Y-98042857D01*
X134285714Y-97947619D01*
X134333333Y-97900000D01*
X134428571Y-97852380D01*
%TO.C,D9*%
X132830654Y-79114880D02*
X132830654Y-78114880D01*
X133068750Y-78114880D01*
X133211607Y-78162500D01*
X133306845Y-78257738D01*
X133354464Y-78352976D01*
X133402083Y-78543452D01*
X133402083Y-78686309D01*
X133354464Y-78876785D01*
X133306845Y-78972023D01*
X133211607Y-79067261D01*
X133068750Y-79114880D01*
X132830654Y-79114880D01*
X133878273Y-79114880D02*
X134068750Y-79114880D01*
X134163988Y-79067261D01*
X134211607Y-79019642D01*
X134306845Y-78876785D01*
X134354464Y-78686309D01*
X134354464Y-78305357D01*
X134306845Y-78210119D01*
X134259226Y-78162500D01*
X134163988Y-78114880D01*
X133973511Y-78114880D01*
X133878273Y-78162500D01*
X133830654Y-78210119D01*
X133783035Y-78305357D01*
X133783035Y-78543452D01*
X133830654Y-78638690D01*
X133878273Y-78686309D01*
X133973511Y-78733928D01*
X134163988Y-78733928D01*
X134259226Y-78686309D01*
X134306845Y-78638690D01*
X134354464Y-78543452D01*
%TO.C,D8*%
X132830654Y-60114880D02*
X132830654Y-59114880D01*
X133068750Y-59114880D01*
X133211607Y-59162500D01*
X133306845Y-59257738D01*
X133354464Y-59352976D01*
X133402083Y-59543452D01*
X133402083Y-59686309D01*
X133354464Y-59876785D01*
X133306845Y-59972023D01*
X133211607Y-60067261D01*
X133068750Y-60114880D01*
X132830654Y-60114880D01*
X133973511Y-59543452D02*
X133878273Y-59495833D01*
X133830654Y-59448214D01*
X133783035Y-59352976D01*
X133783035Y-59305357D01*
X133830654Y-59210119D01*
X133878273Y-59162500D01*
X133973511Y-59114880D01*
X134163988Y-59114880D01*
X134259226Y-59162500D01*
X134306845Y-59210119D01*
X134354464Y-59305357D01*
X134354464Y-59352976D01*
X134306845Y-59448214D01*
X134259226Y-59495833D01*
X134163988Y-59543452D01*
X133973511Y-59543452D01*
X133878273Y-59591071D01*
X133830654Y-59638690D01*
X133783035Y-59733928D01*
X133783035Y-59924404D01*
X133830654Y-60019642D01*
X133878273Y-60067261D01*
X133973511Y-60114880D01*
X134163988Y-60114880D01*
X134259226Y-60067261D01*
X134306845Y-60019642D01*
X134354464Y-59924404D01*
X134354464Y-59733928D01*
X134306845Y-59638690D01*
X134259226Y-59591071D01*
X134163988Y-59543452D01*
%TO.C,D7*%
X189830654Y-122814880D02*
X189830654Y-121814880D01*
X190068750Y-121814880D01*
X190211607Y-121862500D01*
X190306845Y-121957738D01*
X190354464Y-122052976D01*
X190402083Y-122243452D01*
X190402083Y-122386309D01*
X190354464Y-122576785D01*
X190306845Y-122672023D01*
X190211607Y-122767261D01*
X190068750Y-122814880D01*
X189830654Y-122814880D01*
X190735416Y-121814880D02*
X191402083Y-121814880D01*
X190973511Y-122814880D01*
%TO.C,D6*%
X114761904Y-104102380D02*
X114761904Y-103102380D01*
X115000000Y-103102380D01*
X115142857Y-103150000D01*
X115238095Y-103245238D01*
X115285714Y-103340476D01*
X115333333Y-103530952D01*
X115333333Y-103673809D01*
X115285714Y-103864285D01*
X115238095Y-103959523D01*
X115142857Y-104054761D01*
X115000000Y-104102380D01*
X114761904Y-104102380D01*
X116190476Y-103102380D02*
X116000000Y-103102380D01*
X115904761Y-103150000D01*
X115857142Y-103197619D01*
X115761904Y-103340476D01*
X115714285Y-103530952D01*
X115714285Y-103911904D01*
X115761904Y-104007142D01*
X115809523Y-104054761D01*
X115904761Y-104102380D01*
X116095238Y-104102380D01*
X116190476Y-104054761D01*
X116238095Y-104007142D01*
X116285714Y-103911904D01*
X116285714Y-103673809D01*
X116238095Y-103578571D01*
X116190476Y-103530952D01*
X116095238Y-103483333D01*
X115904761Y-103483333D01*
X115809523Y-103530952D01*
X115761904Y-103578571D01*
X115714285Y-103673809D01*
%TO.C,D5*%
X113830654Y-85114880D02*
X113830654Y-84114880D01*
X114068750Y-84114880D01*
X114211607Y-84162500D01*
X114306845Y-84257738D01*
X114354464Y-84352976D01*
X114402083Y-84543452D01*
X114402083Y-84686309D01*
X114354464Y-84876785D01*
X114306845Y-84972023D01*
X114211607Y-85067261D01*
X114068750Y-85114880D01*
X113830654Y-85114880D01*
X115306845Y-84114880D02*
X114830654Y-84114880D01*
X114783035Y-84591071D01*
X114830654Y-84543452D01*
X114925892Y-84495833D01*
X115163988Y-84495833D01*
X115259226Y-84543452D01*
X115306845Y-84591071D01*
X115354464Y-84686309D01*
X115354464Y-84924404D01*
X115306845Y-85019642D01*
X115259226Y-85067261D01*
X115163988Y-85114880D01*
X114925892Y-85114880D01*
X114830654Y-85067261D01*
X114783035Y-85019642D01*
%TO.C,D4*%
X113780654Y-66114880D02*
X113780654Y-65114880D01*
X114018750Y-65114880D01*
X114161607Y-65162500D01*
X114256845Y-65257738D01*
X114304464Y-65352976D01*
X114352083Y-65543452D01*
X114352083Y-65686309D01*
X114304464Y-65876785D01*
X114256845Y-65972023D01*
X114161607Y-66067261D01*
X114018750Y-66114880D01*
X113780654Y-66114880D01*
X115209226Y-65448214D02*
X115209226Y-66114880D01*
X114971130Y-65067261D02*
X114733035Y-65781547D01*
X115352083Y-65781547D01*
%TO.C,D3*%
X95011904Y-115602380D02*
X95011904Y-114602380D01*
X95250000Y-114602380D01*
X95392857Y-114650000D01*
X95488095Y-114745238D01*
X95535714Y-114840476D01*
X95583333Y-115030952D01*
X95583333Y-115173809D01*
X95535714Y-115364285D01*
X95488095Y-115459523D01*
X95392857Y-115554761D01*
X95250000Y-115602380D01*
X95011904Y-115602380D01*
X95916666Y-114602380D02*
X96535714Y-114602380D01*
X96202380Y-114983333D01*
X96345238Y-114983333D01*
X96440476Y-115030952D01*
X96488095Y-115078571D01*
X96535714Y-115173809D01*
X96535714Y-115411904D01*
X96488095Y-115507142D01*
X96440476Y-115554761D01*
X96345238Y-115602380D01*
X96059523Y-115602380D01*
X95964285Y-115554761D01*
X95916666Y-115507142D01*
%TO.C,D2*%
X94830654Y-97114880D02*
X94830654Y-96114880D01*
X95068750Y-96114880D01*
X95211607Y-96162500D01*
X95306845Y-96257738D01*
X95354464Y-96352976D01*
X95402083Y-96543452D01*
X95402083Y-96686309D01*
X95354464Y-96876785D01*
X95306845Y-96972023D01*
X95211607Y-97067261D01*
X95068750Y-97114880D01*
X94830654Y-97114880D01*
X95783035Y-96210119D02*
X95830654Y-96162500D01*
X95925892Y-96114880D01*
X96163988Y-96114880D01*
X96259226Y-96162500D01*
X96306845Y-96210119D01*
X96354464Y-96305357D01*
X96354464Y-96400595D01*
X96306845Y-96543452D01*
X95735416Y-97114880D01*
X96354464Y-97114880D01*
%TO.C,D1*%
X94830654Y-78114880D02*
X94830654Y-77114880D01*
X95068750Y-77114880D01*
X95211607Y-77162500D01*
X95306845Y-77257738D01*
X95354464Y-77352976D01*
X95402083Y-77543452D01*
X95402083Y-77686309D01*
X95354464Y-77876785D01*
X95306845Y-77972023D01*
X95211607Y-78067261D01*
X95068750Y-78114880D01*
X94830654Y-78114880D01*
X96354464Y-78114880D02*
X95783035Y-78114880D01*
X96068750Y-78114880D02*
X96068750Y-77114880D01*
X95973511Y-77257738D01*
X95878273Y-77352976D01*
X95783035Y-77400595D01*
%TO.C,D29*%
D14*
X192462745Y-109513983D02*
X192962745Y-108647958D01*
X193168941Y-108767005D01*
X193268850Y-108879673D01*
X193303709Y-109009771D01*
X193297329Y-109116059D01*
X193243331Y-109304826D01*
X193171902Y-109428544D01*
X193035425Y-109569691D01*
X192946566Y-109628360D01*
X192816469Y-109663220D01*
X192668941Y-109633031D01*
X192462745Y-109513983D01*
X193739912Y-109206627D02*
X193804961Y-109189197D01*
X193911249Y-109195577D01*
X194117445Y-109314624D01*
X194176114Y-109403483D01*
X194193544Y-109468531D01*
X194187164Y-109574820D01*
X194139545Y-109657298D01*
X194026877Y-109757207D01*
X193246292Y-109966364D01*
X193782403Y-110275888D01*
X194194796Y-110513983D02*
X194359753Y-110609221D01*
X194466041Y-110615601D01*
X194531090Y-110598171D01*
X194684997Y-110522072D01*
X194821474Y-110380925D01*
X195011951Y-110051010D01*
X195018330Y-109944722D01*
X195000900Y-109879673D01*
X194942231Y-109790815D01*
X194777274Y-109695577D01*
X194670986Y-109689197D01*
X194605937Y-109706627D01*
X194517079Y-109765296D01*
X194398031Y-109971492D01*
X194391651Y-110077780D01*
X194409081Y-110142829D01*
X194467750Y-110231688D01*
X194632708Y-110326926D01*
X194738996Y-110333305D01*
X194804045Y-110315876D01*
X194892903Y-110257207D01*
%TO.C,D28*%
X176424230Y-57167626D02*
X177290256Y-56667626D01*
X177409303Y-56873822D01*
X177439493Y-57021350D01*
X177404633Y-57151447D01*
X177345964Y-57240306D01*
X177204816Y-57376783D01*
X177081098Y-57448212D01*
X176892332Y-57502210D01*
X176786043Y-57508590D01*
X176655946Y-57473731D01*
X176543278Y-57373822D01*
X176424230Y-57167626D01*
X177683968Y-57540031D02*
X177749016Y-57557461D01*
X177837875Y-57616130D01*
X177956922Y-57822326D01*
X177963302Y-57928614D01*
X177945872Y-57993663D01*
X177887203Y-58082522D01*
X177804725Y-58130141D01*
X177657197Y-58160330D01*
X176876611Y-57951172D01*
X177186135Y-58487283D01*
X177966721Y-58696441D02*
X177960341Y-58590153D01*
X177977771Y-58525104D01*
X178036440Y-58436246D01*
X178077679Y-58412436D01*
X178183968Y-58406056D01*
X178249016Y-58423486D01*
X178337875Y-58482155D01*
X178433113Y-58647112D01*
X178439493Y-58753400D01*
X178422063Y-58818449D01*
X178363394Y-58907308D01*
X178322154Y-58931117D01*
X178215866Y-58937497D01*
X178150817Y-58920067D01*
X178061959Y-58861398D01*
X177966721Y-58696441D01*
X177877863Y-58637772D01*
X177812814Y-58620342D01*
X177706526Y-58626722D01*
X177541568Y-58721960D01*
X177482899Y-58810818D01*
X177465470Y-58875867D01*
X177471849Y-58982155D01*
X177567087Y-59147112D01*
X177655946Y-59205781D01*
X177720995Y-59223211D01*
X177827283Y-59216831D01*
X177992240Y-59121593D01*
X178050909Y-59032735D01*
X178068339Y-58967686D01*
X178061959Y-58861398D01*
%TO.C,D27*%
X143975714Y-44792380D02*
X143975714Y-43792380D01*
X144213809Y-43792380D01*
X144356666Y-43840000D01*
X144451904Y-43935238D01*
X144499523Y-44030476D01*
X144547142Y-44220952D01*
X144547142Y-44363809D01*
X144499523Y-44554285D01*
X144451904Y-44649523D01*
X144356666Y-44744761D01*
X144213809Y-44792380D01*
X143975714Y-44792380D01*
X144928095Y-43887619D02*
X144975714Y-43840000D01*
X145070952Y-43792380D01*
X145309047Y-43792380D01*
X145404285Y-43840000D01*
X145451904Y-43887619D01*
X145499523Y-43982857D01*
X145499523Y-44078095D01*
X145451904Y-44220952D01*
X144880476Y-44792380D01*
X145499523Y-44792380D01*
X145832857Y-43792380D02*
X146499523Y-43792380D01*
X146070952Y-44792380D01*
%TO.C,D26*%
X113294464Y-45554880D02*
X113294464Y-44554880D01*
X113532559Y-44554880D01*
X113675416Y-44602500D01*
X113770654Y-44697738D01*
X113818273Y-44792976D01*
X113865892Y-44983452D01*
X113865892Y-45126309D01*
X113818273Y-45316785D01*
X113770654Y-45412023D01*
X113675416Y-45507261D01*
X113532559Y-45554880D01*
X113294464Y-45554880D01*
X114246845Y-44650119D02*
X114294464Y-44602500D01*
X114389702Y-44554880D01*
X114627797Y-44554880D01*
X114723035Y-44602500D01*
X114770654Y-44650119D01*
X114818273Y-44745357D01*
X114818273Y-44840595D01*
X114770654Y-44983452D01*
X114199226Y-45554880D01*
X114818273Y-45554880D01*
X115675416Y-44554880D02*
X115484940Y-44554880D01*
X115389702Y-44602500D01*
X115342083Y-44650119D01*
X115246845Y-44792976D01*
X115199226Y-44983452D01*
X115199226Y-45364404D01*
X115246845Y-45459642D01*
X115294464Y-45507261D01*
X115389702Y-45554880D01*
X115580178Y-45554880D01*
X115675416Y-45507261D01*
X115723035Y-45459642D01*
X115770654Y-45364404D01*
X115770654Y-45126309D01*
X115723035Y-45031071D01*
X115675416Y-44983452D01*
X115580178Y-44935833D01*
X115389702Y-44935833D01*
X115294464Y-44983452D01*
X115246845Y-45031071D01*
X115199226Y-45126309D01*
%TO.C,D25*%
X93294464Y-55554880D02*
X93294464Y-54554880D01*
X93532559Y-54554880D01*
X93675416Y-54602500D01*
X93770654Y-54697738D01*
X93818273Y-54792976D01*
X93865892Y-54983452D01*
X93865892Y-55126309D01*
X93818273Y-55316785D01*
X93770654Y-55412023D01*
X93675416Y-55507261D01*
X93532559Y-55554880D01*
X93294464Y-55554880D01*
X94246845Y-54650119D02*
X94294464Y-54602500D01*
X94389702Y-54554880D01*
X94627797Y-54554880D01*
X94723035Y-54602500D01*
X94770654Y-54650119D01*
X94818273Y-54745357D01*
X94818273Y-54840595D01*
X94770654Y-54983452D01*
X94199226Y-55554880D01*
X94818273Y-55554880D01*
X95723035Y-54554880D02*
X95246845Y-54554880D01*
X95199226Y-55031071D01*
X95246845Y-54983452D01*
X95342083Y-54935833D01*
X95580178Y-54935833D01*
X95675416Y-54983452D01*
X95723035Y-55031071D01*
X95770654Y-55126309D01*
X95770654Y-55364404D01*
X95723035Y-55459642D01*
X95675416Y-55507261D01*
X95580178Y-55554880D01*
X95342083Y-55554880D01*
X95246845Y-55507261D01*
X95199226Y-55459642D01*
%TO.C,D24*%
X80725714Y-76042380D02*
X80725714Y-75042380D01*
X80963809Y-75042380D01*
X81106666Y-75090000D01*
X81201904Y-75185238D01*
X81249523Y-75280476D01*
X81297142Y-75470952D01*
X81297142Y-75613809D01*
X81249523Y-75804285D01*
X81201904Y-75899523D01*
X81106666Y-75994761D01*
X80963809Y-76042380D01*
X80725714Y-76042380D01*
X81678095Y-75137619D02*
X81725714Y-75090000D01*
X81820952Y-75042380D01*
X82059047Y-75042380D01*
X82154285Y-75090000D01*
X82201904Y-75137619D01*
X82249523Y-75232857D01*
X82249523Y-75328095D01*
X82201904Y-75470952D01*
X81630476Y-76042380D01*
X82249523Y-76042380D01*
X83106666Y-75375714D02*
X83106666Y-76042380D01*
X82868571Y-74994761D02*
X82630476Y-75709047D01*
X83249523Y-75709047D01*
%TO.C,D23*%
X81095714Y-101862380D02*
X81095714Y-100862380D01*
X81333809Y-100862380D01*
X81476666Y-100910000D01*
X81571904Y-101005238D01*
X81619523Y-101100476D01*
X81667142Y-101290952D01*
X81667142Y-101433809D01*
X81619523Y-101624285D01*
X81571904Y-101719523D01*
X81476666Y-101814761D01*
X81333809Y-101862380D01*
X81095714Y-101862380D01*
X82048095Y-100957619D02*
X82095714Y-100910000D01*
X82190952Y-100862380D01*
X82429047Y-100862380D01*
X82524285Y-100910000D01*
X82571904Y-100957619D01*
X82619523Y-101052857D01*
X82619523Y-101148095D01*
X82571904Y-101290952D01*
X82000476Y-101862380D01*
X82619523Y-101862380D01*
X82952857Y-100862380D02*
X83571904Y-100862380D01*
X83238571Y-101243333D01*
X83381428Y-101243333D01*
X83476666Y-101290952D01*
X83524285Y-101338571D01*
X83571904Y-101433809D01*
X83571904Y-101671904D01*
X83524285Y-101767142D01*
X83476666Y-101814761D01*
X83381428Y-101862380D01*
X83095714Y-101862380D01*
X83000476Y-101814761D01*
X82952857Y-101767142D01*
%TO.C,D22*%
X113375245Y-118051483D02*
X113875245Y-117185458D01*
X114081441Y-117304505D01*
X114181350Y-117417173D01*
X114216209Y-117547271D01*
X114209829Y-117653559D01*
X114155831Y-117842326D01*
X114084402Y-117966044D01*
X113947925Y-118107191D01*
X113859066Y-118165860D01*
X113728969Y-118200720D01*
X113581441Y-118170531D01*
X113375245Y-118051483D01*
X114652412Y-117744127D02*
X114717461Y-117726697D01*
X114823749Y-117733077D01*
X115029945Y-117852124D01*
X115088614Y-117940983D01*
X115106044Y-118006031D01*
X115099664Y-118112320D01*
X115052045Y-118194798D01*
X114939377Y-118294707D01*
X114158792Y-118503864D01*
X114694903Y-118813388D01*
X115477198Y-118220317D02*
X115542247Y-118202887D01*
X115648535Y-118209267D01*
X115854731Y-118328315D01*
X115913400Y-118417173D01*
X115930830Y-118482222D01*
X115924451Y-118588510D01*
X115876831Y-118670989D01*
X115764164Y-118770897D01*
X114983578Y-118980054D01*
X115519689Y-119289578D01*
%TO.C,D21*%
X153803411Y-128918185D02*
X152863719Y-128576165D01*
X152945152Y-128352429D01*
X153038759Y-128234474D01*
X153160827Y-128177552D01*
X153266608Y-128165379D01*
X153461884Y-128185778D01*
X153596126Y-128234638D01*
X153758828Y-128344532D01*
X153832036Y-128421853D01*
X153888957Y-128543920D01*
X153884845Y-128694449D01*
X153803411Y-128918185D01*
X153278947Y-127713793D02*
X153250486Y-127652759D01*
X153238312Y-127546978D01*
X153319746Y-127323242D01*
X153397066Y-127250034D01*
X153458100Y-127221573D01*
X153563881Y-127209399D01*
X153653376Y-127241973D01*
X153771331Y-127335580D01*
X154112858Y-128067987D01*
X154324585Y-127486273D01*
X154650318Y-126591327D02*
X154454878Y-127128295D01*
X154552598Y-126859811D02*
X153612906Y-126517791D01*
X153714574Y-126656145D01*
X153771495Y-126778213D01*
X153783669Y-126883994D01*
%TO.C,D20*%
X174785545Y-142879424D02*
X174019500Y-142236637D01*
X174172545Y-142054245D01*
X174300850Y-141975419D01*
X174435024Y-141963680D01*
X174538590Y-141988420D01*
X174715112Y-142074377D01*
X174824547Y-142166204D01*
X174939851Y-142325118D01*
X174982199Y-142422814D01*
X174993938Y-142556989D01*
X174938589Y-142697033D01*
X174785545Y-142879424D01*
X174704635Y-141568288D02*
X174698766Y-141501201D01*
X174723506Y-141397636D01*
X174876550Y-141215244D01*
X174974246Y-141172896D01*
X175041334Y-141167027D01*
X175144899Y-141191767D01*
X175217856Y-141252984D01*
X175296682Y-141381289D01*
X175367114Y-142186336D01*
X175765030Y-141712118D01*
X175396902Y-140595113D02*
X175458120Y-140522156D01*
X175555816Y-140479808D01*
X175622903Y-140473939D01*
X175726469Y-140498679D01*
X175902991Y-140584636D01*
X176085383Y-140737681D01*
X176200687Y-140896595D01*
X176243035Y-140994291D01*
X176248904Y-141061378D01*
X176224164Y-141164944D01*
X176162947Y-141237900D01*
X176065250Y-141280248D01*
X175998163Y-141286117D01*
X175894598Y-141261378D01*
X175718076Y-141175420D01*
X175535684Y-141022376D01*
X175420380Y-140863462D01*
X175378032Y-140765766D01*
X175372163Y-140698678D01*
X175396902Y-140595113D01*
%TO.C,SW1*%
D12*
X198377083Y-114983333D02*
X198410416Y-114883333D01*
X198410416Y-114716666D01*
X198377083Y-114650000D01*
X198343750Y-114616666D01*
X198277083Y-114583333D01*
X198210416Y-114583333D01*
X198143750Y-114616666D01*
X198110416Y-114650000D01*
X198077083Y-114716666D01*
X198043750Y-114850000D01*
X198010416Y-114916666D01*
X197977083Y-114950000D01*
X197910416Y-114983333D01*
X197843750Y-114983333D01*
X197777083Y-114950000D01*
X197743750Y-114916666D01*
X197710416Y-114850000D01*
X197710416Y-114683333D01*
X197743750Y-114583333D01*
X197710416Y-114350000D02*
X198410416Y-114183333D01*
X197910416Y-114050000D01*
X198410416Y-113916666D01*
X197710416Y-113750000D01*
X198410416Y-113116666D02*
X198410416Y-113516666D01*
X198410416Y-113316666D02*
X197710416Y-113316666D01*
X197810416Y-113383333D01*
X197877083Y-113450000D01*
X197910416Y-113516666D01*
%TO.C,R2*%
X176402083Y-111614880D02*
X176068750Y-111138690D01*
X175830654Y-111614880D02*
X175830654Y-110614880D01*
X176211607Y-110614880D01*
X176306845Y-110662500D01*
X176354464Y-110710119D01*
X176402083Y-110805357D01*
X176402083Y-110948214D01*
X176354464Y-111043452D01*
X176306845Y-111091071D01*
X176211607Y-111138690D01*
X175830654Y-111138690D01*
X176783035Y-110710119D02*
X176830654Y-110662500D01*
X176925892Y-110614880D01*
X177163988Y-110614880D01*
X177259226Y-110662500D01*
X177306845Y-110710119D01*
X177354464Y-110805357D01*
X177354464Y-110900595D01*
X177306845Y-111043452D01*
X176735416Y-111614880D01*
X177354464Y-111614880D01*
%TO.C,R1*%
X176402083Y-108614880D02*
X176068750Y-108138690D01*
X175830654Y-108614880D02*
X175830654Y-107614880D01*
X176211607Y-107614880D01*
X176306845Y-107662500D01*
X176354464Y-107710119D01*
X176402083Y-107805357D01*
X176402083Y-107948214D01*
X176354464Y-108043452D01*
X176306845Y-108091071D01*
X176211607Y-108138690D01*
X175830654Y-108138690D01*
X177354464Y-108614880D02*
X176783035Y-108614880D01*
X177068750Y-108614880D02*
X177068750Y-107614880D01*
X176973511Y-107757738D01*
X176878273Y-107852976D01*
X176783035Y-107900595D01*
%TO.C,JP4*%
X173597916Y-92402380D02*
X173597916Y-93116666D01*
X173550297Y-93259523D01*
X173455059Y-93354761D01*
X173312202Y-93402380D01*
X173216964Y-93402380D01*
X174074107Y-93402380D02*
X174074107Y-92402380D01*
X174455059Y-92402380D01*
X174550297Y-92450000D01*
X174597916Y-92497619D01*
X174645535Y-92592857D01*
X174645535Y-92735714D01*
X174597916Y-92830952D01*
X174550297Y-92878571D01*
X174455059Y-92926190D01*
X174074107Y-92926190D01*
X175502678Y-92735714D02*
X175502678Y-93402380D01*
X175264583Y-92354761D02*
X175026488Y-93069047D01*
X175645535Y-93069047D01*
%TO.C,JP3*%
X173597916Y-89227380D02*
X173597916Y-89941666D01*
X173550297Y-90084523D01*
X173455059Y-90179761D01*
X173312202Y-90227380D01*
X173216964Y-90227380D01*
X174074107Y-90227380D02*
X174074107Y-89227380D01*
X174455059Y-89227380D01*
X174550297Y-89275000D01*
X174597916Y-89322619D01*
X174645535Y-89417857D01*
X174645535Y-89560714D01*
X174597916Y-89655952D01*
X174550297Y-89703571D01*
X174455059Y-89751190D01*
X174074107Y-89751190D01*
X174978869Y-89227380D02*
X175597916Y-89227380D01*
X175264583Y-89608333D01*
X175407440Y-89608333D01*
X175502678Y-89655952D01*
X175550297Y-89703571D01*
X175597916Y-89798809D01*
X175597916Y-90036904D01*
X175550297Y-90132142D01*
X175502678Y-90179761D01*
X175407440Y-90227380D01*
X175121726Y-90227380D01*
X175026488Y-90179761D01*
X174978869Y-90132142D01*
%TO.C,JP2*%
X173597916Y-86052380D02*
X173597916Y-86766666D01*
X173550297Y-86909523D01*
X173455059Y-87004761D01*
X173312202Y-87052380D01*
X173216964Y-87052380D01*
X174074107Y-87052380D02*
X174074107Y-86052380D01*
X174455059Y-86052380D01*
X174550297Y-86100000D01*
X174597916Y-86147619D01*
X174645535Y-86242857D01*
X174645535Y-86385714D01*
X174597916Y-86480952D01*
X174550297Y-86528571D01*
X174455059Y-86576190D01*
X174074107Y-86576190D01*
X175026488Y-86147619D02*
X175074107Y-86100000D01*
X175169345Y-86052380D01*
X175407440Y-86052380D01*
X175502678Y-86100000D01*
X175550297Y-86147619D01*
X175597916Y-86242857D01*
X175597916Y-86338095D01*
X175550297Y-86480952D01*
X174978869Y-87052380D01*
X175597916Y-87052380D01*
%TO.C,JP1*%
X173597916Y-82877380D02*
X173597916Y-83591666D01*
X173550297Y-83734523D01*
X173455059Y-83829761D01*
X173312202Y-83877380D01*
X173216964Y-83877380D01*
X174074107Y-83877380D02*
X174074107Y-82877380D01*
X174455059Y-82877380D01*
X174550297Y-82925000D01*
X174597916Y-82972619D01*
X174645535Y-83067857D01*
X174645535Y-83210714D01*
X174597916Y-83305952D01*
X174550297Y-83353571D01*
X174455059Y-83401190D01*
X174074107Y-83401190D01*
X175597916Y-83877380D02*
X175026488Y-83877380D01*
X175312202Y-83877380D02*
X175312202Y-82877380D01*
X175216964Y-83020238D01*
X175121726Y-83115476D01*
X175026488Y-83163095D01*
%TD*%
M02*
