G04 #@! TF.GenerationSoftware,KiCad,Pcbnew,5.1.8*
G04 #@! TF.CreationDate,2021-01-07T10:58:40+01:00*
G04 #@! TF.ProjectId,split_3x,73706c69-745f-4337-982e-6b696361645f,rev?*
G04 #@! TF.SameCoordinates,Original*
G04 #@! TF.FileFunction,Legend,Top*
G04 #@! TF.FilePolarity,Positive*
%FSLAX46Y46*%
G04 Gerber Fmt 4.6, Leading zero omitted, Abs format (unit mm)*
G04 Created by KiCad (PCBNEW 5.1.8) date 2021-01-07 10:58:40*
%MOMM*%
%LPD*%
G01*
G04 APERTURE LIST*
%ADD10C,0.200000*%
%ADD11C,0.300000*%
%ADD12C,0.400000*%
%ADD13C,0.120000*%
%ADD14C,0.150000*%
G04 APERTURE END LIST*
D10*
X176022619Y-97385416D02*
X176022619Y-97575892D01*
X175975000Y-97671130D01*
X175879761Y-97766369D01*
X175689285Y-97813988D01*
X175355952Y-97813988D01*
X175165476Y-97766369D01*
X175070238Y-97671130D01*
X175022619Y-97575892D01*
X175022619Y-97385416D01*
X175070238Y-97290178D01*
X175165476Y-97194940D01*
X175355952Y-97147321D01*
X175689285Y-97147321D01*
X175879761Y-97194940D01*
X175975000Y-97290178D01*
X176022619Y-97385416D01*
X175022619Y-98718750D02*
X175022619Y-98242559D01*
X176022619Y-98242559D01*
X175546428Y-99052083D02*
X175546428Y-99385416D01*
X175022619Y-99528273D02*
X175022619Y-99052083D01*
X176022619Y-99052083D01*
X176022619Y-99528273D01*
X175022619Y-99956845D02*
X176022619Y-99956845D01*
X176022619Y-100194940D01*
X175975000Y-100337797D01*
X175879761Y-100433035D01*
X175784523Y-100480654D01*
X175594047Y-100528273D01*
X175451190Y-100528273D01*
X175260714Y-100480654D01*
X175165476Y-100433035D01*
X175070238Y-100337797D01*
X175022619Y-100194940D01*
X175022619Y-99956845D01*
X173989285Y-96504464D02*
X173132142Y-96504464D01*
X173036904Y-96456845D01*
X172989285Y-96361607D01*
X172989285Y-96313988D01*
X174322619Y-96504464D02*
X174275000Y-96456845D01*
X174227380Y-96504464D01*
X174275000Y-96552083D01*
X174322619Y-96504464D01*
X174227380Y-96504464D01*
X173989285Y-97409226D02*
X173322619Y-97409226D01*
X173989285Y-96980654D02*
X173465476Y-96980654D01*
X173370238Y-97028273D01*
X173322619Y-97123511D01*
X173322619Y-97266369D01*
X173370238Y-97361607D01*
X173417857Y-97409226D01*
X173322619Y-97885416D02*
X173989285Y-97885416D01*
X173894047Y-97885416D02*
X173941666Y-97933035D01*
X173989285Y-98028273D01*
X173989285Y-98171130D01*
X173941666Y-98266369D01*
X173846428Y-98313988D01*
X173322619Y-98313988D01*
X173846428Y-98313988D02*
X173941666Y-98361607D01*
X173989285Y-98456845D01*
X173989285Y-98599702D01*
X173941666Y-98694940D01*
X173846428Y-98742559D01*
X173322619Y-98742559D01*
X173989285Y-99218750D02*
X172989285Y-99218750D01*
X173941666Y-99218750D02*
X173989285Y-99313988D01*
X173989285Y-99504464D01*
X173941666Y-99599702D01*
X173894047Y-99647321D01*
X173798809Y-99694940D01*
X173513095Y-99694940D01*
X173417857Y-99647321D01*
X173370238Y-99599702D01*
X173322619Y-99504464D01*
X173322619Y-99313988D01*
X173370238Y-99218750D01*
X173370238Y-100504464D02*
X173322619Y-100409226D01*
X173322619Y-100218750D01*
X173370238Y-100123511D01*
X173465476Y-100075892D01*
X173846428Y-100075892D01*
X173941666Y-100123511D01*
X173989285Y-100218750D01*
X173989285Y-100409226D01*
X173941666Y-100504464D01*
X173846428Y-100552083D01*
X173751190Y-100552083D01*
X173655952Y-100075892D01*
X173322619Y-100980654D02*
X173989285Y-100980654D01*
X173798809Y-100980654D02*
X173894047Y-101028273D01*
X173941666Y-101075892D01*
X173989285Y-101171130D01*
X173989285Y-101266369D01*
X173370238Y-101552083D02*
X173322619Y-101647321D01*
X173322619Y-101837797D01*
X173370238Y-101933035D01*
X173465476Y-101980654D01*
X173513095Y-101980654D01*
X173608333Y-101933035D01*
X173655952Y-101837797D01*
X173655952Y-101694940D01*
X173703571Y-101599702D01*
X173798809Y-101552083D01*
X173846428Y-101552083D01*
X173941666Y-101599702D01*
X173989285Y-101694940D01*
X173989285Y-101837797D01*
X173941666Y-101933035D01*
X164576785Y-113086011D02*
X164576785Y-113466964D01*
X164910119Y-113228869D02*
X164052976Y-113228869D01*
X163957738Y-113276488D01*
X163910119Y-113371726D01*
X163910119Y-113466964D01*
X163910119Y-113800297D02*
X164576785Y-113800297D01*
X164386309Y-113800297D02*
X164481547Y-113847916D01*
X164529166Y-113895535D01*
X164576785Y-113990773D01*
X164576785Y-114086011D01*
X163910119Y-114847916D02*
X164433928Y-114847916D01*
X164529166Y-114800297D01*
X164576785Y-114705059D01*
X164576785Y-114514583D01*
X164529166Y-114419345D01*
X163957738Y-114847916D02*
X163910119Y-114752678D01*
X163910119Y-114514583D01*
X163957738Y-114419345D01*
X164052976Y-114371726D01*
X164148214Y-114371726D01*
X164243452Y-114419345D01*
X164291071Y-114514583D01*
X164291071Y-114752678D01*
X164338690Y-114847916D01*
X163957738Y-115752678D02*
X163910119Y-115657440D01*
X163910119Y-115466964D01*
X163957738Y-115371726D01*
X164005357Y-115324107D01*
X164100595Y-115276488D01*
X164386309Y-115276488D01*
X164481547Y-115324107D01*
X164529166Y-115371726D01*
X164576785Y-115466964D01*
X164576785Y-115657440D01*
X164529166Y-115752678D01*
X163910119Y-116181250D02*
X164910119Y-116181250D01*
X164291071Y-116276488D02*
X163910119Y-116562202D01*
X164576785Y-116562202D02*
X164195833Y-116181250D01*
X163910119Y-116990773D02*
X164910119Y-116990773D01*
X164529166Y-116990773D02*
X164576785Y-117086011D01*
X164576785Y-117276488D01*
X164529166Y-117371726D01*
X164481547Y-117419345D01*
X164386309Y-117466964D01*
X164100595Y-117466964D01*
X164005357Y-117419345D01*
X163957738Y-117371726D01*
X163910119Y-117276488D01*
X163910119Y-117086011D01*
X163957738Y-116990773D01*
X163910119Y-118324107D02*
X164433928Y-118324107D01*
X164529166Y-118276488D01*
X164576785Y-118181250D01*
X164576785Y-117990773D01*
X164529166Y-117895535D01*
X163957738Y-118324107D02*
X163910119Y-118228869D01*
X163910119Y-117990773D01*
X163957738Y-117895535D01*
X164052976Y-117847916D01*
X164148214Y-117847916D01*
X164243452Y-117895535D01*
X164291071Y-117990773D01*
X164291071Y-118228869D01*
X164338690Y-118324107D01*
X163910119Y-118943154D02*
X163957738Y-118847916D01*
X164052976Y-118800297D01*
X164910119Y-118800297D01*
X163910119Y-119466964D02*
X163957738Y-119371726D01*
X164052976Y-119324107D01*
X164910119Y-119324107D01*
X162876785Y-113966964D02*
X162019642Y-113966964D01*
X161924404Y-113919345D01*
X161876785Y-113824107D01*
X161876785Y-113776488D01*
X163210119Y-113966964D02*
X163162500Y-113919345D01*
X163114880Y-113966964D01*
X163162500Y-114014583D01*
X163210119Y-113966964D01*
X163114880Y-113966964D01*
X162876785Y-114871726D02*
X162210119Y-114871726D01*
X162876785Y-114443154D02*
X162352976Y-114443154D01*
X162257738Y-114490773D01*
X162210119Y-114586011D01*
X162210119Y-114728869D01*
X162257738Y-114824107D01*
X162305357Y-114871726D01*
X162210119Y-115347916D02*
X162876785Y-115347916D01*
X162781547Y-115347916D02*
X162829166Y-115395535D01*
X162876785Y-115490773D01*
X162876785Y-115633630D01*
X162829166Y-115728869D01*
X162733928Y-115776488D01*
X162210119Y-115776488D01*
X162733928Y-115776488D02*
X162829166Y-115824107D01*
X162876785Y-115919345D01*
X162876785Y-116062202D01*
X162829166Y-116157440D01*
X162733928Y-116205059D01*
X162210119Y-116205059D01*
X162876785Y-116681250D02*
X161876785Y-116681250D01*
X162829166Y-116681250D02*
X162876785Y-116776488D01*
X162876785Y-116966964D01*
X162829166Y-117062202D01*
X162781547Y-117109821D01*
X162686309Y-117157440D01*
X162400595Y-117157440D01*
X162305357Y-117109821D01*
X162257738Y-117062202D01*
X162210119Y-116966964D01*
X162210119Y-116776488D01*
X162257738Y-116681250D01*
X162257738Y-117966964D02*
X162210119Y-117871726D01*
X162210119Y-117681250D01*
X162257738Y-117586011D01*
X162352976Y-117538392D01*
X162733928Y-117538392D01*
X162829166Y-117586011D01*
X162876785Y-117681250D01*
X162876785Y-117871726D01*
X162829166Y-117966964D01*
X162733928Y-118014583D01*
X162638690Y-118014583D01*
X162543452Y-117538392D01*
X162210119Y-118443154D02*
X162876785Y-118443154D01*
X162686309Y-118443154D02*
X162781547Y-118490773D01*
X162829166Y-118538392D01*
X162876785Y-118633630D01*
X162876785Y-118728869D01*
X162257738Y-119014583D02*
X162210119Y-119109821D01*
X162210119Y-119300297D01*
X162257738Y-119395535D01*
X162352976Y-119443154D01*
X162400595Y-119443154D01*
X162495833Y-119395535D01*
X162543452Y-119300297D01*
X162543452Y-119157440D01*
X162591071Y-119062202D01*
X162686309Y-119014583D01*
X162733928Y-119014583D01*
X162829166Y-119062202D01*
X162876785Y-119157440D01*
X162876785Y-119300297D01*
X162829166Y-119395535D01*
D11*
X195147321Y-97130357D02*
X193647321Y-97130357D01*
X194218750Y-97130357D02*
X194147321Y-96987500D01*
X194147321Y-96701785D01*
X194218750Y-96558928D01*
X194290178Y-96487500D01*
X194433035Y-96416071D01*
X194861607Y-96416071D01*
X195004464Y-96487500D01*
X195075892Y-96558928D01*
X195147321Y-96701785D01*
X195147321Y-96987500D01*
X195075892Y-97130357D01*
X194147321Y-95916071D02*
X195147321Y-95558928D01*
X194147321Y-95201785D02*
X195147321Y-95558928D01*
X195504464Y-95701785D01*
X195575892Y-95773214D01*
X195647321Y-95916071D01*
X195147321Y-93487500D02*
X193647321Y-93487500D01*
X194718750Y-92987500D01*
X193647321Y-92487500D01*
X195147321Y-92487500D01*
X195147321Y-91130357D02*
X194361607Y-91130357D01*
X194218750Y-91201785D01*
X194147321Y-91344642D01*
X194147321Y-91630357D01*
X194218750Y-91773214D01*
X195075892Y-91130357D02*
X195147321Y-91273214D01*
X195147321Y-91630357D01*
X195075892Y-91773214D01*
X194933035Y-91844642D01*
X194790178Y-91844642D01*
X194647321Y-91773214D01*
X194575892Y-91630357D01*
X194575892Y-91273214D01*
X194504464Y-91130357D01*
X194147321Y-90416071D02*
X195147321Y-90416071D01*
X194290178Y-90416071D02*
X194218750Y-90344642D01*
X194147321Y-90201785D01*
X194147321Y-89987500D01*
X194218750Y-89844642D01*
X194361607Y-89773214D01*
X195147321Y-89773214D01*
X194147321Y-88416071D02*
X195361607Y-88416071D01*
X195504464Y-88487500D01*
X195575892Y-88558928D01*
X195647321Y-88701785D01*
X195647321Y-88916071D01*
X195575892Y-89058928D01*
X195075892Y-88416071D02*
X195147321Y-88558928D01*
X195147321Y-88844642D01*
X195075892Y-88987500D01*
X195004464Y-89058928D01*
X194861607Y-89130357D01*
X194433035Y-89130357D01*
X194290178Y-89058928D01*
X194218750Y-88987500D01*
X194147321Y-88844642D01*
X194147321Y-88558928D01*
X194218750Y-88416071D01*
X195147321Y-87487500D02*
X195075892Y-87630357D01*
X195004464Y-87701785D01*
X194861607Y-87773214D01*
X194433035Y-87773214D01*
X194290178Y-87701785D01*
X194218750Y-87630357D01*
X194147321Y-87487500D01*
X194147321Y-87273214D01*
X194218750Y-87130357D01*
X194290178Y-87058928D01*
X194433035Y-86987500D01*
X194861607Y-86987500D01*
X195004464Y-87058928D01*
X195075892Y-87130357D01*
X195147321Y-87273214D01*
X195147321Y-87487500D01*
X195147321Y-86344642D02*
X193647321Y-86344642D01*
X193647321Y-85844642D02*
X195147321Y-85344642D01*
X193647321Y-84844642D01*
X195004464Y-84344642D02*
X195075892Y-84273214D01*
X195147321Y-84344642D01*
X195075892Y-84416071D01*
X195004464Y-84344642D01*
X195147321Y-84344642D01*
D12*
X191857142Y-98005714D02*
X188857142Y-97630714D01*
X188857142Y-97154523D01*
X189000000Y-96886666D01*
X189285714Y-96731904D01*
X189571428Y-96672380D01*
X190142857Y-96648571D01*
X190571428Y-96702142D01*
X191142857Y-96868809D01*
X191428571Y-96999761D01*
X191714285Y-97225952D01*
X191857142Y-97529523D01*
X191857142Y-98005714D01*
X191857142Y-96005714D02*
X189857142Y-95755714D01*
X190428571Y-95827142D02*
X190142857Y-95696190D01*
X190000000Y-95583095D01*
X189857142Y-95374761D01*
X189857142Y-95184285D01*
X191857142Y-93910476D02*
X190285714Y-93714047D01*
X190000000Y-93773571D01*
X189857142Y-93946190D01*
X189857142Y-94327142D01*
X190000000Y-94535476D01*
X191714285Y-93892619D02*
X191857142Y-94100952D01*
X191857142Y-94577142D01*
X191714285Y-94749761D01*
X191428571Y-94809285D01*
X191142857Y-94773571D01*
X190857142Y-94642619D01*
X190714285Y-94434285D01*
X190714285Y-93958095D01*
X190571428Y-93749761D01*
X191714285Y-92083095D02*
X191857142Y-92291428D01*
X191857142Y-92672380D01*
X191714285Y-92845000D01*
X191571428Y-92922380D01*
X191285714Y-92981904D01*
X190428571Y-92874761D01*
X190142857Y-92743809D01*
X190000000Y-92630714D01*
X189857142Y-92422380D01*
X189857142Y-92041428D01*
X190000000Y-91868809D01*
X189857142Y-90136666D02*
X191857142Y-90386666D01*
X189857142Y-90993809D02*
X191428571Y-91190238D01*
X191714285Y-91130714D01*
X191857142Y-90958095D01*
X191857142Y-90672380D01*
X191714285Y-90464047D01*
X191571428Y-90350952D01*
X191857142Y-88481904D02*
X191857142Y-89434285D01*
X188857142Y-89059285D01*
X191857142Y-86958095D02*
X190285714Y-86761666D01*
X190000000Y-86821190D01*
X189857142Y-86993809D01*
X189857142Y-87374761D01*
X190000000Y-87583095D01*
X191714285Y-86940238D02*
X191857142Y-87148571D01*
X191857142Y-87624761D01*
X191714285Y-87797380D01*
X191428571Y-87856904D01*
X191142857Y-87821190D01*
X190857142Y-87690238D01*
X190714285Y-87481904D01*
X190714285Y-87005714D01*
X190571428Y-86797380D01*
X191857142Y-85148571D02*
X188857142Y-84773571D01*
X191714285Y-85130714D02*
X191857142Y-85339047D01*
X191857142Y-85720000D01*
X191714285Y-85892619D01*
X191571428Y-85970000D01*
X191285714Y-86029523D01*
X190428571Y-85922380D01*
X190142857Y-85791428D01*
X190000000Y-85678333D01*
X189857142Y-85470000D01*
X189857142Y-85089047D01*
X190000000Y-84916428D01*
D13*
G04 #@! TO.C,spi1*
X189430574Y-150375298D02*
X188144999Y-148843209D01*
X189430574Y-150375298D02*
X187898485Y-151660873D01*
X169706926Y-148649702D02*
X171239015Y-147364127D01*
X182068750Y-149512500D02*
G75*
G03*
X182068750Y-149512500I-2500000J0D01*
G01*
X178705952Y-159374324D02*
X177420377Y-157842235D01*
X180431548Y-139650676D02*
X181717123Y-141182765D01*
X180431548Y-139650676D02*
X178899459Y-140936251D01*
X178705952Y-159374324D02*
X180238041Y-158088749D01*
X178899459Y-140936251D02*
X180431548Y-139650676D01*
X187898485Y-151660873D02*
X189430574Y-150375298D01*
X169706926Y-148649702D02*
X170349713Y-149415747D01*
X170349713Y-149415747D02*
X170992501Y-150181791D01*
X170992501Y-150181791D02*
X169706926Y-148649702D01*
X167516147Y-144483110D02*
X165909178Y-142567999D01*
X176632076Y-136833938D02*
X167516147Y-144483110D01*
X165909178Y-142567999D02*
X175178316Y-134790269D01*
X176785285Y-136705380D02*
X176632076Y-136833938D01*
X175178316Y-134790269D02*
X176785285Y-136705380D01*
D10*
G04 #@! TO.C,D17*
X174925000Y-76200000D02*
X175225000Y-76200000D01*
X174325000Y-76200000D02*
X174025000Y-76200000D01*
X174325000Y-75850000D02*
X174325000Y-76600000D01*
X174925000Y-76600000D02*
X174325000Y-76200000D01*
X174925000Y-75850000D02*
X174925000Y-76600000D01*
X174325000Y-76200000D02*
X174925000Y-75850000D01*
X171925000Y-75500000D02*
X171925000Y-76900000D01*
X172125000Y-75500000D02*
X172125000Y-76900000D01*
X172325000Y-75500000D02*
X172325000Y-76900000D01*
X172525000Y-75500000D02*
X172525000Y-76900000D01*
X171925000Y-76900000D02*
X176725000Y-76900000D01*
X176725000Y-75500000D02*
X176725000Y-76900000D01*
X171925000Y-75500000D02*
X176725000Y-75500000D01*
G04 #@! TO.C,D19*
X190800000Y-123825000D02*
X191100000Y-123825000D01*
X190200000Y-123825000D02*
X189900000Y-123825000D01*
X190200000Y-123475000D02*
X190200000Y-124225000D01*
X190800000Y-124225000D02*
X190200000Y-123825000D01*
X190800000Y-123475000D02*
X190800000Y-124225000D01*
X190200000Y-123825000D02*
X190800000Y-123475000D01*
X187800000Y-123125000D02*
X187800000Y-124525000D01*
X188000000Y-123125000D02*
X188000000Y-124525000D01*
X188200000Y-123125000D02*
X188200000Y-124525000D01*
X188400000Y-123125000D02*
X188400000Y-124525000D01*
X187800000Y-124525000D02*
X192600000Y-124525000D01*
X192600000Y-123125000D02*
X192600000Y-124525000D01*
X187800000Y-123125000D02*
X192600000Y-123125000D01*
G04 #@! TO.C,D18*
X153987500Y-113206250D02*
X153987500Y-112906250D01*
X153987500Y-113806250D02*
X153987500Y-114106250D01*
X153637500Y-113806250D02*
X154387500Y-113806250D01*
X154387500Y-113206250D02*
X153987500Y-113806250D01*
X153637500Y-113206250D02*
X154387500Y-113206250D01*
X153987500Y-113806250D02*
X153637500Y-113206250D01*
X153287500Y-116206250D02*
X154687500Y-116206250D01*
X153287500Y-116006250D02*
X154687500Y-116006250D01*
X153287500Y-115806250D02*
X154687500Y-115806250D01*
X153287500Y-115606250D02*
X154687500Y-115606250D01*
X154687500Y-116206250D02*
X154687500Y-111406250D01*
X153287500Y-111406250D02*
X154687500Y-111406250D01*
X153287500Y-116206250D02*
X153287500Y-111406250D01*
G04 #@! TO.C,D16*
X174925000Y-73025000D02*
X175225000Y-73025000D01*
X174325000Y-73025000D02*
X174025000Y-73025000D01*
X174325000Y-72675000D02*
X174325000Y-73425000D01*
X174925000Y-73425000D02*
X174325000Y-73025000D01*
X174925000Y-72675000D02*
X174925000Y-73425000D01*
X174325000Y-73025000D02*
X174925000Y-72675000D01*
X171925000Y-72325000D02*
X171925000Y-73725000D01*
X172125000Y-72325000D02*
X172125000Y-73725000D01*
X172325000Y-72325000D02*
X172325000Y-73725000D01*
X172525000Y-72325000D02*
X172525000Y-73725000D01*
X171925000Y-73725000D02*
X176725000Y-73725000D01*
X176725000Y-72325000D02*
X176725000Y-73725000D01*
X171925000Y-72325000D02*
X176725000Y-72325000D01*
G04 #@! TO.C,D15*
X146050000Y-113206250D02*
X146050000Y-112906250D01*
X146050000Y-113806250D02*
X146050000Y-114106250D01*
X145700000Y-113806250D02*
X146450000Y-113806250D01*
X146450000Y-113206250D02*
X146050000Y-113806250D01*
X145700000Y-113206250D02*
X146450000Y-113206250D01*
X146050000Y-113806250D02*
X145700000Y-113206250D01*
X145350000Y-116206250D02*
X146750000Y-116206250D01*
X145350000Y-116006250D02*
X146750000Y-116006250D01*
X145350000Y-115806250D02*
X146750000Y-115806250D01*
X145350000Y-115606250D02*
X146750000Y-115606250D01*
X146750000Y-116206250D02*
X146750000Y-111406250D01*
X145350000Y-111406250D02*
X146750000Y-111406250D01*
X145350000Y-116206250D02*
X145350000Y-111406250D01*
G04 #@! TO.C,D14*
X150018750Y-113206250D02*
X150018750Y-112906250D01*
X150018750Y-113806250D02*
X150018750Y-114106250D01*
X149668750Y-113806250D02*
X150418750Y-113806250D01*
X150418750Y-113206250D02*
X150018750Y-113806250D01*
X149668750Y-113206250D02*
X150418750Y-113206250D01*
X150018750Y-113806250D02*
X149668750Y-113206250D01*
X149318750Y-116206250D02*
X150718750Y-116206250D01*
X149318750Y-116006250D02*
X150718750Y-116006250D01*
X149318750Y-115806250D02*
X150718750Y-115806250D01*
X149318750Y-115606250D02*
X150718750Y-115606250D01*
X150718750Y-116206250D02*
X150718750Y-111406250D01*
X149318750Y-111406250D02*
X150718750Y-111406250D01*
X149318750Y-116206250D02*
X149318750Y-111406250D01*
G04 #@! TO.C,D13*
X152868750Y-87512500D02*
X153168750Y-87512500D01*
X152268750Y-87512500D02*
X151968750Y-87512500D01*
X152268750Y-87162500D02*
X152268750Y-87912500D01*
X152868750Y-87912500D02*
X152268750Y-87512500D01*
X152868750Y-87162500D02*
X152868750Y-87912500D01*
X152268750Y-87512500D02*
X152868750Y-87162500D01*
X149868750Y-86812500D02*
X149868750Y-88212500D01*
X150068750Y-86812500D02*
X150068750Y-88212500D01*
X150268750Y-86812500D02*
X150268750Y-88212500D01*
X150468750Y-86812500D02*
X150468750Y-88212500D01*
X149868750Y-88212500D02*
X154668750Y-88212500D01*
X154668750Y-86812500D02*
X154668750Y-88212500D01*
X149868750Y-86812500D02*
X154668750Y-86812500D01*
G04 #@! TO.C,D12*
X153493750Y-68262500D02*
X153793750Y-68262500D01*
X152893750Y-68262500D02*
X152593750Y-68262500D01*
X152893750Y-67912500D02*
X152893750Y-68662500D01*
X153493750Y-68662500D02*
X152893750Y-68262500D01*
X153493750Y-67912500D02*
X153493750Y-68662500D01*
X152893750Y-68262500D02*
X153493750Y-67912500D01*
X150493750Y-67562500D02*
X150493750Y-68962500D01*
X150693750Y-67562500D02*
X150693750Y-68962500D01*
X150893750Y-67562500D02*
X150893750Y-68962500D01*
X151093750Y-67562500D02*
X151093750Y-68962500D01*
X150493750Y-68962500D02*
X155293750Y-68962500D01*
X155293750Y-67562500D02*
X155293750Y-68962500D01*
X150493750Y-67562500D02*
X155293750Y-67562500D01*
G04 #@! TO.C,D11*
X142081250Y-113206250D02*
X142081250Y-112906250D01*
X142081250Y-113806250D02*
X142081250Y-114106250D01*
X141731250Y-113806250D02*
X142481250Y-113806250D01*
X142481250Y-113206250D02*
X142081250Y-113806250D01*
X141731250Y-113206250D02*
X142481250Y-113206250D01*
X142081250Y-113806250D02*
X141731250Y-113206250D01*
X141381250Y-116206250D02*
X142781250Y-116206250D01*
X141381250Y-116006250D02*
X142781250Y-116006250D01*
X141381250Y-115806250D02*
X142781250Y-115806250D01*
X141381250Y-115606250D02*
X142781250Y-115606250D01*
X142781250Y-116206250D02*
X142781250Y-111406250D01*
X141381250Y-111406250D02*
X142781250Y-111406250D01*
X141381250Y-116206250D02*
X141381250Y-111406250D01*
G04 #@! TO.C,D10*
X133800000Y-100250000D02*
X134100000Y-100250000D01*
X133200000Y-100250000D02*
X132900000Y-100250000D01*
X133200000Y-99900000D02*
X133200000Y-100650000D01*
X133800000Y-100650000D02*
X133200000Y-100250000D01*
X133800000Y-99900000D02*
X133800000Y-100650000D01*
X133200000Y-100250000D02*
X133800000Y-99900000D01*
X130800000Y-99550000D02*
X130800000Y-100950000D01*
X131000000Y-99550000D02*
X131000000Y-100950000D01*
X131200000Y-99550000D02*
X131200000Y-100950000D01*
X131400000Y-99550000D02*
X131400000Y-100950000D01*
X130800000Y-100950000D02*
X135600000Y-100950000D01*
X135600000Y-99550000D02*
X135600000Y-100950000D01*
X130800000Y-99550000D02*
X135600000Y-99550000D01*
G04 #@! TO.C,D9*
X133868750Y-80512500D02*
X134168750Y-80512500D01*
X133268750Y-80512500D02*
X132968750Y-80512500D01*
X133268750Y-80162500D02*
X133268750Y-80912500D01*
X133868750Y-80912500D02*
X133268750Y-80512500D01*
X133868750Y-80162500D02*
X133868750Y-80912500D01*
X133268750Y-80512500D02*
X133868750Y-80162500D01*
X130868750Y-79812500D02*
X130868750Y-81212500D01*
X131068750Y-79812500D02*
X131068750Y-81212500D01*
X131268750Y-79812500D02*
X131268750Y-81212500D01*
X131468750Y-79812500D02*
X131468750Y-81212500D01*
X130868750Y-81212500D02*
X135668750Y-81212500D01*
X135668750Y-79812500D02*
X135668750Y-81212500D01*
X130868750Y-79812500D02*
X135668750Y-79812500D01*
G04 #@! TO.C,D8*
X133868750Y-61512500D02*
X134168750Y-61512500D01*
X133268750Y-61512500D02*
X132968750Y-61512500D01*
X133268750Y-61162500D02*
X133268750Y-61912500D01*
X133868750Y-61912500D02*
X133268750Y-61512500D01*
X133868750Y-61162500D02*
X133868750Y-61912500D01*
X133268750Y-61512500D02*
X133868750Y-61162500D01*
X130868750Y-60812500D02*
X130868750Y-62212500D01*
X131068750Y-60812500D02*
X131068750Y-62212500D01*
X131268750Y-60812500D02*
X131268750Y-62212500D01*
X131468750Y-60812500D02*
X131468750Y-62212500D01*
X130868750Y-62212500D02*
X135668750Y-62212500D01*
X135668750Y-60812500D02*
X135668750Y-62212500D01*
X130868750Y-60812500D02*
X135668750Y-60812500D01*
G04 #@! TO.C,D7*
X190868750Y-120512500D02*
X191168750Y-120512500D01*
X190268750Y-120512500D02*
X189968750Y-120512500D01*
X190268750Y-120162500D02*
X190268750Y-120912500D01*
X190868750Y-120912500D02*
X190268750Y-120512500D01*
X190868750Y-120162500D02*
X190868750Y-120912500D01*
X190268750Y-120512500D02*
X190868750Y-120162500D01*
X187868750Y-119812500D02*
X187868750Y-121212500D01*
X188068750Y-119812500D02*
X188068750Y-121212500D01*
X188268750Y-119812500D02*
X188268750Y-121212500D01*
X188468750Y-119812500D02*
X188468750Y-121212500D01*
X187868750Y-121212500D02*
X192668750Y-121212500D01*
X192668750Y-119812500D02*
X192668750Y-121212500D01*
X187868750Y-119812500D02*
X192668750Y-119812500D01*
G04 #@! TO.C,D6*
X114787500Y-105568750D02*
X115087500Y-105568750D01*
X114187500Y-105568750D02*
X113887500Y-105568750D01*
X114187500Y-105218750D02*
X114187500Y-105968750D01*
X114787500Y-105968750D02*
X114187500Y-105568750D01*
X114787500Y-105218750D02*
X114787500Y-105968750D01*
X114187500Y-105568750D02*
X114787500Y-105218750D01*
X111787500Y-104868750D02*
X111787500Y-106268750D01*
X111987500Y-104868750D02*
X111987500Y-106268750D01*
X112187500Y-104868750D02*
X112187500Y-106268750D01*
X112387500Y-104868750D02*
X112387500Y-106268750D01*
X111787500Y-106268750D02*
X116587500Y-106268750D01*
X116587500Y-104868750D02*
X116587500Y-106268750D01*
X111787500Y-104868750D02*
X116587500Y-104868750D01*
G04 #@! TO.C,D5*
X114868750Y-86512500D02*
X115168750Y-86512500D01*
X114268750Y-86512500D02*
X113968750Y-86512500D01*
X114268750Y-86162500D02*
X114268750Y-86912500D01*
X114868750Y-86912500D02*
X114268750Y-86512500D01*
X114868750Y-86162500D02*
X114868750Y-86912500D01*
X114268750Y-86512500D02*
X114868750Y-86162500D01*
X111868750Y-85812500D02*
X111868750Y-87212500D01*
X112068750Y-85812500D02*
X112068750Y-87212500D01*
X112268750Y-85812500D02*
X112268750Y-87212500D01*
X112468750Y-85812500D02*
X112468750Y-87212500D01*
X111868750Y-87212500D02*
X116668750Y-87212500D01*
X116668750Y-85812500D02*
X116668750Y-87212500D01*
X111868750Y-85812500D02*
X116668750Y-85812500D01*
G04 #@! TO.C,D4*
X114818750Y-67512500D02*
X115118750Y-67512500D01*
X114218750Y-67512500D02*
X113918750Y-67512500D01*
X114218750Y-67162500D02*
X114218750Y-67912500D01*
X114818750Y-67912500D02*
X114218750Y-67512500D01*
X114818750Y-67162500D02*
X114818750Y-67912500D01*
X114218750Y-67512500D02*
X114818750Y-67162500D01*
X111818750Y-66812500D02*
X111818750Y-68212500D01*
X112018750Y-66812500D02*
X112018750Y-68212500D01*
X112218750Y-66812500D02*
X112218750Y-68212500D01*
X112418750Y-66812500D02*
X112418750Y-68212500D01*
X111818750Y-68212500D02*
X116618750Y-68212500D01*
X116618750Y-66812500D02*
X116618750Y-68212500D01*
X111818750Y-66812500D02*
X116618750Y-66812500D01*
G04 #@! TO.C,D3*
X96050000Y-117000000D02*
X96350000Y-117000000D01*
X95450000Y-117000000D02*
X95150000Y-117000000D01*
X95450000Y-116650000D02*
X95450000Y-117400000D01*
X96050000Y-117400000D02*
X95450000Y-117000000D01*
X96050000Y-116650000D02*
X96050000Y-117400000D01*
X95450000Y-117000000D02*
X96050000Y-116650000D01*
X93050000Y-116300000D02*
X93050000Y-117700000D01*
X93250000Y-116300000D02*
X93250000Y-117700000D01*
X93450000Y-116300000D02*
X93450000Y-117700000D01*
X93650000Y-116300000D02*
X93650000Y-117700000D01*
X93050000Y-117700000D02*
X97850000Y-117700000D01*
X97850000Y-116300000D02*
X97850000Y-117700000D01*
X93050000Y-116300000D02*
X97850000Y-116300000D01*
G04 #@! TO.C,D2*
X95868750Y-98512500D02*
X96168750Y-98512500D01*
X95268750Y-98512500D02*
X94968750Y-98512500D01*
X95268750Y-98162500D02*
X95268750Y-98912500D01*
X95868750Y-98912500D02*
X95268750Y-98512500D01*
X95868750Y-98162500D02*
X95868750Y-98912500D01*
X95268750Y-98512500D02*
X95868750Y-98162500D01*
X92868750Y-97812500D02*
X92868750Y-99212500D01*
X93068750Y-97812500D02*
X93068750Y-99212500D01*
X93268750Y-97812500D02*
X93268750Y-99212500D01*
X93468750Y-97812500D02*
X93468750Y-99212500D01*
X92868750Y-99212500D02*
X97668750Y-99212500D01*
X97668750Y-97812500D02*
X97668750Y-99212500D01*
X92868750Y-97812500D02*
X97668750Y-97812500D01*
G04 #@! TO.C,D1*
X95868750Y-79512500D02*
X96168750Y-79512500D01*
X95268750Y-79512500D02*
X94968750Y-79512500D01*
X95268750Y-79162500D02*
X95268750Y-79912500D01*
X95868750Y-79912500D02*
X95268750Y-79512500D01*
X95868750Y-79162500D02*
X95868750Y-79912500D01*
X95268750Y-79512500D02*
X95868750Y-79162500D01*
X92868750Y-78812500D02*
X92868750Y-80212500D01*
X93068750Y-78812500D02*
X93068750Y-80212500D01*
X93268750Y-78812500D02*
X93268750Y-80212500D01*
X93468750Y-78812500D02*
X93468750Y-80212500D01*
X92868750Y-80212500D02*
X97668750Y-80212500D01*
X97668750Y-78812500D02*
X97668750Y-80212500D01*
X92868750Y-78812500D02*
X97668750Y-78812500D01*
D13*
G04 #@! TO.C,JP13*
X158000000Y-119362500D02*
X158000000Y-118762500D01*
X160100000Y-120062500D02*
X158700000Y-120062500D01*
X160800000Y-118762500D02*
X160800000Y-119362500D01*
X158700000Y-118062500D02*
X160100000Y-118062500D01*
X158000000Y-118762500D02*
G75*
G02*
X158700000Y-118062500I700000J0D01*
G01*
X158700000Y-120062500D02*
G75*
G02*
X158000000Y-119362500I0J700000D01*
G01*
X160800000Y-119362500D02*
G75*
G02*
X160100000Y-120062500I-700000J0D01*
G01*
X160100000Y-118062500D02*
G75*
G02*
X160800000Y-118762500I0J-700000D01*
G01*
G04 #@! TO.C,JP10*
X158000000Y-116187500D02*
X158000000Y-115587500D01*
X160100000Y-116887500D02*
X158700000Y-116887500D01*
X160800000Y-115587500D02*
X160800000Y-116187500D01*
X158700000Y-114887500D02*
X160100000Y-114887500D01*
X158000000Y-115587500D02*
G75*
G02*
X158700000Y-114887500I700000J0D01*
G01*
X158700000Y-116887500D02*
G75*
G02*
X158000000Y-116187500I0J700000D01*
G01*
X160800000Y-116187500D02*
G75*
G02*
X160100000Y-116887500I-700000J0D01*
G01*
X160100000Y-114887500D02*
G75*
G02*
X160800000Y-115587500I0J-700000D01*
G01*
G04 #@! TO.C,JP9*
X158000000Y-113012500D02*
X158000000Y-112412500D01*
X160100000Y-113712500D02*
X158700000Y-113712500D01*
X160800000Y-112412500D02*
X160800000Y-113012500D01*
X158700000Y-111712500D02*
X160100000Y-111712500D01*
X158000000Y-112412500D02*
G75*
G02*
X158700000Y-111712500I700000J0D01*
G01*
X158700000Y-113712500D02*
G75*
G02*
X158000000Y-113012500I0J700000D01*
G01*
X160800000Y-113012500D02*
G75*
G02*
X160100000Y-113712500I-700000J0D01*
G01*
X160100000Y-111712500D02*
G75*
G02*
X160800000Y-112412500I0J-700000D01*
G01*
G04 #@! TO.C,Brd1*
X177895250Y-95186500D02*
X180308250Y-95186500D01*
X180308250Y-85407500D02*
X180308250Y-95186500D01*
X177895250Y-85407500D02*
X180308250Y-85407500D01*
X177895250Y-95186500D02*
X177895250Y-85407500D01*
D14*
G04 #@! TO.C,U1*
X199017565Y-107148245D02*
X201557565Y-107148245D01*
X186317565Y-76668245D02*
X183777565Y-76668245D01*
X183777565Y-76668245D02*
X183777565Y-107148245D01*
X183777565Y-74128245D02*
X183777565Y-107148245D01*
X201557565Y-74128245D02*
X183777565Y-74128245D01*
X183777565Y-107148245D02*
X186317565Y-107148245D01*
X201557565Y-76668245D02*
X199017565Y-76668245D01*
X201557565Y-107148245D02*
X201557565Y-74128245D01*
X199017565Y-76668245D02*
X199017565Y-107148245D01*
X186317565Y-107148245D02*
X186317565Y-76668245D01*
X201557565Y-107148245D02*
X201557565Y-76668245D01*
G04 #@! TO.C,U2*
X202882791Y-134189700D02*
X203855221Y-128674777D01*
X201885606Y-128327480D02*
X203855221Y-128674777D01*
X200913176Y-133842404D02*
X202882791Y-134189700D01*
X201929018Y-128081279D02*
X190012844Y-125980136D01*
X200869764Y-134088606D02*
X188953590Y-131987463D01*
X188953590Y-131987463D02*
X190012844Y-125980136D01*
X200869764Y-134088606D02*
X201929018Y-128081279D01*
G04 #@! TO.C,D29*
X191010705Y-114977564D02*
X194127564Y-114179006D01*
D10*
X192742756Y-115977564D02*
X188672436Y-113627564D01*
X193127564Y-115911057D02*
X195502564Y-111797436D01*
X192742756Y-115977564D02*
X193127564Y-115911057D01*
X191172436Y-109297436D02*
X195502564Y-111797436D01*
X188673311Y-113627329D02*
X191172671Y-109298311D01*
D14*
G04 #@! TO.C,D28*
X176565064Y-58326795D02*
X173466506Y-57459936D01*
D10*
X175565064Y-56594744D02*
X177915064Y-60665064D01*
X175198557Y-56459936D02*
X171084936Y-58834936D01*
X175565064Y-56594744D02*
X175198557Y-56459936D01*
X173584936Y-63165064D02*
X171084936Y-58834936D01*
X177914189Y-60664829D02*
X173585171Y-63164189D01*
D14*
G04 #@! TO.C,D27*
X145050000Y-45250000D02*
X142750000Y-47500000D01*
D10*
X143050000Y-45250000D02*
X147750000Y-45250000D01*
X142750000Y-45500000D02*
X142750000Y-50250000D01*
X143050000Y-45250000D02*
X142750000Y-45500000D01*
X147750000Y-50250000D02*
X142750000Y-50250000D01*
X147749360Y-45250640D02*
X147749360Y-50249360D01*
D14*
G04 #@! TO.C,D26*
X114368750Y-46012500D02*
X112068750Y-48262500D01*
D10*
X112368750Y-46012500D02*
X117068750Y-46012500D01*
X112068750Y-46262500D02*
X112068750Y-51012500D01*
X112368750Y-46012500D02*
X112068750Y-46262500D01*
X117068750Y-51012500D02*
X112068750Y-51012500D01*
X117068110Y-46013140D02*
X117068110Y-51011860D01*
D14*
G04 #@! TO.C,D25*
X94368750Y-56012500D02*
X92068750Y-58262500D01*
D10*
X92368750Y-56012500D02*
X97068750Y-56012500D01*
X92068750Y-56262500D02*
X92068750Y-61012500D01*
X92368750Y-56012500D02*
X92068750Y-56262500D01*
X97068750Y-61012500D02*
X92068750Y-61012500D01*
X97068110Y-56013140D02*
X97068110Y-61011860D01*
D14*
G04 #@! TO.C,D24*
X81800000Y-76500000D02*
X79500000Y-78750000D01*
D10*
X79800000Y-76500000D02*
X84500000Y-76500000D01*
X79500000Y-76750000D02*
X79500000Y-81500000D01*
X79800000Y-76500000D02*
X79500000Y-76750000D01*
X84500000Y-81500000D02*
X79500000Y-81500000D01*
X84499360Y-76500640D02*
X84499360Y-81499360D01*
D14*
G04 #@! TO.C,D23*
X82050000Y-95500000D02*
X79750000Y-97750000D01*
D10*
X80050000Y-95500000D02*
X84750000Y-95500000D01*
X79750000Y-95750000D02*
X79750000Y-100500000D01*
X80050000Y-95500000D02*
X79750000Y-95750000D01*
X84750000Y-100500000D02*
X79750000Y-100500000D01*
X84749360Y-95500640D02*
X84749360Y-100499360D01*
D14*
G04 #@! TO.C,D22*
X111923205Y-123515064D02*
X115040064Y-122716506D01*
D10*
X113655256Y-124515064D02*
X109584936Y-122165064D01*
X114040064Y-124448557D02*
X116415064Y-120334936D01*
X113655256Y-124515064D02*
X114040064Y-124448557D01*
X112084936Y-117834936D02*
X116415064Y-120334936D01*
X109585811Y-122164829D02*
X112085171Y-117835811D01*
D14*
G04 #@! TO.C,D21*
X148151114Y-125845388D02*
X149478776Y-128776227D01*
D10*
X147467074Y-127724773D02*
X149074569Y-123308218D01*
X147599391Y-128092186D02*
X152062931Y-129716782D01*
X147467074Y-127724773D02*
X147599391Y-128092186D01*
X153773032Y-125018319D02*
X152062931Y-129716782D01*
X149074951Y-123309038D02*
X153772212Y-125018701D01*
G04 #@! TO.C,D20*
X182076813Y-127447572D02*
X185289928Y-131276813D01*
X185290830Y-131276892D02*
X181460608Y-134490830D01*
X178476483Y-130467772D02*
X178407367Y-130852119D01*
X178407367Y-130852119D02*
X181460608Y-134490830D01*
X178476483Y-130467772D02*
X182076892Y-127446670D01*
D14*
X180008572Y-129182196D02*
X179692942Y-132384208D01*
D13*
G04 #@! TO.C,SW4*
X136920096Y-128881926D02*
X137904904Y-129055574D01*
X137499324Y-128476346D02*
X137325676Y-129461154D01*
X142812059Y-133474831D02*
X142395303Y-135838370D01*
X143645570Y-128747754D02*
X143194085Y-131308254D01*
X144444352Y-124217638D02*
X144027596Y-126581177D01*
X131033842Y-123680771D02*
X130686305Y-123924119D01*
X130442957Y-123576582D02*
X131033842Y-123680771D01*
X130686305Y-123924119D02*
X130442957Y-123576582D01*
X132429697Y-122099130D02*
X130380648Y-133719862D01*
X136467409Y-122811088D02*
X132429697Y-122099130D01*
X134418360Y-134431819D02*
X130380648Y-133719862D01*
X142395303Y-135838370D02*
X138357591Y-135126412D01*
X140406640Y-123505681D02*
X144444352Y-124217638D01*
X140412500Y-128968750D02*
G75*
G03*
X140412500Y-128968750I-3000000J0D01*
G01*
G04 #@! TO.C,SW3*
X178568750Y-120512500D02*
G75*
G03*
X178568750Y-120512500I-3000000J0D01*
G01*
X180250801Y-116402950D02*
X183801505Y-118452950D01*
X177901505Y-128672050D02*
X174350801Y-126622050D01*
X170886699Y-124622050D02*
X167335995Y-122572050D01*
X176786699Y-114402950D02*
X173235995Y-112352950D01*
X173235995Y-112352950D02*
X167335995Y-122572050D01*
X170973559Y-113471603D02*
X170863752Y-113061796D01*
X170863752Y-113061796D02*
X171383367Y-113361796D01*
X171383367Y-113361796D02*
X170973559Y-113471603D01*
X183801505Y-118452950D02*
X182601505Y-120531411D01*
X181501505Y-122436667D02*
X180201505Y-124688333D01*
X179101505Y-126593589D02*
X177901505Y-128672050D01*
X175818750Y-120079487D02*
X175318750Y-120945513D01*
X175135737Y-120262500D02*
X176001763Y-120762500D01*
G04 #@! TO.C,SW1*
X204143750Y-115750000D02*
X204593750Y-115300000D01*
X204143750Y-112350000D02*
X204593750Y-112800000D01*
X199543750Y-112350000D02*
X199093750Y-112800000D01*
X199543750Y-115750000D02*
X199093750Y-115300000D01*
X200843750Y-111300000D02*
X202843750Y-111300000D01*
X204593750Y-115300000D02*
X204593750Y-112800000D01*
X200843750Y-116800000D02*
X202843750Y-116800000D01*
X199093750Y-115300000D02*
X199093750Y-112800000D01*
G04 #@! TO.C,R2*
X176795814Y-110247500D02*
X176341686Y-110247500D01*
X176795814Y-108777500D02*
X176341686Y-108777500D01*
G04 #@! TO.C,R1*
X176795814Y-107247500D02*
X176341686Y-107247500D01*
X176795814Y-105777500D02*
X176341686Y-105777500D01*
G04 #@! TO.C,JP4*
X173031250Y-95050000D02*
X173031250Y-94450000D01*
X175131250Y-95750000D02*
X173731250Y-95750000D01*
X175831250Y-94450000D02*
X175831250Y-95050000D01*
X173731250Y-93750000D02*
X175131250Y-93750000D01*
X173031250Y-94450000D02*
G75*
G02*
X173731250Y-93750000I700000J0D01*
G01*
X173731250Y-95750000D02*
G75*
G02*
X173031250Y-95050000I0J700000D01*
G01*
X175831250Y-95050000D02*
G75*
G02*
X175131250Y-95750000I-700000J0D01*
G01*
X175131250Y-93750000D02*
G75*
G02*
X175831250Y-94450000I0J-700000D01*
G01*
G04 #@! TO.C,JP3*
X173031250Y-91875000D02*
X173031250Y-91275000D01*
X175131250Y-92575000D02*
X173731250Y-92575000D01*
X175831250Y-91275000D02*
X175831250Y-91875000D01*
X173731250Y-90575000D02*
X175131250Y-90575000D01*
X173031250Y-91275000D02*
G75*
G02*
X173731250Y-90575000I700000J0D01*
G01*
X173731250Y-92575000D02*
G75*
G02*
X173031250Y-91875000I0J700000D01*
G01*
X175831250Y-91875000D02*
G75*
G02*
X175131250Y-92575000I-700000J0D01*
G01*
X175131250Y-90575000D02*
G75*
G02*
X175831250Y-91275000I0J-700000D01*
G01*
G04 #@! TO.C,JP2*
X173031250Y-88700000D02*
X173031250Y-88100000D01*
X175131250Y-89400000D02*
X173731250Y-89400000D01*
X175831250Y-88100000D02*
X175831250Y-88700000D01*
X173731250Y-87400000D02*
X175131250Y-87400000D01*
X173031250Y-88100000D02*
G75*
G02*
X173731250Y-87400000I700000J0D01*
G01*
X173731250Y-89400000D02*
G75*
G02*
X173031250Y-88700000I0J700000D01*
G01*
X175831250Y-88700000D02*
G75*
G02*
X175131250Y-89400000I-700000J0D01*
G01*
X175131250Y-87400000D02*
G75*
G02*
X175831250Y-88100000I0J-700000D01*
G01*
G04 #@! TO.C,JP1*
X173031250Y-85525000D02*
X173031250Y-84925000D01*
X175131250Y-86225000D02*
X173731250Y-86225000D01*
X175831250Y-84925000D02*
X175831250Y-85525000D01*
X173731250Y-84225000D02*
X175131250Y-84225000D01*
X173031250Y-84925000D02*
G75*
G02*
X173731250Y-84225000I700000J0D01*
G01*
X173731250Y-86225000D02*
G75*
G02*
X173031250Y-85525000I0J700000D01*
G01*
X175831250Y-85525000D02*
G75*
G02*
X175131250Y-86225000I-700000J0D01*
G01*
X175131250Y-84225000D02*
G75*
G02*
X175831250Y-84925000I0J-700000D01*
G01*
G04 #@! TO.C,spi1*
D14*
X166827242Y-147914417D02*
X167470029Y-148680461D01*
X166857851Y-147950895D02*
X166900198Y-147853199D01*
X167046112Y-147730763D01*
X167149677Y-147706024D01*
X167216764Y-147711893D01*
X167314461Y-147754241D01*
X167498114Y-147973110D01*
X167522854Y-148076676D01*
X167516984Y-148143763D01*
X167474637Y-148241459D01*
X167328723Y-148363895D01*
X167225158Y-148388635D01*
X167948855Y-147843543D02*
X167520330Y-147332847D01*
X167306067Y-147077499D02*
X167300198Y-147144586D01*
X167367285Y-147150455D01*
X167373154Y-147083368D01*
X167306067Y-147077499D01*
X167367285Y-147150455D01*
X168313638Y-147537454D02*
X167885113Y-147026758D01*
X167946330Y-147099714D02*
X167952200Y-147032627D01*
X167994548Y-146934931D01*
X168103982Y-146843104D01*
X168207548Y-146818365D01*
X168305244Y-146860712D01*
X168641942Y-147261974D01*
X168305244Y-146860712D02*
X168280505Y-146757147D01*
X168322852Y-146659450D01*
X168432287Y-146567624D01*
X168535853Y-146542884D01*
X168633549Y-146585232D01*
X168970247Y-146986493D01*
X169444465Y-146588577D02*
X169340900Y-146613317D01*
X169273812Y-146607447D01*
X169176116Y-146565100D01*
X168992463Y-146346230D01*
X168967723Y-146242664D01*
X168973592Y-146175577D01*
X169015940Y-146077881D01*
X169125375Y-145986054D01*
X169228941Y-145961314D01*
X169296028Y-145967184D01*
X169393724Y-146009531D01*
X169577378Y-146228401D01*
X169602117Y-146331967D01*
X169596248Y-146399054D01*
X169553900Y-146496750D01*
X169444465Y-146588577D01*
X170028118Y-146098834D02*
X169599593Y-145588138D01*
X169722029Y-145734051D02*
X169697289Y-145630485D01*
X169703159Y-145563398D01*
X169745506Y-145465702D01*
X169818463Y-145404484D01*
X170611771Y-145609091D02*
X170508205Y-145633831D01*
X170441118Y-145627961D01*
X170343422Y-145585614D01*
X170159768Y-145366744D01*
X170135029Y-145263178D01*
X170140898Y-145196091D01*
X170183246Y-145098395D01*
X170292681Y-145006568D01*
X170396246Y-144981828D01*
X170463334Y-144987698D01*
X170561030Y-145030046D01*
X170744683Y-145248915D01*
X170769423Y-145352481D01*
X170763554Y-145419568D01*
X170721206Y-145517264D01*
X170611771Y-145609091D01*
X170766899Y-144608652D02*
X171195424Y-145119348D01*
X170828117Y-144681609D02*
X170833986Y-144614521D01*
X170876334Y-144516825D01*
X170985769Y-144424998D01*
X171089334Y-144400259D01*
X171187030Y-144442606D01*
X171523729Y-144843868D01*
X171888512Y-144537778D02*
X171459987Y-144027082D01*
X171245724Y-143771734D02*
X171239855Y-143838821D01*
X171306942Y-143844691D01*
X171312811Y-143777603D01*
X171245724Y-143771734D01*
X171306942Y-143844691D01*
X172298988Y-143323077D02*
X172590814Y-143078205D01*
X172194160Y-142975902D02*
X172745121Y-143632511D01*
X172842817Y-143674859D01*
X172946383Y-143650119D01*
X173019339Y-143588902D01*
X173274687Y-143374639D02*
X172846162Y-142863943D01*
X172968598Y-143009856D02*
X172943859Y-142906290D01*
X172949728Y-142839203D01*
X172992076Y-142741507D01*
X173065032Y-142680289D01*
X174077210Y-142701242D02*
X173740512Y-142299981D01*
X173642816Y-142257633D01*
X173539250Y-142282373D01*
X173393337Y-142404809D01*
X173350989Y-142502505D01*
X174046601Y-142664764D02*
X174004254Y-142762460D01*
X173821862Y-142915505D01*
X173718296Y-142940245D01*
X173620600Y-142897897D01*
X173559382Y-142824940D01*
X173534643Y-142721375D01*
X173576991Y-142623679D01*
X173759382Y-142470634D01*
X173801730Y-142372938D01*
X174739689Y-142083194D02*
X174697341Y-142180891D01*
X174551428Y-142303326D01*
X174447863Y-142328066D01*
X174380775Y-142322196D01*
X174283079Y-142279849D01*
X174099426Y-142060979D01*
X174074686Y-141957413D01*
X174080555Y-141890326D01*
X174122903Y-141792630D01*
X174268816Y-141670194D01*
X174372382Y-141645455D01*
X175098603Y-141844192D02*
X174455815Y-141078148D01*
X174926688Y-141491148D02*
X175390429Y-141599321D01*
X174961904Y-141088625D02*
X174914949Y-141625322D01*
X175718734Y-141323840D02*
X175075946Y-140557796D01*
X175320818Y-140849622D02*
X175363166Y-140751926D01*
X175509079Y-140629491D01*
X175612644Y-140604751D01*
X175679732Y-140610620D01*
X175777428Y-140652968D01*
X175961081Y-140871838D01*
X175985821Y-140975403D01*
X175979951Y-141042491D01*
X175937604Y-141140187D01*
X175791691Y-141262623D01*
X175688125Y-141287362D01*
X176740127Y-140466790D02*
X176403428Y-140065529D01*
X176305732Y-140023181D01*
X176202167Y-140047921D01*
X176056253Y-140170357D01*
X176013906Y-140268053D01*
X176709518Y-140430312D02*
X176667170Y-140528008D01*
X176484778Y-140681053D01*
X176381213Y-140705792D01*
X176283517Y-140663445D01*
X176222299Y-140590488D01*
X176197559Y-140486923D01*
X176239907Y-140389226D01*
X176422298Y-140236182D01*
X176464646Y-140138486D01*
X177214345Y-140068874D02*
X177110779Y-140093614D01*
X177013083Y-140051266D01*
X176462122Y-139394656D01*
X177615606Y-139732176D02*
X177512040Y-139756915D01*
X177414344Y-139714568D01*
X176863383Y-139057958D01*
X178491085Y-138997561D02*
X177848298Y-138231517D01*
X178093169Y-138523343D02*
X178135517Y-138425647D01*
X178281430Y-138303212D01*
X178384996Y-138278472D01*
X178452083Y-138284341D01*
X178549779Y-138326689D01*
X178733433Y-138545559D01*
X178758172Y-138649124D01*
X178752303Y-138716212D01*
X178709955Y-138813908D01*
X178564042Y-138936344D01*
X178460476Y-138961083D01*
X179184173Y-138415992D02*
X178755648Y-137905295D01*
X178878084Y-138051209D02*
X178853344Y-137947643D01*
X178859214Y-137880556D01*
X178901561Y-137782860D01*
X178974518Y-137721642D01*
X179919609Y-137736726D02*
X179877261Y-137834422D01*
X179731348Y-137956858D01*
X179627782Y-137981597D01*
X179530086Y-137939250D01*
X179285215Y-137647423D01*
X179260475Y-137543858D01*
X179302823Y-137446161D01*
X179448736Y-137323726D01*
X179552301Y-137298986D01*
X179649998Y-137341334D01*
X179711215Y-137414290D01*
X179407650Y-137793336D01*
X180643305Y-137191634D02*
X180306607Y-136790373D01*
X180208911Y-136748025D01*
X180105345Y-136772765D01*
X179959432Y-136895201D01*
X179917084Y-136992897D01*
X180612696Y-137155156D02*
X180570349Y-137252852D01*
X180387957Y-137405897D01*
X180284392Y-137430636D01*
X180186696Y-137388289D01*
X180125478Y-137315332D01*
X180100738Y-137211767D01*
X180143086Y-137114070D01*
X180325477Y-136961026D01*
X180367825Y-136863330D01*
X181008088Y-136885545D02*
X180365301Y-136119501D01*
X180836174Y-136532501D02*
X181299915Y-136640674D01*
X180871390Y-136129977D02*
X180824435Y-136666675D01*
X181737655Y-136273366D02*
X181634089Y-136298106D01*
X181567002Y-136292237D01*
X181469306Y-136249889D01*
X181285652Y-136031019D01*
X181260912Y-135927453D01*
X181266782Y-135860366D01*
X181309130Y-135762670D01*
X181418564Y-135670843D01*
X181522130Y-135646104D01*
X181589217Y-135651973D01*
X181686913Y-135694321D01*
X181870567Y-135913191D01*
X181895307Y-136016756D01*
X181889437Y-136083843D01*
X181847090Y-136181540D01*
X181737655Y-136273366D01*
X182221087Y-134997447D02*
X182649612Y-135508143D01*
X181892782Y-135272927D02*
X182229481Y-135674188D01*
X182327177Y-135716536D01*
X182430742Y-135691797D01*
X182540177Y-135599970D01*
X182582525Y-135502274D01*
X182588394Y-135435186D01*
X182476435Y-134783184D02*
X182768262Y-134538313D01*
X182371608Y-134436009D02*
X182922569Y-135092619D01*
X183020265Y-135134966D01*
X183123830Y-135110227D01*
X183196787Y-135049009D01*
G04 #@! TO.C,D17*
X173775000Y-77916666D02*
X173775000Y-77216666D01*
X173941666Y-77216666D01*
X174041666Y-77250000D01*
X174108333Y-77316666D01*
X174141666Y-77383333D01*
X174175000Y-77516666D01*
X174175000Y-77616666D01*
X174141666Y-77750000D01*
X174108333Y-77816666D01*
X174041666Y-77883333D01*
X173941666Y-77916666D01*
X173775000Y-77916666D01*
X174841666Y-77916666D02*
X174441666Y-77916666D01*
X174641666Y-77916666D02*
X174641666Y-77216666D01*
X174575000Y-77316666D01*
X174508333Y-77383333D01*
X174441666Y-77416666D01*
X175075000Y-77216666D02*
X175541666Y-77216666D01*
X175241666Y-77916666D01*
G04 #@! TO.C,D19*
X189650000Y-125541666D02*
X189650000Y-124841666D01*
X189816666Y-124841666D01*
X189916666Y-124875000D01*
X189983333Y-124941666D01*
X190016666Y-125008333D01*
X190050000Y-125141666D01*
X190050000Y-125241666D01*
X190016666Y-125375000D01*
X189983333Y-125441666D01*
X189916666Y-125508333D01*
X189816666Y-125541666D01*
X189650000Y-125541666D01*
X190716666Y-125541666D02*
X190316666Y-125541666D01*
X190516666Y-125541666D02*
X190516666Y-124841666D01*
X190450000Y-124941666D01*
X190383333Y-125008333D01*
X190316666Y-125041666D01*
X191050000Y-125541666D02*
X191183333Y-125541666D01*
X191250000Y-125508333D01*
X191283333Y-125475000D01*
X191350000Y-125375000D01*
X191383333Y-125241666D01*
X191383333Y-124975000D01*
X191350000Y-124908333D01*
X191316666Y-124875000D01*
X191250000Y-124841666D01*
X191116666Y-124841666D01*
X191050000Y-124875000D01*
X191016666Y-124908333D01*
X190983333Y-124975000D01*
X190983333Y-125141666D01*
X191016666Y-125208333D01*
X191050000Y-125241666D01*
X191116666Y-125275000D01*
X191250000Y-125275000D01*
X191316666Y-125241666D01*
X191350000Y-125208333D01*
X191383333Y-125141666D01*
G04 #@! TO.C,D18*
X155704166Y-114356250D02*
X155004166Y-114356250D01*
X155004166Y-114189583D01*
X155037500Y-114089583D01*
X155104166Y-114022916D01*
X155170833Y-113989583D01*
X155304166Y-113956250D01*
X155404166Y-113956250D01*
X155537500Y-113989583D01*
X155604166Y-114022916D01*
X155670833Y-114089583D01*
X155704166Y-114189583D01*
X155704166Y-114356250D01*
X155704166Y-113289583D02*
X155704166Y-113689583D01*
X155704166Y-113489583D02*
X155004166Y-113489583D01*
X155104166Y-113556250D01*
X155170833Y-113622916D01*
X155204166Y-113689583D01*
X155304166Y-112889583D02*
X155270833Y-112956250D01*
X155237500Y-112989583D01*
X155170833Y-113022916D01*
X155137500Y-113022916D01*
X155070833Y-112989583D01*
X155037500Y-112956250D01*
X155004166Y-112889583D01*
X155004166Y-112756250D01*
X155037500Y-112689583D01*
X155070833Y-112656250D01*
X155137500Y-112622916D01*
X155170833Y-112622916D01*
X155237500Y-112656250D01*
X155270833Y-112689583D01*
X155304166Y-112756250D01*
X155304166Y-112889583D01*
X155337500Y-112956250D01*
X155370833Y-112989583D01*
X155437500Y-113022916D01*
X155570833Y-113022916D01*
X155637500Y-112989583D01*
X155670833Y-112956250D01*
X155704166Y-112889583D01*
X155704166Y-112756250D01*
X155670833Y-112689583D01*
X155637500Y-112656250D01*
X155570833Y-112622916D01*
X155437500Y-112622916D01*
X155370833Y-112656250D01*
X155337500Y-112689583D01*
X155304166Y-112756250D01*
G04 #@! TO.C,D16*
X173775000Y-74741666D02*
X173775000Y-74041666D01*
X173941666Y-74041666D01*
X174041666Y-74075000D01*
X174108333Y-74141666D01*
X174141666Y-74208333D01*
X174175000Y-74341666D01*
X174175000Y-74441666D01*
X174141666Y-74575000D01*
X174108333Y-74641666D01*
X174041666Y-74708333D01*
X173941666Y-74741666D01*
X173775000Y-74741666D01*
X174841666Y-74741666D02*
X174441666Y-74741666D01*
X174641666Y-74741666D02*
X174641666Y-74041666D01*
X174575000Y-74141666D01*
X174508333Y-74208333D01*
X174441666Y-74241666D01*
X175441666Y-74041666D02*
X175308333Y-74041666D01*
X175241666Y-74075000D01*
X175208333Y-74108333D01*
X175141666Y-74208333D01*
X175108333Y-74341666D01*
X175108333Y-74608333D01*
X175141666Y-74675000D01*
X175175000Y-74708333D01*
X175241666Y-74741666D01*
X175375000Y-74741666D01*
X175441666Y-74708333D01*
X175475000Y-74675000D01*
X175508333Y-74608333D01*
X175508333Y-74441666D01*
X175475000Y-74375000D01*
X175441666Y-74341666D01*
X175375000Y-74308333D01*
X175241666Y-74308333D01*
X175175000Y-74341666D01*
X175141666Y-74375000D01*
X175108333Y-74441666D01*
G04 #@! TO.C,D15*
X147766666Y-114356250D02*
X147066666Y-114356250D01*
X147066666Y-114189583D01*
X147100000Y-114089583D01*
X147166666Y-114022916D01*
X147233333Y-113989583D01*
X147366666Y-113956250D01*
X147466666Y-113956250D01*
X147600000Y-113989583D01*
X147666666Y-114022916D01*
X147733333Y-114089583D01*
X147766666Y-114189583D01*
X147766666Y-114356250D01*
X147766666Y-113289583D02*
X147766666Y-113689583D01*
X147766666Y-113489583D02*
X147066666Y-113489583D01*
X147166666Y-113556250D01*
X147233333Y-113622916D01*
X147266666Y-113689583D01*
X147066666Y-112656250D02*
X147066666Y-112989583D01*
X147400000Y-113022916D01*
X147366666Y-112989583D01*
X147333333Y-112922916D01*
X147333333Y-112756250D01*
X147366666Y-112689583D01*
X147400000Y-112656250D01*
X147466666Y-112622916D01*
X147633333Y-112622916D01*
X147700000Y-112656250D01*
X147733333Y-112689583D01*
X147766666Y-112756250D01*
X147766666Y-112922916D01*
X147733333Y-112989583D01*
X147700000Y-113022916D01*
G04 #@! TO.C,D14*
X151735416Y-114356250D02*
X151035416Y-114356250D01*
X151035416Y-114189583D01*
X151068750Y-114089583D01*
X151135416Y-114022916D01*
X151202083Y-113989583D01*
X151335416Y-113956250D01*
X151435416Y-113956250D01*
X151568750Y-113989583D01*
X151635416Y-114022916D01*
X151702083Y-114089583D01*
X151735416Y-114189583D01*
X151735416Y-114356250D01*
X151735416Y-113289583D02*
X151735416Y-113689583D01*
X151735416Y-113489583D02*
X151035416Y-113489583D01*
X151135416Y-113556250D01*
X151202083Y-113622916D01*
X151235416Y-113689583D01*
X151268750Y-112689583D02*
X151735416Y-112689583D01*
X151002083Y-112856250D02*
X151502083Y-113022916D01*
X151502083Y-112589583D01*
G04 #@! TO.C,D13*
X151718750Y-89229166D02*
X151718750Y-88529166D01*
X151885416Y-88529166D01*
X151985416Y-88562500D01*
X152052083Y-88629166D01*
X152085416Y-88695833D01*
X152118750Y-88829166D01*
X152118750Y-88929166D01*
X152085416Y-89062500D01*
X152052083Y-89129166D01*
X151985416Y-89195833D01*
X151885416Y-89229166D01*
X151718750Y-89229166D01*
X152785416Y-89229166D02*
X152385416Y-89229166D01*
X152585416Y-89229166D02*
X152585416Y-88529166D01*
X152518750Y-88629166D01*
X152452083Y-88695833D01*
X152385416Y-88729166D01*
X153018750Y-88529166D02*
X153452083Y-88529166D01*
X153218750Y-88795833D01*
X153318750Y-88795833D01*
X153385416Y-88829166D01*
X153418750Y-88862500D01*
X153452083Y-88929166D01*
X153452083Y-89095833D01*
X153418750Y-89162500D01*
X153385416Y-89195833D01*
X153318750Y-89229166D01*
X153118750Y-89229166D01*
X153052083Y-89195833D01*
X153018750Y-89162500D01*
G04 #@! TO.C,D12*
X152343750Y-69979166D02*
X152343750Y-69279166D01*
X152510416Y-69279166D01*
X152610416Y-69312500D01*
X152677083Y-69379166D01*
X152710416Y-69445833D01*
X152743750Y-69579166D01*
X152743750Y-69679166D01*
X152710416Y-69812500D01*
X152677083Y-69879166D01*
X152610416Y-69945833D01*
X152510416Y-69979166D01*
X152343750Y-69979166D01*
X153410416Y-69979166D02*
X153010416Y-69979166D01*
X153210416Y-69979166D02*
X153210416Y-69279166D01*
X153143750Y-69379166D01*
X153077083Y-69445833D01*
X153010416Y-69479166D01*
X153677083Y-69345833D02*
X153710416Y-69312500D01*
X153777083Y-69279166D01*
X153943750Y-69279166D01*
X154010416Y-69312500D01*
X154043750Y-69345833D01*
X154077083Y-69412500D01*
X154077083Y-69479166D01*
X154043750Y-69579166D01*
X153643750Y-69979166D01*
X154077083Y-69979166D01*
G04 #@! TO.C,D11*
X143797916Y-114356250D02*
X143097916Y-114356250D01*
X143097916Y-114189583D01*
X143131250Y-114089583D01*
X143197916Y-114022916D01*
X143264583Y-113989583D01*
X143397916Y-113956250D01*
X143497916Y-113956250D01*
X143631250Y-113989583D01*
X143697916Y-114022916D01*
X143764583Y-114089583D01*
X143797916Y-114189583D01*
X143797916Y-114356250D01*
X143797916Y-113289583D02*
X143797916Y-113689583D01*
X143797916Y-113489583D02*
X143097916Y-113489583D01*
X143197916Y-113556250D01*
X143264583Y-113622916D01*
X143297916Y-113689583D01*
X143797916Y-112622916D02*
X143797916Y-113022916D01*
X143797916Y-112822916D02*
X143097916Y-112822916D01*
X143197916Y-112889583D01*
X143264583Y-112956250D01*
X143297916Y-113022916D01*
G04 #@! TO.C,D10*
X132650000Y-101966666D02*
X132650000Y-101266666D01*
X132816666Y-101266666D01*
X132916666Y-101300000D01*
X132983333Y-101366666D01*
X133016666Y-101433333D01*
X133050000Y-101566666D01*
X133050000Y-101666666D01*
X133016666Y-101800000D01*
X132983333Y-101866666D01*
X132916666Y-101933333D01*
X132816666Y-101966666D01*
X132650000Y-101966666D01*
X133716666Y-101966666D02*
X133316666Y-101966666D01*
X133516666Y-101966666D02*
X133516666Y-101266666D01*
X133450000Y-101366666D01*
X133383333Y-101433333D01*
X133316666Y-101466666D01*
X134150000Y-101266666D02*
X134216666Y-101266666D01*
X134283333Y-101300000D01*
X134316666Y-101333333D01*
X134350000Y-101400000D01*
X134383333Y-101533333D01*
X134383333Y-101700000D01*
X134350000Y-101833333D01*
X134316666Y-101900000D01*
X134283333Y-101933333D01*
X134216666Y-101966666D01*
X134150000Y-101966666D01*
X134083333Y-101933333D01*
X134050000Y-101900000D01*
X134016666Y-101833333D01*
X133983333Y-101700000D01*
X133983333Y-101533333D01*
X134016666Y-101400000D01*
X134050000Y-101333333D01*
X134083333Y-101300000D01*
X134150000Y-101266666D01*
G04 #@! TO.C,D9*
X133052083Y-82229166D02*
X133052083Y-81529166D01*
X133218750Y-81529166D01*
X133318750Y-81562500D01*
X133385416Y-81629166D01*
X133418750Y-81695833D01*
X133452083Y-81829166D01*
X133452083Y-81929166D01*
X133418750Y-82062500D01*
X133385416Y-82129166D01*
X133318750Y-82195833D01*
X133218750Y-82229166D01*
X133052083Y-82229166D01*
X133785416Y-82229166D02*
X133918750Y-82229166D01*
X133985416Y-82195833D01*
X134018750Y-82162500D01*
X134085416Y-82062500D01*
X134118750Y-81929166D01*
X134118750Y-81662500D01*
X134085416Y-81595833D01*
X134052083Y-81562500D01*
X133985416Y-81529166D01*
X133852083Y-81529166D01*
X133785416Y-81562500D01*
X133752083Y-81595833D01*
X133718750Y-81662500D01*
X133718750Y-81829166D01*
X133752083Y-81895833D01*
X133785416Y-81929166D01*
X133852083Y-81962500D01*
X133985416Y-81962500D01*
X134052083Y-81929166D01*
X134085416Y-81895833D01*
X134118750Y-81829166D01*
G04 #@! TO.C,D8*
X133052083Y-63229166D02*
X133052083Y-62529166D01*
X133218750Y-62529166D01*
X133318750Y-62562500D01*
X133385416Y-62629166D01*
X133418750Y-62695833D01*
X133452083Y-62829166D01*
X133452083Y-62929166D01*
X133418750Y-63062500D01*
X133385416Y-63129166D01*
X133318750Y-63195833D01*
X133218750Y-63229166D01*
X133052083Y-63229166D01*
X133852083Y-62829166D02*
X133785416Y-62795833D01*
X133752083Y-62762500D01*
X133718750Y-62695833D01*
X133718750Y-62662500D01*
X133752083Y-62595833D01*
X133785416Y-62562500D01*
X133852083Y-62529166D01*
X133985416Y-62529166D01*
X134052083Y-62562500D01*
X134085416Y-62595833D01*
X134118750Y-62662500D01*
X134118750Y-62695833D01*
X134085416Y-62762500D01*
X134052083Y-62795833D01*
X133985416Y-62829166D01*
X133852083Y-62829166D01*
X133785416Y-62862500D01*
X133752083Y-62895833D01*
X133718750Y-62962500D01*
X133718750Y-63095833D01*
X133752083Y-63162500D01*
X133785416Y-63195833D01*
X133852083Y-63229166D01*
X133985416Y-63229166D01*
X134052083Y-63195833D01*
X134085416Y-63162500D01*
X134118750Y-63095833D01*
X134118750Y-62962500D01*
X134085416Y-62895833D01*
X134052083Y-62862500D01*
X133985416Y-62829166D01*
G04 #@! TO.C,D7*
X190052083Y-122229166D02*
X190052083Y-121529166D01*
X190218750Y-121529166D01*
X190318750Y-121562500D01*
X190385416Y-121629166D01*
X190418750Y-121695833D01*
X190452083Y-121829166D01*
X190452083Y-121929166D01*
X190418750Y-122062500D01*
X190385416Y-122129166D01*
X190318750Y-122195833D01*
X190218750Y-122229166D01*
X190052083Y-122229166D01*
X190685416Y-121529166D02*
X191152083Y-121529166D01*
X190852083Y-122229166D01*
G04 #@! TO.C,D6*
X113970833Y-107285416D02*
X113970833Y-106585416D01*
X114137500Y-106585416D01*
X114237500Y-106618750D01*
X114304166Y-106685416D01*
X114337500Y-106752083D01*
X114370833Y-106885416D01*
X114370833Y-106985416D01*
X114337500Y-107118750D01*
X114304166Y-107185416D01*
X114237500Y-107252083D01*
X114137500Y-107285416D01*
X113970833Y-107285416D01*
X114970833Y-106585416D02*
X114837500Y-106585416D01*
X114770833Y-106618750D01*
X114737500Y-106652083D01*
X114670833Y-106752083D01*
X114637500Y-106885416D01*
X114637500Y-107152083D01*
X114670833Y-107218750D01*
X114704166Y-107252083D01*
X114770833Y-107285416D01*
X114904166Y-107285416D01*
X114970833Y-107252083D01*
X115004166Y-107218750D01*
X115037500Y-107152083D01*
X115037500Y-106985416D01*
X115004166Y-106918750D01*
X114970833Y-106885416D01*
X114904166Y-106852083D01*
X114770833Y-106852083D01*
X114704166Y-106885416D01*
X114670833Y-106918750D01*
X114637500Y-106985416D01*
G04 #@! TO.C,D5*
X114052083Y-88229166D02*
X114052083Y-87529166D01*
X114218750Y-87529166D01*
X114318750Y-87562500D01*
X114385416Y-87629166D01*
X114418750Y-87695833D01*
X114452083Y-87829166D01*
X114452083Y-87929166D01*
X114418750Y-88062500D01*
X114385416Y-88129166D01*
X114318750Y-88195833D01*
X114218750Y-88229166D01*
X114052083Y-88229166D01*
X115085416Y-87529166D02*
X114752083Y-87529166D01*
X114718750Y-87862500D01*
X114752083Y-87829166D01*
X114818750Y-87795833D01*
X114985416Y-87795833D01*
X115052083Y-87829166D01*
X115085416Y-87862500D01*
X115118750Y-87929166D01*
X115118750Y-88095833D01*
X115085416Y-88162500D01*
X115052083Y-88195833D01*
X114985416Y-88229166D01*
X114818750Y-88229166D01*
X114752083Y-88195833D01*
X114718750Y-88162500D01*
G04 #@! TO.C,D4*
X114002083Y-69229166D02*
X114002083Y-68529166D01*
X114168750Y-68529166D01*
X114268750Y-68562500D01*
X114335416Y-68629166D01*
X114368750Y-68695833D01*
X114402083Y-68829166D01*
X114402083Y-68929166D01*
X114368750Y-69062500D01*
X114335416Y-69129166D01*
X114268750Y-69195833D01*
X114168750Y-69229166D01*
X114002083Y-69229166D01*
X115002083Y-68762500D02*
X115002083Y-69229166D01*
X114835416Y-68495833D02*
X114668750Y-68995833D01*
X115102083Y-68995833D01*
G04 #@! TO.C,D3*
X95233333Y-118716666D02*
X95233333Y-118016666D01*
X95400000Y-118016666D01*
X95500000Y-118050000D01*
X95566666Y-118116666D01*
X95600000Y-118183333D01*
X95633333Y-118316666D01*
X95633333Y-118416666D01*
X95600000Y-118550000D01*
X95566666Y-118616666D01*
X95500000Y-118683333D01*
X95400000Y-118716666D01*
X95233333Y-118716666D01*
X95866666Y-118016666D02*
X96300000Y-118016666D01*
X96066666Y-118283333D01*
X96166666Y-118283333D01*
X96233333Y-118316666D01*
X96266666Y-118350000D01*
X96300000Y-118416666D01*
X96300000Y-118583333D01*
X96266666Y-118650000D01*
X96233333Y-118683333D01*
X96166666Y-118716666D01*
X95966666Y-118716666D01*
X95900000Y-118683333D01*
X95866666Y-118650000D01*
G04 #@! TO.C,D2*
X95052083Y-100229166D02*
X95052083Y-99529166D01*
X95218750Y-99529166D01*
X95318750Y-99562500D01*
X95385416Y-99629166D01*
X95418750Y-99695833D01*
X95452083Y-99829166D01*
X95452083Y-99929166D01*
X95418750Y-100062500D01*
X95385416Y-100129166D01*
X95318750Y-100195833D01*
X95218750Y-100229166D01*
X95052083Y-100229166D01*
X95718750Y-99595833D02*
X95752083Y-99562500D01*
X95818750Y-99529166D01*
X95985416Y-99529166D01*
X96052083Y-99562500D01*
X96085416Y-99595833D01*
X96118750Y-99662500D01*
X96118750Y-99729166D01*
X96085416Y-99829166D01*
X95685416Y-100229166D01*
X96118750Y-100229166D01*
G04 #@! TO.C,D1*
X95052083Y-81229166D02*
X95052083Y-80529166D01*
X95218750Y-80529166D01*
X95318750Y-80562500D01*
X95385416Y-80629166D01*
X95418750Y-80695833D01*
X95452083Y-80829166D01*
X95452083Y-80929166D01*
X95418750Y-81062500D01*
X95385416Y-81129166D01*
X95318750Y-81195833D01*
X95218750Y-81229166D01*
X95052083Y-81229166D01*
X96118750Y-81229166D02*
X95718750Y-81229166D01*
X95918750Y-81229166D02*
X95918750Y-80529166D01*
X95852083Y-80629166D01*
X95785416Y-80695833D01*
X95718750Y-80729166D01*
G04 #@! TO.C,JP13*
X158090476Y-116714880D02*
X158090476Y-117429166D01*
X158042857Y-117572023D01*
X157947619Y-117667261D01*
X157804761Y-117714880D01*
X157709523Y-117714880D01*
X158566666Y-117714880D02*
X158566666Y-116714880D01*
X158947619Y-116714880D01*
X159042857Y-116762500D01*
X159090476Y-116810119D01*
X159138095Y-116905357D01*
X159138095Y-117048214D01*
X159090476Y-117143452D01*
X159042857Y-117191071D01*
X158947619Y-117238690D01*
X158566666Y-117238690D01*
X160090476Y-117714880D02*
X159519047Y-117714880D01*
X159804761Y-117714880D02*
X159804761Y-116714880D01*
X159709523Y-116857738D01*
X159614285Y-116952976D01*
X159519047Y-117000595D01*
X160423809Y-116714880D02*
X161042857Y-116714880D01*
X160709523Y-117095833D01*
X160852380Y-117095833D01*
X160947619Y-117143452D01*
X160995238Y-117191071D01*
X161042857Y-117286309D01*
X161042857Y-117524404D01*
X160995238Y-117619642D01*
X160947619Y-117667261D01*
X160852380Y-117714880D01*
X160566666Y-117714880D01*
X160471428Y-117667261D01*
X160423809Y-117619642D01*
G04 #@! TO.C,JP10*
X158090476Y-113539880D02*
X158090476Y-114254166D01*
X158042857Y-114397023D01*
X157947619Y-114492261D01*
X157804761Y-114539880D01*
X157709523Y-114539880D01*
X158566666Y-114539880D02*
X158566666Y-113539880D01*
X158947619Y-113539880D01*
X159042857Y-113587500D01*
X159090476Y-113635119D01*
X159138095Y-113730357D01*
X159138095Y-113873214D01*
X159090476Y-113968452D01*
X159042857Y-114016071D01*
X158947619Y-114063690D01*
X158566666Y-114063690D01*
X160090476Y-114539880D02*
X159519047Y-114539880D01*
X159804761Y-114539880D02*
X159804761Y-113539880D01*
X159709523Y-113682738D01*
X159614285Y-113777976D01*
X159519047Y-113825595D01*
X160709523Y-113539880D02*
X160804761Y-113539880D01*
X160900000Y-113587500D01*
X160947619Y-113635119D01*
X160995238Y-113730357D01*
X161042857Y-113920833D01*
X161042857Y-114158928D01*
X160995238Y-114349404D01*
X160947619Y-114444642D01*
X160900000Y-114492261D01*
X160804761Y-114539880D01*
X160709523Y-114539880D01*
X160614285Y-114492261D01*
X160566666Y-114444642D01*
X160519047Y-114349404D01*
X160471428Y-114158928D01*
X160471428Y-113920833D01*
X160519047Y-113730357D01*
X160566666Y-113635119D01*
X160614285Y-113587500D01*
X160709523Y-113539880D01*
G04 #@! TO.C,JP9*
X158566666Y-110364880D02*
X158566666Y-111079166D01*
X158519047Y-111222023D01*
X158423809Y-111317261D01*
X158280952Y-111364880D01*
X158185714Y-111364880D01*
X159042857Y-111364880D02*
X159042857Y-110364880D01*
X159423809Y-110364880D01*
X159519047Y-110412500D01*
X159566666Y-110460119D01*
X159614285Y-110555357D01*
X159614285Y-110698214D01*
X159566666Y-110793452D01*
X159519047Y-110841071D01*
X159423809Y-110888690D01*
X159042857Y-110888690D01*
X160090476Y-111364880D02*
X160280952Y-111364880D01*
X160376190Y-111317261D01*
X160423809Y-111269642D01*
X160519047Y-111126785D01*
X160566666Y-110936309D01*
X160566666Y-110555357D01*
X160519047Y-110460119D01*
X160471428Y-110412500D01*
X160376190Y-110364880D01*
X160185714Y-110364880D01*
X160090476Y-110412500D01*
X160042857Y-110460119D01*
X159995238Y-110555357D01*
X159995238Y-110793452D01*
X160042857Y-110888690D01*
X160090476Y-110936309D01*
X160185714Y-110983928D01*
X160376190Y-110983928D01*
X160471428Y-110936309D01*
X160519047Y-110888690D01*
X160566666Y-110793452D01*
G04 #@! TO.C,Brd1*
X176734821Y-91654166D02*
X176782440Y-91511309D01*
X176830059Y-91463690D01*
X176925297Y-91416071D01*
X177068154Y-91416071D01*
X177163392Y-91463690D01*
X177211011Y-91511309D01*
X177258630Y-91606547D01*
X177258630Y-91987500D01*
X176258630Y-91987500D01*
X176258630Y-91654166D01*
X176306250Y-91558928D01*
X176353869Y-91511309D01*
X176449107Y-91463690D01*
X176544345Y-91463690D01*
X176639583Y-91511309D01*
X176687202Y-91558928D01*
X176734821Y-91654166D01*
X176734821Y-91987500D01*
X177258630Y-90987500D02*
X176591964Y-90987500D01*
X176782440Y-90987500D02*
X176687202Y-90939880D01*
X176639583Y-90892261D01*
X176591964Y-90797023D01*
X176591964Y-90701785D01*
X177258630Y-89939880D02*
X176258630Y-89939880D01*
X177211011Y-89939880D02*
X177258630Y-90035119D01*
X177258630Y-90225595D01*
X177211011Y-90320833D01*
X177163392Y-90368452D01*
X177068154Y-90416071D01*
X176782440Y-90416071D01*
X176687202Y-90368452D01*
X176639583Y-90320833D01*
X176591964Y-90225595D01*
X176591964Y-90035119D01*
X176639583Y-89939880D01*
X177258630Y-88939880D02*
X177258630Y-89511309D01*
X177258630Y-89225595D02*
X176258630Y-89225595D01*
X176401488Y-89320833D01*
X176496726Y-89416071D01*
X176544345Y-89511309D01*
G04 #@! TO.C,U2*
X193374134Y-128403007D02*
X193547782Y-127418199D01*
X193922947Y-127484351D01*
X194008469Y-127547784D01*
X194047096Y-127602949D01*
X194077454Y-127705009D01*
X194052647Y-127845696D01*
X193989213Y-127931218D01*
X193934049Y-127969845D01*
X193831989Y-128000202D01*
X193456824Y-127934051D01*
X194813964Y-127641461D02*
X194689929Y-128344895D01*
X194618227Y-128477313D01*
X194507898Y-128554566D01*
X194358942Y-128576655D01*
X194265151Y-128560117D01*
X195175423Y-128333794D02*
X195925753Y-128466097D01*
X196408414Y-127922606D02*
X197018057Y-128030102D01*
X196623636Y-128347384D01*
X196764323Y-128372191D01*
X196849845Y-128435625D01*
X196888472Y-128490789D01*
X196918830Y-128592849D01*
X196877485Y-128827328D01*
X196814051Y-128912850D01*
X196758887Y-128951476D01*
X196656827Y-128981834D01*
X196375453Y-128932220D01*
X196289931Y-128868787D01*
X196251304Y-128813622D01*
X197376684Y-128190045D02*
X197431849Y-128151418D01*
X197533909Y-128121061D01*
X197768387Y-128162406D01*
X197853909Y-128225839D01*
X197892536Y-128281004D01*
X197922894Y-128383064D01*
X197906356Y-128476855D01*
X197834653Y-128609273D01*
X197172678Y-129072793D01*
X197782321Y-129180289D01*
X198565612Y-128302978D02*
X198659403Y-128319516D01*
X198744926Y-128382949D01*
X198783552Y-128438114D01*
X198813910Y-128540174D01*
X198827730Y-128736025D01*
X198786385Y-128970504D01*
X198706414Y-129149817D01*
X198642980Y-129235339D01*
X198587815Y-129273966D01*
X198485755Y-129304324D01*
X198391964Y-129287786D01*
X198306442Y-129224352D01*
X198267815Y-129169188D01*
X198237457Y-129067127D01*
X198223638Y-128871276D01*
X198264983Y-128636798D01*
X198344954Y-128457484D01*
X198408388Y-128371962D01*
X198463552Y-128333336D01*
X198565612Y-128302978D01*
X199145012Y-129130446D02*
X199613968Y-129213136D01*
X199001607Y-129395282D02*
X199503524Y-128468357D01*
X199658145Y-129511048D01*
G04 #@! TO.C, *
G04 #@! TO.C,REF\u002A\u002A*
X193135416Y-142239880D02*
X192802083Y-141763690D01*
X192563988Y-142239880D02*
X192563988Y-141239880D01*
X192944940Y-141239880D01*
X193040178Y-141287500D01*
X193087797Y-141335119D01*
X193135416Y-141430357D01*
X193135416Y-141573214D01*
X193087797Y-141668452D01*
X193040178Y-141716071D01*
X192944940Y-141763690D01*
X192563988Y-141763690D01*
X193563988Y-141716071D02*
X193897321Y-141716071D01*
X194040178Y-142239880D02*
X193563988Y-142239880D01*
X193563988Y-141239880D01*
X194040178Y-141239880D01*
X194802083Y-141716071D02*
X194468750Y-141716071D01*
X194468750Y-142239880D02*
X194468750Y-141239880D01*
X194944940Y-141239880D01*
X195468750Y-141239880D02*
X195468750Y-141477976D01*
X195230654Y-141382738D02*
X195468750Y-141477976D01*
X195706845Y-141382738D01*
X195325892Y-141668452D02*
X195468750Y-141477976D01*
X195611607Y-141668452D01*
X196230654Y-141239880D02*
X196230654Y-141477976D01*
X195992559Y-141382738D02*
X196230654Y-141477976D01*
X196468750Y-141382738D01*
X196087797Y-141668452D02*
X196230654Y-141477976D01*
X196373511Y-141668452D01*
X119416666Y-127702380D02*
X119083333Y-127226190D01*
X118845238Y-127702380D02*
X118845238Y-126702380D01*
X119226190Y-126702380D01*
X119321428Y-126750000D01*
X119369047Y-126797619D01*
X119416666Y-126892857D01*
X119416666Y-127035714D01*
X119369047Y-127130952D01*
X119321428Y-127178571D01*
X119226190Y-127226190D01*
X118845238Y-127226190D01*
X119845238Y-127178571D02*
X120178571Y-127178571D01*
X120321428Y-127702380D02*
X119845238Y-127702380D01*
X119845238Y-126702380D01*
X120321428Y-126702380D01*
X121083333Y-127178571D02*
X120750000Y-127178571D01*
X120750000Y-127702380D02*
X120750000Y-126702380D01*
X121226190Y-126702380D01*
X121750000Y-126702380D02*
X121750000Y-126940476D01*
X121511904Y-126845238D02*
X121750000Y-126940476D01*
X121988095Y-126845238D01*
X121607142Y-127130952D02*
X121750000Y-126940476D01*
X121892857Y-127130952D01*
X122511904Y-126702380D02*
X122511904Y-126940476D01*
X122273809Y-126845238D02*
X122511904Y-126940476D01*
X122750000Y-126845238D01*
X122369047Y-127130952D02*
X122511904Y-126940476D01*
X122654761Y-127130952D01*
X133604166Y-69214880D02*
X133270833Y-68738690D01*
X133032738Y-69214880D02*
X133032738Y-68214880D01*
X133413690Y-68214880D01*
X133508928Y-68262500D01*
X133556547Y-68310119D01*
X133604166Y-68405357D01*
X133604166Y-68548214D01*
X133556547Y-68643452D01*
X133508928Y-68691071D01*
X133413690Y-68738690D01*
X133032738Y-68738690D01*
X134032738Y-68691071D02*
X134366071Y-68691071D01*
X134508928Y-69214880D02*
X134032738Y-69214880D01*
X134032738Y-68214880D01*
X134508928Y-68214880D01*
X135270833Y-68691071D02*
X134937500Y-68691071D01*
X134937500Y-69214880D02*
X134937500Y-68214880D01*
X135413690Y-68214880D01*
X135937500Y-68214880D02*
X135937500Y-68452976D01*
X135699404Y-68357738D02*
X135937500Y-68452976D01*
X136175595Y-68357738D01*
X135794642Y-68643452D02*
X135937500Y-68452976D01*
X136080357Y-68643452D01*
X136699404Y-68214880D02*
X136699404Y-68452976D01*
X136461309Y-68357738D02*
X136699404Y-68452976D01*
X136937500Y-68357738D01*
X136556547Y-68643452D02*
X136699404Y-68452976D01*
X136842261Y-68643452D01*
X95504166Y-86677380D02*
X95170833Y-86201190D01*
X94932738Y-86677380D02*
X94932738Y-85677380D01*
X95313690Y-85677380D01*
X95408928Y-85725000D01*
X95456547Y-85772619D01*
X95504166Y-85867857D01*
X95504166Y-86010714D01*
X95456547Y-86105952D01*
X95408928Y-86153571D01*
X95313690Y-86201190D01*
X94932738Y-86201190D01*
X95932738Y-86153571D02*
X96266071Y-86153571D01*
X96408928Y-86677380D02*
X95932738Y-86677380D01*
X95932738Y-85677380D01*
X96408928Y-85677380D01*
X97170833Y-86153571D02*
X96837500Y-86153571D01*
X96837500Y-86677380D02*
X96837500Y-85677380D01*
X97313690Y-85677380D01*
X97837500Y-85677380D02*
X97837500Y-85915476D01*
X97599404Y-85820238D02*
X97837500Y-85915476D01*
X98075595Y-85820238D01*
X97694642Y-86105952D02*
X97837500Y-85915476D01*
X97980357Y-86105952D01*
X98599404Y-85677380D02*
X98599404Y-85915476D01*
X98361309Y-85820238D02*
X98599404Y-85915476D01*
X98837500Y-85820238D01*
X98456547Y-86105952D02*
X98599404Y-85915476D01*
X98742261Y-86105952D01*
G04 #@! TO.C, *
G04 #@! TO.C,D29*
D10*
X192462745Y-109513983D02*
X192962745Y-108647958D01*
X193168941Y-108767005D01*
X193268850Y-108879673D01*
X193303709Y-109009771D01*
X193297329Y-109116059D01*
X193243331Y-109304826D01*
X193171902Y-109428544D01*
X193035425Y-109569691D01*
X192946566Y-109628360D01*
X192816469Y-109663220D01*
X192668941Y-109633031D01*
X192462745Y-109513983D01*
X193739912Y-109206627D02*
X193804961Y-109189197D01*
X193911249Y-109195577D01*
X194117445Y-109314624D01*
X194176114Y-109403483D01*
X194193544Y-109468531D01*
X194187164Y-109574820D01*
X194139545Y-109657298D01*
X194026877Y-109757207D01*
X193246292Y-109966364D01*
X193782403Y-110275888D01*
X194194796Y-110513983D02*
X194359753Y-110609221D01*
X194466041Y-110615601D01*
X194531090Y-110598171D01*
X194684997Y-110522072D01*
X194821474Y-110380925D01*
X195011951Y-110051010D01*
X195018330Y-109944722D01*
X195000900Y-109879673D01*
X194942231Y-109790815D01*
X194777274Y-109695577D01*
X194670986Y-109689197D01*
X194605937Y-109706627D01*
X194517079Y-109765296D01*
X194398031Y-109971492D01*
X194391651Y-110077780D01*
X194409081Y-110142829D01*
X194467750Y-110231688D01*
X194632708Y-110326926D01*
X194738996Y-110333305D01*
X194804045Y-110315876D01*
X194892903Y-110257207D01*
G04 #@! TO.C,D28*
X170577936Y-60681550D02*
X171443962Y-60181550D01*
X171563009Y-60387746D01*
X171593199Y-60535274D01*
X171558339Y-60665371D01*
X171499670Y-60754230D01*
X171358522Y-60890707D01*
X171234804Y-60962136D01*
X171046038Y-61016134D01*
X170939749Y-61022514D01*
X170809652Y-60987655D01*
X170696984Y-60887746D01*
X170577936Y-60681550D01*
X171837674Y-61053955D02*
X171902722Y-61071385D01*
X171991581Y-61130054D01*
X172110628Y-61336250D01*
X172117008Y-61442538D01*
X172099578Y-61507587D01*
X172040909Y-61596446D01*
X171958431Y-61644065D01*
X171810903Y-61674254D01*
X171030317Y-61465096D01*
X171339841Y-62001207D01*
X172120427Y-62210365D02*
X172114047Y-62104077D01*
X172131477Y-62039028D01*
X172190146Y-61950170D01*
X172231385Y-61926360D01*
X172337674Y-61919980D01*
X172402722Y-61937410D01*
X172491581Y-61996079D01*
X172586819Y-62161036D01*
X172593199Y-62267324D01*
X172575769Y-62332373D01*
X172517100Y-62421232D01*
X172475860Y-62445041D01*
X172369572Y-62451421D01*
X172304523Y-62433991D01*
X172215665Y-62375322D01*
X172120427Y-62210365D01*
X172031569Y-62151696D01*
X171966520Y-62134266D01*
X171860232Y-62140646D01*
X171695274Y-62235884D01*
X171636605Y-62324742D01*
X171619176Y-62389791D01*
X171625555Y-62496079D01*
X171720793Y-62661036D01*
X171809652Y-62719705D01*
X171874701Y-62737135D01*
X171980989Y-62730755D01*
X172145946Y-62635517D01*
X172204615Y-62546659D01*
X172222045Y-62481610D01*
X172215665Y-62375322D01*
G04 #@! TO.C,D27*
X144095714Y-51612380D02*
X144095714Y-50612380D01*
X144333809Y-50612380D01*
X144476666Y-50660000D01*
X144571904Y-50755238D01*
X144619523Y-50850476D01*
X144667142Y-51040952D01*
X144667142Y-51183809D01*
X144619523Y-51374285D01*
X144571904Y-51469523D01*
X144476666Y-51564761D01*
X144333809Y-51612380D01*
X144095714Y-51612380D01*
X145048095Y-50707619D02*
X145095714Y-50660000D01*
X145190952Y-50612380D01*
X145429047Y-50612380D01*
X145524285Y-50660000D01*
X145571904Y-50707619D01*
X145619523Y-50802857D01*
X145619523Y-50898095D01*
X145571904Y-51040952D01*
X145000476Y-51612380D01*
X145619523Y-51612380D01*
X145952857Y-50612380D02*
X146619523Y-50612380D01*
X146190952Y-51612380D01*
G04 #@! TO.C,D26*
X113414464Y-52374880D02*
X113414464Y-51374880D01*
X113652559Y-51374880D01*
X113795416Y-51422500D01*
X113890654Y-51517738D01*
X113938273Y-51612976D01*
X113985892Y-51803452D01*
X113985892Y-51946309D01*
X113938273Y-52136785D01*
X113890654Y-52232023D01*
X113795416Y-52327261D01*
X113652559Y-52374880D01*
X113414464Y-52374880D01*
X114366845Y-51470119D02*
X114414464Y-51422500D01*
X114509702Y-51374880D01*
X114747797Y-51374880D01*
X114843035Y-51422500D01*
X114890654Y-51470119D01*
X114938273Y-51565357D01*
X114938273Y-51660595D01*
X114890654Y-51803452D01*
X114319226Y-52374880D01*
X114938273Y-52374880D01*
X115795416Y-51374880D02*
X115604940Y-51374880D01*
X115509702Y-51422500D01*
X115462083Y-51470119D01*
X115366845Y-51612976D01*
X115319226Y-51803452D01*
X115319226Y-52184404D01*
X115366845Y-52279642D01*
X115414464Y-52327261D01*
X115509702Y-52374880D01*
X115700178Y-52374880D01*
X115795416Y-52327261D01*
X115843035Y-52279642D01*
X115890654Y-52184404D01*
X115890654Y-51946309D01*
X115843035Y-51851071D01*
X115795416Y-51803452D01*
X115700178Y-51755833D01*
X115509702Y-51755833D01*
X115414464Y-51803452D01*
X115366845Y-51851071D01*
X115319226Y-51946309D01*
G04 #@! TO.C,D25*
X93414464Y-62374880D02*
X93414464Y-61374880D01*
X93652559Y-61374880D01*
X93795416Y-61422500D01*
X93890654Y-61517738D01*
X93938273Y-61612976D01*
X93985892Y-61803452D01*
X93985892Y-61946309D01*
X93938273Y-62136785D01*
X93890654Y-62232023D01*
X93795416Y-62327261D01*
X93652559Y-62374880D01*
X93414464Y-62374880D01*
X94366845Y-61470119D02*
X94414464Y-61422500D01*
X94509702Y-61374880D01*
X94747797Y-61374880D01*
X94843035Y-61422500D01*
X94890654Y-61470119D01*
X94938273Y-61565357D01*
X94938273Y-61660595D01*
X94890654Y-61803452D01*
X94319226Y-62374880D01*
X94938273Y-62374880D01*
X95843035Y-61374880D02*
X95366845Y-61374880D01*
X95319226Y-61851071D01*
X95366845Y-61803452D01*
X95462083Y-61755833D01*
X95700178Y-61755833D01*
X95795416Y-61803452D01*
X95843035Y-61851071D01*
X95890654Y-61946309D01*
X95890654Y-62184404D01*
X95843035Y-62279642D01*
X95795416Y-62327261D01*
X95700178Y-62374880D01*
X95462083Y-62374880D01*
X95366845Y-62327261D01*
X95319226Y-62279642D01*
G04 #@! TO.C,D24*
X80845714Y-82862380D02*
X80845714Y-81862380D01*
X81083809Y-81862380D01*
X81226666Y-81910000D01*
X81321904Y-82005238D01*
X81369523Y-82100476D01*
X81417142Y-82290952D01*
X81417142Y-82433809D01*
X81369523Y-82624285D01*
X81321904Y-82719523D01*
X81226666Y-82814761D01*
X81083809Y-82862380D01*
X80845714Y-82862380D01*
X81798095Y-81957619D02*
X81845714Y-81910000D01*
X81940952Y-81862380D01*
X82179047Y-81862380D01*
X82274285Y-81910000D01*
X82321904Y-81957619D01*
X82369523Y-82052857D01*
X82369523Y-82148095D01*
X82321904Y-82290952D01*
X81750476Y-82862380D01*
X82369523Y-82862380D01*
X83226666Y-82195714D02*
X83226666Y-82862380D01*
X82988571Y-81814761D02*
X82750476Y-82529047D01*
X83369523Y-82529047D01*
G04 #@! TO.C,D23*
X81095714Y-101862380D02*
X81095714Y-100862380D01*
X81333809Y-100862380D01*
X81476666Y-100910000D01*
X81571904Y-101005238D01*
X81619523Y-101100476D01*
X81667142Y-101290952D01*
X81667142Y-101433809D01*
X81619523Y-101624285D01*
X81571904Y-101719523D01*
X81476666Y-101814761D01*
X81333809Y-101862380D01*
X81095714Y-101862380D01*
X82048095Y-100957619D02*
X82095714Y-100910000D01*
X82190952Y-100862380D01*
X82429047Y-100862380D01*
X82524285Y-100910000D01*
X82571904Y-100957619D01*
X82619523Y-101052857D01*
X82619523Y-101148095D01*
X82571904Y-101290952D01*
X82000476Y-101862380D01*
X82619523Y-101862380D01*
X82952857Y-100862380D02*
X83571904Y-100862380D01*
X83238571Y-101243333D01*
X83381428Y-101243333D01*
X83476666Y-101290952D01*
X83524285Y-101338571D01*
X83571904Y-101433809D01*
X83571904Y-101671904D01*
X83524285Y-101767142D01*
X83476666Y-101814761D01*
X83381428Y-101862380D01*
X83095714Y-101862380D01*
X83000476Y-101814761D01*
X82952857Y-101767142D01*
G04 #@! TO.C,D22*
X113375245Y-118051483D02*
X113875245Y-117185458D01*
X114081441Y-117304505D01*
X114181350Y-117417173D01*
X114216209Y-117547271D01*
X114209829Y-117653559D01*
X114155831Y-117842326D01*
X114084402Y-117966044D01*
X113947925Y-118107191D01*
X113859066Y-118165860D01*
X113728969Y-118200720D01*
X113581441Y-118170531D01*
X113375245Y-118051483D01*
X114652412Y-117744127D02*
X114717461Y-117726697D01*
X114823749Y-117733077D01*
X115029945Y-117852124D01*
X115088614Y-117940983D01*
X115106044Y-118006031D01*
X115099664Y-118112320D01*
X115052045Y-118194798D01*
X114939377Y-118294707D01*
X114158792Y-118503864D01*
X114694903Y-118813388D01*
X115477198Y-118220317D02*
X115542247Y-118202887D01*
X115648535Y-118209267D01*
X115854731Y-118328315D01*
X115913400Y-118417173D01*
X115930830Y-118482222D01*
X115924451Y-118588510D01*
X115876831Y-118670989D01*
X115764164Y-118770897D01*
X114983578Y-118980054D01*
X115519689Y-119289578D01*
G04 #@! TO.C,D21*
X153803411Y-128918185D02*
X152863719Y-128576165D01*
X152945152Y-128352429D01*
X153038759Y-128234474D01*
X153160827Y-128177552D01*
X153266608Y-128165379D01*
X153461884Y-128185778D01*
X153596126Y-128234638D01*
X153758828Y-128344532D01*
X153832036Y-128421853D01*
X153888957Y-128543920D01*
X153884845Y-128694449D01*
X153803411Y-128918185D01*
X153278947Y-127713793D02*
X153250486Y-127652759D01*
X153238312Y-127546978D01*
X153319746Y-127323242D01*
X153397066Y-127250034D01*
X153458100Y-127221573D01*
X153563881Y-127209399D01*
X153653376Y-127241973D01*
X153771331Y-127335580D01*
X154112858Y-128067987D01*
X154324585Y-127486273D01*
X154650318Y-126591327D02*
X154454878Y-127128295D01*
X154552598Y-126859811D02*
X153612906Y-126517791D01*
X153714574Y-126656145D01*
X153771495Y-126778213D01*
X153783669Y-126883994D01*
G04 #@! TO.C,D20*
X183367206Y-134669465D02*
X182724418Y-133903421D01*
X182906809Y-133750376D01*
X183046853Y-133695028D01*
X183181028Y-133706766D01*
X183278724Y-133749114D01*
X183437638Y-133864418D01*
X183529465Y-133973853D01*
X183615422Y-134150375D01*
X183640162Y-134253941D01*
X183628423Y-134388115D01*
X183549597Y-134516421D01*
X183367206Y-134669465D01*
X183515202Y-133364199D02*
X183521071Y-133297111D01*
X183563419Y-133199415D01*
X183745811Y-133046371D01*
X183849376Y-133021631D01*
X183916463Y-133027500D01*
X184014159Y-133069848D01*
X184075377Y-133142805D01*
X184130726Y-133282849D01*
X184060293Y-134087895D01*
X184534511Y-133689979D01*
X184365942Y-132526019D02*
X184438898Y-132464801D01*
X184542464Y-132440061D01*
X184609551Y-132445931D01*
X184707247Y-132488278D01*
X184866161Y-132603583D01*
X185019206Y-132785974D01*
X185105163Y-132962496D01*
X185129903Y-133066062D01*
X185124034Y-133133149D01*
X185081686Y-133230845D01*
X185008729Y-133292063D01*
X184905164Y-133316803D01*
X184838077Y-133310933D01*
X184740380Y-133268586D01*
X184581466Y-133153281D01*
X184428422Y-132970890D01*
X184342464Y-132794368D01*
X184317725Y-132690802D01*
X184323594Y-132623715D01*
X184365942Y-132526019D01*
G04 #@! TO.C,SW1*
D14*
X198377083Y-114983333D02*
X198410416Y-114883333D01*
X198410416Y-114716666D01*
X198377083Y-114650000D01*
X198343750Y-114616666D01*
X198277083Y-114583333D01*
X198210416Y-114583333D01*
X198143750Y-114616666D01*
X198110416Y-114650000D01*
X198077083Y-114716666D01*
X198043750Y-114850000D01*
X198010416Y-114916666D01*
X197977083Y-114950000D01*
X197910416Y-114983333D01*
X197843750Y-114983333D01*
X197777083Y-114950000D01*
X197743750Y-114916666D01*
X197710416Y-114850000D01*
X197710416Y-114683333D01*
X197743750Y-114583333D01*
X197710416Y-114350000D02*
X198410416Y-114183333D01*
X197910416Y-114050000D01*
X198410416Y-113916666D01*
X197710416Y-113750000D01*
X198410416Y-113116666D02*
X198410416Y-113516666D01*
X198410416Y-113316666D02*
X197710416Y-113316666D01*
X197810416Y-113383333D01*
X197877083Y-113450000D01*
X197910416Y-113516666D01*
G04 #@! TO.C,R2*
X176402083Y-111614880D02*
X176068750Y-111138690D01*
X175830654Y-111614880D02*
X175830654Y-110614880D01*
X176211607Y-110614880D01*
X176306845Y-110662500D01*
X176354464Y-110710119D01*
X176402083Y-110805357D01*
X176402083Y-110948214D01*
X176354464Y-111043452D01*
X176306845Y-111091071D01*
X176211607Y-111138690D01*
X175830654Y-111138690D01*
X176783035Y-110710119D02*
X176830654Y-110662500D01*
X176925892Y-110614880D01*
X177163988Y-110614880D01*
X177259226Y-110662500D01*
X177306845Y-110710119D01*
X177354464Y-110805357D01*
X177354464Y-110900595D01*
X177306845Y-111043452D01*
X176735416Y-111614880D01*
X177354464Y-111614880D01*
G04 #@! TO.C,R1*
X176402083Y-108614880D02*
X176068750Y-108138690D01*
X175830654Y-108614880D02*
X175830654Y-107614880D01*
X176211607Y-107614880D01*
X176306845Y-107662500D01*
X176354464Y-107710119D01*
X176402083Y-107805357D01*
X176402083Y-107948214D01*
X176354464Y-108043452D01*
X176306845Y-108091071D01*
X176211607Y-108138690D01*
X175830654Y-108138690D01*
X177354464Y-108614880D02*
X176783035Y-108614880D01*
X177068750Y-108614880D02*
X177068750Y-107614880D01*
X176973511Y-107757738D01*
X176878273Y-107852976D01*
X176783035Y-107900595D01*
G04 #@! TO.C,JP4*
X173597916Y-92402380D02*
X173597916Y-93116666D01*
X173550297Y-93259523D01*
X173455059Y-93354761D01*
X173312202Y-93402380D01*
X173216964Y-93402380D01*
X174074107Y-93402380D02*
X174074107Y-92402380D01*
X174455059Y-92402380D01*
X174550297Y-92450000D01*
X174597916Y-92497619D01*
X174645535Y-92592857D01*
X174645535Y-92735714D01*
X174597916Y-92830952D01*
X174550297Y-92878571D01*
X174455059Y-92926190D01*
X174074107Y-92926190D01*
X175502678Y-92735714D02*
X175502678Y-93402380D01*
X175264583Y-92354761D02*
X175026488Y-93069047D01*
X175645535Y-93069047D01*
G04 #@! TO.C,JP3*
X173597916Y-89227380D02*
X173597916Y-89941666D01*
X173550297Y-90084523D01*
X173455059Y-90179761D01*
X173312202Y-90227380D01*
X173216964Y-90227380D01*
X174074107Y-90227380D02*
X174074107Y-89227380D01*
X174455059Y-89227380D01*
X174550297Y-89275000D01*
X174597916Y-89322619D01*
X174645535Y-89417857D01*
X174645535Y-89560714D01*
X174597916Y-89655952D01*
X174550297Y-89703571D01*
X174455059Y-89751190D01*
X174074107Y-89751190D01*
X174978869Y-89227380D02*
X175597916Y-89227380D01*
X175264583Y-89608333D01*
X175407440Y-89608333D01*
X175502678Y-89655952D01*
X175550297Y-89703571D01*
X175597916Y-89798809D01*
X175597916Y-90036904D01*
X175550297Y-90132142D01*
X175502678Y-90179761D01*
X175407440Y-90227380D01*
X175121726Y-90227380D01*
X175026488Y-90179761D01*
X174978869Y-90132142D01*
G04 #@! TO.C,JP2*
X173597916Y-86052380D02*
X173597916Y-86766666D01*
X173550297Y-86909523D01*
X173455059Y-87004761D01*
X173312202Y-87052380D01*
X173216964Y-87052380D01*
X174074107Y-87052380D02*
X174074107Y-86052380D01*
X174455059Y-86052380D01*
X174550297Y-86100000D01*
X174597916Y-86147619D01*
X174645535Y-86242857D01*
X174645535Y-86385714D01*
X174597916Y-86480952D01*
X174550297Y-86528571D01*
X174455059Y-86576190D01*
X174074107Y-86576190D01*
X175026488Y-86147619D02*
X175074107Y-86100000D01*
X175169345Y-86052380D01*
X175407440Y-86052380D01*
X175502678Y-86100000D01*
X175550297Y-86147619D01*
X175597916Y-86242857D01*
X175597916Y-86338095D01*
X175550297Y-86480952D01*
X174978869Y-87052380D01*
X175597916Y-87052380D01*
G04 #@! TO.C,JP1*
X173597916Y-82877380D02*
X173597916Y-83591666D01*
X173550297Y-83734523D01*
X173455059Y-83829761D01*
X173312202Y-83877380D01*
X173216964Y-83877380D01*
X174074107Y-83877380D02*
X174074107Y-82877380D01*
X174455059Y-82877380D01*
X174550297Y-82925000D01*
X174597916Y-82972619D01*
X174645535Y-83067857D01*
X174645535Y-83210714D01*
X174597916Y-83305952D01*
X174550297Y-83353571D01*
X174455059Y-83401190D01*
X174074107Y-83401190D01*
X175597916Y-83877380D02*
X175026488Y-83877380D01*
X175312202Y-83877380D02*
X175312202Y-82877380D01*
X175216964Y-83020238D01*
X175121726Y-83115476D01*
X175026488Y-83163095D01*
G04 #@! TD*
M02*
