M48
; DRILL file {KiCad 5.1.8} date Thu Jan  7 10:58:39 2021
; FORMAT={-:-/ absolute / inch / decimal}
; #@! TF.CreationDate,2021-01-07T10:58:39+01:00
; #@! TF.GenerationSoftware,Kicad,Pcbnew,5.1.8
; #@! TF.FileFunction,NonPlated,1,2,NPTH
FMAT,2
INCH
T1C0.0591
T2C0.0669
T3C0.0748
T4C0.1575
%
G90
G05
T1
X7.5642Y-5.2804
X7.5957Y-5.102
X7.8356Y-5.3282
X7.8671Y-5.1499
T2
X4.7375Y-2.7869
X5.1375Y-2.7869
X6.9411Y-5.7331
X7.1982Y-6.0395
X5.4871Y-2.3124
X5.8871Y-2.3124
X3.2372Y-2.7418
X3.6372Y-2.7418
X3.2375Y-4.2419
X3.6375Y-4.2419
X3.9875Y-3.0231
X4.3875Y-3.0231
X4.7371Y-2.0369
X5.1371Y-2.0369
X6.1484Y-5.2351
X6.4948Y-5.4351
X5.213Y-5.0428
X5.6069Y-5.1122
X6.237Y-2.4306
X6.637Y-2.4306
X3.2372Y-3.4919
X3.6372Y-3.4919
X4.7375Y-3.5369
X5.1375Y-3.5369
X5.4875Y-3.0625
X5.8875Y-3.0625
X3.9872Y-2.2731
X4.3872Y-2.2731
X3.9875Y-3.7731
X4.3875Y-3.7731
X6.2375Y-3.9306
X6.6375Y-3.9306
X6.2375Y-3.1806
X6.6375Y-3.1806
X5.4875Y-3.8125
X5.8875Y-3.8125
T3
X4.7206Y-2.0369
X5.1537Y-2.0369
X6.1341Y-5.2269
X6.5091Y-5.4434
X5.1967Y-5.0399
X5.6232Y-5.1151
X6.2205Y-2.4306
X6.6536Y-2.4306
X3.2207Y-3.4919
X3.6538Y-3.4919
X4.721Y-3.5369
X5.154Y-3.5369
X5.471Y-3.0625
X5.904Y-3.0625
X3.9706Y-2.2731
X4.4037Y-2.2731
X3.971Y-3.7731
X4.404Y-3.7731
X6.221Y-3.9306
X6.654Y-3.9306
X6.221Y-3.1806
X6.654Y-3.1806
X5.471Y-3.8125
X5.904Y-3.8125
X4.721Y-2.7869
X5.154Y-2.7869
X6.9304Y-5.7204
X7.2088Y-6.0522
X5.4706Y-2.3124
X5.9036Y-2.3124
X3.2207Y-2.7418
X3.6538Y-2.7418
X3.221Y-4.2419
X3.654Y-4.2419
X3.971Y-3.0231
X4.404Y-3.0231
T4
X4.9371Y-2.0369
X6.3216Y-5.3351
X5.4099Y-5.0775
X6.437Y-2.4306
X3.4372Y-3.4919
X4.9375Y-3.5369
X5.6875Y-3.0625
X4.1872Y-2.2731
X4.1875Y-3.7731
X6.4375Y-3.9306
X6.4375Y-3.1806
X5.6875Y-3.8125
X4.9375Y-2.7869
X7.0696Y-5.8863
X5.6871Y-2.3124
X3.4372Y-2.7418
X3.4375Y-4.2419
X4.1875Y-3.0231
T0
M30
