G04 #@! TF.GenerationSoftware,KiCad,Pcbnew,5.1.8*
G04 #@! TF.CreationDate,2021-01-07T10:58:40+01:00*
G04 #@! TF.ProjectId,split_3x,73706c69-745f-4337-982e-6b696361645f,rev?*
G04 #@! TF.SameCoordinates,Original*
G04 #@! TF.FileFunction,Legend,Bot*
G04 #@! TF.FilePolarity,Positive*
%FSLAX46Y46*%
G04 Gerber Fmt 4.6, Leading zero omitted, Abs format (unit mm)*
G04 Created by KiCad (PCBNEW 5.1.8) date 2021-01-07 10:58:40*
%MOMM*%
%LPD*%
G01*
G04 APERTURE LIST*
%ADD10C,0.400000*%
%ADD11C,0.300000*%
%ADD12C,0.200000*%
%ADD13C,0.120000*%
%ADD14C,0.150000*%
G04 APERTURE END LIST*
D10*
X191857142Y-84556785D02*
X188857142Y-84931785D01*
X188857142Y-85407976D01*
X189000000Y-85675833D01*
X189285714Y-85830595D01*
X189571428Y-85890119D01*
X190142857Y-85913928D01*
X190571428Y-85860357D01*
X191142857Y-85693690D01*
X191428571Y-85562738D01*
X191714285Y-85336547D01*
X191857142Y-85032976D01*
X191857142Y-84556785D01*
X191857142Y-86556785D02*
X189857142Y-86806785D01*
X190428571Y-86735357D02*
X190142857Y-86866309D01*
X190000000Y-86979404D01*
X189857142Y-87187738D01*
X189857142Y-87378214D01*
X191857142Y-88652023D02*
X190285714Y-88848452D01*
X190000000Y-88788928D01*
X189857142Y-88616309D01*
X189857142Y-88235357D01*
X190000000Y-88027023D01*
X191714285Y-88669880D02*
X191857142Y-88461547D01*
X191857142Y-87985357D01*
X191714285Y-87812738D01*
X191428571Y-87753214D01*
X191142857Y-87788928D01*
X190857142Y-87919880D01*
X190714285Y-88128214D01*
X190714285Y-88604404D01*
X190571428Y-88812738D01*
X191714285Y-90479404D02*
X191857142Y-90271071D01*
X191857142Y-89890119D01*
X191714285Y-89717500D01*
X191571428Y-89640119D01*
X191285714Y-89580595D01*
X190428571Y-89687738D01*
X190142857Y-89818690D01*
X190000000Y-89931785D01*
X189857142Y-90140119D01*
X189857142Y-90521071D01*
X190000000Y-90693690D01*
X189857142Y-92425833D02*
X191857142Y-92175833D01*
X189857142Y-91568690D02*
X191428571Y-91372261D01*
X191714285Y-91431785D01*
X191857142Y-91604404D01*
X191857142Y-91890119D01*
X191714285Y-92098452D01*
X191571428Y-92211547D01*
X191857142Y-94080595D02*
X191857142Y-93128214D01*
X188857142Y-93503214D01*
X191857142Y-95604404D02*
X190285714Y-95800833D01*
X190000000Y-95741309D01*
X189857142Y-95568690D01*
X189857142Y-95187738D01*
X190000000Y-94979404D01*
X191714285Y-95622261D02*
X191857142Y-95413928D01*
X191857142Y-94937738D01*
X191714285Y-94765119D01*
X191428571Y-94705595D01*
X191142857Y-94741309D01*
X190857142Y-94872261D01*
X190714285Y-95080595D01*
X190714285Y-95556785D01*
X190571428Y-95765119D01*
X191857142Y-97413928D02*
X188857142Y-97788928D01*
X191714285Y-97431785D02*
X191857142Y-97223452D01*
X191857142Y-96842500D01*
X191714285Y-96669880D01*
X191571428Y-96592500D01*
X191285714Y-96532976D01*
X190428571Y-96640119D01*
X190142857Y-96771071D01*
X190000000Y-96884166D01*
X189857142Y-97092500D01*
X189857142Y-97473452D01*
X190000000Y-97646071D01*
D11*
X195147321Y-85432142D02*
X193647321Y-85432142D01*
X194218750Y-85432142D02*
X194147321Y-85575000D01*
X194147321Y-85860714D01*
X194218750Y-86003571D01*
X194290178Y-86075000D01*
X194433035Y-86146428D01*
X194861607Y-86146428D01*
X195004464Y-86075000D01*
X195075892Y-86003571D01*
X195147321Y-85860714D01*
X195147321Y-85575000D01*
X195075892Y-85432142D01*
X194147321Y-86646428D02*
X195147321Y-87003571D01*
X194147321Y-87360714D02*
X195147321Y-87003571D01*
X195504464Y-86860714D01*
X195575892Y-86789285D01*
X195647321Y-86646428D01*
X195147321Y-89075000D02*
X193647321Y-89075000D01*
X194718750Y-89575000D01*
X193647321Y-90075000D01*
X195147321Y-90075000D01*
X195147321Y-91432142D02*
X194361607Y-91432142D01*
X194218750Y-91360714D01*
X194147321Y-91217857D01*
X194147321Y-90932142D01*
X194218750Y-90789285D01*
X195075892Y-91432142D02*
X195147321Y-91289285D01*
X195147321Y-90932142D01*
X195075892Y-90789285D01*
X194933035Y-90717857D01*
X194790178Y-90717857D01*
X194647321Y-90789285D01*
X194575892Y-90932142D01*
X194575892Y-91289285D01*
X194504464Y-91432142D01*
X194147321Y-92146428D02*
X195147321Y-92146428D01*
X194290178Y-92146428D02*
X194218750Y-92217857D01*
X194147321Y-92360714D01*
X194147321Y-92575000D01*
X194218750Y-92717857D01*
X194361607Y-92789285D01*
X195147321Y-92789285D01*
X194147321Y-94146428D02*
X195361607Y-94146428D01*
X195504464Y-94075000D01*
X195575892Y-94003571D01*
X195647321Y-93860714D01*
X195647321Y-93646428D01*
X195575892Y-93503571D01*
X195075892Y-94146428D02*
X195147321Y-94003571D01*
X195147321Y-93717857D01*
X195075892Y-93575000D01*
X195004464Y-93503571D01*
X194861607Y-93432142D01*
X194433035Y-93432142D01*
X194290178Y-93503571D01*
X194218750Y-93575000D01*
X194147321Y-93717857D01*
X194147321Y-94003571D01*
X194218750Y-94146428D01*
X195147321Y-95075000D02*
X195075892Y-94932142D01*
X195004464Y-94860714D01*
X194861607Y-94789285D01*
X194433035Y-94789285D01*
X194290178Y-94860714D01*
X194218750Y-94932142D01*
X194147321Y-95075000D01*
X194147321Y-95289285D01*
X194218750Y-95432142D01*
X194290178Y-95503571D01*
X194433035Y-95575000D01*
X194861607Y-95575000D01*
X195004464Y-95503571D01*
X195075892Y-95432142D01*
X195147321Y-95289285D01*
X195147321Y-95075000D01*
X195147321Y-96217857D02*
X193647321Y-96217857D01*
X193647321Y-96717857D02*
X195147321Y-97217857D01*
X193647321Y-97717857D01*
X195004464Y-98217857D02*
X195075892Y-98289285D01*
X195147321Y-98217857D01*
X195075892Y-98146428D01*
X195004464Y-98217857D01*
X195147321Y-98217857D01*
D12*
X176022619Y-82795833D02*
X176022619Y-82605357D01*
X175975000Y-82510119D01*
X175879761Y-82414880D01*
X175689285Y-82367261D01*
X175355952Y-82367261D01*
X175165476Y-82414880D01*
X175070238Y-82510119D01*
X175022619Y-82605357D01*
X175022619Y-82795833D01*
X175070238Y-82891071D01*
X175165476Y-82986309D01*
X175355952Y-83033928D01*
X175689285Y-83033928D01*
X175879761Y-82986309D01*
X175975000Y-82891071D01*
X176022619Y-82795833D01*
X175022619Y-81462500D02*
X175022619Y-81938690D01*
X176022619Y-81938690D01*
X175546428Y-81129166D02*
X175546428Y-80795833D01*
X175022619Y-80652976D02*
X175022619Y-81129166D01*
X176022619Y-81129166D01*
X176022619Y-80652976D01*
X175022619Y-80224404D02*
X176022619Y-80224404D01*
X176022619Y-79986309D01*
X175975000Y-79843452D01*
X175879761Y-79748214D01*
X175784523Y-79700595D01*
X175594047Y-79652976D01*
X175451190Y-79652976D01*
X175260714Y-79700595D01*
X175165476Y-79748214D01*
X175070238Y-79843452D01*
X175022619Y-79986309D01*
X175022619Y-80224404D01*
X173989285Y-83676785D02*
X173132142Y-83676785D01*
X173036904Y-83724404D01*
X172989285Y-83819642D01*
X172989285Y-83867261D01*
X174322619Y-83676785D02*
X174275000Y-83724404D01*
X174227380Y-83676785D01*
X174275000Y-83629166D01*
X174322619Y-83676785D01*
X174227380Y-83676785D01*
X173989285Y-82772023D02*
X173322619Y-82772023D01*
X173989285Y-83200595D02*
X173465476Y-83200595D01*
X173370238Y-83152976D01*
X173322619Y-83057738D01*
X173322619Y-82914880D01*
X173370238Y-82819642D01*
X173417857Y-82772023D01*
X173322619Y-82295833D02*
X173989285Y-82295833D01*
X173894047Y-82295833D02*
X173941666Y-82248214D01*
X173989285Y-82152976D01*
X173989285Y-82010119D01*
X173941666Y-81914880D01*
X173846428Y-81867261D01*
X173322619Y-81867261D01*
X173846428Y-81867261D02*
X173941666Y-81819642D01*
X173989285Y-81724404D01*
X173989285Y-81581547D01*
X173941666Y-81486309D01*
X173846428Y-81438690D01*
X173322619Y-81438690D01*
X173989285Y-80962500D02*
X172989285Y-80962500D01*
X173941666Y-80962500D02*
X173989285Y-80867261D01*
X173989285Y-80676785D01*
X173941666Y-80581547D01*
X173894047Y-80533928D01*
X173798809Y-80486309D01*
X173513095Y-80486309D01*
X173417857Y-80533928D01*
X173370238Y-80581547D01*
X173322619Y-80676785D01*
X173322619Y-80867261D01*
X173370238Y-80962500D01*
X173370238Y-79676785D02*
X173322619Y-79772023D01*
X173322619Y-79962500D01*
X173370238Y-80057738D01*
X173465476Y-80105357D01*
X173846428Y-80105357D01*
X173941666Y-80057738D01*
X173989285Y-79962500D01*
X173989285Y-79772023D01*
X173941666Y-79676785D01*
X173846428Y-79629166D01*
X173751190Y-79629166D01*
X173655952Y-80105357D01*
X173322619Y-79200595D02*
X173989285Y-79200595D01*
X173798809Y-79200595D02*
X173894047Y-79152976D01*
X173941666Y-79105357D01*
X173989285Y-79010119D01*
X173989285Y-78914880D01*
X173370238Y-78629166D02*
X173322619Y-78533928D01*
X173322619Y-78343452D01*
X173370238Y-78248214D01*
X173465476Y-78200595D01*
X173513095Y-78200595D01*
X173608333Y-78248214D01*
X173655952Y-78343452D01*
X173655952Y-78486309D01*
X173703571Y-78581547D01*
X173798809Y-78629166D01*
X173846428Y-78629166D01*
X173941666Y-78581547D01*
X173989285Y-78486309D01*
X173989285Y-78343452D01*
X173941666Y-78248214D01*
X164576785Y-119482738D02*
X164576785Y-119101785D01*
X164910119Y-119339880D02*
X164052976Y-119339880D01*
X163957738Y-119292261D01*
X163910119Y-119197023D01*
X163910119Y-119101785D01*
X163910119Y-118768452D02*
X164576785Y-118768452D01*
X164386309Y-118768452D02*
X164481547Y-118720833D01*
X164529166Y-118673214D01*
X164576785Y-118577976D01*
X164576785Y-118482738D01*
X163910119Y-117720833D02*
X164433928Y-117720833D01*
X164529166Y-117768452D01*
X164576785Y-117863690D01*
X164576785Y-118054166D01*
X164529166Y-118149404D01*
X163957738Y-117720833D02*
X163910119Y-117816071D01*
X163910119Y-118054166D01*
X163957738Y-118149404D01*
X164052976Y-118197023D01*
X164148214Y-118197023D01*
X164243452Y-118149404D01*
X164291071Y-118054166D01*
X164291071Y-117816071D01*
X164338690Y-117720833D01*
X163957738Y-116816071D02*
X163910119Y-116911309D01*
X163910119Y-117101785D01*
X163957738Y-117197023D01*
X164005357Y-117244642D01*
X164100595Y-117292261D01*
X164386309Y-117292261D01*
X164481547Y-117244642D01*
X164529166Y-117197023D01*
X164576785Y-117101785D01*
X164576785Y-116911309D01*
X164529166Y-116816071D01*
X163910119Y-116387500D02*
X164910119Y-116387500D01*
X164291071Y-116292261D02*
X163910119Y-116006547D01*
X164576785Y-116006547D02*
X164195833Y-116387500D01*
X163910119Y-115577976D02*
X164910119Y-115577976D01*
X164529166Y-115577976D02*
X164576785Y-115482738D01*
X164576785Y-115292261D01*
X164529166Y-115197023D01*
X164481547Y-115149404D01*
X164386309Y-115101785D01*
X164100595Y-115101785D01*
X164005357Y-115149404D01*
X163957738Y-115197023D01*
X163910119Y-115292261D01*
X163910119Y-115482738D01*
X163957738Y-115577976D01*
X163910119Y-114244642D02*
X164433928Y-114244642D01*
X164529166Y-114292261D01*
X164576785Y-114387500D01*
X164576785Y-114577976D01*
X164529166Y-114673214D01*
X163957738Y-114244642D02*
X163910119Y-114339880D01*
X163910119Y-114577976D01*
X163957738Y-114673214D01*
X164052976Y-114720833D01*
X164148214Y-114720833D01*
X164243452Y-114673214D01*
X164291071Y-114577976D01*
X164291071Y-114339880D01*
X164338690Y-114244642D01*
X163910119Y-113625595D02*
X163957738Y-113720833D01*
X164052976Y-113768452D01*
X164910119Y-113768452D01*
X163910119Y-113101785D02*
X163957738Y-113197023D01*
X164052976Y-113244642D01*
X164910119Y-113244642D01*
X162876785Y-118601785D02*
X162019642Y-118601785D01*
X161924404Y-118649404D01*
X161876785Y-118744642D01*
X161876785Y-118792261D01*
X163210119Y-118601785D02*
X163162500Y-118649404D01*
X163114880Y-118601785D01*
X163162500Y-118554166D01*
X163210119Y-118601785D01*
X163114880Y-118601785D01*
X162876785Y-117697023D02*
X162210119Y-117697023D01*
X162876785Y-118125595D02*
X162352976Y-118125595D01*
X162257738Y-118077976D01*
X162210119Y-117982738D01*
X162210119Y-117839880D01*
X162257738Y-117744642D01*
X162305357Y-117697023D01*
X162210119Y-117220833D02*
X162876785Y-117220833D01*
X162781547Y-117220833D02*
X162829166Y-117173214D01*
X162876785Y-117077976D01*
X162876785Y-116935119D01*
X162829166Y-116839880D01*
X162733928Y-116792261D01*
X162210119Y-116792261D01*
X162733928Y-116792261D02*
X162829166Y-116744642D01*
X162876785Y-116649404D01*
X162876785Y-116506547D01*
X162829166Y-116411309D01*
X162733928Y-116363690D01*
X162210119Y-116363690D01*
X162876785Y-115887500D02*
X161876785Y-115887500D01*
X162829166Y-115887500D02*
X162876785Y-115792261D01*
X162876785Y-115601785D01*
X162829166Y-115506547D01*
X162781547Y-115458928D01*
X162686309Y-115411309D01*
X162400595Y-115411309D01*
X162305357Y-115458928D01*
X162257738Y-115506547D01*
X162210119Y-115601785D01*
X162210119Y-115792261D01*
X162257738Y-115887500D01*
X162257738Y-114601785D02*
X162210119Y-114697023D01*
X162210119Y-114887500D01*
X162257738Y-114982738D01*
X162352976Y-115030357D01*
X162733928Y-115030357D01*
X162829166Y-114982738D01*
X162876785Y-114887500D01*
X162876785Y-114697023D01*
X162829166Y-114601785D01*
X162733928Y-114554166D01*
X162638690Y-114554166D01*
X162543452Y-115030357D01*
X162210119Y-114125595D02*
X162876785Y-114125595D01*
X162686309Y-114125595D02*
X162781547Y-114077976D01*
X162829166Y-114030357D01*
X162876785Y-113935119D01*
X162876785Y-113839880D01*
X162257738Y-113554166D02*
X162210119Y-113458928D01*
X162210119Y-113268452D01*
X162257738Y-113173214D01*
X162352976Y-113125595D01*
X162400595Y-113125595D01*
X162495833Y-113173214D01*
X162543452Y-113268452D01*
X162543452Y-113411309D01*
X162591071Y-113506547D01*
X162686309Y-113554166D01*
X162733928Y-113554166D01*
X162829166Y-113506547D01*
X162876785Y-113411309D01*
X162876785Y-113268452D01*
X162829166Y-113173214D01*
D13*
G04 #@! TO.C,spi1*
X189430574Y-150375298D02*
X188144999Y-148843209D01*
X187898485Y-151660873D02*
X189430574Y-150375298D01*
X189430574Y-150375298D02*
X187898485Y-151660873D01*
X180431548Y-139650676D02*
X181717123Y-141182765D01*
X178899459Y-140936251D02*
X180431548Y-139650676D01*
X180431548Y-139650676D02*
X178899459Y-140936251D01*
X178705952Y-159374324D02*
X180238041Y-158088749D01*
X177420377Y-157842235D02*
X178705952Y-159374324D01*
X178063165Y-158608280D02*
X177420377Y-157842235D01*
X178705952Y-159374324D02*
X178063165Y-158608280D01*
X169706926Y-148649702D02*
X171239015Y-147364127D01*
X169706926Y-148649702D02*
X170992501Y-150181791D01*
X182068750Y-149512500D02*
G75*
G03*
X182068750Y-149512500I-2500000J0D01*
G01*
X175025107Y-134918826D02*
X165909178Y-142567999D01*
X165909178Y-142567999D02*
X167516147Y-144483110D01*
X167516147Y-144483110D02*
X176785285Y-136705380D01*
X176785285Y-136705380D02*
X175178316Y-134790269D01*
X175178316Y-134790269D02*
X175025107Y-134918826D01*
D12*
G04 #@! TO.C,D17*
X172325000Y-76900000D02*
X172325000Y-75500000D01*
X174925000Y-76550000D02*
X174925000Y-75800000D01*
X172525000Y-76900000D02*
X172525000Y-75500000D01*
X171925000Y-76900000D02*
X171925000Y-75500000D01*
X172125000Y-76900000D02*
X172125000Y-75500000D01*
X171925000Y-76900000D02*
X176725000Y-76900000D01*
X174325000Y-76200000D02*
X174925000Y-76550000D01*
X176725000Y-76900000D02*
X176725000Y-75500000D01*
X171925000Y-75500000D02*
X176725000Y-75500000D01*
X174325000Y-76550000D02*
X174325000Y-75800000D01*
X174325000Y-76200000D02*
X174025000Y-76200000D01*
X174925000Y-75800000D02*
X174325000Y-76200000D01*
X174925000Y-76200000D02*
X175225000Y-76200000D01*
G04 #@! TO.C,D19*
X188200000Y-124525000D02*
X188200000Y-123125000D01*
X190800000Y-124175000D02*
X190800000Y-123425000D01*
X188400000Y-124525000D02*
X188400000Y-123125000D01*
X187800000Y-124525000D02*
X187800000Y-123125000D01*
X188000000Y-124525000D02*
X188000000Y-123125000D01*
X187800000Y-124525000D02*
X192600000Y-124525000D01*
X190200000Y-123825000D02*
X190800000Y-124175000D01*
X192600000Y-124525000D02*
X192600000Y-123125000D01*
X187800000Y-123125000D02*
X192600000Y-123125000D01*
X190200000Y-124175000D02*
X190200000Y-123425000D01*
X190200000Y-123825000D02*
X189900000Y-123825000D01*
X190800000Y-123425000D02*
X190200000Y-123825000D01*
X190800000Y-123825000D02*
X191100000Y-123825000D01*
G04 #@! TO.C,D18*
X154687500Y-115806250D02*
X153287500Y-115806250D01*
X154337500Y-113206250D02*
X153587500Y-113206250D01*
X154687500Y-115606250D02*
X153287500Y-115606250D01*
X154687500Y-116206250D02*
X153287500Y-116206250D01*
X154687500Y-116006250D02*
X153287500Y-116006250D01*
X154687500Y-116206250D02*
X154687500Y-111406250D01*
X153987500Y-113806250D02*
X154337500Y-113206250D01*
X154687500Y-111406250D02*
X153287500Y-111406250D01*
X153287500Y-116206250D02*
X153287500Y-111406250D01*
X154337500Y-113806250D02*
X153587500Y-113806250D01*
X153987500Y-113806250D02*
X153987500Y-114106250D01*
X153587500Y-113206250D02*
X153987500Y-113806250D01*
X153987500Y-113206250D02*
X153987500Y-112906250D01*
G04 #@! TO.C,D16*
X172325000Y-73725000D02*
X172325000Y-72325000D01*
X174925000Y-73375000D02*
X174925000Y-72625000D01*
X172525000Y-73725000D02*
X172525000Y-72325000D01*
X171925000Y-73725000D02*
X171925000Y-72325000D01*
X172125000Y-73725000D02*
X172125000Y-72325000D01*
X171925000Y-73725000D02*
X176725000Y-73725000D01*
X174325000Y-73025000D02*
X174925000Y-73375000D01*
X176725000Y-73725000D02*
X176725000Y-72325000D01*
X171925000Y-72325000D02*
X176725000Y-72325000D01*
X174325000Y-73375000D02*
X174325000Y-72625000D01*
X174325000Y-73025000D02*
X174025000Y-73025000D01*
X174925000Y-72625000D02*
X174325000Y-73025000D01*
X174925000Y-73025000D02*
X175225000Y-73025000D01*
G04 #@! TO.C,D15*
X146750000Y-115806250D02*
X145350000Y-115806250D01*
X146400000Y-113206250D02*
X145650000Y-113206250D01*
X146750000Y-115606250D02*
X145350000Y-115606250D01*
X146750000Y-116206250D02*
X145350000Y-116206250D01*
X146750000Y-116006250D02*
X145350000Y-116006250D01*
X146750000Y-116206250D02*
X146750000Y-111406250D01*
X146050000Y-113806250D02*
X146400000Y-113206250D01*
X146750000Y-111406250D02*
X145350000Y-111406250D01*
X145350000Y-116206250D02*
X145350000Y-111406250D01*
X146400000Y-113806250D02*
X145650000Y-113806250D01*
X146050000Y-113806250D02*
X146050000Y-114106250D01*
X145650000Y-113206250D02*
X146050000Y-113806250D01*
X146050000Y-113206250D02*
X146050000Y-112906250D01*
G04 #@! TO.C,D14*
X150718750Y-115806250D02*
X149318750Y-115806250D01*
X150368750Y-113206250D02*
X149618750Y-113206250D01*
X150718750Y-115606250D02*
X149318750Y-115606250D01*
X150718750Y-116206250D02*
X149318750Y-116206250D01*
X150718750Y-116006250D02*
X149318750Y-116006250D01*
X150718750Y-116206250D02*
X150718750Y-111406250D01*
X150018750Y-113806250D02*
X150368750Y-113206250D01*
X150718750Y-111406250D02*
X149318750Y-111406250D01*
X149318750Y-116206250D02*
X149318750Y-111406250D01*
X150368750Y-113806250D02*
X149618750Y-113806250D01*
X150018750Y-113806250D02*
X150018750Y-114106250D01*
X149618750Y-113206250D02*
X150018750Y-113806250D01*
X150018750Y-113206250D02*
X150018750Y-112906250D01*
G04 #@! TO.C,D13*
X150268750Y-88212500D02*
X150268750Y-86812500D01*
X152868750Y-87862500D02*
X152868750Y-87112500D01*
X150468750Y-88212500D02*
X150468750Y-86812500D01*
X149868750Y-88212500D02*
X149868750Y-86812500D01*
X150068750Y-88212500D02*
X150068750Y-86812500D01*
X149868750Y-88212500D02*
X154668750Y-88212500D01*
X152268750Y-87512500D02*
X152868750Y-87862500D01*
X154668750Y-88212500D02*
X154668750Y-86812500D01*
X149868750Y-86812500D02*
X154668750Y-86812500D01*
X152268750Y-87862500D02*
X152268750Y-87112500D01*
X152268750Y-87512500D02*
X151968750Y-87512500D01*
X152868750Y-87112500D02*
X152268750Y-87512500D01*
X152868750Y-87512500D02*
X153168750Y-87512500D01*
G04 #@! TO.C,D12*
X150893750Y-68962500D02*
X150893750Y-67562500D01*
X153493750Y-68612500D02*
X153493750Y-67862500D01*
X151093750Y-68962500D02*
X151093750Y-67562500D01*
X150493750Y-68962500D02*
X150493750Y-67562500D01*
X150693750Y-68962500D02*
X150693750Y-67562500D01*
X150493750Y-68962500D02*
X155293750Y-68962500D01*
X152893750Y-68262500D02*
X153493750Y-68612500D01*
X155293750Y-68962500D02*
X155293750Y-67562500D01*
X150493750Y-67562500D02*
X155293750Y-67562500D01*
X152893750Y-68612500D02*
X152893750Y-67862500D01*
X152893750Y-68262500D02*
X152593750Y-68262500D01*
X153493750Y-67862500D02*
X152893750Y-68262500D01*
X153493750Y-68262500D02*
X153793750Y-68262500D01*
G04 #@! TO.C,D11*
X142781250Y-115806250D02*
X141381250Y-115806250D01*
X142431250Y-113206250D02*
X141681250Y-113206250D01*
X142781250Y-115606250D02*
X141381250Y-115606250D01*
X142781250Y-116206250D02*
X141381250Y-116206250D01*
X142781250Y-116006250D02*
X141381250Y-116006250D01*
X142781250Y-116206250D02*
X142781250Y-111406250D01*
X142081250Y-113806250D02*
X142431250Y-113206250D01*
X142781250Y-111406250D02*
X141381250Y-111406250D01*
X141381250Y-116206250D02*
X141381250Y-111406250D01*
X142431250Y-113806250D02*
X141681250Y-113806250D01*
X142081250Y-113806250D02*
X142081250Y-114106250D01*
X141681250Y-113206250D02*
X142081250Y-113806250D01*
X142081250Y-113206250D02*
X142081250Y-112906250D01*
G04 #@! TO.C,D10*
X131200000Y-100950000D02*
X131200000Y-99550000D01*
X133800000Y-100600000D02*
X133800000Y-99850000D01*
X131400000Y-100950000D02*
X131400000Y-99550000D01*
X130800000Y-100950000D02*
X130800000Y-99550000D01*
X131000000Y-100950000D02*
X131000000Y-99550000D01*
X130800000Y-100950000D02*
X135600000Y-100950000D01*
X133200000Y-100250000D02*
X133800000Y-100600000D01*
X135600000Y-100950000D02*
X135600000Y-99550000D01*
X130800000Y-99550000D02*
X135600000Y-99550000D01*
X133200000Y-100600000D02*
X133200000Y-99850000D01*
X133200000Y-100250000D02*
X132900000Y-100250000D01*
X133800000Y-99850000D02*
X133200000Y-100250000D01*
X133800000Y-100250000D02*
X134100000Y-100250000D01*
G04 #@! TO.C,D9*
X131268750Y-81212500D02*
X131268750Y-79812500D01*
X133868750Y-80862500D02*
X133868750Y-80112500D01*
X131468750Y-81212500D02*
X131468750Y-79812500D01*
X130868750Y-81212500D02*
X130868750Y-79812500D01*
X131068750Y-81212500D02*
X131068750Y-79812500D01*
X130868750Y-81212500D02*
X135668750Y-81212500D01*
X133268750Y-80512500D02*
X133868750Y-80862500D01*
X135668750Y-81212500D02*
X135668750Y-79812500D01*
X130868750Y-79812500D02*
X135668750Y-79812500D01*
X133268750Y-80862500D02*
X133268750Y-80112500D01*
X133268750Y-80512500D02*
X132968750Y-80512500D01*
X133868750Y-80112500D02*
X133268750Y-80512500D01*
X133868750Y-80512500D02*
X134168750Y-80512500D01*
G04 #@! TO.C,D8*
X131268750Y-62212500D02*
X131268750Y-60812500D01*
X133868750Y-61862500D02*
X133868750Y-61112500D01*
X131468750Y-62212500D02*
X131468750Y-60812500D01*
X130868750Y-62212500D02*
X130868750Y-60812500D01*
X131068750Y-62212500D02*
X131068750Y-60812500D01*
X130868750Y-62212500D02*
X135668750Y-62212500D01*
X133268750Y-61512500D02*
X133868750Y-61862500D01*
X135668750Y-62212500D02*
X135668750Y-60812500D01*
X130868750Y-60812500D02*
X135668750Y-60812500D01*
X133268750Y-61862500D02*
X133268750Y-61112500D01*
X133268750Y-61512500D02*
X132968750Y-61512500D01*
X133868750Y-61112500D02*
X133268750Y-61512500D01*
X133868750Y-61512500D02*
X134168750Y-61512500D01*
G04 #@! TO.C,D7*
X188268750Y-121212500D02*
X188268750Y-119812500D01*
X190868750Y-120862500D02*
X190868750Y-120112500D01*
X188468750Y-121212500D02*
X188468750Y-119812500D01*
X187868750Y-121212500D02*
X187868750Y-119812500D01*
X188068750Y-121212500D02*
X188068750Y-119812500D01*
X187868750Y-121212500D02*
X192668750Y-121212500D01*
X190268750Y-120512500D02*
X190868750Y-120862500D01*
X192668750Y-121212500D02*
X192668750Y-119812500D01*
X187868750Y-119812500D02*
X192668750Y-119812500D01*
X190268750Y-120862500D02*
X190268750Y-120112500D01*
X190268750Y-120512500D02*
X189968750Y-120512500D01*
X190868750Y-120112500D02*
X190268750Y-120512500D01*
X190868750Y-120512500D02*
X191168750Y-120512500D01*
G04 #@! TO.C,D6*
X112187500Y-106268750D02*
X112187500Y-104868750D01*
X114787500Y-105918750D02*
X114787500Y-105168750D01*
X112387500Y-106268750D02*
X112387500Y-104868750D01*
X111787500Y-106268750D02*
X111787500Y-104868750D01*
X111987500Y-106268750D02*
X111987500Y-104868750D01*
X111787500Y-106268750D02*
X116587500Y-106268750D01*
X114187500Y-105568750D02*
X114787500Y-105918750D01*
X116587500Y-106268750D02*
X116587500Y-104868750D01*
X111787500Y-104868750D02*
X116587500Y-104868750D01*
X114187500Y-105918750D02*
X114187500Y-105168750D01*
X114187500Y-105568750D02*
X113887500Y-105568750D01*
X114787500Y-105168750D02*
X114187500Y-105568750D01*
X114787500Y-105568750D02*
X115087500Y-105568750D01*
G04 #@! TO.C,D5*
X112268750Y-87212500D02*
X112268750Y-85812500D01*
X114868750Y-86862500D02*
X114868750Y-86112500D01*
X112468750Y-87212500D02*
X112468750Y-85812500D01*
X111868750Y-87212500D02*
X111868750Y-85812500D01*
X112068750Y-87212500D02*
X112068750Y-85812500D01*
X111868750Y-87212500D02*
X116668750Y-87212500D01*
X114268750Y-86512500D02*
X114868750Y-86862500D01*
X116668750Y-87212500D02*
X116668750Y-85812500D01*
X111868750Y-85812500D02*
X116668750Y-85812500D01*
X114268750Y-86862500D02*
X114268750Y-86112500D01*
X114268750Y-86512500D02*
X113968750Y-86512500D01*
X114868750Y-86112500D02*
X114268750Y-86512500D01*
X114868750Y-86512500D02*
X115168750Y-86512500D01*
G04 #@! TO.C,D4*
X112218750Y-68212500D02*
X112218750Y-66812500D01*
X114818750Y-67862500D02*
X114818750Y-67112500D01*
X112418750Y-68212500D02*
X112418750Y-66812500D01*
X111818750Y-68212500D02*
X111818750Y-66812500D01*
X112018750Y-68212500D02*
X112018750Y-66812500D01*
X111818750Y-68212500D02*
X116618750Y-68212500D01*
X114218750Y-67512500D02*
X114818750Y-67862500D01*
X116618750Y-68212500D02*
X116618750Y-66812500D01*
X111818750Y-66812500D02*
X116618750Y-66812500D01*
X114218750Y-67862500D02*
X114218750Y-67112500D01*
X114218750Y-67512500D02*
X113918750Y-67512500D01*
X114818750Y-67112500D02*
X114218750Y-67512500D01*
X114818750Y-67512500D02*
X115118750Y-67512500D01*
G04 #@! TO.C,D3*
X93450000Y-117700000D02*
X93450000Y-116300000D01*
X96050000Y-117350000D02*
X96050000Y-116600000D01*
X93650000Y-117700000D02*
X93650000Y-116300000D01*
X93050000Y-117700000D02*
X93050000Y-116300000D01*
X93250000Y-117700000D02*
X93250000Y-116300000D01*
X93050000Y-117700000D02*
X97850000Y-117700000D01*
X95450000Y-117000000D02*
X96050000Y-117350000D01*
X97850000Y-117700000D02*
X97850000Y-116300000D01*
X93050000Y-116300000D02*
X97850000Y-116300000D01*
X95450000Y-117350000D02*
X95450000Y-116600000D01*
X95450000Y-117000000D02*
X95150000Y-117000000D01*
X96050000Y-116600000D02*
X95450000Y-117000000D01*
X96050000Y-117000000D02*
X96350000Y-117000000D01*
G04 #@! TO.C,D2*
X93268750Y-99212500D02*
X93268750Y-97812500D01*
X95868750Y-98862500D02*
X95868750Y-98112500D01*
X93468750Y-99212500D02*
X93468750Y-97812500D01*
X92868750Y-99212500D02*
X92868750Y-97812500D01*
X93068750Y-99212500D02*
X93068750Y-97812500D01*
X92868750Y-99212500D02*
X97668750Y-99212500D01*
X95268750Y-98512500D02*
X95868750Y-98862500D01*
X97668750Y-99212500D02*
X97668750Y-97812500D01*
X92868750Y-97812500D02*
X97668750Y-97812500D01*
X95268750Y-98862500D02*
X95268750Y-98112500D01*
X95268750Y-98512500D02*
X94968750Y-98512500D01*
X95868750Y-98112500D02*
X95268750Y-98512500D01*
X95868750Y-98512500D02*
X96168750Y-98512500D01*
G04 #@! TO.C,D1*
X93268750Y-80212500D02*
X93268750Y-78812500D01*
X95868750Y-79862500D02*
X95868750Y-79112500D01*
X93468750Y-80212500D02*
X93468750Y-78812500D01*
X92868750Y-80212500D02*
X92868750Y-78812500D01*
X93068750Y-80212500D02*
X93068750Y-78812500D01*
X92868750Y-80212500D02*
X97668750Y-80212500D01*
X95268750Y-79512500D02*
X95868750Y-79862500D01*
X97668750Y-80212500D02*
X97668750Y-78812500D01*
X92868750Y-78812500D02*
X97668750Y-78812500D01*
X95268750Y-79862500D02*
X95268750Y-79112500D01*
X95268750Y-79512500D02*
X94968750Y-79512500D01*
X95868750Y-79112500D02*
X95268750Y-79512500D01*
X95868750Y-79512500D02*
X96168750Y-79512500D01*
D13*
G04 #@! TO.C,JP18*
X158000000Y-112412500D02*
X158000000Y-113012500D01*
X160100000Y-111712500D02*
X158700000Y-111712500D01*
X160800000Y-113012500D02*
X160800000Y-112412500D01*
X158700000Y-113712500D02*
X160100000Y-113712500D01*
X158000000Y-113012500D02*
G75*
G03*
X158700000Y-113712500I700000J0D01*
G01*
X158700000Y-111712500D02*
G75*
G03*
X158000000Y-112412500I0J-700000D01*
G01*
X160800000Y-112412500D02*
G75*
G03*
X160100000Y-111712500I-700000J0D01*
G01*
X160100000Y-113712500D02*
G75*
G03*
X160800000Y-113012500I0J700000D01*
G01*
G04 #@! TO.C,JP15*
X158000000Y-115587500D02*
X158000000Y-116187500D01*
X160100000Y-114887500D02*
X158700000Y-114887500D01*
X160800000Y-116187500D02*
X160800000Y-115587500D01*
X158700000Y-116887500D02*
X160100000Y-116887500D01*
X158000000Y-116187500D02*
G75*
G03*
X158700000Y-116887500I700000J0D01*
G01*
X158700000Y-114887500D02*
G75*
G03*
X158000000Y-115587500I0J-700000D01*
G01*
X160800000Y-115587500D02*
G75*
G03*
X160100000Y-114887500I-700000J0D01*
G01*
X160100000Y-116887500D02*
G75*
G03*
X160800000Y-116187500I0J700000D01*
G01*
G04 #@! TO.C,JP14*
X158000000Y-118762500D02*
X158000000Y-119362500D01*
X160100000Y-118062500D02*
X158700000Y-118062500D01*
X160800000Y-119362500D02*
X160800000Y-118762500D01*
X158700000Y-120062500D02*
X160100000Y-120062500D01*
X158000000Y-119362500D02*
G75*
G03*
X158700000Y-120062500I700000J0D01*
G01*
X158700000Y-118062500D02*
G75*
G03*
X158000000Y-118762500I0J-700000D01*
G01*
X160800000Y-118762500D02*
G75*
G03*
X160100000Y-118062500I-700000J0D01*
G01*
X160100000Y-120062500D02*
G75*
G03*
X160800000Y-119362500I0J700000D01*
G01*
D14*
G04 #@! TO.C,U1*
X182478750Y-105952500D02*
X182478750Y-75472500D01*
X185018750Y-105952500D02*
X182478750Y-105952500D01*
X185018750Y-75472500D02*
X185018750Y-105952500D01*
X182478750Y-75472500D02*
X185018750Y-75472500D01*
X197718750Y-105952500D02*
X197718750Y-75472500D01*
X200258750Y-105952500D02*
X197718750Y-105952500D01*
X200258750Y-75472500D02*
X200258750Y-105952500D01*
X197718750Y-75472500D02*
X200258750Y-75472500D01*
X182478750Y-105952500D02*
X182478750Y-72932500D01*
X200258750Y-72932500D02*
X200258750Y-105952500D01*
X182478750Y-72932500D02*
X200258750Y-72932500D01*
G04 #@! TO.C,U2*
X200114394Y-138372520D02*
X202084010Y-138719816D01*
X203056440Y-133204892D02*
X202084010Y-138719816D01*
X201086824Y-132857596D02*
X203056440Y-133204892D01*
X189214062Y-130510251D02*
X188154808Y-136517579D01*
X200070982Y-138618721D02*
X188154808Y-136517579D01*
X201130236Y-132611394D02*
X200070982Y-138618721D01*
X201130236Y-132611394D02*
X189214062Y-130510251D01*
D12*
G04 #@! TO.C,D29*
X188672436Y-113627564D02*
X193002564Y-116127564D01*
X191172671Y-109298311D02*
X188673311Y-113627329D01*
X195242756Y-111647436D02*
X191172436Y-109297436D01*
D14*
X193510705Y-110647436D02*
X194377564Y-113745994D01*
D12*
X195377564Y-112013943D02*
X193002564Y-116127564D01*
X195242756Y-111647436D02*
X195377564Y-112013943D01*
G04 #@! TO.C,D28*
X177915064Y-60665064D02*
X175415064Y-56334936D01*
X173585171Y-63164189D02*
X177914189Y-60664829D01*
X171234936Y-59094744D02*
X173584936Y-63165064D01*
D14*
X172234936Y-60826795D02*
X173033494Y-57709936D01*
D12*
X171301443Y-58709936D02*
X175415064Y-56334936D01*
X171234936Y-59094744D02*
X171301443Y-58709936D01*
G04 #@! TO.C,D27*
X147750000Y-45250000D02*
X142750000Y-45250000D01*
X147749360Y-50249360D02*
X147749360Y-45250640D01*
X143050000Y-50250000D02*
X147750000Y-50250000D01*
D14*
X145050000Y-50250000D02*
X142750000Y-48000000D01*
D12*
X142750000Y-50000000D02*
X142750000Y-45250000D01*
X143050000Y-50250000D02*
X142750000Y-50000000D01*
G04 #@! TO.C,D26*
X117068750Y-46012500D02*
X112068750Y-46012500D01*
X117068110Y-51011860D02*
X117068110Y-46013140D01*
X112368750Y-51012500D02*
X117068750Y-51012500D01*
D14*
X114368750Y-51012500D02*
X112068750Y-48762500D01*
D12*
X112068750Y-50762500D02*
X112068750Y-46012500D01*
X112368750Y-51012500D02*
X112068750Y-50762500D01*
G04 #@! TO.C,D25*
X97068750Y-56012500D02*
X92068750Y-56012500D01*
X97068110Y-61011860D02*
X97068110Y-56013140D01*
X92368750Y-61012500D02*
X97068750Y-61012500D01*
D14*
X94368750Y-61012500D02*
X92068750Y-58762500D01*
D12*
X92068750Y-60762500D02*
X92068750Y-56012500D01*
X92368750Y-61012500D02*
X92068750Y-60762500D01*
G04 #@! TO.C,D24*
X84500000Y-76500000D02*
X79500000Y-76500000D01*
X84499360Y-81499360D02*
X84499360Y-76500640D01*
X79800000Y-81500000D02*
X84500000Y-81500000D01*
D14*
X81800000Y-81500000D02*
X79500000Y-79250000D01*
D12*
X79500000Y-81250000D02*
X79500000Y-76500000D01*
X79800000Y-81500000D02*
X79500000Y-81250000D01*
G04 #@! TO.C,D23*
X84750000Y-95500000D02*
X79750000Y-95500000D01*
X84749360Y-100499360D02*
X84749360Y-95500640D01*
X80050000Y-100500000D02*
X84750000Y-100500000D01*
D14*
X82050000Y-100500000D02*
X79750000Y-98250000D01*
D12*
X79750000Y-100250000D02*
X79750000Y-95500000D01*
X80050000Y-100500000D02*
X79750000Y-100250000D01*
G04 #@! TO.C,D22*
X109584936Y-122165064D02*
X113915064Y-124665064D01*
X112085171Y-117835811D02*
X109585811Y-122164829D01*
X116155256Y-120184936D02*
X112084936Y-117834936D01*
D14*
X114423205Y-119184936D02*
X115290064Y-122283494D01*
D12*
X116290064Y-120551443D02*
X113915064Y-124665064D01*
X116155256Y-120184936D02*
X116290064Y-120551443D01*
G04 #@! TO.C,D21*
X149074569Y-123308218D02*
X147364468Y-128006681D01*
X153772212Y-125018701D02*
X149074951Y-123309038D01*
X152165537Y-129434874D02*
X153773032Y-125018319D01*
D14*
X152849578Y-127555489D02*
X149948623Y-128947237D01*
D12*
X151828008Y-129631277D02*
X147364468Y-128006681D01*
X152165537Y-129434874D02*
X151828008Y-129631277D01*
G04 #@! TO.C,D20*
X181690421Y-134297994D02*
X181299911Y-134299319D01*
X181299911Y-134299319D02*
X178246670Y-130660608D01*
D14*
X183222510Y-133012419D02*
X180014336Y-132767230D01*
D12*
X181690421Y-134297994D02*
X185290830Y-131276892D01*
X185289928Y-131276813D02*
X182076813Y-127447572D01*
X182076892Y-127446670D02*
X178246670Y-130660608D01*
D13*
G04 #@! TO.C,SW2*
X204143750Y-112350000D02*
X204593750Y-112800000D01*
X204143750Y-115750000D02*
X204593750Y-115300000D01*
X199543750Y-115750000D02*
X199093750Y-115300000D01*
X199543750Y-112350000D02*
X199093750Y-112800000D01*
X200843750Y-116800000D02*
X202843750Y-116800000D01*
X204593750Y-112800000D02*
X204593750Y-115300000D01*
X200843750Y-111300000D02*
X202843750Y-111300000D01*
X199093750Y-112800000D02*
X199093750Y-115300000D01*
G04 #@! TO.C,JP8*
X172887500Y-94450000D02*
X172887500Y-95050000D01*
X174987500Y-93750000D02*
X173587500Y-93750000D01*
X175687500Y-95050000D02*
X175687500Y-94450000D01*
X173587500Y-95750000D02*
X174987500Y-95750000D01*
X172887500Y-95050000D02*
G75*
G03*
X173587500Y-95750000I700000J0D01*
G01*
X173587500Y-93750000D02*
G75*
G03*
X172887500Y-94450000I0J-700000D01*
G01*
X175687500Y-94450000D02*
G75*
G03*
X174987500Y-93750000I-700000J0D01*
G01*
X174987500Y-95750000D02*
G75*
G03*
X175687500Y-95050000I0J700000D01*
G01*
G04 #@! TO.C,JP7*
X172887500Y-91275000D02*
X172887500Y-91875000D01*
X174987500Y-90575000D02*
X173587500Y-90575000D01*
X175687500Y-91875000D02*
X175687500Y-91275000D01*
X173587500Y-92575000D02*
X174987500Y-92575000D01*
X172887500Y-91875000D02*
G75*
G03*
X173587500Y-92575000I700000J0D01*
G01*
X173587500Y-90575000D02*
G75*
G03*
X172887500Y-91275000I0J-700000D01*
G01*
X175687500Y-91275000D02*
G75*
G03*
X174987500Y-90575000I-700000J0D01*
G01*
X174987500Y-92575000D02*
G75*
G03*
X175687500Y-91875000I0J700000D01*
G01*
G04 #@! TO.C,JP6*
X172887500Y-88100000D02*
X172887500Y-88700000D01*
X174987500Y-87400000D02*
X173587500Y-87400000D01*
X175687500Y-88700000D02*
X175687500Y-88100000D01*
X173587500Y-89400000D02*
X174987500Y-89400000D01*
X172887500Y-88700000D02*
G75*
G03*
X173587500Y-89400000I700000J0D01*
G01*
X173587500Y-87400000D02*
G75*
G03*
X172887500Y-88100000I0J-700000D01*
G01*
X175687500Y-88100000D02*
G75*
G03*
X174987500Y-87400000I-700000J0D01*
G01*
X174987500Y-89400000D02*
G75*
G03*
X175687500Y-88700000I0J700000D01*
G01*
G04 #@! TO.C,JP5*
X172887500Y-84925000D02*
X172887500Y-85525000D01*
X174987500Y-84225000D02*
X173587500Y-84225000D01*
X175687500Y-85525000D02*
X175687500Y-84925000D01*
X173587500Y-86225000D02*
X174987500Y-86225000D01*
X172887500Y-85525000D02*
G75*
G03*
X173587500Y-86225000I700000J0D01*
G01*
X173587500Y-84225000D02*
G75*
G03*
X172887500Y-84925000I0J-700000D01*
G01*
X175687500Y-84925000D02*
G75*
G03*
X174987500Y-84225000I-700000J0D01*
G01*
X174987500Y-86225000D02*
G75*
G03*
X175687500Y-85525000I0J700000D01*
G01*
G04 #@! TO.C,spi1*
D14*
X173816132Y-140508417D02*
X173773785Y-140606113D01*
X173627871Y-140728549D01*
X173524306Y-140753288D01*
X173426610Y-140710941D01*
X173396001Y-140674463D01*
X173371261Y-140570897D01*
X173413609Y-140473201D01*
X173523044Y-140381374D01*
X173565391Y-140283678D01*
X173540652Y-140180112D01*
X173510043Y-140143634D01*
X173412347Y-140101286D01*
X173308781Y-140126026D01*
X173199346Y-140217853D01*
X173156999Y-140315549D01*
X172761607Y-140585160D02*
X173404394Y-141351204D01*
X172792216Y-140621638D02*
X172688650Y-140646378D01*
X172542737Y-140768813D01*
X172500389Y-140866510D01*
X172494520Y-140933597D01*
X172519259Y-141037162D01*
X172702913Y-141256032D01*
X172800609Y-141298380D01*
X172867696Y-141304249D01*
X172971262Y-141279510D01*
X173117175Y-141157074D01*
X173159523Y-141059378D01*
X172497044Y-141677426D02*
X172068519Y-141166730D01*
X171854256Y-140911381D02*
X171921344Y-140917251D01*
X171915474Y-140984338D01*
X171848387Y-140978469D01*
X171854256Y-140911381D01*
X171915474Y-140984338D01*
X171730999Y-142320213D02*
X172168739Y-141952906D01*
X171949869Y-142136560D02*
X171307082Y-141370515D01*
X171471865Y-141418733D01*
X171606040Y-141430471D01*
X171709605Y-141405732D01*
X182658827Y-134630139D02*
X183301614Y-135396184D01*
X182689436Y-134666618D02*
X182585870Y-134691357D01*
X182439957Y-134813793D01*
X182397609Y-134911489D01*
X182391740Y-134978577D01*
X182416480Y-135082142D01*
X182600133Y-135301012D01*
X182697829Y-135343360D01*
X182764917Y-135349229D01*
X182868482Y-135324489D01*
X183014395Y-135202054D01*
X183056743Y-135104357D01*
X182394264Y-135722406D02*
X181965739Y-135211709D01*
X181751477Y-134956361D02*
X181818564Y-134962230D01*
X181812694Y-135029318D01*
X181745607Y-135023448D01*
X181751477Y-134956361D01*
X181812694Y-135029318D01*
X182029481Y-136028495D02*
X181600956Y-135517799D01*
X181662174Y-135590755D02*
X181595087Y-135584886D01*
X181491521Y-135609625D01*
X181382086Y-135701452D01*
X181339738Y-135799148D01*
X181364478Y-135902714D01*
X181701176Y-136303975D01*
X181364478Y-135902714D02*
X181266782Y-135860366D01*
X181163216Y-135885106D01*
X181053781Y-135976933D01*
X181011434Y-136074629D01*
X181036173Y-136178194D01*
X181372872Y-136579456D01*
X180898654Y-136977372D02*
X180941001Y-136879676D01*
X180946871Y-136812588D01*
X180922131Y-136709023D01*
X180738477Y-136490153D01*
X180640781Y-136447805D01*
X180573694Y-136441936D01*
X180470128Y-136466676D01*
X180360694Y-136558502D01*
X180318346Y-136656198D01*
X180312476Y-136723286D01*
X180337216Y-136826851D01*
X180520870Y-137045721D01*
X180618566Y-137088069D01*
X180685653Y-137093938D01*
X180789219Y-137069199D01*
X180898654Y-136977372D01*
X180315001Y-137467115D02*
X179886476Y-136956418D01*
X180008911Y-137102332D02*
X179911215Y-137059984D01*
X179844128Y-137054115D01*
X179740562Y-137078854D01*
X179667606Y-137140072D01*
X179731348Y-137956858D02*
X179773695Y-137859162D01*
X179779565Y-137792074D01*
X179754825Y-137688509D01*
X179571172Y-137469639D01*
X179473475Y-137427291D01*
X179406388Y-137421422D01*
X179302823Y-137446161D01*
X179193388Y-137537988D01*
X179151040Y-137635684D01*
X179145171Y-137702772D01*
X179169910Y-137806337D01*
X179353564Y-138025207D01*
X179451260Y-138067555D01*
X179518347Y-138073424D01*
X179621913Y-138048684D01*
X179731348Y-137956858D01*
X178719170Y-137935904D02*
X179147695Y-138446601D01*
X178780388Y-138008861D02*
X178713300Y-138002992D01*
X178609735Y-138027731D01*
X178500300Y-138119558D01*
X178457952Y-138217254D01*
X178482692Y-138320820D01*
X178819390Y-138722081D01*
X178454607Y-139028170D02*
X178026082Y-138517474D01*
X177811819Y-138262126D02*
X177878907Y-138267995D01*
X177873037Y-138335083D01*
X177805950Y-138329213D01*
X177811819Y-138262126D01*
X177873037Y-138335083D01*
X177187081Y-139221480D02*
X176895254Y-139466351D01*
X176863383Y-139057958D02*
X177414344Y-139714568D01*
X177439084Y-139818133D01*
X177396736Y-139915829D01*
X177323779Y-139977047D01*
X177068431Y-140191310D02*
X176639906Y-139680614D01*
X176762342Y-139826527D02*
X176664646Y-139784179D01*
X176597559Y-139778310D01*
X176493993Y-139803049D01*
X176421036Y-139864267D01*
X176265909Y-140864706D02*
X175929210Y-140463445D01*
X175904471Y-140359879D01*
X175946818Y-140262183D01*
X176092732Y-140139748D01*
X176196297Y-140115008D01*
X176235300Y-140828228D02*
X176338865Y-140803489D01*
X176521257Y-140650444D01*
X176563604Y-140552748D01*
X176538865Y-140449182D01*
X176477647Y-140376226D01*
X176379951Y-140333878D01*
X176276385Y-140358617D01*
X176093994Y-140511662D01*
X175990428Y-140536402D01*
X175542212Y-141409798D02*
X175645777Y-141385058D01*
X175791691Y-141262623D01*
X175834038Y-141164926D01*
X175839908Y-141097839D01*
X175815168Y-140994274D01*
X175631514Y-140775404D01*
X175533818Y-140733056D01*
X175466731Y-140727187D01*
X175363166Y-140751926D01*
X175217252Y-140874362D01*
X175174905Y-140972058D01*
X175244516Y-141721757D02*
X174601728Y-140955712D01*
X174926688Y-141491148D02*
X174952690Y-141966628D01*
X174524164Y-141455932D02*
X175060862Y-141502887D01*
X174624385Y-142242108D02*
X173981597Y-141476064D01*
X174226469Y-141767890D02*
X174122903Y-141792630D01*
X173976990Y-141915066D01*
X173934642Y-142012762D01*
X173928773Y-142079849D01*
X173953512Y-142183415D01*
X174137166Y-142402285D01*
X174234862Y-142444632D01*
X174301949Y-142450502D01*
X174405515Y-142425762D01*
X174551428Y-142303326D01*
X174593776Y-142205630D01*
X173602992Y-143099159D02*
X173266294Y-142697897D01*
X173241554Y-142594332D01*
X173283902Y-142496635D01*
X173429815Y-142374200D01*
X173533381Y-142349460D01*
X173572383Y-143062680D02*
X173675949Y-143037941D01*
X173858340Y-142884896D01*
X173900688Y-142787200D01*
X173875948Y-142683634D01*
X173814731Y-142610678D01*
X173717034Y-142568330D01*
X173613469Y-142593070D01*
X173431077Y-142746114D01*
X173327512Y-142770854D01*
X173128774Y-143497075D02*
X173171122Y-143399379D01*
X173146382Y-143295813D01*
X172595422Y-142639203D01*
X172727513Y-143833773D02*
X172769860Y-143736077D01*
X172745121Y-143632511D01*
X172194160Y-142975902D01*
X171852033Y-144568387D02*
X171209246Y-143802343D01*
X171454117Y-144094169D02*
X171350552Y-144118909D01*
X171204639Y-144241345D01*
X171162291Y-144339041D01*
X171156421Y-144406128D01*
X171181161Y-144509694D01*
X171364815Y-144728564D01*
X171462511Y-144770911D01*
X171529598Y-144776781D01*
X171633164Y-144752041D01*
X171779077Y-144629605D01*
X171821425Y-144531909D01*
X171158946Y-145149957D02*
X170730421Y-144639261D01*
X170852856Y-144785174D02*
X170755160Y-144742826D01*
X170688073Y-144736957D01*
X170584507Y-144761697D01*
X170511551Y-144822914D01*
X170362292Y-145756266D02*
X170465858Y-145731527D01*
X170611771Y-145609091D01*
X170654119Y-145511395D01*
X170629379Y-145407829D01*
X170384508Y-145116003D01*
X170286811Y-145073655D01*
X170183246Y-145098395D01*
X170037333Y-145220831D01*
X169994985Y-145318527D01*
X170019725Y-145422092D01*
X170080942Y-145495049D01*
X170506943Y-145261916D01*
X169699813Y-146374314D02*
X169363115Y-145973053D01*
X169338376Y-145869488D01*
X169380723Y-145771791D01*
X169526636Y-145649356D01*
X169630202Y-145624616D01*
X169669204Y-146337836D02*
X169772770Y-146313097D01*
X169955161Y-146160052D01*
X169997509Y-146062356D01*
X169972770Y-145958790D01*
X169911552Y-145885834D01*
X169813856Y-145843486D01*
X169710290Y-145868225D01*
X169527898Y-146021270D01*
X169424333Y-146046010D01*
X169335030Y-146680404D02*
X168692243Y-145914359D01*
X169017202Y-146449795D02*
X169043204Y-146925275D01*
X168614679Y-146414579D02*
X169151377Y-146461534D01*
X168605464Y-147292582D02*
X168647812Y-147194886D01*
X168653681Y-147127799D01*
X168628942Y-147024234D01*
X168445288Y-146805364D01*
X168347592Y-146763016D01*
X168280505Y-146757147D01*
X168176939Y-146781886D01*
X168067504Y-146873713D01*
X168025156Y-146971409D01*
X168019287Y-147038496D01*
X168044027Y-147142062D01*
X168227680Y-147360932D01*
X168325376Y-147403279D01*
X168392464Y-147409149D01*
X168496029Y-147384409D01*
X168605464Y-147292582D01*
X167264981Y-147547110D02*
X167693506Y-148057806D01*
X167593286Y-147271629D02*
X167929984Y-147672891D01*
X167954724Y-147776456D01*
X167912376Y-147874152D01*
X167802941Y-147965979D01*
X167699376Y-147990719D01*
X167632289Y-147984849D01*
X167009633Y-147761372D02*
X166717807Y-148006244D01*
X166685936Y-147597851D02*
X167236897Y-148254460D01*
X167261636Y-148358026D01*
X167219288Y-148455722D01*
X167146332Y-148516940D01*
G04 #@! TO.C,D17*
X175475000Y-77916666D02*
X175475000Y-77216666D01*
X175308333Y-77216666D01*
X175208333Y-77250000D01*
X175141666Y-77316666D01*
X175108333Y-77383333D01*
X175075000Y-77516666D01*
X175075000Y-77616666D01*
X175108333Y-77750000D01*
X175141666Y-77816666D01*
X175208333Y-77883333D01*
X175308333Y-77916666D01*
X175475000Y-77916666D01*
X174408333Y-77916666D02*
X174808333Y-77916666D01*
X174608333Y-77916666D02*
X174608333Y-77216666D01*
X174675000Y-77316666D01*
X174741666Y-77383333D01*
X174808333Y-77416666D01*
X174175000Y-77216666D02*
X173708333Y-77216666D01*
X174008333Y-77916666D01*
G04 #@! TO.C,JP18*
X160709523Y-113964880D02*
X160709523Y-114679166D01*
X160757142Y-114822023D01*
X160852380Y-114917261D01*
X160995238Y-114964880D01*
X161090476Y-114964880D01*
X160233333Y-114964880D02*
X160233333Y-113964880D01*
X159852380Y-113964880D01*
X159757142Y-114012500D01*
X159709523Y-114060119D01*
X159661904Y-114155357D01*
X159661904Y-114298214D01*
X159709523Y-114393452D01*
X159757142Y-114441071D01*
X159852380Y-114488690D01*
X160233333Y-114488690D01*
X158709523Y-114964880D02*
X159280952Y-114964880D01*
X158995238Y-114964880D02*
X158995238Y-113964880D01*
X159090476Y-114107738D01*
X159185714Y-114202976D01*
X159280952Y-114250595D01*
X158138095Y-114393452D02*
X158233333Y-114345833D01*
X158280952Y-114298214D01*
X158328571Y-114202976D01*
X158328571Y-114155357D01*
X158280952Y-114060119D01*
X158233333Y-114012500D01*
X158138095Y-113964880D01*
X157947619Y-113964880D01*
X157852380Y-114012500D01*
X157804761Y-114060119D01*
X157757142Y-114155357D01*
X157757142Y-114202976D01*
X157804761Y-114298214D01*
X157852380Y-114345833D01*
X157947619Y-114393452D01*
X158138095Y-114393452D01*
X158233333Y-114441071D01*
X158280952Y-114488690D01*
X158328571Y-114583928D01*
X158328571Y-114774404D01*
X158280952Y-114869642D01*
X158233333Y-114917261D01*
X158138095Y-114964880D01*
X157947619Y-114964880D01*
X157852380Y-114917261D01*
X157804761Y-114869642D01*
X157757142Y-114774404D01*
X157757142Y-114583928D01*
X157804761Y-114488690D01*
X157852380Y-114441071D01*
X157947619Y-114393452D01*
G04 #@! TO.C,JP15*
X160709523Y-117139880D02*
X160709523Y-117854166D01*
X160757142Y-117997023D01*
X160852380Y-118092261D01*
X160995238Y-118139880D01*
X161090476Y-118139880D01*
X160233333Y-118139880D02*
X160233333Y-117139880D01*
X159852380Y-117139880D01*
X159757142Y-117187500D01*
X159709523Y-117235119D01*
X159661904Y-117330357D01*
X159661904Y-117473214D01*
X159709523Y-117568452D01*
X159757142Y-117616071D01*
X159852380Y-117663690D01*
X160233333Y-117663690D01*
X158709523Y-118139880D02*
X159280952Y-118139880D01*
X158995238Y-118139880D02*
X158995238Y-117139880D01*
X159090476Y-117282738D01*
X159185714Y-117377976D01*
X159280952Y-117425595D01*
X157804761Y-117139880D02*
X158280952Y-117139880D01*
X158328571Y-117616071D01*
X158280952Y-117568452D01*
X158185714Y-117520833D01*
X157947619Y-117520833D01*
X157852380Y-117568452D01*
X157804761Y-117616071D01*
X157757142Y-117711309D01*
X157757142Y-117949404D01*
X157804761Y-118044642D01*
X157852380Y-118092261D01*
X157947619Y-118139880D01*
X158185714Y-118139880D01*
X158280952Y-118092261D01*
X158328571Y-118044642D01*
G04 #@! TO.C,JP14*
X160709523Y-120314880D02*
X160709523Y-121029166D01*
X160757142Y-121172023D01*
X160852380Y-121267261D01*
X160995238Y-121314880D01*
X161090476Y-121314880D01*
X160233333Y-121314880D02*
X160233333Y-120314880D01*
X159852380Y-120314880D01*
X159757142Y-120362500D01*
X159709523Y-120410119D01*
X159661904Y-120505357D01*
X159661904Y-120648214D01*
X159709523Y-120743452D01*
X159757142Y-120791071D01*
X159852380Y-120838690D01*
X160233333Y-120838690D01*
X158709523Y-121314880D02*
X159280952Y-121314880D01*
X158995238Y-121314880D02*
X158995238Y-120314880D01*
X159090476Y-120457738D01*
X159185714Y-120552976D01*
X159280952Y-120600595D01*
X157852380Y-120648214D02*
X157852380Y-121314880D01*
X158090476Y-120267261D02*
X158328571Y-120981547D01*
X157709523Y-120981547D01*
G04 #@! TO.C,U2*
X198128274Y-137364703D02*
X198301922Y-136379895D01*
X197926757Y-136313743D01*
X197824697Y-136344101D01*
X197769532Y-136382728D01*
X197706099Y-136468250D01*
X197681292Y-136608937D01*
X197711649Y-136710997D01*
X197750276Y-136766161D01*
X197835798Y-136829595D01*
X198210963Y-136895747D01*
X197035740Y-136156633D02*
X196911706Y-136860067D01*
X196933795Y-137009023D01*
X197011048Y-137119352D01*
X197143466Y-137191055D01*
X197237257Y-137207592D01*
X196459288Y-136683586D02*
X195708958Y-136551283D01*
X195441290Y-135875488D02*
X194831647Y-135767992D01*
X195093764Y-136201039D01*
X194953078Y-136176233D01*
X194851017Y-136206590D01*
X194795853Y-136245217D01*
X194732419Y-136330739D01*
X194691075Y-136565217D01*
X194721432Y-136667277D01*
X194760059Y-136722442D01*
X194845581Y-136785875D01*
X195126955Y-136835489D01*
X195229015Y-136805132D01*
X195284180Y-136766505D01*
X194439944Y-135795631D02*
X194401317Y-135740467D01*
X194315795Y-135677033D01*
X194081317Y-135635688D01*
X193979257Y-135666046D01*
X193924092Y-135704673D01*
X193860659Y-135790195D01*
X193844121Y-135883986D01*
X193866210Y-136032942D01*
X194329729Y-136694917D01*
X193720087Y-136587420D01*
X193284092Y-135495116D02*
X193190301Y-135478578D01*
X193088240Y-135508936D01*
X193033076Y-135547563D01*
X192969642Y-135633085D01*
X192889671Y-135812398D01*
X192848326Y-136046876D01*
X192862146Y-136242728D01*
X192892504Y-136344788D01*
X192931130Y-136399952D01*
X193016652Y-136463386D01*
X193110444Y-136479924D01*
X193212504Y-136449566D01*
X193267668Y-136410940D01*
X193331102Y-136325417D01*
X193411073Y-136146104D01*
X193452418Y-135911626D01*
X193438598Y-135715774D01*
X193408241Y-135613714D01*
X193369614Y-135558550D01*
X193284092Y-135495116D01*
X192456623Y-136074516D02*
X191987667Y-135991826D01*
X192500801Y-136372427D02*
X192346180Y-135329737D01*
X191844262Y-136256662D01*
G04 #@! TO.C,SW2*
X198377083Y-113116666D02*
X198410416Y-113216666D01*
X198410416Y-113383333D01*
X198377083Y-113450000D01*
X198343750Y-113483333D01*
X198277083Y-113516666D01*
X198210416Y-113516666D01*
X198143750Y-113483333D01*
X198110416Y-113450000D01*
X198077083Y-113383333D01*
X198043750Y-113250000D01*
X198010416Y-113183333D01*
X197977083Y-113150000D01*
X197910416Y-113116666D01*
X197843750Y-113116666D01*
X197777083Y-113150000D01*
X197743750Y-113183333D01*
X197710416Y-113250000D01*
X197710416Y-113416666D01*
X197743750Y-113516666D01*
X197710416Y-113750000D02*
X198410416Y-113916666D01*
X197910416Y-114050000D01*
X198410416Y-114183333D01*
X197710416Y-114350000D01*
X197777083Y-114583333D02*
X197743750Y-114616666D01*
X197710416Y-114683333D01*
X197710416Y-114850000D01*
X197743750Y-114916666D01*
X197777083Y-114950000D01*
X197843750Y-114983333D01*
X197910416Y-114983333D01*
X198010416Y-114950000D01*
X198410416Y-114550000D01*
X198410416Y-114983333D01*
G04 #@! TO.C,JP8*
X175120833Y-96002380D02*
X175120833Y-96716666D01*
X175168452Y-96859523D01*
X175263690Y-96954761D01*
X175406547Y-97002380D01*
X175501785Y-97002380D01*
X174644642Y-97002380D02*
X174644642Y-96002380D01*
X174263690Y-96002380D01*
X174168452Y-96050000D01*
X174120833Y-96097619D01*
X174073214Y-96192857D01*
X174073214Y-96335714D01*
X174120833Y-96430952D01*
X174168452Y-96478571D01*
X174263690Y-96526190D01*
X174644642Y-96526190D01*
X173501785Y-96430952D02*
X173597023Y-96383333D01*
X173644642Y-96335714D01*
X173692261Y-96240476D01*
X173692261Y-96192857D01*
X173644642Y-96097619D01*
X173597023Y-96050000D01*
X173501785Y-96002380D01*
X173311309Y-96002380D01*
X173216071Y-96050000D01*
X173168452Y-96097619D01*
X173120833Y-96192857D01*
X173120833Y-96240476D01*
X173168452Y-96335714D01*
X173216071Y-96383333D01*
X173311309Y-96430952D01*
X173501785Y-96430952D01*
X173597023Y-96478571D01*
X173644642Y-96526190D01*
X173692261Y-96621428D01*
X173692261Y-96811904D01*
X173644642Y-96907142D01*
X173597023Y-96954761D01*
X173501785Y-97002380D01*
X173311309Y-97002380D01*
X173216071Y-96954761D01*
X173168452Y-96907142D01*
X173120833Y-96811904D01*
X173120833Y-96621428D01*
X173168452Y-96526190D01*
X173216071Y-96478571D01*
X173311309Y-96430952D01*
G04 #@! TO.C,JP7*
X175120833Y-92827380D02*
X175120833Y-93541666D01*
X175168452Y-93684523D01*
X175263690Y-93779761D01*
X175406547Y-93827380D01*
X175501785Y-93827380D01*
X174644642Y-93827380D02*
X174644642Y-92827380D01*
X174263690Y-92827380D01*
X174168452Y-92875000D01*
X174120833Y-92922619D01*
X174073214Y-93017857D01*
X174073214Y-93160714D01*
X174120833Y-93255952D01*
X174168452Y-93303571D01*
X174263690Y-93351190D01*
X174644642Y-93351190D01*
X173739880Y-92827380D02*
X173073214Y-92827380D01*
X173501785Y-93827380D01*
G04 #@! TO.C,JP6*
X175120833Y-89652380D02*
X175120833Y-90366666D01*
X175168452Y-90509523D01*
X175263690Y-90604761D01*
X175406547Y-90652380D01*
X175501785Y-90652380D01*
X174644642Y-90652380D02*
X174644642Y-89652380D01*
X174263690Y-89652380D01*
X174168452Y-89700000D01*
X174120833Y-89747619D01*
X174073214Y-89842857D01*
X174073214Y-89985714D01*
X174120833Y-90080952D01*
X174168452Y-90128571D01*
X174263690Y-90176190D01*
X174644642Y-90176190D01*
X173216071Y-89652380D02*
X173406547Y-89652380D01*
X173501785Y-89700000D01*
X173549404Y-89747619D01*
X173644642Y-89890476D01*
X173692261Y-90080952D01*
X173692261Y-90461904D01*
X173644642Y-90557142D01*
X173597023Y-90604761D01*
X173501785Y-90652380D01*
X173311309Y-90652380D01*
X173216071Y-90604761D01*
X173168452Y-90557142D01*
X173120833Y-90461904D01*
X173120833Y-90223809D01*
X173168452Y-90128571D01*
X173216071Y-90080952D01*
X173311309Y-90033333D01*
X173501785Y-90033333D01*
X173597023Y-90080952D01*
X173644642Y-90128571D01*
X173692261Y-90223809D01*
G04 #@! TO.C,JP5*
X175120833Y-86477380D02*
X175120833Y-87191666D01*
X175168452Y-87334523D01*
X175263690Y-87429761D01*
X175406547Y-87477380D01*
X175501785Y-87477380D01*
X174644642Y-87477380D02*
X174644642Y-86477380D01*
X174263690Y-86477380D01*
X174168452Y-86525000D01*
X174120833Y-86572619D01*
X174073214Y-86667857D01*
X174073214Y-86810714D01*
X174120833Y-86905952D01*
X174168452Y-86953571D01*
X174263690Y-87001190D01*
X174644642Y-87001190D01*
X173168452Y-86477380D02*
X173644642Y-86477380D01*
X173692261Y-86953571D01*
X173644642Y-86905952D01*
X173549404Y-86858333D01*
X173311309Y-86858333D01*
X173216071Y-86905952D01*
X173168452Y-86953571D01*
X173120833Y-87048809D01*
X173120833Y-87286904D01*
X173168452Y-87382142D01*
X173216071Y-87429761D01*
X173311309Y-87477380D01*
X173549404Y-87477380D01*
X173644642Y-87429761D01*
X173692261Y-87382142D01*
G04 #@! TD*
M02*
