%TF.GenerationSoftware,KiCad,Pcbnew,5.1.8*%
%TF.CreationDate,2020-12-07T15:05:41+01:00*%
%TF.ProjectId,split_3x,73706c69-745f-4337-982e-6b696361645f,rev?*%
%TF.SameCoordinates,Original*%
%TF.FileFunction,Legend,Bot*%
%TF.FilePolarity,Positive*%
%FSLAX46Y46*%
G04 Gerber Fmt 4.6, Leading zero omitted, Abs format (unit mm)*
G04 Created by KiCad (PCBNEW 5.1.8) date 2020-12-07 15:05:41*
%MOMM*%
%LPD*%
G01*
G04 APERTURE LIST*
%ADD10C,0.150000*%
%ADD11C,0.120000*%
%ADD12C,0.200000*%
G04 APERTURE END LIST*
D10*
%TO.C,U1*%
X182478750Y-105952500D02*
X182478750Y-75472500D01*
X185018750Y-105952500D02*
X182478750Y-105952500D01*
X185018750Y-75472500D02*
X185018750Y-105952500D01*
X182478750Y-75472500D02*
X185018750Y-75472500D01*
X197718750Y-105952500D02*
X197718750Y-75472500D01*
X200258750Y-105952500D02*
X197718750Y-105952500D01*
X200258750Y-75472500D02*
X200258750Y-105952500D01*
X197718750Y-75472500D02*
X200258750Y-75472500D01*
X182478750Y-105952500D02*
X182478750Y-72932500D01*
X200258750Y-72932500D02*
X200258750Y-105952500D01*
X182478750Y-72932500D02*
X200258750Y-72932500D01*
D11*
%TO.C,Brd1*%
X180317250Y-95186500D02*
X177904250Y-95186500D01*
X180317250Y-95186500D02*
X180317250Y-85407500D01*
X177904250Y-85407500D02*
X177904250Y-95186500D01*
X180317250Y-85407500D02*
X177904250Y-85407500D01*
D10*
%TO.C,U2*%
X199255697Y-140292432D02*
X201135083Y-140976473D01*
X203050395Y-135714194D02*
X201135083Y-140976473D01*
X201171010Y-135030154D02*
X203050395Y-135714194D01*
X189886234Y-130656787D02*
X187799912Y-136388912D01*
X199170192Y-140527356D02*
X187799912Y-136388912D01*
X201256515Y-134795231D02*
X199170192Y-140527356D01*
X201256515Y-134795231D02*
X189886234Y-130656787D01*
D12*
%TO.C,D19*%
X180123000Y-133600000D02*
X179869000Y-133600000D01*
X180123000Y-133981000D02*
X180123000Y-133219000D01*
D11*
X179107000Y-132750000D02*
X179107000Y-134450000D01*
X181750000Y-132750000D02*
X179200000Y-132750000D01*
D12*
X180758000Y-133600000D02*
X180885000Y-133600000D01*
D11*
X181647000Y-132750000D02*
X181647000Y-134450000D01*
D12*
X180123000Y-133219000D02*
X180631000Y-133600000D01*
D11*
X181750000Y-134450000D02*
X179200000Y-134450000D01*
D12*
X180631000Y-133219000D02*
X180631000Y-133981000D01*
D11*
X181774000Y-132750000D02*
X181774000Y-134450000D01*
X181750000Y-132750000D02*
X181750000Y-134450000D01*
D12*
X180631000Y-133600000D02*
X180123000Y-133981000D01*
%TO.C,D18*%
X171695750Y-108400000D02*
X171949750Y-108400000D01*
X171695750Y-108019000D02*
X171695750Y-108781000D01*
D11*
X172711750Y-109250000D02*
X172711750Y-107550000D01*
X170068750Y-109250000D02*
X172618750Y-109250000D01*
D12*
X171060750Y-108400000D02*
X170933750Y-108400000D01*
D11*
X170171750Y-109250000D02*
X170171750Y-107550000D01*
D12*
X171695750Y-108781000D02*
X171187750Y-108400000D01*
D11*
X170068750Y-107550000D02*
X172618750Y-107550000D01*
D12*
X171187750Y-108781000D02*
X171187750Y-108019000D01*
D11*
X170044750Y-109250000D02*
X170044750Y-107550000D01*
X170068750Y-109250000D02*
X170068750Y-107550000D01*
D12*
X171187750Y-108400000D02*
X171695750Y-108019000D01*
%TO.C,D17*%
X166695750Y-90412500D02*
X166949750Y-90412500D01*
X166695750Y-90031500D02*
X166695750Y-90793500D01*
D11*
X167711750Y-91262500D02*
X167711750Y-89562500D01*
X165068750Y-91262500D02*
X167618750Y-91262500D01*
D12*
X166060750Y-90412500D02*
X165933750Y-90412500D01*
D11*
X165171750Y-91262500D02*
X165171750Y-89562500D01*
D12*
X166695750Y-90793500D02*
X166187750Y-90412500D01*
D11*
X165068750Y-89562500D02*
X167618750Y-89562500D01*
D12*
X166187750Y-90793500D02*
X166187750Y-90031500D01*
D11*
X165044750Y-91262500D02*
X165044750Y-89562500D01*
X165068750Y-91262500D02*
X165068750Y-89562500D01*
D12*
X166187750Y-90412500D02*
X166695750Y-90031500D01*
%TO.C,D16*%
X171695750Y-71412500D02*
X171949750Y-71412500D01*
X171695750Y-71031500D02*
X171695750Y-71793500D01*
D11*
X172711750Y-72262500D02*
X172711750Y-70562500D01*
X170068750Y-72262500D02*
X172618750Y-72262500D01*
D12*
X171060750Y-71412500D02*
X170933750Y-71412500D01*
D11*
X170171750Y-72262500D02*
X170171750Y-70562500D01*
D12*
X171695750Y-71793500D02*
X171187750Y-71412500D01*
D11*
X170068750Y-70562500D02*
X172618750Y-70562500D01*
D12*
X171187750Y-71793500D02*
X171187750Y-71031500D01*
D11*
X170044750Y-72262500D02*
X170044750Y-70562500D01*
X170068750Y-72262500D02*
X170068750Y-70562500D01*
D12*
X171187750Y-71412500D02*
X171695750Y-71031500D01*
%TO.C,D15*%
X153150000Y-117123000D02*
X153150000Y-116869000D01*
X152769000Y-117123000D02*
X153531000Y-117123000D01*
D11*
X154000000Y-116107000D02*
X152300000Y-116107000D01*
X154000000Y-118750000D02*
X154000000Y-116200000D01*
D12*
X153150000Y-117758000D02*
X153150000Y-117885000D01*
D11*
X154000000Y-118647000D02*
X152300000Y-118647000D01*
D12*
X153531000Y-117123000D02*
X153150000Y-117631000D01*
D11*
X152300000Y-118750000D02*
X152300000Y-116200000D01*
D12*
X153531000Y-117631000D02*
X152769000Y-117631000D01*
D11*
X154000000Y-118774000D02*
X152300000Y-118774000D01*
X154000000Y-118750000D02*
X152300000Y-118750000D01*
D12*
X153150000Y-117631000D02*
X152769000Y-117123000D01*
%TO.C,D14*%
X153377000Y-107150000D02*
X153631000Y-107150000D01*
X153377000Y-106769000D02*
X153377000Y-107531000D01*
D11*
X154393000Y-108000000D02*
X154393000Y-106300000D01*
X151750000Y-108000000D02*
X154300000Y-108000000D01*
D12*
X152742000Y-107150000D02*
X152615000Y-107150000D01*
D11*
X151853000Y-108000000D02*
X151853000Y-106300000D01*
D12*
X153377000Y-107531000D02*
X152869000Y-107150000D01*
D11*
X151750000Y-106300000D02*
X154300000Y-106300000D01*
D12*
X152869000Y-107531000D02*
X152869000Y-106769000D01*
D11*
X151726000Y-108000000D02*
X151726000Y-106300000D01*
X151750000Y-108000000D02*
X151750000Y-106300000D01*
D12*
X152869000Y-107150000D02*
X153377000Y-106769000D01*
%TO.C,D13*%
X152695750Y-87412500D02*
X152949750Y-87412500D01*
X152695750Y-87031500D02*
X152695750Y-87793500D01*
D11*
X153711750Y-88262500D02*
X153711750Y-86562500D01*
X151068750Y-88262500D02*
X153618750Y-88262500D01*
D12*
X152060750Y-87412500D02*
X151933750Y-87412500D01*
D11*
X151171750Y-88262500D02*
X151171750Y-86562500D01*
D12*
X152695750Y-87793500D02*
X152187750Y-87412500D01*
D11*
X151068750Y-86562500D02*
X153618750Y-86562500D01*
D12*
X152187750Y-87793500D02*
X152187750Y-87031500D01*
D11*
X151044750Y-88262500D02*
X151044750Y-86562500D01*
X151068750Y-88262500D02*
X151068750Y-86562500D01*
D12*
X152187750Y-87412500D02*
X152695750Y-87031500D01*
%TO.C,D12*%
X154114500Y-64193750D02*
X154368500Y-64193750D01*
X154114500Y-63812750D02*
X154114500Y-64574750D01*
D11*
X155130500Y-65043750D02*
X155130500Y-63343750D01*
X152487500Y-65043750D02*
X155037500Y-65043750D01*
D12*
X153479500Y-64193750D02*
X153352500Y-64193750D01*
D11*
X152590500Y-65043750D02*
X152590500Y-63343750D01*
D12*
X154114500Y-64574750D02*
X153606500Y-64193750D01*
D11*
X152487500Y-63343750D02*
X155037500Y-63343750D01*
D12*
X153606500Y-64574750D02*
X153606500Y-63812750D01*
D11*
X152463500Y-65043750D02*
X152463500Y-63343750D01*
X152487500Y-65043750D02*
X152487500Y-63343750D01*
D12*
X153606500Y-64193750D02*
X154114500Y-63812750D01*
%TO.C,D11*%
X149150000Y-117631000D02*
X148769000Y-117123000D01*
D11*
X150000000Y-118750000D02*
X148300000Y-118750000D01*
X150000000Y-118774000D02*
X148300000Y-118774000D01*
D12*
X149531000Y-117631000D02*
X148769000Y-117631000D01*
D11*
X148300000Y-118750000D02*
X148300000Y-116200000D01*
D12*
X149531000Y-117123000D02*
X149150000Y-117631000D01*
D11*
X150000000Y-118647000D02*
X148300000Y-118647000D01*
D12*
X149150000Y-117758000D02*
X149150000Y-117885000D01*
D11*
X150000000Y-118750000D02*
X150000000Y-116200000D01*
X150000000Y-116107000D02*
X148300000Y-116107000D01*
D12*
X148769000Y-117123000D02*
X149531000Y-117123000D01*
X149150000Y-117123000D02*
X149150000Y-116869000D01*
%TO.C,D10*%
X133627000Y-100150000D02*
X133881000Y-100150000D01*
X133627000Y-99769000D02*
X133627000Y-100531000D01*
D11*
X134643000Y-101000000D02*
X134643000Y-99300000D01*
X132000000Y-101000000D02*
X134550000Y-101000000D01*
D12*
X132992000Y-100150000D02*
X132865000Y-100150000D01*
D11*
X132103000Y-101000000D02*
X132103000Y-99300000D01*
D12*
X133627000Y-100531000D02*
X133119000Y-100150000D01*
D11*
X132000000Y-99300000D02*
X134550000Y-99300000D01*
D12*
X133119000Y-100531000D02*
X133119000Y-99769000D01*
D11*
X131976000Y-101000000D02*
X131976000Y-99300000D01*
X132000000Y-101000000D02*
X132000000Y-99300000D01*
D12*
X133119000Y-100150000D02*
X133627000Y-99769000D01*
%TO.C,D9*%
X133695750Y-80412500D02*
X133949750Y-80412500D01*
X133695750Y-80031500D02*
X133695750Y-80793500D01*
D11*
X134711750Y-81262500D02*
X134711750Y-79562500D01*
X132068750Y-81262500D02*
X134618750Y-81262500D01*
D12*
X133060750Y-80412500D02*
X132933750Y-80412500D01*
D11*
X132171750Y-81262500D02*
X132171750Y-79562500D01*
D12*
X133695750Y-80793500D02*
X133187750Y-80412500D01*
D11*
X132068750Y-79562500D02*
X134618750Y-79562500D01*
D12*
X133187750Y-80793500D02*
X133187750Y-80031500D01*
D11*
X132044750Y-81262500D02*
X132044750Y-79562500D01*
X132068750Y-81262500D02*
X132068750Y-79562500D01*
D12*
X133187750Y-80412500D02*
X133695750Y-80031500D01*
%TO.C,D8*%
X133695750Y-61412500D02*
X133949750Y-61412500D01*
X133695750Y-61031500D02*
X133695750Y-61793500D01*
D11*
X134711750Y-62262500D02*
X134711750Y-60562500D01*
X132068750Y-62262500D02*
X134618750Y-62262500D01*
D12*
X133060750Y-61412500D02*
X132933750Y-61412500D01*
D11*
X132171750Y-62262500D02*
X132171750Y-60562500D01*
D12*
X133695750Y-61793500D02*
X133187750Y-61412500D01*
D11*
X132068750Y-60562500D02*
X134618750Y-60562500D01*
D12*
X133187750Y-61793500D02*
X133187750Y-61031500D01*
D11*
X132044750Y-62262500D02*
X132044750Y-60562500D01*
X132068750Y-62262500D02*
X132068750Y-60562500D01*
D12*
X133187750Y-61412500D02*
X133695750Y-61031500D01*
%TO.C,D7*%
X190441750Y-120612500D02*
X190187750Y-120612500D01*
X190441750Y-120993500D02*
X190441750Y-120231500D01*
D11*
X189425750Y-119762500D02*
X189425750Y-121462500D01*
X192068750Y-119762500D02*
X189518750Y-119762500D01*
D12*
X191076750Y-120612500D02*
X191203750Y-120612500D01*
D11*
X191965750Y-119762500D02*
X191965750Y-121462500D01*
D12*
X190441750Y-120231500D02*
X190949750Y-120612500D01*
D11*
X192068750Y-121462500D02*
X189518750Y-121462500D01*
D12*
X190949750Y-120231500D02*
X190949750Y-120993500D01*
D11*
X192092750Y-119762500D02*
X192092750Y-121462500D01*
X192068750Y-119762500D02*
X192068750Y-121462500D01*
D12*
X190949750Y-120612500D02*
X190441750Y-120993500D01*
%TO.C,D6*%
X115627000Y-105400000D02*
X115881000Y-105400000D01*
X115627000Y-105019000D02*
X115627000Y-105781000D01*
D11*
X116643000Y-106250000D02*
X116643000Y-104550000D01*
X114000000Y-106250000D02*
X116550000Y-106250000D01*
D12*
X114992000Y-105400000D02*
X114865000Y-105400000D01*
D11*
X114103000Y-106250000D02*
X114103000Y-104550000D01*
D12*
X115627000Y-105781000D02*
X115119000Y-105400000D01*
D11*
X114000000Y-104550000D02*
X116550000Y-104550000D01*
D12*
X115119000Y-105781000D02*
X115119000Y-105019000D01*
D11*
X113976000Y-106250000D02*
X113976000Y-104550000D01*
X114000000Y-106250000D02*
X114000000Y-104550000D01*
D12*
X115119000Y-105400000D02*
X115627000Y-105019000D01*
%TO.C,D5*%
X114695750Y-86412500D02*
X114949750Y-86412500D01*
X114695750Y-86031500D02*
X114695750Y-86793500D01*
D11*
X115711750Y-87262500D02*
X115711750Y-85562500D01*
X113068750Y-87262500D02*
X115618750Y-87262500D01*
D12*
X114060750Y-86412500D02*
X113933750Y-86412500D01*
D11*
X113171750Y-87262500D02*
X113171750Y-85562500D01*
D12*
X114695750Y-86793500D02*
X114187750Y-86412500D01*
D11*
X113068750Y-85562500D02*
X115618750Y-85562500D01*
D12*
X114187750Y-86793500D02*
X114187750Y-86031500D01*
D11*
X113044750Y-87262500D02*
X113044750Y-85562500D01*
X113068750Y-87262500D02*
X113068750Y-85562500D01*
D12*
X114187750Y-86412500D02*
X114695750Y-86031500D01*
%TO.C,D4*%
X114645750Y-67412500D02*
X114899750Y-67412500D01*
X114645750Y-67031500D02*
X114645750Y-67793500D01*
D11*
X115661750Y-68262500D02*
X115661750Y-66562500D01*
X113018750Y-68262500D02*
X115568750Y-68262500D01*
D12*
X114010750Y-67412500D02*
X113883750Y-67412500D01*
D11*
X113121750Y-68262500D02*
X113121750Y-66562500D01*
D12*
X114645750Y-67793500D02*
X114137750Y-67412500D01*
D11*
X113018750Y-66562500D02*
X115568750Y-66562500D01*
D12*
X114137750Y-67793500D02*
X114137750Y-67031500D01*
D11*
X112994750Y-68262500D02*
X112994750Y-66562500D01*
X113018750Y-68262500D02*
X113018750Y-66562500D01*
D12*
X114137750Y-67412500D02*
X114645750Y-67031500D01*
%TO.C,D3*%
X95877000Y-116900000D02*
X96131000Y-116900000D01*
X95877000Y-116519000D02*
X95877000Y-117281000D01*
D11*
X96893000Y-117750000D02*
X96893000Y-116050000D01*
X94250000Y-117750000D02*
X96800000Y-117750000D01*
D12*
X95242000Y-116900000D02*
X95115000Y-116900000D01*
D11*
X94353000Y-117750000D02*
X94353000Y-116050000D01*
D12*
X95877000Y-117281000D02*
X95369000Y-116900000D01*
D11*
X94250000Y-116050000D02*
X96800000Y-116050000D01*
D12*
X95369000Y-117281000D02*
X95369000Y-116519000D01*
D11*
X94226000Y-117750000D02*
X94226000Y-116050000D01*
X94250000Y-117750000D02*
X94250000Y-116050000D01*
D12*
X95369000Y-116900000D02*
X95877000Y-116519000D01*
%TO.C,D2*%
X95695750Y-98412500D02*
X95949750Y-98412500D01*
X95695750Y-98031500D02*
X95695750Y-98793500D01*
D11*
X96711750Y-99262500D02*
X96711750Y-97562500D01*
X94068750Y-99262500D02*
X96618750Y-99262500D01*
D12*
X95060750Y-98412500D02*
X94933750Y-98412500D01*
D11*
X94171750Y-99262500D02*
X94171750Y-97562500D01*
D12*
X95695750Y-98793500D02*
X95187750Y-98412500D01*
D11*
X94068750Y-97562500D02*
X96618750Y-97562500D01*
D12*
X95187750Y-98793500D02*
X95187750Y-98031500D01*
D11*
X94044750Y-99262500D02*
X94044750Y-97562500D01*
X94068750Y-99262500D02*
X94068750Y-97562500D01*
D12*
X95187750Y-98412500D02*
X95695750Y-98031500D01*
%TO.C,D1*%
X95695750Y-79412500D02*
X95949750Y-79412500D01*
X95695750Y-79031500D02*
X95695750Y-79793500D01*
D11*
X96711750Y-80262500D02*
X96711750Y-78562500D01*
X94068750Y-80262500D02*
X96618750Y-80262500D01*
D12*
X95060750Y-79412500D02*
X94933750Y-79412500D01*
D11*
X94171750Y-80262500D02*
X94171750Y-78562500D01*
D12*
X95695750Y-79793500D02*
X95187750Y-79412500D01*
D11*
X94068750Y-78562500D02*
X96618750Y-78562500D01*
D12*
X95187750Y-79793500D02*
X95187750Y-79031500D01*
D11*
X94044750Y-80262500D02*
X94044750Y-78562500D01*
X94068750Y-80262500D02*
X94068750Y-78562500D01*
D12*
X95187750Y-79412500D02*
X95695750Y-79031500D01*
%TO.C,D29*%
X195042756Y-111993847D02*
X195177564Y-112360353D01*
X195177564Y-112360353D02*
X192802564Y-116473974D01*
D10*
X193310705Y-110993847D02*
X194177564Y-114092404D01*
D12*
X195042756Y-111993847D02*
X190972436Y-109643847D01*
X190972671Y-109644721D02*
X188473311Y-113973739D01*
X188472436Y-113973974D02*
X192802564Y-116473974D01*
%TO.C,D28*%
X177418653Y-60605256D02*
X177352147Y-60990064D01*
X177352147Y-60990064D02*
X173238526Y-63365064D01*
D10*
X176418653Y-58873205D02*
X175620096Y-61990064D01*
D12*
X177418653Y-60605256D02*
X175068653Y-56534936D01*
X175068419Y-56535811D02*
X170739401Y-59035171D01*
X170738526Y-59034936D02*
X173238526Y-63365064D01*
%TO.C,D27*%
X147450000Y-45650000D02*
X147750000Y-45900000D01*
X147750000Y-45900000D02*
X147750000Y-50650000D01*
D10*
X145450000Y-45650000D02*
X147750000Y-47900000D01*
D12*
X147450000Y-45650000D02*
X142750000Y-45650000D01*
X142750640Y-45650640D02*
X142750640Y-50649360D01*
X142750000Y-50650000D02*
X147750000Y-50650000D01*
%TO.C,D26*%
X116768750Y-46412500D02*
X117068750Y-46662500D01*
X117068750Y-46662500D02*
X117068750Y-51412500D01*
D10*
X114768750Y-46412500D02*
X117068750Y-48662500D01*
D12*
X116768750Y-46412500D02*
X112068750Y-46412500D01*
X112069390Y-46413140D02*
X112069390Y-51411860D01*
X112068750Y-51412500D02*
X117068750Y-51412500D01*
%TO.C,D25*%
X96768750Y-56412500D02*
X97068750Y-56662500D01*
X97068750Y-56662500D02*
X97068750Y-61412500D01*
D10*
X94768750Y-56412500D02*
X97068750Y-58662500D01*
D12*
X96768750Y-56412500D02*
X92068750Y-56412500D01*
X92069390Y-56413140D02*
X92069390Y-61411860D01*
X92068750Y-61412500D02*
X97068750Y-61412500D01*
%TO.C,D24*%
X84200000Y-76900000D02*
X84500000Y-77150000D01*
X84500000Y-77150000D02*
X84500000Y-81900000D01*
D10*
X82200000Y-76900000D02*
X84500000Y-79150000D01*
D12*
X84200000Y-76900000D02*
X79500000Y-76900000D01*
X79500640Y-76900640D02*
X79500640Y-81899360D01*
X79500000Y-81900000D02*
X84500000Y-81900000D01*
%TO.C,D23*%
X80050000Y-100100000D02*
X79750000Y-99850000D01*
X79750000Y-99850000D02*
X79750000Y-95100000D01*
D10*
X82050000Y-100100000D02*
X79750000Y-97850000D01*
D12*
X80050000Y-100100000D02*
X84750000Y-100100000D01*
X84749360Y-100099360D02*
X84749360Y-95100640D01*
X84750000Y-95100000D02*
X79750000Y-95100000D01*
%TO.C,D22*%
X109384936Y-122511474D02*
X113715064Y-125011474D01*
X111885171Y-118182221D02*
X109385811Y-122511239D01*
X115955256Y-120531347D02*
X111884936Y-118181347D01*
D10*
X114223205Y-119531347D02*
X115090064Y-122629904D01*
D12*
X116090064Y-120897853D02*
X113715064Y-125011474D01*
X115955256Y-120531347D02*
X116090064Y-120897853D01*
%TO.C,D21*%
X151789660Y-129298066D02*
X151452131Y-129494469D01*
X151452131Y-129494469D02*
X146988591Y-127869873D01*
D10*
X152473700Y-127418681D02*
X149572746Y-128810429D01*
D12*
X151789660Y-129298066D02*
X153397155Y-124881511D01*
X153396335Y-124881893D02*
X148699074Y-123172230D01*
X148698692Y-123171410D02*
X146988591Y-127869873D01*
%TO.C,D20*%
X172763311Y-142547652D02*
X172378963Y-142616768D01*
X172378963Y-142616768D02*
X168740252Y-139563527D01*
D10*
X174048886Y-141015563D02*
X170846874Y-141331193D01*
D12*
X172763311Y-142547652D02*
X175784412Y-138947243D01*
X175783511Y-138947322D02*
X171954269Y-135734206D01*
X171954190Y-135733305D02*
X168740252Y-139563527D01*
D11*
%TO.C,SW2*%
X199093750Y-112800000D02*
X199093750Y-115300000D01*
X200843750Y-111300000D02*
X202843750Y-111300000D01*
X204593750Y-112800000D02*
X204593750Y-115300000D01*
X200843750Y-116800000D02*
X202843750Y-116800000D01*
X199543750Y-112350000D02*
X199093750Y-112800000D01*
X199543750Y-115750000D02*
X199093750Y-115300000D01*
X204143750Y-115750000D02*
X204593750Y-115300000D01*
X204143750Y-112350000D02*
X204593750Y-112800000D01*
%TO.C,JP8*%
X172887500Y-94450000D02*
X172887500Y-95050000D01*
X174987500Y-93750000D02*
X173587500Y-93750000D01*
X175687500Y-95050000D02*
X175687500Y-94450000D01*
X173587500Y-95750000D02*
X174987500Y-95750000D01*
X174987500Y-95750000D02*
G75*
G03*
X175687500Y-95050000I0J700000D01*
G01*
X175687500Y-94450000D02*
G75*
G03*
X174987500Y-93750000I-700000J0D01*
G01*
X173587500Y-93750000D02*
G75*
G03*
X172887500Y-94450000I0J-700000D01*
G01*
X172887500Y-95050000D02*
G75*
G03*
X173587500Y-95750000I700000J0D01*
G01*
%TO.C,JP7*%
X172887500Y-91275000D02*
X172887500Y-91875000D01*
X174987500Y-90575000D02*
X173587500Y-90575000D01*
X175687500Y-91875000D02*
X175687500Y-91275000D01*
X173587500Y-92575000D02*
X174987500Y-92575000D01*
X174987500Y-92575000D02*
G75*
G03*
X175687500Y-91875000I0J700000D01*
G01*
X175687500Y-91275000D02*
G75*
G03*
X174987500Y-90575000I-700000J0D01*
G01*
X173587500Y-90575000D02*
G75*
G03*
X172887500Y-91275000I0J-700000D01*
G01*
X172887500Y-91875000D02*
G75*
G03*
X173587500Y-92575000I700000J0D01*
G01*
%TO.C,JP6*%
X172887500Y-88100000D02*
X172887500Y-88700000D01*
X174987500Y-87400000D02*
X173587500Y-87400000D01*
X175687500Y-88700000D02*
X175687500Y-88100000D01*
X173587500Y-89400000D02*
X174987500Y-89400000D01*
X174987500Y-89400000D02*
G75*
G03*
X175687500Y-88700000I0J700000D01*
G01*
X175687500Y-88100000D02*
G75*
G03*
X174987500Y-87400000I-700000J0D01*
G01*
X173587500Y-87400000D02*
G75*
G03*
X172887500Y-88100000I0J-700000D01*
G01*
X172887500Y-88700000D02*
G75*
G03*
X173587500Y-89400000I700000J0D01*
G01*
%TO.C,JP5*%
X172887500Y-84925000D02*
X172887500Y-85525000D01*
X174987500Y-84225000D02*
X173587500Y-84225000D01*
X175687500Y-85525000D02*
X175687500Y-84925000D01*
X173587500Y-86225000D02*
X174987500Y-86225000D01*
X174987500Y-86225000D02*
G75*
G03*
X175687500Y-85525000I0J700000D01*
G01*
X175687500Y-84925000D02*
G75*
G03*
X174987500Y-84225000I-700000J0D01*
G01*
X173587500Y-84225000D02*
G75*
G03*
X172887500Y-84925000I0J-700000D01*
G01*
X172887500Y-85525000D02*
G75*
G03*
X173587500Y-86225000I700000J0D01*
G01*
%TO.C,U2*%
D10*
X197474755Y-138955041D02*
X197816775Y-138015348D01*
X197458797Y-137885055D01*
X197353016Y-137897229D01*
X197291982Y-137925689D01*
X197214661Y-137998897D01*
X197165801Y-138133139D01*
X197177975Y-138238920D01*
X197206436Y-138299954D01*
X197279644Y-138377275D01*
X197637622Y-138507568D01*
X196608599Y-137575608D02*
X196364299Y-138246817D01*
X196360186Y-138397345D01*
X196417107Y-138519413D01*
X196535063Y-138613021D01*
X196624557Y-138645594D01*
X195949400Y-137994456D02*
X195233443Y-137733869D01*
X195087192Y-137021861D02*
X194505477Y-136810134D01*
X194688415Y-137282119D01*
X194554173Y-137233259D01*
X194448392Y-137245433D01*
X194387358Y-137273894D01*
X194310037Y-137347101D01*
X194228604Y-137570838D01*
X194240778Y-137676619D01*
X194269239Y-137737653D01*
X194342446Y-137814974D01*
X194610930Y-137912694D01*
X194716711Y-137900520D01*
X194777745Y-137872059D01*
X194114926Y-136769335D02*
X194086465Y-136708301D01*
X194013258Y-136630981D01*
X193789521Y-136549547D01*
X193683740Y-136561721D01*
X193622706Y-136590182D01*
X193545385Y-136663390D01*
X193512812Y-136752884D01*
X193508699Y-136903413D01*
X193850226Y-137635820D01*
X193268512Y-137424093D01*
X193028818Y-136272674D02*
X192939323Y-136240101D01*
X192833542Y-136252275D01*
X192772508Y-136280735D01*
X192695187Y-136353943D01*
X192585293Y-136516645D01*
X192503860Y-136740382D01*
X192483461Y-136935657D01*
X192495635Y-137041439D01*
X192524095Y-137102473D01*
X192597303Y-137179793D01*
X192686797Y-137212367D01*
X192792579Y-137200193D01*
X192853613Y-137171732D01*
X192930933Y-137098524D01*
X193040827Y-136935822D01*
X193122261Y-136712085D01*
X193142660Y-136516810D01*
X193130486Y-136411029D01*
X193102025Y-136349995D01*
X193028818Y-136272674D01*
X192113309Y-136699583D02*
X191665836Y-136536716D01*
X192105083Y-137000640D02*
X192133872Y-135946941D01*
X191478621Y-136772626D01*
%TO.C,D19*%
X181583333Y-131602380D02*
X181916666Y-131126190D01*
X182154761Y-131602380D02*
X182154761Y-130602380D01*
X181773809Y-130602380D01*
X181678571Y-130650000D01*
X181630952Y-130697619D01*
X181583333Y-130792857D01*
X181583333Y-130935714D01*
X181630952Y-131030952D01*
X181678571Y-131078571D01*
X181773809Y-131126190D01*
X182154761Y-131126190D01*
X181154761Y-131078571D02*
X180821428Y-131078571D01*
X180678571Y-131602380D02*
X181154761Y-131602380D01*
X181154761Y-130602380D01*
X180678571Y-130602380D01*
X179916666Y-131078571D02*
X180250000Y-131078571D01*
X180250000Y-131602380D02*
X180250000Y-130602380D01*
X179773809Y-130602380D01*
X179250000Y-130602380D02*
X179250000Y-130840476D01*
X179488095Y-130745238D02*
X179250000Y-130840476D01*
X179011904Y-130745238D01*
X179392857Y-131030952D02*
X179250000Y-130840476D01*
X179107142Y-131030952D01*
X178488095Y-130602380D02*
X178488095Y-130840476D01*
X178726190Y-130745238D02*
X178488095Y-130840476D01*
X178250000Y-130745238D01*
X178630952Y-131030952D02*
X178488095Y-130840476D01*
X178345238Y-131030952D01*
%TO.C,D18*%
X172902083Y-111302380D02*
X173235416Y-110826190D01*
X173473511Y-111302380D02*
X173473511Y-110302380D01*
X173092559Y-110302380D01*
X172997321Y-110350000D01*
X172949702Y-110397619D01*
X172902083Y-110492857D01*
X172902083Y-110635714D01*
X172949702Y-110730952D01*
X172997321Y-110778571D01*
X173092559Y-110826190D01*
X173473511Y-110826190D01*
X172473511Y-110778571D02*
X172140178Y-110778571D01*
X171997321Y-111302380D02*
X172473511Y-111302380D01*
X172473511Y-110302380D01*
X171997321Y-110302380D01*
X171235416Y-110778571D02*
X171568750Y-110778571D01*
X171568750Y-111302380D02*
X171568750Y-110302380D01*
X171092559Y-110302380D01*
X170568750Y-110302380D02*
X170568750Y-110540476D01*
X170806845Y-110445238D02*
X170568750Y-110540476D01*
X170330654Y-110445238D01*
X170711607Y-110730952D02*
X170568750Y-110540476D01*
X170425892Y-110730952D01*
X169806845Y-110302380D02*
X169806845Y-110540476D01*
X170044940Y-110445238D02*
X169806845Y-110540476D01*
X169568750Y-110445238D01*
X169949702Y-110730952D02*
X169806845Y-110540476D01*
X169663988Y-110730952D01*
%TO.C,D17*%
X167902083Y-93314880D02*
X168235416Y-92838690D01*
X168473511Y-93314880D02*
X168473511Y-92314880D01*
X168092559Y-92314880D01*
X167997321Y-92362500D01*
X167949702Y-92410119D01*
X167902083Y-92505357D01*
X167902083Y-92648214D01*
X167949702Y-92743452D01*
X167997321Y-92791071D01*
X168092559Y-92838690D01*
X168473511Y-92838690D01*
X167473511Y-92791071D02*
X167140178Y-92791071D01*
X166997321Y-93314880D02*
X167473511Y-93314880D01*
X167473511Y-92314880D01*
X166997321Y-92314880D01*
X166235416Y-92791071D02*
X166568750Y-92791071D01*
X166568750Y-93314880D02*
X166568750Y-92314880D01*
X166092559Y-92314880D01*
X165568750Y-92314880D02*
X165568750Y-92552976D01*
X165806845Y-92457738D02*
X165568750Y-92552976D01*
X165330654Y-92457738D01*
X165711607Y-92743452D02*
X165568750Y-92552976D01*
X165425892Y-92743452D01*
X164806845Y-92314880D02*
X164806845Y-92552976D01*
X165044940Y-92457738D02*
X164806845Y-92552976D01*
X164568750Y-92457738D01*
X164949702Y-92743452D02*
X164806845Y-92552976D01*
X164663988Y-92743452D01*
%TO.C,D16*%
X172902083Y-74314880D02*
X173235416Y-73838690D01*
X173473511Y-74314880D02*
X173473511Y-73314880D01*
X173092559Y-73314880D01*
X172997321Y-73362500D01*
X172949702Y-73410119D01*
X172902083Y-73505357D01*
X172902083Y-73648214D01*
X172949702Y-73743452D01*
X172997321Y-73791071D01*
X173092559Y-73838690D01*
X173473511Y-73838690D01*
X172473511Y-73791071D02*
X172140178Y-73791071D01*
X171997321Y-74314880D02*
X172473511Y-74314880D01*
X172473511Y-73314880D01*
X171997321Y-73314880D01*
X171235416Y-73791071D02*
X171568750Y-73791071D01*
X171568750Y-74314880D02*
X171568750Y-73314880D01*
X171092559Y-73314880D01*
X170568750Y-73314880D02*
X170568750Y-73552976D01*
X170806845Y-73457738D02*
X170568750Y-73552976D01*
X170330654Y-73457738D01*
X170711607Y-73743452D02*
X170568750Y-73552976D01*
X170425892Y-73743452D01*
X169806845Y-73314880D02*
X169806845Y-73552976D01*
X170044940Y-73457738D02*
X169806845Y-73552976D01*
X169568750Y-73457738D01*
X169949702Y-73743452D02*
X169806845Y-73552976D01*
X169663988Y-73743452D01*
%TO.C,D15*%
X156052380Y-115916666D02*
X155576190Y-115583333D01*
X156052380Y-115345238D02*
X155052380Y-115345238D01*
X155052380Y-115726190D01*
X155100000Y-115821428D01*
X155147619Y-115869047D01*
X155242857Y-115916666D01*
X155385714Y-115916666D01*
X155480952Y-115869047D01*
X155528571Y-115821428D01*
X155576190Y-115726190D01*
X155576190Y-115345238D01*
X155528571Y-116345238D02*
X155528571Y-116678571D01*
X156052380Y-116821428D02*
X156052380Y-116345238D01*
X155052380Y-116345238D01*
X155052380Y-116821428D01*
X155528571Y-117583333D02*
X155528571Y-117250000D01*
X156052380Y-117250000D02*
X155052380Y-117250000D01*
X155052380Y-117726190D01*
X155052380Y-118250000D02*
X155290476Y-118250000D01*
X155195238Y-118011904D02*
X155290476Y-118250000D01*
X155195238Y-118488095D01*
X155480952Y-118107142D02*
X155290476Y-118250000D01*
X155480952Y-118392857D01*
X155052380Y-119011904D02*
X155290476Y-119011904D01*
X155195238Y-118773809D02*
X155290476Y-119011904D01*
X155195238Y-119250000D01*
X155480952Y-118869047D02*
X155290476Y-119011904D01*
X155480952Y-119154761D01*
%TO.C,D14*%
X154583333Y-110052380D02*
X154916666Y-109576190D01*
X155154761Y-110052380D02*
X155154761Y-109052380D01*
X154773809Y-109052380D01*
X154678571Y-109100000D01*
X154630952Y-109147619D01*
X154583333Y-109242857D01*
X154583333Y-109385714D01*
X154630952Y-109480952D01*
X154678571Y-109528571D01*
X154773809Y-109576190D01*
X155154761Y-109576190D01*
X154154761Y-109528571D02*
X153821428Y-109528571D01*
X153678571Y-110052380D02*
X154154761Y-110052380D01*
X154154761Y-109052380D01*
X153678571Y-109052380D01*
X152916666Y-109528571D02*
X153250000Y-109528571D01*
X153250000Y-110052380D02*
X153250000Y-109052380D01*
X152773809Y-109052380D01*
X152250000Y-109052380D02*
X152250000Y-109290476D01*
X152488095Y-109195238D02*
X152250000Y-109290476D01*
X152011904Y-109195238D01*
X152392857Y-109480952D02*
X152250000Y-109290476D01*
X152107142Y-109480952D01*
X151488095Y-109052380D02*
X151488095Y-109290476D01*
X151726190Y-109195238D02*
X151488095Y-109290476D01*
X151250000Y-109195238D01*
X151630952Y-109480952D02*
X151488095Y-109290476D01*
X151345238Y-109480952D01*
%TO.C,D13*%
X153902083Y-90314880D02*
X154235416Y-89838690D01*
X154473511Y-90314880D02*
X154473511Y-89314880D01*
X154092559Y-89314880D01*
X153997321Y-89362500D01*
X153949702Y-89410119D01*
X153902083Y-89505357D01*
X153902083Y-89648214D01*
X153949702Y-89743452D01*
X153997321Y-89791071D01*
X154092559Y-89838690D01*
X154473511Y-89838690D01*
X153473511Y-89791071D02*
X153140178Y-89791071D01*
X152997321Y-90314880D02*
X153473511Y-90314880D01*
X153473511Y-89314880D01*
X152997321Y-89314880D01*
X152235416Y-89791071D02*
X152568750Y-89791071D01*
X152568750Y-90314880D02*
X152568750Y-89314880D01*
X152092559Y-89314880D01*
X151568750Y-89314880D02*
X151568750Y-89552976D01*
X151806845Y-89457738D02*
X151568750Y-89552976D01*
X151330654Y-89457738D01*
X151711607Y-89743452D02*
X151568750Y-89552976D01*
X151425892Y-89743452D01*
X150806845Y-89314880D02*
X150806845Y-89552976D01*
X151044940Y-89457738D02*
X150806845Y-89552976D01*
X150568750Y-89457738D01*
X150949702Y-89743452D02*
X150806845Y-89552976D01*
X150663988Y-89743452D01*
%TO.C,D12*%
X155320833Y-67096130D02*
X155654166Y-66619940D01*
X155892261Y-67096130D02*
X155892261Y-66096130D01*
X155511309Y-66096130D01*
X155416071Y-66143750D01*
X155368452Y-66191369D01*
X155320833Y-66286607D01*
X155320833Y-66429464D01*
X155368452Y-66524702D01*
X155416071Y-66572321D01*
X155511309Y-66619940D01*
X155892261Y-66619940D01*
X154892261Y-66572321D02*
X154558928Y-66572321D01*
X154416071Y-67096130D02*
X154892261Y-67096130D01*
X154892261Y-66096130D01*
X154416071Y-66096130D01*
X153654166Y-66572321D02*
X153987500Y-66572321D01*
X153987500Y-67096130D02*
X153987500Y-66096130D01*
X153511309Y-66096130D01*
X152987500Y-66096130D02*
X152987500Y-66334226D01*
X153225595Y-66238988D02*
X152987500Y-66334226D01*
X152749404Y-66238988D01*
X153130357Y-66524702D02*
X152987500Y-66334226D01*
X152844642Y-66524702D01*
X152225595Y-66096130D02*
X152225595Y-66334226D01*
X152463690Y-66238988D02*
X152225595Y-66334226D01*
X151987500Y-66238988D01*
X152368452Y-66524702D02*
X152225595Y-66334226D01*
X152082738Y-66524702D01*
%TO.C,D11*%
X152052380Y-115916666D02*
X151576190Y-115583333D01*
X152052380Y-115345238D02*
X151052380Y-115345238D01*
X151052380Y-115726190D01*
X151100000Y-115821428D01*
X151147619Y-115869047D01*
X151242857Y-115916666D01*
X151385714Y-115916666D01*
X151480952Y-115869047D01*
X151528571Y-115821428D01*
X151576190Y-115726190D01*
X151576190Y-115345238D01*
X151528571Y-116345238D02*
X151528571Y-116678571D01*
X152052380Y-116821428D02*
X152052380Y-116345238D01*
X151052380Y-116345238D01*
X151052380Y-116821428D01*
X151528571Y-117583333D02*
X151528571Y-117250000D01*
X152052380Y-117250000D02*
X151052380Y-117250000D01*
X151052380Y-117726190D01*
X151052380Y-118250000D02*
X151290476Y-118250000D01*
X151195238Y-118011904D02*
X151290476Y-118250000D01*
X151195238Y-118488095D01*
X151480952Y-118107142D02*
X151290476Y-118250000D01*
X151480952Y-118392857D01*
X151052380Y-119011904D02*
X151290476Y-119011904D01*
X151195238Y-118773809D02*
X151290476Y-119011904D01*
X151195238Y-119250000D01*
X151480952Y-118869047D02*
X151290476Y-119011904D01*
X151480952Y-119154761D01*
%TO.C,D10*%
X134833333Y-103052380D02*
X135166666Y-102576190D01*
X135404761Y-103052380D02*
X135404761Y-102052380D01*
X135023809Y-102052380D01*
X134928571Y-102100000D01*
X134880952Y-102147619D01*
X134833333Y-102242857D01*
X134833333Y-102385714D01*
X134880952Y-102480952D01*
X134928571Y-102528571D01*
X135023809Y-102576190D01*
X135404761Y-102576190D01*
X134404761Y-102528571D02*
X134071428Y-102528571D01*
X133928571Y-103052380D02*
X134404761Y-103052380D01*
X134404761Y-102052380D01*
X133928571Y-102052380D01*
X133166666Y-102528571D02*
X133500000Y-102528571D01*
X133500000Y-103052380D02*
X133500000Y-102052380D01*
X133023809Y-102052380D01*
X132500000Y-102052380D02*
X132500000Y-102290476D01*
X132738095Y-102195238D02*
X132500000Y-102290476D01*
X132261904Y-102195238D01*
X132642857Y-102480952D02*
X132500000Y-102290476D01*
X132357142Y-102480952D01*
X131738095Y-102052380D02*
X131738095Y-102290476D01*
X131976190Y-102195238D02*
X131738095Y-102290476D01*
X131500000Y-102195238D01*
X131880952Y-102480952D02*
X131738095Y-102290476D01*
X131595238Y-102480952D01*
%TO.C,D9*%
X134902083Y-83314880D02*
X135235416Y-82838690D01*
X135473511Y-83314880D02*
X135473511Y-82314880D01*
X135092559Y-82314880D01*
X134997321Y-82362500D01*
X134949702Y-82410119D01*
X134902083Y-82505357D01*
X134902083Y-82648214D01*
X134949702Y-82743452D01*
X134997321Y-82791071D01*
X135092559Y-82838690D01*
X135473511Y-82838690D01*
X134473511Y-82791071D02*
X134140178Y-82791071D01*
X133997321Y-83314880D02*
X134473511Y-83314880D01*
X134473511Y-82314880D01*
X133997321Y-82314880D01*
X133235416Y-82791071D02*
X133568750Y-82791071D01*
X133568750Y-83314880D02*
X133568750Y-82314880D01*
X133092559Y-82314880D01*
X132568750Y-82314880D02*
X132568750Y-82552976D01*
X132806845Y-82457738D02*
X132568750Y-82552976D01*
X132330654Y-82457738D01*
X132711607Y-82743452D02*
X132568750Y-82552976D01*
X132425892Y-82743452D01*
X131806845Y-82314880D02*
X131806845Y-82552976D01*
X132044940Y-82457738D02*
X131806845Y-82552976D01*
X131568750Y-82457738D01*
X131949702Y-82743452D02*
X131806845Y-82552976D01*
X131663988Y-82743452D01*
%TO.C,D8*%
X134902083Y-64314880D02*
X135235416Y-63838690D01*
X135473511Y-64314880D02*
X135473511Y-63314880D01*
X135092559Y-63314880D01*
X134997321Y-63362500D01*
X134949702Y-63410119D01*
X134902083Y-63505357D01*
X134902083Y-63648214D01*
X134949702Y-63743452D01*
X134997321Y-63791071D01*
X135092559Y-63838690D01*
X135473511Y-63838690D01*
X134473511Y-63791071D02*
X134140178Y-63791071D01*
X133997321Y-64314880D02*
X134473511Y-64314880D01*
X134473511Y-63314880D01*
X133997321Y-63314880D01*
X133235416Y-63791071D02*
X133568750Y-63791071D01*
X133568750Y-64314880D02*
X133568750Y-63314880D01*
X133092559Y-63314880D01*
X132568750Y-63314880D02*
X132568750Y-63552976D01*
X132806845Y-63457738D02*
X132568750Y-63552976D01*
X132330654Y-63457738D01*
X132711607Y-63743452D02*
X132568750Y-63552976D01*
X132425892Y-63743452D01*
X131806845Y-63314880D02*
X131806845Y-63552976D01*
X132044940Y-63457738D02*
X131806845Y-63552976D01*
X131568750Y-63457738D01*
X131949702Y-63743452D02*
X131806845Y-63552976D01*
X131663988Y-63743452D01*
%TO.C,D7*%
X191902083Y-118614880D02*
X192235416Y-118138690D01*
X192473511Y-118614880D02*
X192473511Y-117614880D01*
X192092559Y-117614880D01*
X191997321Y-117662500D01*
X191949702Y-117710119D01*
X191902083Y-117805357D01*
X191902083Y-117948214D01*
X191949702Y-118043452D01*
X191997321Y-118091071D01*
X192092559Y-118138690D01*
X192473511Y-118138690D01*
X191473511Y-118091071D02*
X191140178Y-118091071D01*
X190997321Y-118614880D02*
X191473511Y-118614880D01*
X191473511Y-117614880D01*
X190997321Y-117614880D01*
X190235416Y-118091071D02*
X190568750Y-118091071D01*
X190568750Y-118614880D02*
X190568750Y-117614880D01*
X190092559Y-117614880D01*
X189568750Y-117614880D02*
X189568750Y-117852976D01*
X189806845Y-117757738D02*
X189568750Y-117852976D01*
X189330654Y-117757738D01*
X189711607Y-118043452D02*
X189568750Y-117852976D01*
X189425892Y-118043452D01*
X188806845Y-117614880D02*
X188806845Y-117852976D01*
X189044940Y-117757738D02*
X188806845Y-117852976D01*
X188568750Y-117757738D01*
X188949702Y-118043452D02*
X188806845Y-117852976D01*
X188663988Y-118043452D01*
%TO.C,D6*%
X116833333Y-108302380D02*
X117166666Y-107826190D01*
X117404761Y-108302380D02*
X117404761Y-107302380D01*
X117023809Y-107302380D01*
X116928571Y-107350000D01*
X116880952Y-107397619D01*
X116833333Y-107492857D01*
X116833333Y-107635714D01*
X116880952Y-107730952D01*
X116928571Y-107778571D01*
X117023809Y-107826190D01*
X117404761Y-107826190D01*
X116404761Y-107778571D02*
X116071428Y-107778571D01*
X115928571Y-108302380D02*
X116404761Y-108302380D01*
X116404761Y-107302380D01*
X115928571Y-107302380D01*
X115166666Y-107778571D02*
X115500000Y-107778571D01*
X115500000Y-108302380D02*
X115500000Y-107302380D01*
X115023809Y-107302380D01*
X114500000Y-107302380D02*
X114500000Y-107540476D01*
X114738095Y-107445238D02*
X114500000Y-107540476D01*
X114261904Y-107445238D01*
X114642857Y-107730952D02*
X114500000Y-107540476D01*
X114357142Y-107730952D01*
X113738095Y-107302380D02*
X113738095Y-107540476D01*
X113976190Y-107445238D02*
X113738095Y-107540476D01*
X113500000Y-107445238D01*
X113880952Y-107730952D02*
X113738095Y-107540476D01*
X113595238Y-107730952D01*
%TO.C,D5*%
X115902083Y-89314880D02*
X116235416Y-88838690D01*
X116473511Y-89314880D02*
X116473511Y-88314880D01*
X116092559Y-88314880D01*
X115997321Y-88362500D01*
X115949702Y-88410119D01*
X115902083Y-88505357D01*
X115902083Y-88648214D01*
X115949702Y-88743452D01*
X115997321Y-88791071D01*
X116092559Y-88838690D01*
X116473511Y-88838690D01*
X115473511Y-88791071D02*
X115140178Y-88791071D01*
X114997321Y-89314880D02*
X115473511Y-89314880D01*
X115473511Y-88314880D01*
X114997321Y-88314880D01*
X114235416Y-88791071D02*
X114568750Y-88791071D01*
X114568750Y-89314880D02*
X114568750Y-88314880D01*
X114092559Y-88314880D01*
X113568750Y-88314880D02*
X113568750Y-88552976D01*
X113806845Y-88457738D02*
X113568750Y-88552976D01*
X113330654Y-88457738D01*
X113711607Y-88743452D02*
X113568750Y-88552976D01*
X113425892Y-88743452D01*
X112806845Y-88314880D02*
X112806845Y-88552976D01*
X113044940Y-88457738D02*
X112806845Y-88552976D01*
X112568750Y-88457738D01*
X112949702Y-88743452D02*
X112806845Y-88552976D01*
X112663988Y-88743452D01*
%TO.C,D4*%
X115852083Y-70314880D02*
X116185416Y-69838690D01*
X116423511Y-70314880D02*
X116423511Y-69314880D01*
X116042559Y-69314880D01*
X115947321Y-69362500D01*
X115899702Y-69410119D01*
X115852083Y-69505357D01*
X115852083Y-69648214D01*
X115899702Y-69743452D01*
X115947321Y-69791071D01*
X116042559Y-69838690D01*
X116423511Y-69838690D01*
X115423511Y-69791071D02*
X115090178Y-69791071D01*
X114947321Y-70314880D02*
X115423511Y-70314880D01*
X115423511Y-69314880D01*
X114947321Y-69314880D01*
X114185416Y-69791071D02*
X114518750Y-69791071D01*
X114518750Y-70314880D02*
X114518750Y-69314880D01*
X114042559Y-69314880D01*
X113518750Y-69314880D02*
X113518750Y-69552976D01*
X113756845Y-69457738D02*
X113518750Y-69552976D01*
X113280654Y-69457738D01*
X113661607Y-69743452D02*
X113518750Y-69552976D01*
X113375892Y-69743452D01*
X112756845Y-69314880D02*
X112756845Y-69552976D01*
X112994940Y-69457738D02*
X112756845Y-69552976D01*
X112518750Y-69457738D01*
X112899702Y-69743452D02*
X112756845Y-69552976D01*
X112613988Y-69743452D01*
%TO.C,D3*%
X97083333Y-119802380D02*
X97416666Y-119326190D01*
X97654761Y-119802380D02*
X97654761Y-118802380D01*
X97273809Y-118802380D01*
X97178571Y-118850000D01*
X97130952Y-118897619D01*
X97083333Y-118992857D01*
X97083333Y-119135714D01*
X97130952Y-119230952D01*
X97178571Y-119278571D01*
X97273809Y-119326190D01*
X97654761Y-119326190D01*
X96654761Y-119278571D02*
X96321428Y-119278571D01*
X96178571Y-119802380D02*
X96654761Y-119802380D01*
X96654761Y-118802380D01*
X96178571Y-118802380D01*
X95416666Y-119278571D02*
X95750000Y-119278571D01*
X95750000Y-119802380D02*
X95750000Y-118802380D01*
X95273809Y-118802380D01*
X94750000Y-118802380D02*
X94750000Y-119040476D01*
X94988095Y-118945238D02*
X94750000Y-119040476D01*
X94511904Y-118945238D01*
X94892857Y-119230952D02*
X94750000Y-119040476D01*
X94607142Y-119230952D01*
X93988095Y-118802380D02*
X93988095Y-119040476D01*
X94226190Y-118945238D02*
X93988095Y-119040476D01*
X93750000Y-118945238D01*
X94130952Y-119230952D02*
X93988095Y-119040476D01*
X93845238Y-119230952D01*
%TO.C,D2*%
X96902083Y-101314880D02*
X97235416Y-100838690D01*
X97473511Y-101314880D02*
X97473511Y-100314880D01*
X97092559Y-100314880D01*
X96997321Y-100362500D01*
X96949702Y-100410119D01*
X96902083Y-100505357D01*
X96902083Y-100648214D01*
X96949702Y-100743452D01*
X96997321Y-100791071D01*
X97092559Y-100838690D01*
X97473511Y-100838690D01*
X96473511Y-100791071D02*
X96140178Y-100791071D01*
X95997321Y-101314880D02*
X96473511Y-101314880D01*
X96473511Y-100314880D01*
X95997321Y-100314880D01*
X95235416Y-100791071D02*
X95568750Y-100791071D01*
X95568750Y-101314880D02*
X95568750Y-100314880D01*
X95092559Y-100314880D01*
X94568750Y-100314880D02*
X94568750Y-100552976D01*
X94806845Y-100457738D02*
X94568750Y-100552976D01*
X94330654Y-100457738D01*
X94711607Y-100743452D02*
X94568750Y-100552976D01*
X94425892Y-100743452D01*
X93806845Y-100314880D02*
X93806845Y-100552976D01*
X94044940Y-100457738D02*
X93806845Y-100552976D01*
X93568750Y-100457738D01*
X93949702Y-100743452D02*
X93806845Y-100552976D01*
X93663988Y-100743452D01*
%TO.C,D1*%
X96902083Y-82314880D02*
X97235416Y-81838690D01*
X97473511Y-82314880D02*
X97473511Y-81314880D01*
X97092559Y-81314880D01*
X96997321Y-81362500D01*
X96949702Y-81410119D01*
X96902083Y-81505357D01*
X96902083Y-81648214D01*
X96949702Y-81743452D01*
X96997321Y-81791071D01*
X97092559Y-81838690D01*
X97473511Y-81838690D01*
X96473511Y-81791071D02*
X96140178Y-81791071D01*
X95997321Y-82314880D02*
X96473511Y-82314880D01*
X96473511Y-81314880D01*
X95997321Y-81314880D01*
X95235416Y-81791071D02*
X95568750Y-81791071D01*
X95568750Y-82314880D02*
X95568750Y-81314880D01*
X95092559Y-81314880D01*
X94568750Y-81314880D02*
X94568750Y-81552976D01*
X94806845Y-81457738D02*
X94568750Y-81552976D01*
X94330654Y-81457738D01*
X94711607Y-81743452D02*
X94568750Y-81552976D01*
X94425892Y-81743452D01*
X93806845Y-81314880D02*
X93806845Y-81552976D01*
X94044940Y-81457738D02*
X93806845Y-81552976D01*
X93568750Y-81457738D01*
X93949702Y-81743452D02*
X93806845Y-81552976D01*
X93663988Y-81743452D01*
%TO.C,D29*%
D12*
X191073471Y-116586944D02*
X191485864Y-116825039D01*
X191985864Y-115959014D01*
X191046700Y-115966645D02*
X190758025Y-115799978D01*
X190372403Y-116182182D02*
X190784796Y-116420277D01*
X191284796Y-115554252D01*
X190872403Y-115316156D01*
X190001249Y-115967896D02*
X190501249Y-115101871D01*
X190295052Y-114982823D01*
X190147525Y-114952634D01*
X190017427Y-114987493D01*
X189928569Y-115046162D01*
X189792091Y-115187310D01*
X189720663Y-115311028D01*
X189666664Y-115499795D01*
X189660284Y-115606083D01*
X189695144Y-115736181D01*
X189795052Y-115848848D01*
X190001249Y-115967896D01*
X189097403Y-114676260D02*
X188764070Y-115253610D01*
X189494076Y-114465393D02*
X189343129Y-115203030D01*
X188807018Y-114893507D01*
%TO.C,D28*%
X171684603Y-62598352D02*
X171922698Y-63010745D01*
X172788724Y-62510745D01*
X171971569Y-62047772D02*
X171804902Y-61759097D01*
X171279841Y-61897283D02*
X171517936Y-62309677D01*
X172383962Y-61809677D01*
X172145866Y-61397283D01*
X171065555Y-61526130D02*
X171931581Y-61026130D01*
X171812533Y-60819933D01*
X171699865Y-60720025D01*
X171569768Y-60685165D01*
X171463479Y-60691545D01*
X171274713Y-60745544D01*
X171150995Y-60816972D01*
X171009847Y-60953450D01*
X170951178Y-61042308D01*
X170916318Y-61172406D01*
X170946508Y-61319933D01*
X171065555Y-61526130D01*
X170928620Y-59955617D02*
X170351270Y-60288951D01*
X171377582Y-59971338D02*
X170878040Y-60534677D01*
X170568516Y-59998566D01*
%TO.C,D27*%
X146309047Y-51612380D02*
X146785238Y-51612380D01*
X146785238Y-50612380D01*
X145975714Y-51088571D02*
X145642380Y-51088571D01*
X145499523Y-51612380D02*
X145975714Y-51612380D01*
X145975714Y-50612380D01*
X145499523Y-50612380D01*
X145070952Y-51612380D02*
X145070952Y-50612380D01*
X144832857Y-50612380D01*
X144690000Y-50660000D01*
X144594761Y-50755238D01*
X144547142Y-50850476D01*
X144499523Y-51040952D01*
X144499523Y-51183809D01*
X144547142Y-51374285D01*
X144594761Y-51469523D01*
X144690000Y-51564761D01*
X144832857Y-51612380D01*
X145070952Y-51612380D01*
X143642380Y-50945714D02*
X143642380Y-51612380D01*
X143880476Y-50564761D02*
X144118571Y-51279047D01*
X143499523Y-51279047D01*
%TO.C,D26*%
X115627797Y-52374880D02*
X116103988Y-52374880D01*
X116103988Y-51374880D01*
X115294464Y-51851071D02*
X114961130Y-51851071D01*
X114818273Y-52374880D02*
X115294464Y-52374880D01*
X115294464Y-51374880D01*
X114818273Y-51374880D01*
X114389702Y-52374880D02*
X114389702Y-51374880D01*
X114151607Y-51374880D01*
X114008750Y-51422500D01*
X113913511Y-51517738D01*
X113865892Y-51612976D01*
X113818273Y-51803452D01*
X113818273Y-51946309D01*
X113865892Y-52136785D01*
X113913511Y-52232023D01*
X114008750Y-52327261D01*
X114151607Y-52374880D01*
X114389702Y-52374880D01*
X112961130Y-51708214D02*
X112961130Y-52374880D01*
X113199226Y-51327261D02*
X113437321Y-52041547D01*
X112818273Y-52041547D01*
%TO.C,D25*%
X95627797Y-62374880D02*
X96103988Y-62374880D01*
X96103988Y-61374880D01*
X95294464Y-61851071D02*
X94961130Y-61851071D01*
X94818273Y-62374880D02*
X95294464Y-62374880D01*
X95294464Y-61374880D01*
X94818273Y-61374880D01*
X94389702Y-62374880D02*
X94389702Y-61374880D01*
X94151607Y-61374880D01*
X94008750Y-61422500D01*
X93913511Y-61517738D01*
X93865892Y-61612976D01*
X93818273Y-61803452D01*
X93818273Y-61946309D01*
X93865892Y-62136785D01*
X93913511Y-62232023D01*
X94008750Y-62327261D01*
X94151607Y-62374880D01*
X94389702Y-62374880D01*
X92961130Y-61708214D02*
X92961130Y-62374880D01*
X93199226Y-61327261D02*
X93437321Y-62041547D01*
X92818273Y-62041547D01*
%TO.C,D24*%
X83059047Y-82862380D02*
X83535238Y-82862380D01*
X83535238Y-81862380D01*
X82725714Y-82338571D02*
X82392380Y-82338571D01*
X82249523Y-82862380D02*
X82725714Y-82862380D01*
X82725714Y-81862380D01*
X82249523Y-81862380D01*
X81820952Y-82862380D02*
X81820952Y-81862380D01*
X81582857Y-81862380D01*
X81440000Y-81910000D01*
X81344761Y-82005238D01*
X81297142Y-82100476D01*
X81249523Y-82290952D01*
X81249523Y-82433809D01*
X81297142Y-82624285D01*
X81344761Y-82719523D01*
X81440000Y-82814761D01*
X81582857Y-82862380D01*
X81820952Y-82862380D01*
X80392380Y-82195714D02*
X80392380Y-82862380D01*
X80630476Y-81814761D02*
X80868571Y-82529047D01*
X80249523Y-82529047D01*
%TO.C,D23*%
X83429047Y-95042380D02*
X83905238Y-95042380D01*
X83905238Y-94042380D01*
X83095714Y-94518571D02*
X82762380Y-94518571D01*
X82619523Y-95042380D02*
X83095714Y-95042380D01*
X83095714Y-94042380D01*
X82619523Y-94042380D01*
X82190952Y-95042380D02*
X82190952Y-94042380D01*
X81952857Y-94042380D01*
X81810000Y-94090000D01*
X81714761Y-94185238D01*
X81667142Y-94280476D01*
X81619523Y-94470952D01*
X81619523Y-94613809D01*
X81667142Y-94804285D01*
X81714761Y-94899523D01*
X81810000Y-94994761D01*
X81952857Y-95042380D01*
X82190952Y-95042380D01*
X80762380Y-94375714D02*
X80762380Y-95042380D01*
X81000476Y-93994761D02*
X81238571Y-94709047D01*
X80619523Y-94709047D01*
%TO.C,D22*%
X111985971Y-125124444D02*
X112398364Y-125362539D01*
X112898364Y-124496514D01*
X111959200Y-124504145D02*
X111670525Y-124337478D01*
X111284903Y-124719682D02*
X111697296Y-124957777D01*
X112197296Y-124091752D01*
X111784903Y-123853656D01*
X110913749Y-124505396D02*
X111413749Y-123639371D01*
X111207552Y-123520323D01*
X111060025Y-123490134D01*
X110929927Y-123524993D01*
X110841069Y-123583662D01*
X110704591Y-123724810D01*
X110633163Y-123848528D01*
X110579164Y-124037295D01*
X110572784Y-124143583D01*
X110607644Y-124273681D01*
X110707552Y-124386348D01*
X110913749Y-124505396D01*
X110009903Y-123213760D02*
X109676570Y-123791110D01*
X110406576Y-123002893D02*
X110255629Y-123740530D01*
X109719518Y-123431007D01*
%TO.C,D21*%
X148192754Y-124392992D02*
X148355621Y-123945519D01*
X147415928Y-123603499D01*
X147586528Y-124527070D02*
X147472521Y-124840300D01*
X147915881Y-125153696D02*
X148078748Y-124706223D01*
X147139055Y-124364203D01*
X146976188Y-124811676D01*
X147769301Y-125556421D02*
X146829608Y-125214401D01*
X146748175Y-125438137D01*
X146744062Y-125588666D01*
X146800983Y-125710734D01*
X146874191Y-125788054D01*
X147036894Y-125897948D01*
X147171135Y-125946808D01*
X147366411Y-125967208D01*
X147472192Y-125955034D01*
X147594260Y-125898113D01*
X147687867Y-125780157D01*
X147769301Y-125556421D01*
X146654239Y-126670826D02*
X147280701Y-126898839D01*
X146377694Y-126316796D02*
X147130337Y-126337360D01*
X146918610Y-126919074D01*
%TO.C,D20*%
X171060959Y-136708176D02*
X171367049Y-136343393D01*
X170601004Y-135700605D01*
X170445435Y-136626826D02*
X170231173Y-136882174D01*
X170540607Y-137328307D02*
X170846697Y-136963524D01*
X170080652Y-136320737D01*
X169774563Y-136685520D01*
X170265127Y-137656612D02*
X169499083Y-137013825D01*
X169346038Y-137196216D01*
X169290689Y-137336260D01*
X169302428Y-137470434D01*
X169344776Y-137568131D01*
X169460080Y-137727045D01*
X169569515Y-137818871D01*
X169746037Y-137904829D01*
X169849603Y-137929568D01*
X169983777Y-137917830D01*
X170112082Y-137839004D01*
X170265127Y-137656612D01*
X168836163Y-138322436D02*
X169346859Y-138750961D01*
X168697381Y-137895173D02*
X169397600Y-138171916D01*
X168999684Y-138646134D01*
%TO.C,SW2*%
D10*
X198377083Y-113116666D02*
X198410416Y-113216666D01*
X198410416Y-113383333D01*
X198377083Y-113450000D01*
X198343750Y-113483333D01*
X198277083Y-113516666D01*
X198210416Y-113516666D01*
X198143750Y-113483333D01*
X198110416Y-113450000D01*
X198077083Y-113383333D01*
X198043750Y-113250000D01*
X198010416Y-113183333D01*
X197977083Y-113150000D01*
X197910416Y-113116666D01*
X197843750Y-113116666D01*
X197777083Y-113150000D01*
X197743750Y-113183333D01*
X197710416Y-113250000D01*
X197710416Y-113416666D01*
X197743750Y-113516666D01*
X197710416Y-113750000D02*
X198410416Y-113916666D01*
X197910416Y-114050000D01*
X198410416Y-114183333D01*
X197710416Y-114350000D01*
X197777083Y-114583333D02*
X197743750Y-114616666D01*
X197710416Y-114683333D01*
X197710416Y-114850000D01*
X197743750Y-114916666D01*
X197777083Y-114950000D01*
X197843750Y-114983333D01*
X197910416Y-114983333D01*
X198010416Y-114950000D01*
X198410416Y-114550000D01*
X198410416Y-114983333D01*
%TO.C,JP8*%
X175120833Y-96002380D02*
X175120833Y-96716666D01*
X175168452Y-96859523D01*
X175263690Y-96954761D01*
X175406547Y-97002380D01*
X175501785Y-97002380D01*
X174644642Y-97002380D02*
X174644642Y-96002380D01*
X174263690Y-96002380D01*
X174168452Y-96050000D01*
X174120833Y-96097619D01*
X174073214Y-96192857D01*
X174073214Y-96335714D01*
X174120833Y-96430952D01*
X174168452Y-96478571D01*
X174263690Y-96526190D01*
X174644642Y-96526190D01*
X173501785Y-96430952D02*
X173597023Y-96383333D01*
X173644642Y-96335714D01*
X173692261Y-96240476D01*
X173692261Y-96192857D01*
X173644642Y-96097619D01*
X173597023Y-96050000D01*
X173501785Y-96002380D01*
X173311309Y-96002380D01*
X173216071Y-96050000D01*
X173168452Y-96097619D01*
X173120833Y-96192857D01*
X173120833Y-96240476D01*
X173168452Y-96335714D01*
X173216071Y-96383333D01*
X173311309Y-96430952D01*
X173501785Y-96430952D01*
X173597023Y-96478571D01*
X173644642Y-96526190D01*
X173692261Y-96621428D01*
X173692261Y-96811904D01*
X173644642Y-96907142D01*
X173597023Y-96954761D01*
X173501785Y-97002380D01*
X173311309Y-97002380D01*
X173216071Y-96954761D01*
X173168452Y-96907142D01*
X173120833Y-96811904D01*
X173120833Y-96621428D01*
X173168452Y-96526190D01*
X173216071Y-96478571D01*
X173311309Y-96430952D01*
%TO.C,JP7*%
X175120833Y-92827380D02*
X175120833Y-93541666D01*
X175168452Y-93684523D01*
X175263690Y-93779761D01*
X175406547Y-93827380D01*
X175501785Y-93827380D01*
X174644642Y-93827380D02*
X174644642Y-92827380D01*
X174263690Y-92827380D01*
X174168452Y-92875000D01*
X174120833Y-92922619D01*
X174073214Y-93017857D01*
X174073214Y-93160714D01*
X174120833Y-93255952D01*
X174168452Y-93303571D01*
X174263690Y-93351190D01*
X174644642Y-93351190D01*
X173739880Y-92827380D02*
X173073214Y-92827380D01*
X173501785Y-93827380D01*
%TO.C,JP6*%
X175120833Y-89652380D02*
X175120833Y-90366666D01*
X175168452Y-90509523D01*
X175263690Y-90604761D01*
X175406547Y-90652380D01*
X175501785Y-90652380D01*
X174644642Y-90652380D02*
X174644642Y-89652380D01*
X174263690Y-89652380D01*
X174168452Y-89700000D01*
X174120833Y-89747619D01*
X174073214Y-89842857D01*
X174073214Y-89985714D01*
X174120833Y-90080952D01*
X174168452Y-90128571D01*
X174263690Y-90176190D01*
X174644642Y-90176190D01*
X173216071Y-89652380D02*
X173406547Y-89652380D01*
X173501785Y-89700000D01*
X173549404Y-89747619D01*
X173644642Y-89890476D01*
X173692261Y-90080952D01*
X173692261Y-90461904D01*
X173644642Y-90557142D01*
X173597023Y-90604761D01*
X173501785Y-90652380D01*
X173311309Y-90652380D01*
X173216071Y-90604761D01*
X173168452Y-90557142D01*
X173120833Y-90461904D01*
X173120833Y-90223809D01*
X173168452Y-90128571D01*
X173216071Y-90080952D01*
X173311309Y-90033333D01*
X173501785Y-90033333D01*
X173597023Y-90080952D01*
X173644642Y-90128571D01*
X173692261Y-90223809D01*
%TO.C,JP5*%
X175120833Y-86477380D02*
X175120833Y-87191666D01*
X175168452Y-87334523D01*
X175263690Y-87429761D01*
X175406547Y-87477380D01*
X175501785Y-87477380D01*
X174644642Y-87477380D02*
X174644642Y-86477380D01*
X174263690Y-86477380D01*
X174168452Y-86525000D01*
X174120833Y-86572619D01*
X174073214Y-86667857D01*
X174073214Y-86810714D01*
X174120833Y-86905952D01*
X174168452Y-86953571D01*
X174263690Y-87001190D01*
X174644642Y-87001190D01*
X173168452Y-86477380D02*
X173644642Y-86477380D01*
X173692261Y-86953571D01*
X173644642Y-86905952D01*
X173549404Y-86858333D01*
X173311309Y-86858333D01*
X173216071Y-86905952D01*
X173168452Y-86953571D01*
X173120833Y-87048809D01*
X173120833Y-87286904D01*
X173168452Y-87382142D01*
X173216071Y-87429761D01*
X173311309Y-87477380D01*
X173549404Y-87477380D01*
X173644642Y-87429761D01*
X173692261Y-87382142D01*
%TD*%
M02*
