M48
; DRILL file {KiCad 5.1.8} date Thu Jan  7 10:58:39 2021
; FORMAT={-:-/ absolute / inch / decimal}
; #@! TF.CreationDate,2021-01-07T10:58:39+01:00
; #@! TF.GenerationSoftware,Kicad,Pcbnew,5.1.8
; #@! TF.FileFunction,Plated,1,2,PTH
FMAT,2
INCH
T1C0.0079
T2C0.0157
T3C0.0315
T4C0.0320
T5C0.0354
T6C0.0394
T7C0.0866
T8C0.1181
T9C0.1575
%
G90
G05
T1
X3.7074Y-3.8784
X6.0625Y-4.4136
X7.4476Y-4.7446
X7.5578Y-4.7446
X5.9515Y-3.4454
X6.0618Y-3.4454
X5.2008Y-3.9469
X5.311Y-3.9469
X5.2035Y-2.4218
X5.3137Y-2.4218
X5.2035Y-3.1698
X5.3137Y-3.1698
X3.7074Y-3.1304
X3.8177Y-3.1304
X5.5938Y-4.4136
X5.5938Y-4.5239
X5.9761Y-2.6875
X6.0864Y-2.6875
X3.8177Y-3.8784
X4.4555Y-3.406
X4.5657Y-3.406
X6.0625Y-4.5239
X6.8199Y-3.0
X6.9301Y-3.0
X3.7146Y-4.6063
X3.8248Y-4.6063
X5.9062Y-4.4136
X5.9062Y-4.5239
X6.8199Y-2.875
X6.9301Y-2.875
X4.4523Y-4.1562
X4.5625Y-4.1562
X5.75Y-4.4136
X5.75Y-4.5239
X4.4535Y-2.658
X4.5637Y-2.658
X7.4449Y-4.875
X7.5551Y-4.875
T2
X3.1102Y-3.8583
X3.1181Y-3.3071
X3.1417Y-4.5906
X3.189Y-3.1102
X3.2087Y-3.8583
X3.2677Y-3.0906
X3.2677Y-3.8583
X3.4055Y-3.1102
X3.4449Y-3.878
X3.5236Y-2.3647
X3.8204Y-2.1669
X3.8776Y-2.1847
X4.2323Y-4.3307
X4.3066Y-1.9729
X4.3307Y-4.685
X4.3898Y-4.7441
X4.4685Y-4.7441
X4.5186Y-1.9399
X4.5655Y-4.962
X4.6063Y-1.9094
X4.7638Y-3.9961
X5.0394Y-4.0551
X5.2546Y-4.1829
X5.5118Y-4.159
X5.5315Y-1.7717
X5.689Y-1.8898
X5.7283Y-1.8898
X5.748Y-4.8228
X5.8268Y-5.1181
X5.8816Y-1.8743
X5.9449Y-5.0197
X5.9646Y-2.8346
X5.9646Y-4.9606
X5.9843Y-4.8425
X6.004Y-4.7441
X6.0236Y-3.563
X6.0433Y-2.3425
X6.0827Y-4.9016
X6.1562Y-4.1875
X6.1598Y-4.5071
X6.1771Y-4.2575
X6.1869Y-4.2194
X6.2407Y-4.1924
X6.25Y-4.5625
X6.2603Y-4.8027
X6.2992Y-5.6102
X6.3012Y-4.4375
X6.3068Y-4.6932
X6.3132Y-4.1629
X6.3515Y-4.1206
X6.3915Y-4.9016
X6.4173Y-4.4291
X6.4173Y-4.5472
X6.4961Y-3.5433
X6.5029Y-4.7446
X6.5246Y-4.6457
X6.5329Y-4.1663
X6.5354Y-4.0551
X6.5729Y-4.2145
X6.5792Y-4.4828
X6.6046Y-4.1637
X6.6092Y-4.4527
X6.6937Y-4.7842
X6.7323Y-3.0709
X6.7323Y-4.4094
X6.7419Y-3.5312
X6.7812Y-3.5312
X6.7913Y-3.9961
X6.7913Y-4.3504
X6.8307Y-5.2362
X6.8504Y-2.3425
X6.8588Y-3.9473
X6.8671Y-4.2293
X6.8701Y-4.5079
X6.875Y-3.25
X6.8898Y-2.3819
X6.893Y-3.6053
X6.8947Y-3.3553
X6.8947Y-3.4803
X6.8947Y-3.7303
X6.9094Y-5.1378
X6.9108Y-4.4108
X6.9291Y-3.8386
X6.9402Y-3.6614
X6.9488Y-2.4803
X6.9488Y-4.8228
X6.9603Y-5.5004
X6.9688Y-3.4375
X6.9688Y-3.8399
X7.0106Y-3.8684
X7.0312Y-4.4688
X7.0331Y-5.2559
X7.0422Y-4.2795
X7.0472Y-3.1299
X7.0472Y-4.1339
X7.0472Y-4.5866
X7.0669Y-4.311
X7.0669Y-4.4488
X7.0781Y-3.8535
X7.0866Y-5.2165
X7.1063Y-4.1929
X7.1089Y-3.9262
X7.126Y-2.9331
X7.1457Y-4.1339
X7.1545Y-3.67
X7.1562Y-4.25
X7.1654Y-3.9764
X7.1654Y-5.1575
X7.185Y-4.311
X7.1961Y-4.2505
X7.2238Y-4.6648
X7.2721Y-5.0083
X7.3425Y-4.2913
X7.4606Y-4.3701
X7.5282Y-3.1214
X7.5394Y-4.4291
X7.6634Y-4.4941
X7.8204Y-4.4882
X7.874Y-4.3701
X7.874Y-4.626
X7.9167Y-4.3077
X8.0118Y-4.1732
X8.0118Y-4.2126
X7.1538Y-4.4375
X7.1728Y-4.3916
X7.1728Y-4.4834
X7.2188Y-4.3725
X7.2188Y-4.5025
X7.2647Y-4.3916
X7.2647Y-4.4834
X7.2837Y-4.4375
X6.935Y-2.625
X6.9541Y-2.5791
X6.9541Y-2.6709
X7.0Y-2.56
X7.0Y-2.69
X7.0459Y-2.5791
X7.0459Y-2.6709
X7.065Y-2.625
X7.8413Y-4.8819
X7.8603Y-4.836
X7.8603Y-4.9278
X7.9062Y-4.8169
X7.9062Y-4.9469
X7.9522Y-4.836
X7.9522Y-4.9278
X7.9712Y-4.8819
T4
X7.2342Y-3.0214
X7.2342Y-3.1214
X7.2342Y-3.2214
X7.2342Y-3.3214
X7.2342Y-3.4214
X7.2342Y-3.5214
X7.2342Y-3.6214
X7.2342Y-3.7214
X7.2342Y-3.8214
X7.2342Y-3.9214
X7.2342Y-4.0214
X7.2342Y-4.1214
X7.2853Y-3.0684
X7.2853Y-3.1684
X7.2853Y-3.2684
X7.2853Y-3.3684
X7.2853Y-3.4684
X7.2853Y-3.5684
X7.2853Y-3.6684
X7.2853Y-3.7684
X7.2853Y-3.8684
X7.2853Y-3.9684
X7.2853Y-4.0684
X7.2853Y-4.1684
X7.8342Y-3.0214
X7.8342Y-3.1214
X7.8342Y-3.2214
X7.8342Y-3.3214
X7.8342Y-3.4214
X7.8342Y-3.5214
X7.8342Y-3.6214
X7.8342Y-3.7214
X7.8342Y-3.8214
X7.8342Y-3.9214
X7.8342Y-4.0214
X7.8342Y-4.1214
X7.8853Y-3.0684
X7.8853Y-3.1684
X7.8853Y-3.2684
X7.8853Y-3.3684
X7.8853Y-3.4684
X7.8853Y-3.5684
X7.8853Y-3.6684
X7.8853Y-3.7684
X7.8853Y-3.8684
X7.8853Y-3.9684
X7.8853Y-4.0684
X7.8853Y-4.1684
T6
X5.1021Y-5.1232
X5.1192Y-5.0262
X5.1362Y-4.9293
X5.6643Y-5.2223
X5.6984Y-5.0284
X7.0514Y-3.405
X7.0514Y-3.505
X7.0514Y-3.605
X7.0514Y-3.705
X6.6072Y-4.6822
X6.6564Y-4.5969
X6.7057Y-4.5117
X7.1016Y-4.9676
X7.2Y-4.7971
T7
X7.9062Y-4.8819
X7.2188Y-4.4375
X7.0Y-2.625
T9
X4.7539Y-4.9902
X3.8125Y-3.375
X5.3125Y-2.6875
X7.6562Y-5.5625
T3
G00X3.9785Y-2.4266
M15
G01X3.9943Y-2.4266
M16
G05
G00X4.0293Y-2.1731
M15
G01X4.0451Y-2.1731
M16
G05
G00X4.0793Y-2.0731
M15
G01X4.0951Y-2.0731
M16
G05
G00X4.1793Y-2.5054
M15
G01X4.1951Y-2.5054
M16
G05
G00X4.2793Y-2.0731
M15
G01X4.2951Y-2.0731
M16
G05
G00X4.3293Y-2.1731
M15
G01X4.3451Y-2.1731
M16
G05
G00X4.3801Y-2.4266
M15
G01X4.3958Y-2.4266
M16
G05
G00X3.9788Y-3.9267
M15
G01X3.9946Y-3.9267
M16
G05
G00X4.0296Y-3.6731
M15
G01X4.0454Y-3.6731
M16
G05
G00X4.0796Y-3.5731
M15
G01X4.0954Y-3.5731
M16
G05
G00X4.1796Y-4.0054
M15
G01X4.1954Y-4.0054
M16
G05
G00X4.2796Y-3.5731
M15
G01X4.2954Y-3.5731
M16
G05
G00X4.3296Y-3.6731
M15
G01X4.3454Y-3.6731
M16
G05
G00X4.3804Y-3.9267
M15
G01X4.3962Y-3.9267
M16
G05
G00X6.2288Y-4.0842
M15
G01X6.2446Y-4.0842
M16
G05
G00X6.2796Y-3.8306
M15
G01X6.2954Y-3.8306
M16
G05
G00X6.3296Y-3.7306
M15
G01X6.3454Y-3.7306
M16
G05
G00X6.4296Y-4.1629
M15
G01X6.4454Y-4.1629
M16
G05
G00X6.5296Y-3.7306
M15
G01X6.5454Y-3.7306
M16
G05
G00X6.5796Y-3.8306
M15
G01X6.5954Y-3.8306
M16
G05
G00X6.6304Y-4.0842
M15
G01X6.6462Y-4.0842
M16
G05
G00X6.2288Y-3.3342
M15
G01X6.2446Y-3.3342
M16
G05
G00X6.2796Y-3.0806
M15
G01X6.2954Y-3.0806
M16
G05
G00X6.3296Y-2.9806
M15
G01X6.3454Y-2.9806
M16
G05
G00X6.4296Y-3.4129
M15
G01X6.4454Y-3.4129
M16
G05
G00X6.5296Y-2.9806
M15
G01X6.5454Y-2.9806
M16
G05
G00X6.5796Y-3.0806
M15
G01X6.5954Y-3.0806
M16
G05
G00X6.6304Y-3.3342
M15
G01X6.6462Y-3.3342
M16
G05
G00X5.4788Y-3.966
M15
G01X5.4946Y-3.966
M16
G05
G00X5.5296Y-3.7125
M15
G01X5.5454Y-3.7125
M16
G05
G00X5.5796Y-3.6125
M15
G01X5.5954Y-3.6125
M16
G05
G00X5.6796Y-4.0448
M15
G01X5.6954Y-4.0448
M16
G05
G00X5.7796Y-3.6125
M15
G01X5.7954Y-3.6125
M16
G05
G00X5.8296Y-3.7125
M15
G01X5.8454Y-3.7125
M16
G05
G00X5.8804Y-3.966
M15
G01X5.8962Y-3.966
M16
G05
G00X4.7288Y-2.9405
M15
G01X4.7446Y-2.9405
M16
G05
G00X4.7796Y-2.6869
M15
G01X4.7954Y-2.6869
M16
G05
G00X4.8296Y-2.5869
M15
G01X4.8454Y-2.5869
M16
G05
G00X4.9296Y-3.0192
M15
G01X4.9454Y-3.0192
M16
G05
G00X5.0296Y-2.5869
M15
G01X5.0454Y-2.5869
M16
G05
G00X5.0796Y-2.6869
M15
G01X5.0954Y-2.6869
M16
G05
G00X5.1304Y-2.9405
M15
G01X5.1462Y-2.9405
M16
G05
G00X6.8179Y-5.8252
M15
G01X6.828Y-5.8372
M16
G05
G00X6.8866Y-6.0296
M15
G01X6.8968Y-6.0417
M16
G05
G00X7.0448Y-5.7011
M15
G01X7.0549Y-5.7132
M16
G05
G00X7.076Y-6.1328
M15
G01X7.0861Y-6.1449
M16
G05
G00X7.1535Y-5.6751
M15
G01X7.1636Y-5.6872
M16
G05
G00X7.2376Y-5.9309
M15
G01X7.2477Y-5.943
M16
G05
G00X7.2821Y-5.8283
M15
G01X7.2922Y-5.8404
M16
G05
G00X5.4784Y-2.466
M15
G01X5.4942Y-2.466
M16
G05
G00X5.5292Y-2.2124
M15
G01X5.545Y-2.2124
M16
G05
G00X5.5792Y-2.1124
M15
G01X5.595Y-2.1124
M16
G05
G00X5.6792Y-2.5447
M15
G01X5.695Y-2.5447
M16
G05
G00X5.7792Y-2.1124
M15
G01X5.795Y-2.1124
M16
G05
G00X5.8292Y-2.2124
M15
G01X5.845Y-2.2124
M16
G05
G00X5.88Y-2.466
M15
G01X5.8957Y-2.466
M16
G05
G00X3.2286Y-2.8954
M15
G01X3.2443Y-2.8954
M16
G05
G00X3.2794Y-2.6418
M15
G01X3.2951Y-2.6418
M16
G05
G00X3.3294Y-2.5418
M15
G01X3.3451Y-2.5418
M16
G05
G00X3.4294Y-2.9741
M15
G01X3.4451Y-2.9741
M16
G05
G00X3.5294Y-2.5418
M15
G01X3.5451Y-2.5418
M16
G05
G00X3.5794Y-2.6418
M15
G01X3.5951Y-2.6418
M16
G05
G00X3.6301Y-2.8954
M15
G01X3.6459Y-2.8954
M16
G05
G00X3.2288Y-4.3954
M15
G01X3.2446Y-4.3954
M16
G05
G00X3.2796Y-4.1419
M15
G01X3.2954Y-4.1419
M16
G05
G00X3.3296Y-4.0419
M15
G01X3.3454Y-4.0419
M16
G05
G00X3.4296Y-4.4742
M15
G01X3.4454Y-4.4742
M16
G05
G00X3.5296Y-4.0419
M15
G01X3.5454Y-4.0419
M16
G05
G00X3.5796Y-4.1419
M15
G01X3.5954Y-4.1419
M16
G05
G00X3.6304Y-4.3954
M15
G01X3.6462Y-4.3954
M16
G05
G00X3.9788Y-3.1767
M15
G01X3.9946Y-3.1767
M16
G05
G00X4.0296Y-2.9231
M15
G01X4.0454Y-2.9231
M16
G05
G00X4.0796Y-2.8231
M15
G01X4.0954Y-2.8231
M16
G05
G00X4.1796Y-3.2554
M15
G01X4.1954Y-3.2554
M16
G05
G00X4.2796Y-2.8231
M15
G01X4.2954Y-2.8231
M16
G05
G00X4.3296Y-2.9231
M15
G01X4.3454Y-2.9231
M16
G05
G00X4.3804Y-3.1767
M15
G01X4.3962Y-3.1767
M16
G05
G00X4.7285Y-2.1904
M15
G01X4.7442Y-2.1904
M16
G05
G00X4.7793Y-1.9369
M15
G01X4.795Y-1.9369
M16
G05
G00X4.8293Y-1.8369
M15
G01X4.845Y-1.8369
M16
G05
G00X4.9293Y-2.2691
M15
G01X4.945Y-2.2691
M16
G05
G00X5.0293Y-1.8369
M15
G01X5.045Y-1.8369
M16
G05
G00X5.0793Y-1.9369
M15
G01X5.095Y-1.9369
M16
G05
G00X5.13Y-2.1904
M15
G01X5.1458Y-2.1904
M16
G05
G00X6.0641Y-5.3638
M15
G01X6.0778Y-5.3717
M16
G05
G00X6.1986Y-5.5324
M15
G01X6.2123Y-5.5402
M16
G05
G00X6.2349Y-5.1696
M15
G01X6.2485Y-5.1775
M16
G05
G00X6.3282Y-5.108
M15
G01X6.3418Y-5.1159
M16
G05
G00X6.4119Y-5.5646
M15
G01X6.4255Y-5.5724
M16
G05
G00X6.4947Y-5.3196
M15
G01X6.5083Y-5.3275
M16
G05
G00X6.5014Y-5.208
M15
G01X6.515Y-5.2159
M16
G05
G00X5.1778Y-5.1925
M15
G01X5.1933Y-5.1952
M16
G05
G00X5.2718Y-4.9516
M15
G01X5.2873Y-4.9543
M16
G05
G00X5.3384Y-4.8618
M15
G01X5.3539Y-4.8646
M16
G05
G00X5.3619Y-5.3049
M15
G01X5.3774Y-5.3076
M16
G05
G00X5.5354Y-4.8965
M15
G01X5.5509Y-4.8993
M16
G05
G00X5.5673Y-5.0037
M15
G01X5.5828Y-5.0064
M16
G05
G00X5.5733Y-5.2622
M15
G01X5.5888Y-5.265
M16
G05
G00X6.2284Y-2.5841
M15
G01X6.2441Y-2.5841
M16
G05
G00X6.2792Y-2.3306
M15
G01X6.2949Y-2.3306
M16
G05
G00X6.3292Y-2.2306
M15
G01X6.3449Y-2.2306
M16
G05
G00X6.4292Y-2.6628
M15
G01X6.4449Y-2.6628
M16
G05
G00X6.5292Y-2.2306
M15
G01X6.5449Y-2.2306
M16
G05
G00X6.5792Y-2.3306
M15
G01X6.5949Y-2.3306
M16
G05
G00X6.63Y-2.5841
M15
G01X6.6457Y-2.5841
M16
G05
G00X3.2286Y-3.6454
M15
G01X3.2443Y-3.6454
M16
G05
G00X3.2794Y-3.3919
M15
G01X3.2951Y-3.3919
M16
G05
G00X3.3294Y-3.2919
M15
G01X3.3451Y-3.2919
M16
G05
G00X3.4294Y-3.7242
M15
G01X3.4451Y-3.7242
M16
G05
G00X3.5294Y-3.2919
M15
G01X3.5451Y-3.2919
M16
G05
G00X3.5794Y-3.3919
M15
G01X3.5951Y-3.3919
M16
G05
G00X3.6301Y-3.6454
M15
G01X3.6459Y-3.6454
M16
G05
G00X4.7288Y-3.6905
M15
G01X4.7446Y-3.6905
M16
G05
G00X4.7796Y-3.4369
M15
G01X4.7954Y-3.4369
M16
G05
G00X4.8296Y-3.3369
M15
G01X4.8454Y-3.3369
M16
G05
G00X4.9296Y-3.7692
M15
G01X4.9454Y-3.7692
M16
G05
G00X5.0296Y-3.3369
M15
G01X5.0454Y-3.3369
M16
G05
G00X5.0796Y-3.4369
M15
G01X5.0954Y-3.4369
M16
G05
G00X5.1304Y-3.6905
M15
G01X5.1462Y-3.6905
M16
G05
G00X5.4788Y-3.216
M15
G01X5.4946Y-3.216
M16
G05
G00X5.5296Y-2.9625
M15
G01X5.5454Y-2.9625
M16
G05
G00X5.5796Y-2.8625
M15
G01X5.5954Y-2.8625
M16
G05
G00X5.6796Y-3.2948
M15
G01X5.6954Y-3.2948
M16
G05
G00X5.7796Y-2.8625
M15
G01X5.7954Y-2.8625
M16
G05
G00X5.8296Y-2.9625
M15
G01X5.8454Y-2.9625
M16
G05
G00X5.8804Y-3.216
M15
G01X5.8962Y-3.216
M16
G05
T5
G00X7.4554Y-5.3531
M15
G01X7.4322Y-5.349
M16
G05
G00X7.5183Y-4.9964
M15
G01X7.4951Y-4.9923
M16
G05
G00X7.5295Y-5.1823
M15
G01X7.5063Y-5.1782
M16
G05
G00X7.6846Y-5.2097
M15
G01X7.6614Y-5.2056
M16
G05
G00X7.8009Y-5.2302
M15
G01X7.7777Y-5.2261
M16
G05
T6
G00X6.5856Y-5.6206
M15
G01X6.5982Y-5.6357
M16
G05
G00X6.6622Y-5.5563
M15
G01X6.6748Y-5.5714
M16
G05
G00X6.7388Y-5.492
M15
G01X6.7514Y-5.5071
M16
G05
G00X6.8154Y-5.4277
M15
G01X6.828Y-5.4428
M16
G05
G00X6.9046Y-5.3785
M15
G01X6.892Y-5.3635
M16
G05
T8
G00X7.2323Y-5.48
M15
G01X7.2197Y-5.4649
M16
G05
G00X7.5107Y-5.8117
M15
G01X7.4981Y-5.7967
M16
G05
T0
M30
