M48
; DRILL file {KiCad 5.1.7} date Mon Nov 16 23:11:30 2020
; FORMAT={-:-/ absolute / inch / decimal}
; #@! TF.CreationDate,2020-11-16T23:11:30+01:00
; #@! TF.GenerationSoftware,Kicad,Pcbnew,5.1.7
; #@! TF.FileFunction,Plated,1,2,PTH
FMAT,2
INCH
T1C0.0157
T2C0.0315
T3C0.0320
T4C0.0354
T5C0.0394
T6C0.0866
T7C0.1575
%
G90
G05
T1
X3.0906Y-3.8484
X3.1102Y-3.1102
X3.1398Y-3.2677
X3.1693Y-4.5472
X3.1988Y-3.1102
X3.2185Y-3.1693
X3.3268Y-3.8583
X3.3957Y-3.8583
X3.4941Y-2.3425
X3.5138Y-2.1752
X3.622Y-2.313
X3.6811Y-2.313
X3.7008Y-2.5098
X3.7205Y-3.8189
X3.7402Y-2.9134
X3.7402Y-4.3307
X3.75Y-3.0512
X3.7598Y-2.2917
X3.7603Y-3.8194
X3.7992Y-4.5374
X3.8046Y-3.0369
X3.8386Y-2.4606
X3.8386Y-4.5472
X4.311Y-4.7146
X4.3406Y-1.8701
X4.3898Y-3.4055
X4.4291Y-4.7638
X4.4685Y-1.8898
X4.4685Y-3.3268
X4.4783Y-4.7835
X4.4882Y-1.9587
X4.5276Y-2.5984
X4.5669Y-1.9291
X4.5768Y-4.0846
X4.5866Y-2.5984
X4.6063Y-3.0315
X4.6063Y-4.1142
X4.6063Y-4.8819
X4.6161Y-2.1457
X4.6654Y-1.9193
X4.7244Y-2.4016
X4.7249Y-3.9769
X5.1378Y-3.1693
X5.1969Y-4.0157
X5.2165Y-3.0906
X5.2362Y-2.3425
X5.2362Y-3.8386
X5.2811Y-2.4748
X5.2811Y-2.4748
X5.2854Y-4.0157
X5.315Y-1.9094
X5.315Y-3.5039
X5.315Y-5.1969
X5.3543Y-2.9134
X5.4429Y-2.1358
X5.4581Y-4.6699
X5.5217Y-1.8406
X5.6636Y-4.8762
X5.6693Y-4.8327
X5.6791Y-1.8898
X5.7087Y-1.8307
X5.7283Y-4.3996
X5.748Y-4.6063
X5.8366Y-4.5571
X5.8661Y-1.8799
X5.8661Y-5.1181
X5.8957Y-3.4449
X5.9055Y-5.0394
X5.9154Y-4.7835
X5.9449Y-4.6555
X5.977Y-4.8891
X5.9843Y-3.3858
X5.9843Y-4.5778
X6.0039Y-4.1535
X6.052Y-2.5602
X6.063Y-2.5
X6.0925Y-4.3209
X6.1757Y-2.6826
X6.1831Y-4.25
X6.2598Y-4.5669
X6.2992Y-2.6772
X6.2992Y-2.874
X6.2992Y-3.4646
X6.4665Y-3.563
X6.4961Y-4.3494
X6.4961Y-5.0787
X6.5059Y-3.6319
X6.5378Y-4.648
X6.5578Y-3.5376
X6.6535Y-2.815
X6.6535Y-4.2717
X6.7815Y-3.6713
X6.7815Y-3.9469
X6.7829Y-5.5142
X6.7913Y-2.7165
X6.7916Y-3.563
X6.811Y-5.2362
X6.8209Y-2.185
X6.8291Y-2.3174
X6.8291Y-4.2349
X6.8424Y-5.4546
X6.8527Y-4.5693
X6.8602Y-2.2933
X6.8602Y-4.3602
X6.8701Y-5.315
X6.9094Y-4.0157
X6.9286Y-5.5901
X6.9291Y-4.5276
X6.9315Y-3.1322
X6.939Y-3.9862
X6.9488Y-3.5433
X6.9587Y-3.061
X6.961Y-3.1027
X6.9882Y-4.4094
X7.0472Y-4.4685
X7.0571Y-3.1299
X7.0571Y-3.2677
X7.0768Y-5.4134
X7.0965Y-3.1299
X7.126Y-5.1969
X7.1654Y-4.2126
X7.2057Y-5.188
X7.2446Y-4.6452
X7.3524Y-4.716
X7.3592Y-4.3337
X7.3993Y-4.9977
X7.4016Y-4.9409
X7.4114Y-4.7736
X7.4409Y-4.3701
X7.5Y-4.5276
X7.5204Y-4.7229
X7.5394Y-4.3996
X7.5607Y-4.4604
X7.5614Y-4.8842
X7.6731Y-4.8487
X7.6772Y-4.9606
X7.6809Y-4.5041
X7.7559Y-4.3996
X7.7953Y-4.5276
X7.874Y-4.2913
X7.874Y-4.5276
X7.9903Y-4.5276
X8.0214Y-4.4884
X6.935Y-2.625
X6.9541Y-2.5791
X6.9541Y-2.6709
X7.0Y-2.56
X7.0Y-2.69
X7.0459Y-2.5791
X7.0459Y-2.6709
X7.065Y-2.625
X7.8413Y-4.8819
X7.8603Y-4.836
X7.8603Y-4.9278
X7.9062Y-4.8169
X7.9062Y-4.9469
X7.9522Y-4.836
X7.9522Y-4.9278
X7.9712Y-4.8819
X7.1538Y-4.4375
X7.1728Y-4.3916
X7.1728Y-4.4834
X7.2188Y-4.3725
X7.2188Y-4.5025
X7.2647Y-4.3916
X7.2647Y-4.4834
X7.2837Y-4.4375
T3
X7.2342Y-3.0214
X7.2342Y-3.1214
X7.2342Y-3.2214
X7.2342Y-3.3214
X7.2342Y-3.4214
X7.2342Y-3.5214
X7.2342Y-3.6214
X7.2342Y-3.7214
X7.2342Y-3.8214
X7.2342Y-3.9214
X7.2342Y-4.0214
X7.2342Y-4.1214
X7.2853Y-3.0684
X7.2853Y-3.1684
X7.2853Y-3.2684
X7.2853Y-3.3684
X7.2853Y-3.4684
X7.2853Y-3.5684
X7.2853Y-3.6684
X7.2853Y-3.7684
X7.2853Y-3.8684
X7.2853Y-3.9684
X7.2853Y-4.0684
X7.2853Y-4.1684
X7.8342Y-3.0214
X7.8342Y-3.1214
X7.8342Y-3.2214
X7.8342Y-3.3214
X7.8342Y-3.4214
X7.8342Y-3.5214
X7.8342Y-3.6214
X7.8342Y-3.7214
X7.8342Y-3.8214
X7.8342Y-3.9214
X7.8342Y-4.0214
X7.8342Y-4.1214
X7.8853Y-3.0684
X7.8853Y-3.1684
X7.8853Y-3.2684
X7.8853Y-3.3684
X7.8853Y-3.4684
X7.8853Y-3.5684
X7.8853Y-3.6684
X7.8853Y-3.7684
X7.8853Y-3.8684
X7.8853Y-3.9684
X7.8853Y-4.0684
X7.8853Y-4.1684
T5
X5.1021Y-5.1232
X5.1192Y-5.0262
X5.1362Y-4.9293
X5.6643Y-5.2223
X5.6984Y-5.0284
X6.6072Y-4.6822
X6.6564Y-4.5969
X6.7057Y-4.5117
X7.1016Y-4.9676
X7.2Y-4.7971
X7.0514Y-3.405
X7.0514Y-3.505
X7.0514Y-3.605
X7.0514Y-3.705
T6
X7.0Y-2.625
X7.9062Y-4.8819
X7.2188Y-4.4375
T7
X5.3125Y-2.6875
X4.7539Y-4.9902
X3.8125Y-3.375
X7.5Y-5.5625
T2
G00X5.1778Y-5.1925
M15
G01X5.1933Y-5.1952
M16
G05
G00X5.2718Y-4.9516
M15
G01X5.2873Y-4.9543
M16
G05
G00X5.3384Y-4.8618
M15
G01X5.3539Y-4.8646
M16
G05
G00X5.3619Y-5.3049
M15
G01X5.3774Y-5.3076
M16
G05
G00X5.5354Y-4.8965
M15
G01X5.5509Y-4.8993
M16
G05
G00X5.5673Y-5.0037
M15
G01X5.5828Y-5.0064
M16
G05
G00X5.5733Y-5.2622
M15
G01X5.5888Y-5.265
M16
G05
G00X6.2284Y-2.5841
M15
G01X6.2441Y-2.5841
M16
G05
G00X6.2792Y-2.3306
M15
G01X6.2949Y-2.3306
M16
G05
G00X6.3292Y-2.2306
M15
G01X6.3449Y-2.2306
M16
G05
G00X6.4292Y-2.6628
M15
G01X6.4449Y-2.6628
M16
G05
G00X6.5292Y-2.2306
M15
G01X6.5449Y-2.2306
M16
G05
G00X6.5792Y-2.3306
M15
G01X6.5949Y-2.3306
M16
G05
G00X6.63Y-2.5841
M15
G01X6.6457Y-2.5841
M16
G05
G00X3.9785Y-2.4266
M15
G01X3.9943Y-2.4266
M16
G05
G00X4.0293Y-2.1731
M15
G01X4.0451Y-2.1731
M16
G05
G00X4.0793Y-2.0731
M15
G01X4.0951Y-2.0731
M16
G05
G00X4.1793Y-2.5054
M15
G01X4.1951Y-2.5054
M16
G05
G00X4.2793Y-2.0731
M15
G01X4.2951Y-2.0731
M16
G05
G00X4.3293Y-2.1731
M15
G01X4.3451Y-2.1731
M16
G05
G00X4.3801Y-2.4266
M15
G01X4.3958Y-2.4266
M16
G05
G00X5.4784Y-2.466
M15
G01X5.4942Y-2.466
M16
G05
G00X5.5292Y-2.2124
M15
G01X5.545Y-2.2124
M16
G05
G00X5.5792Y-2.1124
M15
G01X5.595Y-2.1124
M16
G05
G00X5.6792Y-2.5447
M15
G01X5.695Y-2.5447
M16
G05
G00X5.7792Y-2.1124
M15
G01X5.795Y-2.1124
M16
G05
G00X5.8292Y-2.2124
M15
G01X5.845Y-2.2124
M16
G05
G00X5.88Y-2.466
M15
G01X5.8957Y-2.466
M16
G05
G00X4.7285Y-2.1904
M15
G01X4.7442Y-2.1904
M16
G05
G00X4.7793Y-1.9369
M15
G01X4.795Y-1.9369
M16
G05
G00X4.8293Y-1.8369
M15
G01X4.845Y-1.8369
M16
G05
G00X4.9293Y-2.2691
M15
G01X4.945Y-2.2691
M16
G05
G00X5.0293Y-1.8369
M15
G01X5.045Y-1.8369
M16
G05
G00X5.0793Y-1.9369
M15
G01X5.095Y-1.9369
M16
G05
G00X5.13Y-2.1904
M15
G01X5.1458Y-2.1904
M16
G05
G00X3.2288Y-4.3954
M15
G01X3.2446Y-4.3954
M16
G05
G00X3.2796Y-4.1419
M15
G01X3.2954Y-4.1419
M16
G05
G00X3.3296Y-4.0419
M15
G01X3.3454Y-4.0419
M16
G05
G00X3.4296Y-4.4742
M15
G01X3.4454Y-4.4742
M16
G05
G00X3.5296Y-4.0419
M15
G01X3.5454Y-4.0419
M16
G05
G00X3.5796Y-4.1419
M15
G01X3.5954Y-4.1419
M16
G05
G00X3.6304Y-4.3954
M15
G01X3.6462Y-4.3954
M16
G05
G00X5.4788Y-3.966
M15
G01X5.4946Y-3.966
M16
G05
G00X5.5296Y-3.7125
M15
G01X5.5454Y-3.7125
M16
G05
G00X5.5796Y-3.6125
M15
G01X5.5954Y-3.6125
M16
G05
G00X5.6796Y-4.0448
M15
G01X5.6954Y-4.0448
M16
G05
G00X5.7796Y-3.6125
M15
G01X5.7954Y-3.6125
M16
G05
G00X5.8296Y-3.7125
M15
G01X5.8454Y-3.7125
M16
G05
G00X5.8804Y-3.966
M15
G01X5.8962Y-3.966
M16
G05
G00X6.8179Y-5.8252
M15
G01X6.828Y-5.8372
M16
G05
G00X6.8866Y-6.0296
M15
G01X6.8968Y-6.0417
M16
G05
G00X7.0448Y-5.7011
M15
G01X7.0549Y-5.7132
M16
G05
G00X7.076Y-6.1328
M15
G01X7.0861Y-6.1449
M16
G05
G00X7.1535Y-5.6751
M15
G01X7.1636Y-5.6872
M16
G05
G00X7.2376Y-5.9309
M15
G01X7.2477Y-5.943
M16
G05
G00X7.2821Y-5.8283
M15
G01X7.2922Y-5.8404
M16
G05
G00X6.2288Y-3.3342
M15
G01X6.2446Y-3.3342
M16
G05
G00X6.2796Y-3.0806
M15
G01X6.2954Y-3.0806
M16
G05
G00X6.3296Y-2.9806
M15
G01X6.3454Y-2.9806
M16
G05
G00X6.4296Y-3.4129
M15
G01X6.4454Y-3.4129
M16
G05
G00X6.5296Y-2.9806
M15
G01X6.5454Y-2.9806
M16
G05
G00X6.5796Y-3.0806
M15
G01X6.5954Y-3.0806
M16
G05
G00X6.6304Y-3.3342
M15
G01X6.6462Y-3.3342
M16
G05
G00X3.2286Y-2.8954
M15
G01X3.2443Y-2.8954
M16
G05
G00X3.2794Y-2.6418
M15
G01X3.2951Y-2.6418
M16
G05
G00X3.3294Y-2.5418
M15
G01X3.3451Y-2.5418
M16
G05
G00X3.4294Y-2.9741
M15
G01X3.4451Y-2.9741
M16
G05
G00X3.5294Y-2.5418
M15
G01X3.5451Y-2.5418
M16
G05
G00X3.5794Y-2.6418
M15
G01X3.5951Y-2.6418
M16
G05
G00X3.6301Y-2.8954
M15
G01X3.6459Y-2.8954
M16
G05
G00X4.7288Y-3.6905
M15
G01X4.7446Y-3.6905
M16
G05
G00X4.7796Y-3.4369
M15
G01X4.7954Y-3.4369
M16
G05
G00X4.8296Y-3.3369
M15
G01X4.8454Y-3.3369
M16
G05
G00X4.9296Y-3.7692
M15
G01X4.9454Y-3.7692
M16
G05
G00X5.0296Y-3.3369
M15
G01X5.0454Y-3.3369
M16
G05
G00X5.0796Y-3.4369
M15
G01X5.0954Y-3.4369
M16
G05
G00X5.1304Y-3.6905
M15
G01X5.1462Y-3.6905
M16
G05
G00X5.4788Y-3.216
M15
G01X5.4946Y-3.216
M16
G05
G00X5.5296Y-2.9625
M15
G01X5.5454Y-2.9625
M16
G05
G00X5.5796Y-2.8625
M15
G01X5.5954Y-2.8625
M16
G05
G00X5.6796Y-3.2948
M15
G01X5.6954Y-3.2948
M16
G05
G00X5.7796Y-2.8625
M15
G01X5.7954Y-2.8625
M16
G05
G00X5.8296Y-2.9625
M15
G01X5.8454Y-2.9625
M16
G05
G00X5.8804Y-3.216
M15
G01X5.8962Y-3.216
M16
G05
G00X3.9788Y-3.1767
M15
G01X3.9946Y-3.1767
M16
G05
G00X4.0296Y-2.9231
M15
G01X4.0454Y-2.9231
M16
G05
G00X4.0796Y-2.8231
M15
G01X4.0954Y-2.8231
M16
G05
G00X4.1796Y-3.2554
M15
G01X4.1954Y-3.2554
M16
G05
G00X4.2796Y-2.8231
M15
G01X4.2954Y-2.8231
M16
G05
G00X4.3296Y-2.9231
M15
G01X4.3454Y-2.9231
M16
G05
G00X4.3804Y-3.1767
M15
G01X4.3962Y-3.1767
M16
G05
G00X3.9788Y-3.9267
M15
G01X3.9946Y-3.9267
M16
G05
G00X4.0296Y-3.6731
M15
G01X4.0454Y-3.6731
M16
G05
G00X4.0796Y-3.5731
M15
G01X4.0954Y-3.5731
M16
G05
G00X4.1796Y-4.0054
M15
G01X4.1954Y-4.0054
M16
G05
G00X4.2796Y-3.5731
M15
G01X4.2954Y-3.5731
M16
G05
G00X4.3296Y-3.6731
M15
G01X4.3454Y-3.6731
M16
G05
G00X4.3804Y-3.9267
M15
G01X4.3962Y-3.9267
M16
G05
G00X6.0641Y-5.3638
M15
G01X6.0778Y-5.3717
M16
G05
G00X6.1986Y-5.5324
M15
G01X6.2123Y-5.5402
M16
G05
G00X6.2349Y-5.1696
M15
G01X6.2485Y-5.1775
M16
G05
G00X6.3282Y-5.108
M15
G01X6.3418Y-5.1159
M16
G05
G00X6.4119Y-5.5646
M15
G01X6.4255Y-5.5724
M16
G05
G00X6.4947Y-5.3196
M15
G01X6.5083Y-5.3275
M16
G05
G00X6.5014Y-5.208
M15
G01X6.515Y-5.2159
M16
G05
G00X6.2288Y-4.0842
M15
G01X6.2446Y-4.0842
M16
G05
G00X6.2796Y-3.8306
M15
G01X6.2954Y-3.8306
M16
G05
G00X6.3296Y-3.7306
M15
G01X6.3454Y-3.7306
M16
G05
G00X6.4296Y-4.1629
M15
G01X6.4454Y-4.1629
M16
G05
G00X6.5296Y-3.7306
M15
G01X6.5454Y-3.7306
M16
G05
G00X6.5796Y-3.8306
M15
G01X6.5954Y-3.8306
M16
G05
G00X6.6304Y-4.0842
M15
G01X6.6462Y-4.0842
M16
G05
G00X4.7288Y-2.9405
M15
G01X4.7446Y-2.9405
M16
G05
G00X4.7796Y-2.6869
M15
G01X4.7954Y-2.6869
M16
G05
G00X4.8296Y-2.5869
M15
G01X4.8454Y-2.5869
M16
G05
G00X4.9296Y-3.0192
M15
G01X4.9454Y-3.0192
M16
G05
G00X5.0296Y-2.5869
M15
G01X5.0454Y-2.5869
M16
G05
G00X5.0796Y-2.6869
M15
G01X5.0954Y-2.6869
M16
G05
G00X5.1304Y-2.9405
M15
G01X5.1462Y-2.9405
M16
G05
G00X3.2286Y-3.6454
M15
G01X3.2443Y-3.6454
M16
G05
G00X3.2794Y-3.3919
M15
G01X3.2951Y-3.3919
M16
G05
G00X3.3294Y-3.2919
M15
G01X3.3451Y-3.2919
M16
G05
G00X3.4294Y-3.7242
M15
G01X3.4451Y-3.7242
M16
G05
G00X3.5294Y-3.2919
M15
G01X3.5451Y-3.2919
M16
G05
G00X3.5794Y-3.3919
M15
G01X3.5951Y-3.3919
M16
G05
G00X3.6301Y-3.6454
M15
G01X3.6459Y-3.6454
M16
G05
T4
G00X7.4445Y-5.3567
M15
G01X7.4223Y-5.3486
M16
G05
G00X7.5471Y-5.2013
M15
G01X7.5249Y-5.1933
M16
G05
G00X7.5684Y-5.0163
M15
G01X7.5462Y-5.0083
M16
G05
G00X7.6951Y-5.2552
M15
G01X7.6729Y-5.2471
M16
G05
G00X7.8061Y-5.2956
M15
G01X7.7839Y-5.2875
M16
G05
T0
M30
