M48
; DRILL file {KiCad 5.1.8} date Thu Jan  7 10:59:12 2021
; FORMAT={-:-/ absolute / inch / decimal}
; #@! TF.CreationDate,2021-01-07T10:59:12+01:00
; #@! TF.GenerationSoftware,Kicad,Pcbnew,5.1.8
; #@! TF.FileFunction,Plated,1,2,PTH
FMAT,2
INCH
T1C0.0157
T2C0.0866
%
G90
G05
T1
X5.25Y-2.687
X5.269Y-2.6411
X5.269Y-2.7329
X5.315Y-2.622
X5.315Y-2.752
X5.3609Y-2.6411
X5.3609Y-2.7329
X5.3799Y-2.687
X7.5913Y-5.5625
X7.6103Y-5.5166
X7.6103Y-5.6084
X7.6562Y-5.4975
X7.6562Y-5.6275
X7.7022Y-5.5166
X7.7022Y-5.6084
X7.7212Y-5.5625
X4.689Y-4.9902
X4.708Y-4.9442
X4.708Y-5.0361
X4.7539Y-4.9252
X4.7539Y-5.0551
X4.7999Y-4.9442
X4.7999Y-5.0361
X4.8189Y-4.9902
X3.7441Y-3.376
X3.7631Y-3.3301
X3.7631Y-3.4219
X3.8091Y-3.311
X3.8091Y-3.4409
X3.855Y-3.3301
X3.855Y-3.4219
X3.874Y-3.376
T2
X5.315Y-2.687
X7.6562Y-5.5625
X4.7539Y-4.9902
X3.8091Y-3.376
T0
M30
