%TF.GenerationSoftware,KiCad,Pcbnew,5.1.7*%
%TF.CreationDate,2020-11-17T12:38:13+01:00*%
%TF.ProjectId,split_3x_plate,73706c69-745f-4337-985f-706c6174652e,rev?*%
%TF.SameCoordinates,Original*%
%TF.FileFunction,Legend,Top*%
%TF.FilePolarity,Positive*%
%FSLAX46Y46*%
G04 Gerber Fmt 4.6, Leading zero omitted, Abs format (unit mm)*
G04 Created by KiCad (PCBNEW 5.1.7) date 2020-11-17 12:38:13*
%MOMM*%
%LPD*%
G01*
G04 APERTURE LIST*
%ADD10C,0.200000*%
%ADD11C,0.150000*%
G04 APERTURE END LIST*
D10*
X137350000Y-113404761D02*
X137350000Y-111404761D01*
X137707142Y-111404761D01*
X137921428Y-111500000D01*
X138064285Y-111690476D01*
X138135714Y-111880952D01*
X138207142Y-112261904D01*
X138207142Y-112547619D01*
X138135714Y-112928571D01*
X138064285Y-113119047D01*
X137921428Y-113309523D01*
X137707142Y-113404761D01*
X137350000Y-113404761D01*
X138850000Y-113404761D02*
X138850000Y-112071428D01*
X138850000Y-112452380D02*
X138921428Y-112261904D01*
X138992857Y-112166666D01*
X139135714Y-112071428D01*
X139278571Y-112071428D01*
X140421428Y-113404761D02*
X140421428Y-112357142D01*
X140350000Y-112166666D01*
X140207142Y-112071428D01*
X139921428Y-112071428D01*
X139778571Y-112166666D01*
X140421428Y-113309523D02*
X140278571Y-113404761D01*
X139921428Y-113404761D01*
X139778571Y-113309523D01*
X139707142Y-113119047D01*
X139707142Y-112928571D01*
X139778571Y-112738095D01*
X139921428Y-112642857D01*
X140278571Y-112642857D01*
X140421428Y-112547619D01*
X141778571Y-113309523D02*
X141635714Y-113404761D01*
X141350000Y-113404761D01*
X141207142Y-113309523D01*
X141135714Y-113214285D01*
X141064285Y-113023809D01*
X141064285Y-112452380D01*
X141135714Y-112261904D01*
X141207142Y-112166666D01*
X141350000Y-112071428D01*
X141635714Y-112071428D01*
X141778571Y-112166666D01*
X143064285Y-112071428D02*
X143064285Y-113404761D01*
X142421428Y-112071428D02*
X142421428Y-113119047D01*
X142492857Y-113309523D01*
X142635714Y-113404761D01*
X142850000Y-113404761D01*
X142992857Y-113309523D01*
X143064285Y-113214285D01*
X144492857Y-113404761D02*
X143778571Y-113404761D01*
X143778571Y-111404761D01*
X145635714Y-113404761D02*
X145635714Y-112357142D01*
X145564285Y-112166666D01*
X145421428Y-112071428D01*
X145135714Y-112071428D01*
X144992857Y-112166666D01*
X145635714Y-113309523D02*
X145492857Y-113404761D01*
X145135714Y-113404761D01*
X144992857Y-113309523D01*
X144921428Y-113119047D01*
X144921428Y-112928571D01*
X144992857Y-112738095D01*
X145135714Y-112642857D01*
X145492857Y-112642857D01*
X145635714Y-112547619D01*
X146992857Y-113404761D02*
X146992857Y-111404761D01*
X146992857Y-113309523D02*
X146850000Y-113404761D01*
X146564285Y-113404761D01*
X146421428Y-113309523D01*
X146350000Y-113214285D01*
X146278571Y-113023809D01*
X146278571Y-112452380D01*
X146350000Y-112261904D01*
X146421428Y-112166666D01*
X146564285Y-112071428D01*
X146850000Y-112071428D01*
X146992857Y-112166666D01*
X148707142Y-111404761D02*
X149707142Y-113404761D01*
X149707142Y-111404761D02*
X148707142Y-113404761D01*
X150135714Y-111404761D02*
X151135714Y-113404761D01*
X151135714Y-111404761D02*
X150135714Y-113404761D01*
X151564285Y-111404761D02*
X152564285Y-113404761D01*
X152564285Y-111404761D02*
X151564285Y-113404761D01*
X153135714Y-113404761D02*
X153135714Y-111404761D01*
X153850000Y-113404761D02*
X153850000Y-111404761D01*
X139564285Y-116604761D02*
X139564285Y-114604761D01*
X139564285Y-115366666D02*
X139707142Y-115271428D01*
X139992857Y-115271428D01*
X140135714Y-115366666D01*
X140207142Y-115461904D01*
X140278571Y-115652380D01*
X140278571Y-116223809D01*
X140207142Y-116414285D01*
X140135714Y-116509523D01*
X139992857Y-116604761D01*
X139707142Y-116604761D01*
X139564285Y-116509523D01*
X140778571Y-115271428D02*
X141135714Y-116604761D01*
X141492857Y-115271428D02*
X141135714Y-116604761D01*
X140992857Y-117080952D01*
X140921428Y-117176190D01*
X140778571Y-117271428D01*
X143207142Y-116604761D02*
X143207142Y-114604761D01*
X143707142Y-116033333D01*
X144207142Y-114604761D01*
X144207142Y-116604761D01*
X145564285Y-116604761D02*
X145564285Y-115557142D01*
X145492857Y-115366666D01*
X145350000Y-115271428D01*
X145064285Y-115271428D01*
X144921428Y-115366666D01*
X145564285Y-116509523D02*
X145421428Y-116604761D01*
X145064285Y-116604761D01*
X144921428Y-116509523D01*
X144850000Y-116319047D01*
X144850000Y-116128571D01*
X144921428Y-115938095D01*
X145064285Y-115842857D01*
X145421428Y-115842857D01*
X145564285Y-115747619D01*
X146278571Y-115271428D02*
X146278571Y-116604761D01*
X146278571Y-115461904D02*
X146350000Y-115366666D01*
X146492857Y-115271428D01*
X146707142Y-115271428D01*
X146850000Y-115366666D01*
X146921428Y-115557142D01*
X146921428Y-116604761D01*
X148278571Y-115271428D02*
X148278571Y-116890476D01*
X148207142Y-117080952D01*
X148135714Y-117176190D01*
X147992857Y-117271428D01*
X147778571Y-117271428D01*
X147635714Y-117176190D01*
X148278571Y-116509523D02*
X148135714Y-116604761D01*
X147850000Y-116604761D01*
X147707142Y-116509523D01*
X147635714Y-116414285D01*
X147564285Y-116223809D01*
X147564285Y-115652380D01*
X147635714Y-115461904D01*
X147707142Y-115366666D01*
X147850000Y-115271428D01*
X148135714Y-115271428D01*
X148278571Y-115366666D01*
X149207142Y-116604761D02*
X149064285Y-116509523D01*
X148992857Y-116414285D01*
X148921428Y-116223809D01*
X148921428Y-115652380D01*
X148992857Y-115461904D01*
X149064285Y-115366666D01*
X149207142Y-115271428D01*
X149421428Y-115271428D01*
X149564285Y-115366666D01*
X149635714Y-115461904D01*
X149707142Y-115652380D01*
X149707142Y-116223809D01*
X149635714Y-116414285D01*
X149564285Y-116509523D01*
X149421428Y-116604761D01*
X149207142Y-116604761D01*
X150350000Y-116604761D02*
X150350000Y-114604761D01*
X150850000Y-114604761D02*
X151350000Y-116604761D01*
X151850000Y-114604761D01*
%TO.C,REF\u002A\u002A*%
D11*
X95566666Y-82952380D02*
X95233333Y-82476190D01*
X94995238Y-82952380D02*
X94995238Y-81952380D01*
X95376190Y-81952380D01*
X95471428Y-82000000D01*
X95519047Y-82047619D01*
X95566666Y-82142857D01*
X95566666Y-82285714D01*
X95519047Y-82380952D01*
X95471428Y-82428571D01*
X95376190Y-82476190D01*
X94995238Y-82476190D01*
X95995238Y-82428571D02*
X96328571Y-82428571D01*
X96471428Y-82952380D02*
X95995238Y-82952380D01*
X95995238Y-81952380D01*
X96471428Y-81952380D01*
X97233333Y-82428571D02*
X96900000Y-82428571D01*
X96900000Y-82952380D02*
X96900000Y-81952380D01*
X97376190Y-81952380D01*
X97900000Y-81952380D02*
X97900000Y-82190476D01*
X97661904Y-82095238D02*
X97900000Y-82190476D01*
X98138095Y-82095238D01*
X97757142Y-82380952D02*
X97900000Y-82190476D01*
X98042857Y-82380952D01*
X98661904Y-81952380D02*
X98661904Y-82190476D01*
X98423809Y-82095238D02*
X98661904Y-82190476D01*
X98900000Y-82095238D01*
X98519047Y-82380952D02*
X98661904Y-82190476D01*
X98804761Y-82380952D01*
X119366666Y-123952380D02*
X119033333Y-123476190D01*
X118795238Y-123952380D02*
X118795238Y-122952380D01*
X119176190Y-122952380D01*
X119271428Y-123000000D01*
X119319047Y-123047619D01*
X119366666Y-123142857D01*
X119366666Y-123285714D01*
X119319047Y-123380952D01*
X119271428Y-123428571D01*
X119176190Y-123476190D01*
X118795238Y-123476190D01*
X119795238Y-123428571D02*
X120128571Y-123428571D01*
X120271428Y-123952380D02*
X119795238Y-123952380D01*
X119795238Y-122952380D01*
X120271428Y-122952380D01*
X121033333Y-123428571D02*
X120700000Y-123428571D01*
X120700000Y-123952380D02*
X120700000Y-122952380D01*
X121176190Y-122952380D01*
X121700000Y-122952380D02*
X121700000Y-123190476D01*
X121461904Y-123095238D02*
X121700000Y-123190476D01*
X121938095Y-123095238D01*
X121557142Y-123380952D02*
X121700000Y-123190476D01*
X121842857Y-123380952D01*
X122461904Y-122952380D02*
X122461904Y-123190476D01*
X122223809Y-123095238D02*
X122461904Y-123190476D01*
X122700000Y-123095238D01*
X122319047Y-123380952D02*
X122461904Y-123190476D01*
X122604761Y-123380952D01*
X133666666Y-65552380D02*
X133333333Y-65076190D01*
X133095238Y-65552380D02*
X133095238Y-64552380D01*
X133476190Y-64552380D01*
X133571428Y-64600000D01*
X133619047Y-64647619D01*
X133666666Y-64742857D01*
X133666666Y-64885714D01*
X133619047Y-64980952D01*
X133571428Y-65028571D01*
X133476190Y-65076190D01*
X133095238Y-65076190D01*
X134095238Y-65028571D02*
X134428571Y-65028571D01*
X134571428Y-65552380D02*
X134095238Y-65552380D01*
X134095238Y-64552380D01*
X134571428Y-64552380D01*
X135333333Y-65028571D02*
X135000000Y-65028571D01*
X135000000Y-65552380D02*
X135000000Y-64552380D01*
X135476190Y-64552380D01*
X136000000Y-64552380D02*
X136000000Y-64790476D01*
X135761904Y-64695238D02*
X136000000Y-64790476D01*
X136238095Y-64695238D01*
X135857142Y-64980952D02*
X136000000Y-64790476D01*
X136142857Y-64980952D01*
X136761904Y-64552380D02*
X136761904Y-64790476D01*
X136523809Y-64695238D02*
X136761904Y-64790476D01*
X137000000Y-64695238D01*
X136619047Y-64980952D02*
X136761904Y-64790476D01*
X136904761Y-64980952D01*
X189166666Y-138552380D02*
X188833333Y-138076190D01*
X188595238Y-138552380D02*
X188595238Y-137552380D01*
X188976190Y-137552380D01*
X189071428Y-137600000D01*
X189119047Y-137647619D01*
X189166666Y-137742857D01*
X189166666Y-137885714D01*
X189119047Y-137980952D01*
X189071428Y-138028571D01*
X188976190Y-138076190D01*
X188595238Y-138076190D01*
X189595238Y-138028571D02*
X189928571Y-138028571D01*
X190071428Y-138552380D02*
X189595238Y-138552380D01*
X189595238Y-137552380D01*
X190071428Y-137552380D01*
X190833333Y-138028571D02*
X190500000Y-138028571D01*
X190500000Y-138552380D02*
X190500000Y-137552380D01*
X190976190Y-137552380D01*
X191500000Y-137552380D02*
X191500000Y-137790476D01*
X191261904Y-137695238D02*
X191500000Y-137790476D01*
X191738095Y-137695238D01*
X191357142Y-137980952D02*
X191500000Y-137790476D01*
X191642857Y-137980952D01*
X192261904Y-137552380D02*
X192261904Y-137790476D01*
X192023809Y-137695238D02*
X192261904Y-137790476D01*
X192500000Y-137695238D01*
X192119047Y-137980952D02*
X192261904Y-137790476D01*
X192404761Y-137980952D01*
%TD*%
M02*
