M48
; DRILL file {KiCad 5.1.7} date Tue Nov 17 12:43:40 2020
; FORMAT={-:-/ absolute / inch / decimal}
; #@! TF.CreationDate,2020-11-17T12:43:40+01:00
; #@! TF.GenerationSoftware,Kicad,Pcbnew,5.1.7
; #@! TF.FileFunction,Plated,1,2,PTH
FMAT,2
INCH
T1C0.0157
T2C0.0866
%
G90
G05
T1
X3.75Y-3.374
X3.769Y-3.3281
X3.769Y-3.4199
X3.815Y-3.3091
X3.815Y-3.439
X3.8609Y-3.3281
X3.8609Y-3.4199
X3.8799Y-3.374
X5.25Y-2.689
X5.269Y-2.643
X5.269Y-2.7349
X5.315Y-2.624
X5.315Y-2.7539
X5.3609Y-2.643
X5.3609Y-2.7349
X5.3799Y-2.689
X4.687Y-4.9882
X4.706Y-4.9423
X4.706Y-5.0341
X4.752Y-4.9232
X4.752Y-5.0531
X4.7979Y-4.9423
X4.7979Y-5.0341
X4.8169Y-4.9882
X7.435Y-5.563
X7.4541Y-5.5171
X7.4541Y-5.6089
X7.5Y-5.498
X7.5Y-5.628
X7.5459Y-5.5171
X7.5459Y-5.6089
X7.565Y-5.563
T2
X3.815Y-3.374
X5.315Y-2.689
X4.752Y-4.9882
X7.5Y-5.563
T0
M30
