G04 #@! TF.GenerationSoftware,KiCad,Pcbnew,5.1.8*
G04 #@! TF.CreationDate,2021-01-07T11:00:12+01:00*
G04 #@! TF.ProjectId,split_3x_plate,73706c69-745f-4337-985f-706c6174652e,rev?*
G04 #@! TF.SameCoordinates,Original*
G04 #@! TF.FileFunction,Soldermask,Bot*
G04 #@! TF.FilePolarity,Negative*
%FSLAX46Y46*%
G04 Gerber Fmt 4.6, Leading zero omitted, Abs format (unit mm)*
G04 Created by KiCad (PCBNEW 5.1.8) date 2021-01-07 11:00:12*
%MOMM*%
%LPD*%
G01*
G04 APERTURE LIST*
%ADD10C,0.010000*%
%ADD11C,0.700000*%
%ADD12C,4.400000*%
G04 APERTURE END LIST*
D10*
G04 #@! TO.C,G\u002A\u002A\u002A*
G36*
X128877864Y-108156668D02*
G01*
X128838699Y-108191278D01*
X128798374Y-108246031D01*
X128758720Y-108318531D01*
X128729421Y-108385900D01*
X128696449Y-108478671D01*
X128661824Y-108592895D01*
X128626472Y-108724755D01*
X128591321Y-108870434D01*
X128557296Y-109026116D01*
X128525324Y-109187985D01*
X128499702Y-109332050D01*
X128489231Y-109391410D01*
X128476380Y-109460349D01*
X128464392Y-109521615D01*
X128444050Y-109622280D01*
X128317050Y-109645133D01*
X128255713Y-109656365D01*
X128196969Y-109667458D01*
X128149742Y-109676712D01*
X128132900Y-109680190D01*
X128081777Y-109689939D01*
X128027274Y-109698686D01*
X128016228Y-109700205D01*
X127956706Y-109708015D01*
X127888175Y-109589882D01*
X127849070Y-109522488D01*
X127805611Y-109447610D01*
X127760543Y-109369979D01*
X127716611Y-109294322D01*
X127676561Y-109225366D01*
X127643138Y-109167841D01*
X127619089Y-109126474D01*
X127615186Y-109119766D01*
X127575945Y-109056317D01*
X127526460Y-108982301D01*
X127470464Y-108902766D01*
X127411694Y-108822760D01*
X127353885Y-108747329D01*
X127300771Y-108681523D01*
X127256089Y-108630389D01*
X127242920Y-108616678D01*
X127174706Y-108557083D01*
X127110095Y-108517889D01*
X127050984Y-108499616D01*
X126999274Y-108502783D01*
X126956863Y-108527908D01*
X126949057Y-108536329D01*
X126928927Y-108564143D01*
X126911069Y-108597976D01*
X126895326Y-108639430D01*
X126881538Y-108690104D01*
X126869547Y-108751600D01*
X126859194Y-108825516D01*
X126850321Y-108913454D01*
X126842769Y-109017013D01*
X126836379Y-109137795D01*
X126830993Y-109277399D01*
X126826452Y-109437425D01*
X126822598Y-109619475D01*
X126819271Y-109825148D01*
X126818935Y-109848984D01*
X126816829Y-109987091D01*
X126814492Y-110102430D01*
X126811608Y-110197629D01*
X126807859Y-110275319D01*
X126802929Y-110338131D01*
X126796503Y-110388696D01*
X126788263Y-110429642D01*
X126777893Y-110463602D01*
X126765077Y-110493205D01*
X126749499Y-110521082D01*
X126735457Y-110542973D01*
X126692659Y-110614400D01*
X126649011Y-110699270D01*
X126609256Y-110787502D01*
X126578134Y-110869016D01*
X126569943Y-110894821D01*
X126560362Y-110931794D01*
X126552928Y-110972523D01*
X126547216Y-111021473D01*
X126542802Y-111083110D01*
X126539262Y-111161899D01*
X126536632Y-111245354D01*
X126533958Y-111325178D01*
X126530684Y-111396856D01*
X126527066Y-111456321D01*
X126523362Y-111499510D01*
X126519828Y-111522358D01*
X126519023Y-111524381D01*
X126510746Y-111531614D01*
X126496058Y-111532950D01*
X126471931Y-111527366D01*
X126435336Y-111513839D01*
X126383245Y-111491346D01*
X126312628Y-111458862D01*
X126280504Y-111443779D01*
X126217631Y-111414213D01*
X126154355Y-111384561D01*
X126099242Y-111358832D01*
X126069150Y-111344860D01*
X126022194Y-111323074D01*
X125962593Y-111295318D01*
X125900694Y-111266415D01*
X125878650Y-111256100D01*
X125818597Y-111228011D01*
X125756896Y-111199207D01*
X125703896Y-111174517D01*
X125688150Y-111167200D01*
X125641192Y-111145348D01*
X125581588Y-111117539D01*
X125519687Y-111088604D01*
X125497650Y-111078287D01*
X125403602Y-111034386D01*
X125316430Y-110993984D01*
X125238856Y-110958321D01*
X125173603Y-110928636D01*
X125123395Y-110906167D01*
X125090954Y-110892156D01*
X125079160Y-110887800D01*
X125066085Y-110882839D01*
X125035709Y-110869628D01*
X124993740Y-110850669D01*
X124977824Y-110843350D01*
X124933085Y-110822991D01*
X124897857Y-110807537D01*
X124877912Y-110799498D01*
X124875644Y-110798900D01*
X124861855Y-110794076D01*
X124831790Y-110781496D01*
X124796323Y-110765835D01*
X124759846Y-110749436D01*
X124730026Y-110736258D01*
X124701852Y-110724262D01*
X124670309Y-110711407D01*
X124630384Y-110695651D01*
X124577065Y-110674954D01*
X124505339Y-110647276D01*
X124500700Y-110645487D01*
X124407250Y-110609561D01*
X124333690Y-110581795D01*
X124276237Y-110561145D01*
X124231107Y-110546569D01*
X124194516Y-110537022D01*
X124162682Y-110531462D01*
X124131819Y-110528846D01*
X124098145Y-110528130D01*
X124075250Y-110528177D01*
X123989174Y-110533711D01*
X123910393Y-110551123D01*
X123828530Y-110583073D01*
X123792297Y-110600671D01*
X123687519Y-110664476D01*
X123577609Y-110751714D01*
X123463600Y-110861175D01*
X123346525Y-110991651D01*
X123227417Y-111141934D01*
X123107308Y-111310816D01*
X122987231Y-111497087D01*
X122898008Y-111647141D01*
X122869815Y-111697734D01*
X122833315Y-111765576D01*
X122790667Y-111846439D01*
X122744029Y-111936094D01*
X122695562Y-112030316D01*
X122647423Y-112124876D01*
X122601772Y-112215548D01*
X122560768Y-112298104D01*
X122526570Y-112368317D01*
X122501337Y-112421958D01*
X122494512Y-112437200D01*
X122465434Y-112502940D01*
X122426507Y-112589791D01*
X122377376Y-112698540D01*
X122352932Y-112752435D01*
X122335947Y-112791613D01*
X122314302Y-112843943D01*
X122292368Y-112898836D01*
X122290025Y-112904835D01*
X122264090Y-112970762D01*
X122243719Y-113020813D01*
X122225640Y-113062926D01*
X122215797Y-113084900D01*
X122201938Y-113119567D01*
X122187858Y-113161194D01*
X122175672Y-113202492D01*
X122167494Y-113236171D01*
X122165439Y-113254944D01*
X122166047Y-113256379D01*
X122179138Y-113253329D01*
X122211469Y-113240646D01*
X122259475Y-113219883D01*
X122319591Y-113192588D01*
X122388250Y-113160312D01*
X122400322Y-113154535D01*
X122471675Y-113120384D01*
X122536468Y-113089540D01*
X122590732Y-113063880D01*
X122630495Y-113045279D01*
X122651790Y-113035615D01*
X122652850Y-113035171D01*
X122684859Y-113021941D01*
X122710000Y-113011417D01*
X122794897Y-112978207D01*
X122894910Y-112943160D01*
X123000263Y-112909494D01*
X123101181Y-112880423D01*
X123135450Y-112871472D01*
X123224363Y-112849855D01*
X123296529Y-112834669D01*
X123359477Y-112824862D01*
X123420731Y-112819380D01*
X123487820Y-112817169D01*
X123524779Y-112816960D01*
X123600197Y-112818288D01*
X123658407Y-112822867D01*
X123707500Y-112831672D01*
X123751400Y-112844290D01*
X123883136Y-112895671D01*
X123997685Y-112958431D01*
X124102305Y-113037038D01*
X124174303Y-113104681D01*
X124260561Y-113207977D01*
X124323966Y-113320469D01*
X124363173Y-113432861D01*
X124380285Y-113489277D01*
X124396625Y-113522433D01*
X124413827Y-113534358D01*
X124433525Y-113527078D01*
X124436910Y-113524358D01*
X124454129Y-113509658D01*
X124485802Y-113482575D01*
X124527091Y-113447247D01*
X124564200Y-113415484D01*
X124685283Y-113317879D01*
X124800285Y-113238953D01*
X124915610Y-113175266D01*
X125037662Y-113123375D01*
X125172847Y-113079840D01*
X125205550Y-113070892D01*
X125254918Y-113062131D01*
X125320453Y-113056501D01*
X125394722Y-113054005D01*
X125470288Y-113054648D01*
X125539717Y-113058434D01*
X125595574Y-113065367D01*
X125618300Y-113070670D01*
X125744032Y-113121616D01*
X125866218Y-113196485D01*
X125985715Y-113295848D01*
X126046430Y-113356702D01*
X126133179Y-113456275D01*
X126208516Y-113560192D01*
X126276416Y-113674728D01*
X126340855Y-113806159D01*
X126362946Y-113856425D01*
X126377567Y-113883844D01*
X126390410Y-113897392D01*
X126391916Y-113897700D01*
X126404728Y-113887747D01*
X126423647Y-113862708D01*
X126431585Y-113850075D01*
X126455838Y-113808603D01*
X126482878Y-113761264D01*
X126491838Y-113745300D01*
X126525190Y-113689734D01*
X126569504Y-113621825D01*
X126619687Y-113548911D01*
X126670644Y-113478329D01*
X126717280Y-113417418D01*
X126732218Y-113399045D01*
X126785633Y-113341187D01*
X126851323Y-113279724D01*
X126922734Y-113220039D01*
X126993310Y-113167514D01*
X127056497Y-113127532D01*
X127074318Y-113118151D01*
X127183182Y-113069164D01*
X127279101Y-113037482D01*
X127367574Y-113022947D01*
X127454103Y-113025404D01*
X127544189Y-113044694D01*
X127643331Y-113080661D01*
X127688825Y-113100625D01*
X127741076Y-113124400D01*
X127796424Y-113149477D01*
X127821750Y-113160907D01*
X127868141Y-113181813D01*
X127924082Y-113207042D01*
X127967800Y-113226773D01*
X128012927Y-113247100D01*
X128051743Y-113264500D01*
X128075750Y-113275165D01*
X128165674Y-113305465D01*
X128273665Y-113327237D01*
X128393864Y-113340474D01*
X128520409Y-113345167D01*
X128647439Y-113341307D01*
X128769094Y-113328888D01*
X128879514Y-113307900D01*
X128972836Y-113278335D01*
X128977450Y-113276421D01*
X129049639Y-113243821D01*
X129130664Y-113203724D01*
X129211588Y-113160810D01*
X129283471Y-113119759D01*
X129319837Y-113097128D01*
X129375246Y-113058393D01*
X129429156Y-113014794D01*
X129484803Y-112963146D01*
X129545422Y-112900264D01*
X129614248Y-112822962D01*
X129693554Y-112729216D01*
X129740042Y-112673773D01*
X129782601Y-112623900D01*
X129817841Y-112583501D01*
X129842374Y-112556482D01*
X129850536Y-112548325D01*
X129863230Y-112539753D01*
X129881564Y-112533714D01*
X129909664Y-112529812D01*
X129951658Y-112527651D01*
X130011671Y-112526837D01*
X130074232Y-112526884D01*
X130183959Y-112529019D01*
X130298590Y-112534279D01*
X130413005Y-112542195D01*
X130522082Y-112552296D01*
X130620700Y-112564116D01*
X130703736Y-112577183D01*
X130761800Y-112589859D01*
X130864177Y-112618496D01*
X130951836Y-112646161D01*
X131033754Y-112676165D01*
X131118905Y-112711819D01*
X131216264Y-112756434D01*
X131226734Y-112761382D01*
X131281169Y-112786303D01*
X131330416Y-112807310D01*
X131367941Y-112821697D01*
X131383653Y-112826365D01*
X131399972Y-112828655D01*
X131411184Y-112824655D01*
X131419692Y-112809865D01*
X131427901Y-112779785D01*
X131438217Y-112729915D01*
X131440002Y-112720917D01*
X131466412Y-112589977D01*
X131489682Y-112480865D01*
X131510861Y-112390354D01*
X131530994Y-112315219D01*
X131551128Y-112252234D01*
X131572309Y-112198174D01*
X131595585Y-112149814D01*
X131622001Y-112103927D01*
X131652606Y-112057288D01*
X131657746Y-112049850D01*
X131700290Y-111994011D01*
X131752825Y-111933219D01*
X131810809Y-111871963D01*
X131869703Y-111814731D01*
X131924965Y-111766011D01*
X131972056Y-111730293D01*
X131994449Y-111716994D01*
X132045798Y-111693196D01*
X132094228Y-111675487D01*
X132144571Y-111663188D01*
X132201659Y-111655621D01*
X132270326Y-111652109D01*
X132355402Y-111651971D01*
X132443316Y-111653975D01*
X132564657Y-111659123D01*
X132667147Y-111667652D01*
X132757252Y-111680875D01*
X132841435Y-111700101D01*
X132926162Y-111726644D01*
X133017897Y-111761815D01*
X133058378Y-111778753D01*
X133111256Y-111797892D01*
X133146902Y-111801666D01*
X133168640Y-111789629D01*
X133179563Y-111762512D01*
X133183975Y-111727484D01*
X133186857Y-111679735D01*
X133187501Y-111646510D01*
X133197881Y-111539734D01*
X133227468Y-111425619D01*
X133273934Y-111310293D01*
X133334950Y-111199885D01*
X133383510Y-111130811D01*
X133488456Y-111013638D01*
X133603962Y-110919399D01*
X133731014Y-110847500D01*
X133870600Y-110797347D01*
X133974900Y-110775084D01*
X134203218Y-110747968D01*
X134449481Y-110736840D01*
X134711908Y-110741687D01*
X134988717Y-110762499D01*
X135161483Y-110782713D01*
X135211416Y-110789308D01*
X135162508Y-110721079D01*
X135122091Y-110669537D01*
X135064372Y-110603059D01*
X134991155Y-110523440D01*
X134904248Y-110432477D01*
X134805456Y-110331965D01*
X134696587Y-110223700D01*
X134579445Y-110109480D01*
X134455838Y-109991099D01*
X134327572Y-109870355D01*
X134196452Y-109749042D01*
X134064285Y-109628958D01*
X134063800Y-109628521D01*
X133849097Y-109444863D01*
X133639076Y-109284726D01*
X133432165Y-109147012D01*
X133226792Y-109030625D01*
X133158452Y-108996401D01*
X133027974Y-108936354D01*
X132913703Y-108890927D01*
X132811915Y-108858996D01*
X132718888Y-108839435D01*
X132630896Y-108831121D01*
X132609650Y-108830671D01*
X132555620Y-108832234D01*
X132513410Y-108839909D01*
X132470150Y-108856804D01*
X132440587Y-108871494D01*
X132393126Y-108898821D01*
X132338862Y-108935574D01*
X132276208Y-108983087D01*
X132203576Y-109042690D01*
X132119380Y-109115718D01*
X132022032Y-109203502D01*
X131909944Y-109307375D01*
X131816543Y-109395416D01*
X131772722Y-109436843D01*
X131734793Y-109472483D01*
X131707060Y-109498305D01*
X131694340Y-109509850D01*
X131682604Y-109521055D01*
X131654602Y-109548366D01*
X131612125Y-109590023D01*
X131556961Y-109644265D01*
X131490899Y-109709331D01*
X131415728Y-109783460D01*
X131333237Y-109864892D01*
X131245214Y-109951865D01*
X131229854Y-109967050D01*
X131081534Y-110113452D01*
X130950084Y-110242661D01*
X130834542Y-110355570D01*
X130733944Y-110453073D01*
X130647329Y-110536064D01*
X130573734Y-110605436D01*
X130512195Y-110662084D01*
X130461751Y-110706900D01*
X130421439Y-110740780D01*
X130390295Y-110764616D01*
X130367359Y-110779303D01*
X130351666Y-110785733D01*
X130347592Y-110786200D01*
X130334733Y-110775148D01*
X130324229Y-110748212D01*
X130323502Y-110744925D01*
X130289045Y-110626932D01*
X130233682Y-110501376D01*
X130159421Y-110371648D01*
X130068271Y-110241142D01*
X129962240Y-110113251D01*
X129926814Y-110074825D01*
X129882196Y-110026926D01*
X129842176Y-109982684D01*
X129811043Y-109946929D01*
X129793092Y-109924489D01*
X129792778Y-109924037D01*
X129757165Y-109865360D01*
X129719957Y-109789828D01*
X129680263Y-109695344D01*
X129637194Y-109579813D01*
X129597898Y-109465400D01*
X129584729Y-109427280D01*
X129565920Y-109374571D01*
X129544763Y-109316461D01*
X129536450Y-109293950D01*
X129512583Y-109229158D01*
X129487128Y-109159329D01*
X129464747Y-109097266D01*
X129460155Y-109084400D01*
X129439878Y-109027805D01*
X129424630Y-108986671D01*
X129411087Y-108952471D01*
X129395926Y-108916680D01*
X129385145Y-108891980D01*
X129372224Y-108860862D01*
X129365216Y-108840736D01*
X129364800Y-108838323D01*
X129359876Y-108823999D01*
X129346905Y-108793080D01*
X129328590Y-108751983D01*
X129326700Y-108747849D01*
X129308013Y-108706029D01*
X129294425Y-108673680D01*
X129288645Y-108657273D01*
X129288600Y-108656793D01*
X129282507Y-108637230D01*
X129265863Y-108600354D01*
X129241125Y-108550671D01*
X129210746Y-108492686D01*
X129177182Y-108430905D01*
X129142889Y-108369832D01*
X129110321Y-108313974D01*
X129081933Y-108267836D01*
X129060181Y-108235922D01*
X129057095Y-108231956D01*
X129029034Y-108205108D01*
X128990886Y-108178088D01*
X128951484Y-108156289D01*
X128919660Y-108145105D01*
X128914033Y-108144600D01*
X128877864Y-108156668D01*
G37*
X128877864Y-108156668D02*
X128838699Y-108191278D01*
X128798374Y-108246031D01*
X128758720Y-108318531D01*
X128729421Y-108385900D01*
X128696449Y-108478671D01*
X128661824Y-108592895D01*
X128626472Y-108724755D01*
X128591321Y-108870434D01*
X128557296Y-109026116D01*
X128525324Y-109187985D01*
X128499702Y-109332050D01*
X128489231Y-109391410D01*
X128476380Y-109460349D01*
X128464392Y-109521615D01*
X128444050Y-109622280D01*
X128317050Y-109645133D01*
X128255713Y-109656365D01*
X128196969Y-109667458D01*
X128149742Y-109676712D01*
X128132900Y-109680190D01*
X128081777Y-109689939D01*
X128027274Y-109698686D01*
X128016228Y-109700205D01*
X127956706Y-109708015D01*
X127888175Y-109589882D01*
X127849070Y-109522488D01*
X127805611Y-109447610D01*
X127760543Y-109369979D01*
X127716611Y-109294322D01*
X127676561Y-109225366D01*
X127643138Y-109167841D01*
X127619089Y-109126474D01*
X127615186Y-109119766D01*
X127575945Y-109056317D01*
X127526460Y-108982301D01*
X127470464Y-108902766D01*
X127411694Y-108822760D01*
X127353885Y-108747329D01*
X127300771Y-108681523D01*
X127256089Y-108630389D01*
X127242920Y-108616678D01*
X127174706Y-108557083D01*
X127110095Y-108517889D01*
X127050984Y-108499616D01*
X126999274Y-108502783D01*
X126956863Y-108527908D01*
X126949057Y-108536329D01*
X126928927Y-108564143D01*
X126911069Y-108597976D01*
X126895326Y-108639430D01*
X126881538Y-108690104D01*
X126869547Y-108751600D01*
X126859194Y-108825516D01*
X126850321Y-108913454D01*
X126842769Y-109017013D01*
X126836379Y-109137795D01*
X126830993Y-109277399D01*
X126826452Y-109437425D01*
X126822598Y-109619475D01*
X126819271Y-109825148D01*
X126818935Y-109848984D01*
X126816829Y-109987091D01*
X126814492Y-110102430D01*
X126811608Y-110197629D01*
X126807859Y-110275319D01*
X126802929Y-110338131D01*
X126796503Y-110388696D01*
X126788263Y-110429642D01*
X126777893Y-110463602D01*
X126765077Y-110493205D01*
X126749499Y-110521082D01*
X126735457Y-110542973D01*
X126692659Y-110614400D01*
X126649011Y-110699270D01*
X126609256Y-110787502D01*
X126578134Y-110869016D01*
X126569943Y-110894821D01*
X126560362Y-110931794D01*
X126552928Y-110972523D01*
X126547216Y-111021473D01*
X126542802Y-111083110D01*
X126539262Y-111161899D01*
X126536632Y-111245354D01*
X126533958Y-111325178D01*
X126530684Y-111396856D01*
X126527066Y-111456321D01*
X126523362Y-111499510D01*
X126519828Y-111522358D01*
X126519023Y-111524381D01*
X126510746Y-111531614D01*
X126496058Y-111532950D01*
X126471931Y-111527366D01*
X126435336Y-111513839D01*
X126383245Y-111491346D01*
X126312628Y-111458862D01*
X126280504Y-111443779D01*
X126217631Y-111414213D01*
X126154355Y-111384561D01*
X126099242Y-111358832D01*
X126069150Y-111344860D01*
X126022194Y-111323074D01*
X125962593Y-111295318D01*
X125900694Y-111266415D01*
X125878650Y-111256100D01*
X125818597Y-111228011D01*
X125756896Y-111199207D01*
X125703896Y-111174517D01*
X125688150Y-111167200D01*
X125641192Y-111145348D01*
X125581588Y-111117539D01*
X125519687Y-111088604D01*
X125497650Y-111078287D01*
X125403602Y-111034386D01*
X125316430Y-110993984D01*
X125238856Y-110958321D01*
X125173603Y-110928636D01*
X125123395Y-110906167D01*
X125090954Y-110892156D01*
X125079160Y-110887800D01*
X125066085Y-110882839D01*
X125035709Y-110869628D01*
X124993740Y-110850669D01*
X124977824Y-110843350D01*
X124933085Y-110822991D01*
X124897857Y-110807537D01*
X124877912Y-110799498D01*
X124875644Y-110798900D01*
X124861855Y-110794076D01*
X124831790Y-110781496D01*
X124796323Y-110765835D01*
X124759846Y-110749436D01*
X124730026Y-110736258D01*
X124701852Y-110724262D01*
X124670309Y-110711407D01*
X124630384Y-110695651D01*
X124577065Y-110674954D01*
X124505339Y-110647276D01*
X124500700Y-110645487D01*
X124407250Y-110609561D01*
X124333690Y-110581795D01*
X124276237Y-110561145D01*
X124231107Y-110546569D01*
X124194516Y-110537022D01*
X124162682Y-110531462D01*
X124131819Y-110528846D01*
X124098145Y-110528130D01*
X124075250Y-110528177D01*
X123989174Y-110533711D01*
X123910393Y-110551123D01*
X123828530Y-110583073D01*
X123792297Y-110600671D01*
X123687519Y-110664476D01*
X123577609Y-110751714D01*
X123463600Y-110861175D01*
X123346525Y-110991651D01*
X123227417Y-111141934D01*
X123107308Y-111310816D01*
X122987231Y-111497087D01*
X122898008Y-111647141D01*
X122869815Y-111697734D01*
X122833315Y-111765576D01*
X122790667Y-111846439D01*
X122744029Y-111936094D01*
X122695562Y-112030316D01*
X122647423Y-112124876D01*
X122601772Y-112215548D01*
X122560768Y-112298104D01*
X122526570Y-112368317D01*
X122501337Y-112421958D01*
X122494512Y-112437200D01*
X122465434Y-112502940D01*
X122426507Y-112589791D01*
X122377376Y-112698540D01*
X122352932Y-112752435D01*
X122335947Y-112791613D01*
X122314302Y-112843943D01*
X122292368Y-112898836D01*
X122290025Y-112904835D01*
X122264090Y-112970762D01*
X122243719Y-113020813D01*
X122225640Y-113062926D01*
X122215797Y-113084900D01*
X122201938Y-113119567D01*
X122187858Y-113161194D01*
X122175672Y-113202492D01*
X122167494Y-113236171D01*
X122165439Y-113254944D01*
X122166047Y-113256379D01*
X122179138Y-113253329D01*
X122211469Y-113240646D01*
X122259475Y-113219883D01*
X122319591Y-113192588D01*
X122388250Y-113160312D01*
X122400322Y-113154535D01*
X122471675Y-113120384D01*
X122536468Y-113089540D01*
X122590732Y-113063880D01*
X122630495Y-113045279D01*
X122651790Y-113035615D01*
X122652850Y-113035171D01*
X122684859Y-113021941D01*
X122710000Y-113011417D01*
X122794897Y-112978207D01*
X122894910Y-112943160D01*
X123000263Y-112909494D01*
X123101181Y-112880423D01*
X123135450Y-112871472D01*
X123224363Y-112849855D01*
X123296529Y-112834669D01*
X123359477Y-112824862D01*
X123420731Y-112819380D01*
X123487820Y-112817169D01*
X123524779Y-112816960D01*
X123600197Y-112818288D01*
X123658407Y-112822867D01*
X123707500Y-112831672D01*
X123751400Y-112844290D01*
X123883136Y-112895671D01*
X123997685Y-112958431D01*
X124102305Y-113037038D01*
X124174303Y-113104681D01*
X124260561Y-113207977D01*
X124323966Y-113320469D01*
X124363173Y-113432861D01*
X124380285Y-113489277D01*
X124396625Y-113522433D01*
X124413827Y-113534358D01*
X124433525Y-113527078D01*
X124436910Y-113524358D01*
X124454129Y-113509658D01*
X124485802Y-113482575D01*
X124527091Y-113447247D01*
X124564200Y-113415484D01*
X124685283Y-113317879D01*
X124800285Y-113238953D01*
X124915610Y-113175266D01*
X125037662Y-113123375D01*
X125172847Y-113079840D01*
X125205550Y-113070892D01*
X125254918Y-113062131D01*
X125320453Y-113056501D01*
X125394722Y-113054005D01*
X125470288Y-113054648D01*
X125539717Y-113058434D01*
X125595574Y-113065367D01*
X125618300Y-113070670D01*
X125744032Y-113121616D01*
X125866218Y-113196485D01*
X125985715Y-113295848D01*
X126046430Y-113356702D01*
X126133179Y-113456275D01*
X126208516Y-113560192D01*
X126276416Y-113674728D01*
X126340855Y-113806159D01*
X126362946Y-113856425D01*
X126377567Y-113883844D01*
X126390410Y-113897392D01*
X126391916Y-113897700D01*
X126404728Y-113887747D01*
X126423647Y-113862708D01*
X126431585Y-113850075D01*
X126455838Y-113808603D01*
X126482878Y-113761264D01*
X126491838Y-113745300D01*
X126525190Y-113689734D01*
X126569504Y-113621825D01*
X126619687Y-113548911D01*
X126670644Y-113478329D01*
X126717280Y-113417418D01*
X126732218Y-113399045D01*
X126785633Y-113341187D01*
X126851323Y-113279724D01*
X126922734Y-113220039D01*
X126993310Y-113167514D01*
X127056497Y-113127532D01*
X127074318Y-113118151D01*
X127183182Y-113069164D01*
X127279101Y-113037482D01*
X127367574Y-113022947D01*
X127454103Y-113025404D01*
X127544189Y-113044694D01*
X127643331Y-113080661D01*
X127688825Y-113100625D01*
X127741076Y-113124400D01*
X127796424Y-113149477D01*
X127821750Y-113160907D01*
X127868141Y-113181813D01*
X127924082Y-113207042D01*
X127967800Y-113226773D01*
X128012927Y-113247100D01*
X128051743Y-113264500D01*
X128075750Y-113275165D01*
X128165674Y-113305465D01*
X128273665Y-113327237D01*
X128393864Y-113340474D01*
X128520409Y-113345167D01*
X128647439Y-113341307D01*
X128769094Y-113328888D01*
X128879514Y-113307900D01*
X128972836Y-113278335D01*
X128977450Y-113276421D01*
X129049639Y-113243821D01*
X129130664Y-113203724D01*
X129211588Y-113160810D01*
X129283471Y-113119759D01*
X129319837Y-113097128D01*
X129375246Y-113058393D01*
X129429156Y-113014794D01*
X129484803Y-112963146D01*
X129545422Y-112900264D01*
X129614248Y-112822962D01*
X129693554Y-112729216D01*
X129740042Y-112673773D01*
X129782601Y-112623900D01*
X129817841Y-112583501D01*
X129842374Y-112556482D01*
X129850536Y-112548325D01*
X129863230Y-112539753D01*
X129881564Y-112533714D01*
X129909664Y-112529812D01*
X129951658Y-112527651D01*
X130011671Y-112526837D01*
X130074232Y-112526884D01*
X130183959Y-112529019D01*
X130298590Y-112534279D01*
X130413005Y-112542195D01*
X130522082Y-112552296D01*
X130620700Y-112564116D01*
X130703736Y-112577183D01*
X130761800Y-112589859D01*
X130864177Y-112618496D01*
X130951836Y-112646161D01*
X131033754Y-112676165D01*
X131118905Y-112711819D01*
X131216264Y-112756434D01*
X131226734Y-112761382D01*
X131281169Y-112786303D01*
X131330416Y-112807310D01*
X131367941Y-112821697D01*
X131383653Y-112826365D01*
X131399972Y-112828655D01*
X131411184Y-112824655D01*
X131419692Y-112809865D01*
X131427901Y-112779785D01*
X131438217Y-112729915D01*
X131440002Y-112720917D01*
X131466412Y-112589977D01*
X131489682Y-112480865D01*
X131510861Y-112390354D01*
X131530994Y-112315219D01*
X131551128Y-112252234D01*
X131572309Y-112198174D01*
X131595585Y-112149814D01*
X131622001Y-112103927D01*
X131652606Y-112057288D01*
X131657746Y-112049850D01*
X131700290Y-111994011D01*
X131752825Y-111933219D01*
X131810809Y-111871963D01*
X131869703Y-111814731D01*
X131924965Y-111766011D01*
X131972056Y-111730293D01*
X131994449Y-111716994D01*
X132045798Y-111693196D01*
X132094228Y-111675487D01*
X132144571Y-111663188D01*
X132201659Y-111655621D01*
X132270326Y-111652109D01*
X132355402Y-111651971D01*
X132443316Y-111653975D01*
X132564657Y-111659123D01*
X132667147Y-111667652D01*
X132757252Y-111680875D01*
X132841435Y-111700101D01*
X132926162Y-111726644D01*
X133017897Y-111761815D01*
X133058378Y-111778753D01*
X133111256Y-111797892D01*
X133146902Y-111801666D01*
X133168640Y-111789629D01*
X133179563Y-111762512D01*
X133183975Y-111727484D01*
X133186857Y-111679735D01*
X133187501Y-111646510D01*
X133197881Y-111539734D01*
X133227468Y-111425619D01*
X133273934Y-111310293D01*
X133334950Y-111199885D01*
X133383510Y-111130811D01*
X133488456Y-111013638D01*
X133603962Y-110919399D01*
X133731014Y-110847500D01*
X133870600Y-110797347D01*
X133974900Y-110775084D01*
X134203218Y-110747968D01*
X134449481Y-110736840D01*
X134711908Y-110741687D01*
X134988717Y-110762499D01*
X135161483Y-110782713D01*
X135211416Y-110789308D01*
X135162508Y-110721079D01*
X135122091Y-110669537D01*
X135064372Y-110603059D01*
X134991155Y-110523440D01*
X134904248Y-110432477D01*
X134805456Y-110331965D01*
X134696587Y-110223700D01*
X134579445Y-110109480D01*
X134455838Y-109991099D01*
X134327572Y-109870355D01*
X134196452Y-109749042D01*
X134064285Y-109628958D01*
X134063800Y-109628521D01*
X133849097Y-109444863D01*
X133639076Y-109284726D01*
X133432165Y-109147012D01*
X133226792Y-109030625D01*
X133158452Y-108996401D01*
X133027974Y-108936354D01*
X132913703Y-108890927D01*
X132811915Y-108858996D01*
X132718888Y-108839435D01*
X132630896Y-108831121D01*
X132609650Y-108830671D01*
X132555620Y-108832234D01*
X132513410Y-108839909D01*
X132470150Y-108856804D01*
X132440587Y-108871494D01*
X132393126Y-108898821D01*
X132338862Y-108935574D01*
X132276208Y-108983087D01*
X132203576Y-109042690D01*
X132119380Y-109115718D01*
X132022032Y-109203502D01*
X131909944Y-109307375D01*
X131816543Y-109395416D01*
X131772722Y-109436843D01*
X131734793Y-109472483D01*
X131707060Y-109498305D01*
X131694340Y-109509850D01*
X131682604Y-109521055D01*
X131654602Y-109548366D01*
X131612125Y-109590023D01*
X131556961Y-109644265D01*
X131490899Y-109709331D01*
X131415728Y-109783460D01*
X131333237Y-109864892D01*
X131245214Y-109951865D01*
X131229854Y-109967050D01*
X131081534Y-110113452D01*
X130950084Y-110242661D01*
X130834542Y-110355570D01*
X130733944Y-110453073D01*
X130647329Y-110536064D01*
X130573734Y-110605436D01*
X130512195Y-110662084D01*
X130461751Y-110706900D01*
X130421439Y-110740780D01*
X130390295Y-110764616D01*
X130367359Y-110779303D01*
X130351666Y-110785733D01*
X130347592Y-110786200D01*
X130334733Y-110775148D01*
X130324229Y-110748212D01*
X130323502Y-110744925D01*
X130289045Y-110626932D01*
X130233682Y-110501376D01*
X130159421Y-110371648D01*
X130068271Y-110241142D01*
X129962240Y-110113251D01*
X129926814Y-110074825D01*
X129882196Y-110026926D01*
X129842176Y-109982684D01*
X129811043Y-109946929D01*
X129793092Y-109924489D01*
X129792778Y-109924037D01*
X129757165Y-109865360D01*
X129719957Y-109789828D01*
X129680263Y-109695344D01*
X129637194Y-109579813D01*
X129597898Y-109465400D01*
X129584729Y-109427280D01*
X129565920Y-109374571D01*
X129544763Y-109316461D01*
X129536450Y-109293950D01*
X129512583Y-109229158D01*
X129487128Y-109159329D01*
X129464747Y-109097266D01*
X129460155Y-109084400D01*
X129439878Y-109027805D01*
X129424630Y-108986671D01*
X129411087Y-108952471D01*
X129395926Y-108916680D01*
X129385145Y-108891980D01*
X129372224Y-108860862D01*
X129365216Y-108840736D01*
X129364800Y-108838323D01*
X129359876Y-108823999D01*
X129346905Y-108793080D01*
X129328590Y-108751983D01*
X129326700Y-108747849D01*
X129308013Y-108706029D01*
X129294425Y-108673680D01*
X129288645Y-108657273D01*
X129288600Y-108656793D01*
X129282507Y-108637230D01*
X129265863Y-108600354D01*
X129241125Y-108550671D01*
X129210746Y-108492686D01*
X129177182Y-108430905D01*
X129142889Y-108369832D01*
X129110321Y-108313974D01*
X129081933Y-108267836D01*
X129060181Y-108235922D01*
X129057095Y-108231956D01*
X129029034Y-108205108D01*
X128990886Y-108178088D01*
X128951484Y-108156289D01*
X128919660Y-108145105D01*
X128914033Y-108144600D01*
X128877864Y-108156668D01*
G36*
X122820832Y-104529006D02*
G01*
X122802075Y-104530985D01*
X122754822Y-104538092D01*
X122694085Y-104549153D01*
X122631052Y-104562092D01*
X122614750Y-104565716D01*
X122558038Y-104578560D01*
X122505488Y-104590432D01*
X122465782Y-104599372D01*
X122456000Y-104601563D01*
X122362311Y-104623613D01*
X122251104Y-104651662D01*
X122129059Y-104683979D01*
X122002851Y-104718830D01*
X121992450Y-104721768D01*
X121936120Y-104737648D01*
X121883838Y-104752284D01*
X121844107Y-104763301D01*
X121833700Y-104766143D01*
X121708649Y-104802407D01*
X121566736Y-104847667D01*
X121413904Y-104899742D01*
X121256100Y-104956450D01*
X121099269Y-105015610D01*
X120949356Y-105075038D01*
X120812306Y-105132555D01*
X120709750Y-105178599D01*
X120313347Y-105374918D01*
X119935593Y-105585405D01*
X119573862Y-105811904D01*
X119225528Y-106056259D01*
X118887963Y-106320313D01*
X118558541Y-106605909D01*
X118234633Y-106914890D01*
X118233250Y-106916270D01*
X118164055Y-106985676D01*
X118097914Y-107052657D01*
X118037821Y-107114134D01*
X117986769Y-107167025D01*
X117947754Y-107208247D01*
X117923770Y-107234722D01*
X117923603Y-107234917D01*
X117885624Y-107278781D01*
X117845813Y-107323857D01*
X117821473Y-107350850D01*
X117770883Y-107408063D01*
X117708893Y-107481240D01*
X117639153Y-107565882D01*
X117565308Y-107657489D01*
X117491008Y-107751561D01*
X117419898Y-107843598D01*
X117389056Y-107884289D01*
X117127041Y-108252126D01*
X116885437Y-108632647D01*
X116662514Y-109028651D01*
X116562116Y-109224100D01*
X116522792Y-109303650D01*
X116486196Y-109378935D01*
X116453926Y-109446550D01*
X116427582Y-109503092D01*
X116408763Y-109545155D01*
X116399067Y-109569335D01*
X116398100Y-109573320D01*
X116393280Y-109586965D01*
X116380708Y-109616918D01*
X116365036Y-109652377D01*
X116341889Y-109703903D01*
X116324887Y-109742495D01*
X116310312Y-109776985D01*
X116294445Y-109816202D01*
X116273567Y-109868976D01*
X116269954Y-109878150D01*
X116249643Y-109930988D01*
X116225271Y-109996353D01*
X116198636Y-110069200D01*
X116171538Y-110144485D01*
X116145777Y-110217163D01*
X116123151Y-110282190D01*
X116105460Y-110334521D01*
X116094504Y-110369111D01*
X116093282Y-110373450D01*
X116084725Y-110403030D01*
X116070951Y-110448513D01*
X116054482Y-110501608D01*
X116048850Y-110519500D01*
X116024356Y-110598058D01*
X116005821Y-110660315D01*
X115991009Y-110714013D01*
X115979165Y-110760800D01*
X115969220Y-110799065D01*
X115955803Y-110847681D01*
X115947940Y-110875100D01*
X115933226Y-110928785D01*
X115919162Y-110985230D01*
X115913900Y-111008450D01*
X115903559Y-111056189D01*
X115893553Y-111101874D01*
X115890336Y-111116400D01*
X115866389Y-111226573D01*
X115844901Y-111330688D01*
X115827101Y-111422594D01*
X115814223Y-111496140D01*
X115814021Y-111497400D01*
X115804645Y-111554983D01*
X115794966Y-111612735D01*
X115787431Y-111656150D01*
X115766400Y-111791938D01*
X115747719Y-111949727D01*
X115731600Y-112126204D01*
X115718258Y-112318061D01*
X115707906Y-112521986D01*
X115700757Y-112734668D01*
X115697025Y-112952798D01*
X115696506Y-113065850D01*
X115700397Y-113391250D01*
X115712400Y-113695723D01*
X115732736Y-113982484D01*
X115761629Y-114254752D01*
X115794842Y-114488250D01*
X115805008Y-114551765D01*
X115815085Y-114614703D01*
X115823481Y-114667119D01*
X115826363Y-114685100D01*
X115833527Y-114725387D01*
X115844632Y-114782678D01*
X115858128Y-114849176D01*
X115871739Y-114913700D01*
X115885668Y-114978474D01*
X115898487Y-115038227D01*
X115908791Y-115086408D01*
X115915178Y-115116464D01*
X115915270Y-115116900D01*
X115947311Y-115253759D01*
X115989245Y-115408653D01*
X116039497Y-115576951D01*
X116096495Y-115754023D01*
X116158663Y-115935239D01*
X116224429Y-116115969D01*
X116292218Y-116291582D01*
X116360457Y-116457449D01*
X116407288Y-116564475D01*
X116432490Y-116619075D01*
X116465136Y-116687761D01*
X116502936Y-116765905D01*
X116543594Y-116848881D01*
X116584818Y-116932059D01*
X116624314Y-117010814D01*
X116659788Y-117080518D01*
X116688949Y-117136542D01*
X116709501Y-117174261D01*
X116709523Y-117174300D01*
X116738501Y-117225007D01*
X116767649Y-117276244D01*
X116789009Y-117314000D01*
X116925049Y-117543616D01*
X117078963Y-117781916D01*
X117247177Y-118023979D01*
X117426115Y-118264884D01*
X117612202Y-118499710D01*
X117801861Y-118723538D01*
X117864084Y-118793550D01*
X117917735Y-118851761D01*
X117985738Y-118923380D01*
X118064032Y-119004313D01*
X118148559Y-119090468D01*
X118235260Y-119177753D01*
X118320074Y-119262077D01*
X118398944Y-119339346D01*
X118467810Y-119405469D01*
X118511838Y-119446555D01*
X118632277Y-119553622D01*
X118768998Y-119669596D01*
X118916595Y-119790161D01*
X119069664Y-119911001D01*
X119222799Y-120027799D01*
X119370596Y-120136240D01*
X119415460Y-120168173D01*
X119457558Y-120197242D01*
X119511569Y-120233557D01*
X119574099Y-120274939D01*
X119641756Y-120319206D01*
X119711148Y-120364177D01*
X119778883Y-120407672D01*
X119841567Y-120447510D01*
X119895809Y-120481509D01*
X119938217Y-120507490D01*
X119965397Y-120523270D01*
X119973762Y-120527100D01*
X119987234Y-120533302D01*
X120014466Y-120549073D01*
X120031817Y-120559807D01*
X120107526Y-120605440D01*
X120201657Y-120658670D01*
X120309374Y-120716879D01*
X120425845Y-120777448D01*
X120531950Y-120830725D01*
X120603742Y-120865879D01*
X120676027Y-120900775D01*
X120745032Y-120933646D01*
X120806986Y-120962724D01*
X120858117Y-120986242D01*
X120894652Y-121002431D01*
X120912821Y-121009525D01*
X120913841Y-121009700D01*
X120927799Y-121014510D01*
X120956602Y-121026700D01*
X120973414Y-121034234D01*
X121069163Y-121075589D01*
X121184052Y-121121477D01*
X121312655Y-121169982D01*
X121449544Y-121219188D01*
X121589292Y-121267179D01*
X121726471Y-121312039D01*
X121855656Y-121351851D01*
X121948000Y-121378339D01*
X122160866Y-121435058D01*
X122355806Y-121482939D01*
X122538234Y-121523170D01*
X122713559Y-121556942D01*
X122887194Y-121585446D01*
X122894150Y-121586489D01*
X122939197Y-121593068D01*
X122983397Y-121599129D01*
X123030660Y-121605120D01*
X123084896Y-121611490D01*
X123150015Y-121618689D01*
X123229927Y-121627165D01*
X123328542Y-121637367D01*
X123408500Y-121645543D01*
X123445351Y-121648048D01*
X123504541Y-121650512D01*
X123583011Y-121652902D01*
X123677699Y-121655183D01*
X123785545Y-121657322D01*
X123903490Y-121659282D01*
X124028473Y-121661032D01*
X124157433Y-121662536D01*
X124287309Y-121663760D01*
X124415043Y-121664669D01*
X124537572Y-121665231D01*
X124651838Y-121665410D01*
X124754778Y-121665172D01*
X124843334Y-121664484D01*
X124914445Y-121663310D01*
X124938850Y-121662649D01*
X125065083Y-121656692D01*
X125208145Y-121646606D01*
X125361190Y-121633110D01*
X125517370Y-121616922D01*
X125669837Y-121598760D01*
X125811745Y-121579344D01*
X125936244Y-121559392D01*
X125954850Y-121556059D01*
X126038815Y-121540081D01*
X126132506Y-121521127D01*
X126231085Y-121500282D01*
X126329718Y-121478629D01*
X126423567Y-121457254D01*
X126507796Y-121437241D01*
X126577568Y-121419675D01*
X126628048Y-121405640D01*
X126634300Y-121403703D01*
X126666477Y-121394046D01*
X126708765Y-121381990D01*
X126723200Y-121378000D01*
X126765628Y-121366053D01*
X126802960Y-121355004D01*
X126812100Y-121352143D01*
X126841485Y-121343118D01*
X126884571Y-121330361D01*
X126920050Y-121320081D01*
X127048510Y-121280972D01*
X127188427Y-121234416D01*
X127328494Y-121184228D01*
X127377250Y-121165824D01*
X127427136Y-121146645D01*
X127461229Y-121133287D01*
X127487478Y-121122548D01*
X127513833Y-121111228D01*
X127525220Y-121106244D01*
X127556468Y-121093313D01*
X127576851Y-121086310D01*
X127579333Y-121085900D01*
X127594602Y-121081127D01*
X127624349Y-121069046D01*
X127640914Y-121061789D01*
X127684493Y-121042561D01*
X127736425Y-121020038D01*
X127764600Y-121007979D01*
X127846885Y-120971215D01*
X127946033Y-120924041D01*
X128057393Y-120868907D01*
X128176315Y-120808261D01*
X128298147Y-120744554D01*
X128418238Y-120680233D01*
X128531938Y-120617748D01*
X128634597Y-120559548D01*
X128721562Y-120508083D01*
X128763422Y-120482001D01*
X128799704Y-120459390D01*
X128826876Y-120443571D01*
X128838371Y-120438200D01*
X128851544Y-120431296D01*
X128882466Y-120411974D01*
X128928031Y-120382321D01*
X128985137Y-120344420D01*
X129050678Y-120300358D01*
X129121552Y-120252220D01*
X129194653Y-120202091D01*
X129266877Y-120152056D01*
X129326700Y-120110144D01*
X129393086Y-120062566D01*
X129468250Y-120007404D01*
X129548093Y-119947789D01*
X129628514Y-119886856D01*
X129705414Y-119827736D01*
X129774692Y-119773563D01*
X129832248Y-119727468D01*
X129873982Y-119692584D01*
X129879062Y-119688124D01*
X129902742Y-119667540D01*
X129941059Y-119634703D01*
X129989213Y-119593711D01*
X130042402Y-119548658D01*
X130056950Y-119536374D01*
X130120276Y-119480739D01*
X130197416Y-119409397D01*
X130285217Y-119325541D01*
X130380526Y-119232365D01*
X130480188Y-119133060D01*
X130581049Y-119030821D01*
X130679955Y-118928840D01*
X130773753Y-118830310D01*
X130859288Y-118738424D01*
X130933407Y-118656375D01*
X130985122Y-118596700D01*
X131181992Y-118355730D01*
X131358557Y-118123591D01*
X131517018Y-117897339D01*
X131584679Y-117794050D01*
X131817302Y-117408760D01*
X132031423Y-117007762D01*
X132227716Y-116589745D01*
X132332254Y-116342450D01*
X132366280Y-116258745D01*
X132392083Y-116195289D01*
X132411006Y-116148803D01*
X132424394Y-116116004D01*
X132433589Y-116093612D01*
X132439934Y-116078347D01*
X132444773Y-116066928D01*
X132449449Y-116056073D01*
X132450550Y-116053525D01*
X132473384Y-115997630D01*
X132501553Y-115923955D01*
X132532725Y-115838931D01*
X132564564Y-115748991D01*
X132594738Y-115660569D01*
X132610608Y-115612353D01*
X132630610Y-115545390D01*
X132639939Y-115500729D01*
X132638689Y-115477669D01*
X132629117Y-115474616D01*
X132617223Y-115484310D01*
X132589705Y-115509599D01*
X132548965Y-115548185D01*
X132497405Y-115597770D01*
X132437428Y-115656055D01*
X132371437Y-115720742D01*
X132359144Y-115732850D01*
X132250484Y-115839705D01*
X132157254Y-115930793D01*
X132077030Y-116008411D01*
X132007391Y-116074861D01*
X131945911Y-116132439D01*
X131890168Y-116183447D01*
X131837739Y-116230182D01*
X131803328Y-116260188D01*
X131759504Y-116298212D01*
X131720434Y-116332335D01*
X131691814Y-116357570D01*
X131682678Y-116365777D01*
X131661974Y-116383224D01*
X131625240Y-116412760D01*
X131576680Y-116451121D01*
X131520499Y-116495042D01*
X131460903Y-116541261D01*
X131402095Y-116586513D01*
X131348281Y-116627534D01*
X131303665Y-116661060D01*
X131278534Y-116679492D01*
X131238201Y-116708857D01*
X131200763Y-116736697D01*
X131183284Y-116750042D01*
X131162020Y-116765081D01*
X131123266Y-116791025D01*
X131071025Y-116825252D01*
X131009303Y-116865138D01*
X130942107Y-116908058D01*
X130939600Y-116909649D01*
X130860433Y-116959793D01*
X130797297Y-116999439D01*
X130744853Y-117031822D01*
X130697765Y-117060175D01*
X130650694Y-117087732D01*
X130598303Y-117117727D01*
X130564950Y-117136625D01*
X130497142Y-117173386D01*
X130412338Y-117216958D01*
X130316933Y-117264253D01*
X130217325Y-117312182D01*
X130119907Y-117357656D01*
X130031077Y-117397586D01*
X129974400Y-117421844D01*
X129926316Y-117441852D01*
X129882154Y-117460299D01*
X129853750Y-117472235D01*
X129741056Y-117517518D01*
X129612627Y-117564518D01*
X129464026Y-117614854D01*
X129453700Y-117618235D01*
X129353540Y-117650339D01*
X129259198Y-117679379D01*
X129175294Y-117703998D01*
X129106448Y-117722837D01*
X129060000Y-117733977D01*
X129026848Y-117741446D01*
X128978155Y-117753035D01*
X128922987Y-117766577D01*
X128907600Y-117770427D01*
X128821656Y-117791727D01*
X128754674Y-117807569D01*
X128701118Y-117819211D01*
X128655456Y-117827913D01*
X128653600Y-117828238D01*
X128622276Y-117833703D01*
X128573607Y-117842195D01*
X128515272Y-117852374D01*
X128475800Y-117859263D01*
X128425848Y-117867828D01*
X128378918Y-117875455D01*
X128330358Y-117882795D01*
X128275518Y-117890502D01*
X128209747Y-117899226D01*
X128128393Y-117909620D01*
X128026804Y-117922336D01*
X128018600Y-117923357D01*
X127973064Y-117928253D01*
X127907809Y-117934224D01*
X127828471Y-117940810D01*
X127740684Y-117947546D01*
X127650085Y-117953971D01*
X127625883Y-117955591D01*
X127232070Y-117972077D01*
X126837338Y-117969943D01*
X126444721Y-117949542D01*
X126057251Y-117911229D01*
X125677962Y-117855358D01*
X125309885Y-117782282D01*
X124956055Y-117692354D01*
X124703900Y-117614743D01*
X124582698Y-117573923D01*
X124483791Y-117539452D01*
X124405089Y-117510577D01*
X124344498Y-117486547D01*
X124329250Y-117480044D01*
X124300792Y-117467617D01*
X124263737Y-117451389D01*
X124257481Y-117448644D01*
X124226379Y-117435725D01*
X124206286Y-117428716D01*
X124203883Y-117428300D01*
X124192190Y-117424668D01*
X124164425Y-117413252D01*
X124118797Y-117393270D01*
X124053515Y-117363940D01*
X123980000Y-117330511D01*
X123922889Y-117303593D01*
X123851510Y-117268677D01*
X123772241Y-117229010D01*
X123691457Y-117187835D01*
X123615533Y-117148398D01*
X123550844Y-117113943D01*
X123510100Y-117091365D01*
X123459544Y-117062503D01*
X123408629Y-117033505D01*
X123371177Y-117012236D01*
X123326369Y-116985802D01*
X123268974Y-116950350D01*
X123202331Y-116908097D01*
X123129781Y-116861263D01*
X123054662Y-116812068D01*
X122980315Y-116762731D01*
X122910079Y-116715470D01*
X122847294Y-116672504D01*
X122795300Y-116636053D01*
X122757436Y-116608336D01*
X122737041Y-116591572D01*
X122735400Y-116589788D01*
X122722410Y-116578555D01*
X122692889Y-116555277D01*
X122650765Y-116522964D01*
X122599962Y-116484628D01*
X122545445Y-116444050D01*
X122531004Y-116433177D01*
X122514555Y-116420241D01*
X122493040Y-116402700D01*
X122463402Y-116378016D01*
X122422583Y-116343648D01*
X122367525Y-116297056D01*
X122321234Y-116257809D01*
X122032732Y-115999530D01*
X121754111Y-115723082D01*
X121487581Y-115431268D01*
X121235356Y-115126892D01*
X120999647Y-114812757D01*
X120782666Y-114491666D01*
X120586624Y-114166425D01*
X120414086Y-113840550D01*
X120387541Y-113785974D01*
X120360063Y-113728395D01*
X120333872Y-113672597D01*
X120311184Y-113623364D01*
X120294217Y-113585480D01*
X120285191Y-113563731D01*
X120284300Y-113560598D01*
X120279464Y-113547253D01*
X120266944Y-113517911D01*
X120253786Y-113488501D01*
X120234692Y-113444214D01*
X120211382Y-113386808D01*
X120188212Y-113327071D01*
X120183124Y-113313500D01*
X120163502Y-113261165D01*
X120145760Y-113214589D01*
X120132797Y-113181362D01*
X120129721Y-113173800D01*
X120118293Y-113143342D01*
X120101328Y-113094312D01*
X120080682Y-113032437D01*
X120058210Y-112963446D01*
X120035768Y-112893065D01*
X120015212Y-112827023D01*
X119998397Y-112771048D01*
X119991895Y-112748350D01*
X119977073Y-112694298D01*
X119959954Y-112630373D01*
X119942277Y-112563241D01*
X119925783Y-112499568D01*
X119912209Y-112446021D01*
X119903297Y-112409267D01*
X119902432Y-112405450D01*
X119893686Y-112366219D01*
X119882049Y-112314138D01*
X119871220Y-112265750D01*
X119839282Y-112113792D01*
X119816070Y-111982314D01*
X119814740Y-111973650D01*
X119786342Y-111781608D01*
X119762722Y-111610165D01*
X119743508Y-111455046D01*
X119728329Y-111311976D01*
X119716814Y-111176681D01*
X119708590Y-111044887D01*
X119703286Y-110912319D01*
X119700530Y-110774703D01*
X119699912Y-110652850D01*
X119701777Y-110457616D01*
X119707529Y-110277151D01*
X119717741Y-110103037D01*
X119732986Y-109926859D01*
X119753836Y-109740198D01*
X119771224Y-109605100D01*
X119781709Y-109528854D01*
X119791361Y-109463677D01*
X119801691Y-109400222D01*
X119814210Y-109329143D01*
X119827682Y-109255850D01*
X119902315Y-108906881D01*
X119996616Y-108554047D01*
X120108404Y-108204252D01*
X120235499Y-107864397D01*
X120355168Y-107585800D01*
X120388571Y-107514619D01*
X120427547Y-107434450D01*
X120470005Y-107349319D01*
X120513853Y-107263254D01*
X120556998Y-107180282D01*
X120597347Y-107104430D01*
X120632810Y-107039726D01*
X120661292Y-106990196D01*
X120679500Y-106961539D01*
X120695994Y-106936133D01*
X120703373Y-106920535D01*
X120703400Y-106920125D01*
X120710154Y-106905402D01*
X120729166Y-106872546D01*
X120758567Y-106824533D01*
X120796485Y-106764335D01*
X120841051Y-106694928D01*
X120890392Y-106619286D01*
X120935728Y-106550750D01*
X121072319Y-106353480D01*
X121221163Y-106153990D01*
X121386590Y-105946490D01*
X121395510Y-105935636D01*
X121583112Y-105718506D01*
X121790899Y-105497781D01*
X122014775Y-105277323D01*
X122250647Y-105060996D01*
X122494418Y-104852666D01*
X122741995Y-104656196D01*
X122789362Y-104620350D01*
X122838918Y-104581116D01*
X122866681Y-104553509D01*
X122872812Y-104536383D01*
X122857475Y-104528597D01*
X122820832Y-104529006D01*
G37*
X122820832Y-104529006D02*
X122802075Y-104530985D01*
X122754822Y-104538092D01*
X122694085Y-104549153D01*
X122631052Y-104562092D01*
X122614750Y-104565716D01*
X122558038Y-104578560D01*
X122505488Y-104590432D01*
X122465782Y-104599372D01*
X122456000Y-104601563D01*
X122362311Y-104623613D01*
X122251104Y-104651662D01*
X122129059Y-104683979D01*
X122002851Y-104718830D01*
X121992450Y-104721768D01*
X121936120Y-104737648D01*
X121883838Y-104752284D01*
X121844107Y-104763301D01*
X121833700Y-104766143D01*
X121708649Y-104802407D01*
X121566736Y-104847667D01*
X121413904Y-104899742D01*
X121256100Y-104956450D01*
X121099269Y-105015610D01*
X120949356Y-105075038D01*
X120812306Y-105132555D01*
X120709750Y-105178599D01*
X120313347Y-105374918D01*
X119935593Y-105585405D01*
X119573862Y-105811904D01*
X119225528Y-106056259D01*
X118887963Y-106320313D01*
X118558541Y-106605909D01*
X118234633Y-106914890D01*
X118233250Y-106916270D01*
X118164055Y-106985676D01*
X118097914Y-107052657D01*
X118037821Y-107114134D01*
X117986769Y-107167025D01*
X117947754Y-107208247D01*
X117923770Y-107234722D01*
X117923603Y-107234917D01*
X117885624Y-107278781D01*
X117845813Y-107323857D01*
X117821473Y-107350850D01*
X117770883Y-107408063D01*
X117708893Y-107481240D01*
X117639153Y-107565882D01*
X117565308Y-107657489D01*
X117491008Y-107751561D01*
X117419898Y-107843598D01*
X117389056Y-107884289D01*
X117127041Y-108252126D01*
X116885437Y-108632647D01*
X116662514Y-109028651D01*
X116562116Y-109224100D01*
X116522792Y-109303650D01*
X116486196Y-109378935D01*
X116453926Y-109446550D01*
X116427582Y-109503092D01*
X116408763Y-109545155D01*
X116399067Y-109569335D01*
X116398100Y-109573320D01*
X116393280Y-109586965D01*
X116380708Y-109616918D01*
X116365036Y-109652377D01*
X116341889Y-109703903D01*
X116324887Y-109742495D01*
X116310312Y-109776985D01*
X116294445Y-109816202D01*
X116273567Y-109868976D01*
X116269954Y-109878150D01*
X116249643Y-109930988D01*
X116225271Y-109996353D01*
X116198636Y-110069200D01*
X116171538Y-110144485D01*
X116145777Y-110217163D01*
X116123151Y-110282190D01*
X116105460Y-110334521D01*
X116094504Y-110369111D01*
X116093282Y-110373450D01*
X116084725Y-110403030D01*
X116070951Y-110448513D01*
X116054482Y-110501608D01*
X116048850Y-110519500D01*
X116024356Y-110598058D01*
X116005821Y-110660315D01*
X115991009Y-110714013D01*
X115979165Y-110760800D01*
X115969220Y-110799065D01*
X115955803Y-110847681D01*
X115947940Y-110875100D01*
X115933226Y-110928785D01*
X115919162Y-110985230D01*
X115913900Y-111008450D01*
X115903559Y-111056189D01*
X115893553Y-111101874D01*
X115890336Y-111116400D01*
X115866389Y-111226573D01*
X115844901Y-111330688D01*
X115827101Y-111422594D01*
X115814223Y-111496140D01*
X115814021Y-111497400D01*
X115804645Y-111554983D01*
X115794966Y-111612735D01*
X115787431Y-111656150D01*
X115766400Y-111791938D01*
X115747719Y-111949727D01*
X115731600Y-112126204D01*
X115718258Y-112318061D01*
X115707906Y-112521986D01*
X115700757Y-112734668D01*
X115697025Y-112952798D01*
X115696506Y-113065850D01*
X115700397Y-113391250D01*
X115712400Y-113695723D01*
X115732736Y-113982484D01*
X115761629Y-114254752D01*
X115794842Y-114488250D01*
X115805008Y-114551765D01*
X115815085Y-114614703D01*
X115823481Y-114667119D01*
X115826363Y-114685100D01*
X115833527Y-114725387D01*
X115844632Y-114782678D01*
X115858128Y-114849176D01*
X115871739Y-114913700D01*
X115885668Y-114978474D01*
X115898487Y-115038227D01*
X115908791Y-115086408D01*
X115915178Y-115116464D01*
X115915270Y-115116900D01*
X115947311Y-115253759D01*
X115989245Y-115408653D01*
X116039497Y-115576951D01*
X116096495Y-115754023D01*
X116158663Y-115935239D01*
X116224429Y-116115969D01*
X116292218Y-116291582D01*
X116360457Y-116457449D01*
X116407288Y-116564475D01*
X116432490Y-116619075D01*
X116465136Y-116687761D01*
X116502936Y-116765905D01*
X116543594Y-116848881D01*
X116584818Y-116932059D01*
X116624314Y-117010814D01*
X116659788Y-117080518D01*
X116688949Y-117136542D01*
X116709501Y-117174261D01*
X116709523Y-117174300D01*
X116738501Y-117225007D01*
X116767649Y-117276244D01*
X116789009Y-117314000D01*
X116925049Y-117543616D01*
X117078963Y-117781916D01*
X117247177Y-118023979D01*
X117426115Y-118264884D01*
X117612202Y-118499710D01*
X117801861Y-118723538D01*
X117864084Y-118793550D01*
X117917735Y-118851761D01*
X117985738Y-118923380D01*
X118064032Y-119004313D01*
X118148559Y-119090468D01*
X118235260Y-119177753D01*
X118320074Y-119262077D01*
X118398944Y-119339346D01*
X118467810Y-119405469D01*
X118511838Y-119446555D01*
X118632277Y-119553622D01*
X118768998Y-119669596D01*
X118916595Y-119790161D01*
X119069664Y-119911001D01*
X119222799Y-120027799D01*
X119370596Y-120136240D01*
X119415460Y-120168173D01*
X119457558Y-120197242D01*
X119511569Y-120233557D01*
X119574099Y-120274939D01*
X119641756Y-120319206D01*
X119711148Y-120364177D01*
X119778883Y-120407672D01*
X119841567Y-120447510D01*
X119895809Y-120481509D01*
X119938217Y-120507490D01*
X119965397Y-120523270D01*
X119973762Y-120527100D01*
X119987234Y-120533302D01*
X120014466Y-120549073D01*
X120031817Y-120559807D01*
X120107526Y-120605440D01*
X120201657Y-120658670D01*
X120309374Y-120716879D01*
X120425845Y-120777448D01*
X120531950Y-120830725D01*
X120603742Y-120865879D01*
X120676027Y-120900775D01*
X120745032Y-120933646D01*
X120806986Y-120962724D01*
X120858117Y-120986242D01*
X120894652Y-121002431D01*
X120912821Y-121009525D01*
X120913841Y-121009700D01*
X120927799Y-121014510D01*
X120956602Y-121026700D01*
X120973414Y-121034234D01*
X121069163Y-121075589D01*
X121184052Y-121121477D01*
X121312655Y-121169982D01*
X121449544Y-121219188D01*
X121589292Y-121267179D01*
X121726471Y-121312039D01*
X121855656Y-121351851D01*
X121948000Y-121378339D01*
X122160866Y-121435058D01*
X122355806Y-121482939D01*
X122538234Y-121523170D01*
X122713559Y-121556942D01*
X122887194Y-121585446D01*
X122894150Y-121586489D01*
X122939197Y-121593068D01*
X122983397Y-121599129D01*
X123030660Y-121605120D01*
X123084896Y-121611490D01*
X123150015Y-121618689D01*
X123229927Y-121627165D01*
X123328542Y-121637367D01*
X123408500Y-121645543D01*
X123445351Y-121648048D01*
X123504541Y-121650512D01*
X123583011Y-121652902D01*
X123677699Y-121655183D01*
X123785545Y-121657322D01*
X123903490Y-121659282D01*
X124028473Y-121661032D01*
X124157433Y-121662536D01*
X124287309Y-121663760D01*
X124415043Y-121664669D01*
X124537572Y-121665231D01*
X124651838Y-121665410D01*
X124754778Y-121665172D01*
X124843334Y-121664484D01*
X124914445Y-121663310D01*
X124938850Y-121662649D01*
X125065083Y-121656692D01*
X125208145Y-121646606D01*
X125361190Y-121633110D01*
X125517370Y-121616922D01*
X125669837Y-121598760D01*
X125811745Y-121579344D01*
X125936244Y-121559392D01*
X125954850Y-121556059D01*
X126038815Y-121540081D01*
X126132506Y-121521127D01*
X126231085Y-121500282D01*
X126329718Y-121478629D01*
X126423567Y-121457254D01*
X126507796Y-121437241D01*
X126577568Y-121419675D01*
X126628048Y-121405640D01*
X126634300Y-121403703D01*
X126666477Y-121394046D01*
X126708765Y-121381990D01*
X126723200Y-121378000D01*
X126765628Y-121366053D01*
X126802960Y-121355004D01*
X126812100Y-121352143D01*
X126841485Y-121343118D01*
X126884571Y-121330361D01*
X126920050Y-121320081D01*
X127048510Y-121280972D01*
X127188427Y-121234416D01*
X127328494Y-121184228D01*
X127377250Y-121165824D01*
X127427136Y-121146645D01*
X127461229Y-121133287D01*
X127487478Y-121122548D01*
X127513833Y-121111228D01*
X127525220Y-121106244D01*
X127556468Y-121093313D01*
X127576851Y-121086310D01*
X127579333Y-121085900D01*
X127594602Y-121081127D01*
X127624349Y-121069046D01*
X127640914Y-121061789D01*
X127684493Y-121042561D01*
X127736425Y-121020038D01*
X127764600Y-121007979D01*
X127846885Y-120971215D01*
X127946033Y-120924041D01*
X128057393Y-120868907D01*
X128176315Y-120808261D01*
X128298147Y-120744554D01*
X128418238Y-120680233D01*
X128531938Y-120617748D01*
X128634597Y-120559548D01*
X128721562Y-120508083D01*
X128763422Y-120482001D01*
X128799704Y-120459390D01*
X128826876Y-120443571D01*
X128838371Y-120438200D01*
X128851544Y-120431296D01*
X128882466Y-120411974D01*
X128928031Y-120382321D01*
X128985137Y-120344420D01*
X129050678Y-120300358D01*
X129121552Y-120252220D01*
X129194653Y-120202091D01*
X129266877Y-120152056D01*
X129326700Y-120110144D01*
X129393086Y-120062566D01*
X129468250Y-120007404D01*
X129548093Y-119947789D01*
X129628514Y-119886856D01*
X129705414Y-119827736D01*
X129774692Y-119773563D01*
X129832248Y-119727468D01*
X129873982Y-119692584D01*
X129879062Y-119688124D01*
X129902742Y-119667540D01*
X129941059Y-119634703D01*
X129989213Y-119593711D01*
X130042402Y-119548658D01*
X130056950Y-119536374D01*
X130120276Y-119480739D01*
X130197416Y-119409397D01*
X130285217Y-119325541D01*
X130380526Y-119232365D01*
X130480188Y-119133060D01*
X130581049Y-119030821D01*
X130679955Y-118928840D01*
X130773753Y-118830310D01*
X130859288Y-118738424D01*
X130933407Y-118656375D01*
X130985122Y-118596700D01*
X131181992Y-118355730D01*
X131358557Y-118123591D01*
X131517018Y-117897339D01*
X131584679Y-117794050D01*
X131817302Y-117408760D01*
X132031423Y-117007762D01*
X132227716Y-116589745D01*
X132332254Y-116342450D01*
X132366280Y-116258745D01*
X132392083Y-116195289D01*
X132411006Y-116148803D01*
X132424394Y-116116004D01*
X132433589Y-116093612D01*
X132439934Y-116078347D01*
X132444773Y-116066928D01*
X132449449Y-116056073D01*
X132450550Y-116053525D01*
X132473384Y-115997630D01*
X132501553Y-115923955D01*
X132532725Y-115838931D01*
X132564564Y-115748991D01*
X132594738Y-115660569D01*
X132610608Y-115612353D01*
X132630610Y-115545390D01*
X132639939Y-115500729D01*
X132638689Y-115477669D01*
X132629117Y-115474616D01*
X132617223Y-115484310D01*
X132589705Y-115509599D01*
X132548965Y-115548185D01*
X132497405Y-115597770D01*
X132437428Y-115656055D01*
X132371437Y-115720742D01*
X132359144Y-115732850D01*
X132250484Y-115839705D01*
X132157254Y-115930793D01*
X132077030Y-116008411D01*
X132007391Y-116074861D01*
X131945911Y-116132439D01*
X131890168Y-116183447D01*
X131837739Y-116230182D01*
X131803328Y-116260188D01*
X131759504Y-116298212D01*
X131720434Y-116332335D01*
X131691814Y-116357570D01*
X131682678Y-116365777D01*
X131661974Y-116383224D01*
X131625240Y-116412760D01*
X131576680Y-116451121D01*
X131520499Y-116495042D01*
X131460903Y-116541261D01*
X131402095Y-116586513D01*
X131348281Y-116627534D01*
X131303665Y-116661060D01*
X131278534Y-116679492D01*
X131238201Y-116708857D01*
X131200763Y-116736697D01*
X131183284Y-116750042D01*
X131162020Y-116765081D01*
X131123266Y-116791025D01*
X131071025Y-116825252D01*
X131009303Y-116865138D01*
X130942107Y-116908058D01*
X130939600Y-116909649D01*
X130860433Y-116959793D01*
X130797297Y-116999439D01*
X130744853Y-117031822D01*
X130697765Y-117060175D01*
X130650694Y-117087732D01*
X130598303Y-117117727D01*
X130564950Y-117136625D01*
X130497142Y-117173386D01*
X130412338Y-117216958D01*
X130316933Y-117264253D01*
X130217325Y-117312182D01*
X130119907Y-117357656D01*
X130031077Y-117397586D01*
X129974400Y-117421844D01*
X129926316Y-117441852D01*
X129882154Y-117460299D01*
X129853750Y-117472235D01*
X129741056Y-117517518D01*
X129612627Y-117564518D01*
X129464026Y-117614854D01*
X129453700Y-117618235D01*
X129353540Y-117650339D01*
X129259198Y-117679379D01*
X129175294Y-117703998D01*
X129106448Y-117722837D01*
X129060000Y-117733977D01*
X129026848Y-117741446D01*
X128978155Y-117753035D01*
X128922987Y-117766577D01*
X128907600Y-117770427D01*
X128821656Y-117791727D01*
X128754674Y-117807569D01*
X128701118Y-117819211D01*
X128655456Y-117827913D01*
X128653600Y-117828238D01*
X128622276Y-117833703D01*
X128573607Y-117842195D01*
X128515272Y-117852374D01*
X128475800Y-117859263D01*
X128425848Y-117867828D01*
X128378918Y-117875455D01*
X128330358Y-117882795D01*
X128275518Y-117890502D01*
X128209747Y-117899226D01*
X128128393Y-117909620D01*
X128026804Y-117922336D01*
X128018600Y-117923357D01*
X127973064Y-117928253D01*
X127907809Y-117934224D01*
X127828471Y-117940810D01*
X127740684Y-117947546D01*
X127650085Y-117953971D01*
X127625883Y-117955591D01*
X127232070Y-117972077D01*
X126837338Y-117969943D01*
X126444721Y-117949542D01*
X126057251Y-117911229D01*
X125677962Y-117855358D01*
X125309885Y-117782282D01*
X124956055Y-117692354D01*
X124703900Y-117614743D01*
X124582698Y-117573923D01*
X124483791Y-117539452D01*
X124405089Y-117510577D01*
X124344498Y-117486547D01*
X124329250Y-117480044D01*
X124300792Y-117467617D01*
X124263737Y-117451389D01*
X124257481Y-117448644D01*
X124226379Y-117435725D01*
X124206286Y-117428716D01*
X124203883Y-117428300D01*
X124192190Y-117424668D01*
X124164425Y-117413252D01*
X124118797Y-117393270D01*
X124053515Y-117363940D01*
X123980000Y-117330511D01*
X123922889Y-117303593D01*
X123851510Y-117268677D01*
X123772241Y-117229010D01*
X123691457Y-117187835D01*
X123615533Y-117148398D01*
X123550844Y-117113943D01*
X123510100Y-117091365D01*
X123459544Y-117062503D01*
X123408629Y-117033505D01*
X123371177Y-117012236D01*
X123326369Y-116985802D01*
X123268974Y-116950350D01*
X123202331Y-116908097D01*
X123129781Y-116861263D01*
X123054662Y-116812068D01*
X122980315Y-116762731D01*
X122910079Y-116715470D01*
X122847294Y-116672504D01*
X122795300Y-116636053D01*
X122757436Y-116608336D01*
X122737041Y-116591572D01*
X122735400Y-116589788D01*
X122722410Y-116578555D01*
X122692889Y-116555277D01*
X122650765Y-116522964D01*
X122599962Y-116484628D01*
X122545445Y-116444050D01*
X122531004Y-116433177D01*
X122514555Y-116420241D01*
X122493040Y-116402700D01*
X122463402Y-116378016D01*
X122422583Y-116343648D01*
X122367525Y-116297056D01*
X122321234Y-116257809D01*
X122032732Y-115999530D01*
X121754111Y-115723082D01*
X121487581Y-115431268D01*
X121235356Y-115126892D01*
X120999647Y-114812757D01*
X120782666Y-114491666D01*
X120586624Y-114166425D01*
X120414086Y-113840550D01*
X120387541Y-113785974D01*
X120360063Y-113728395D01*
X120333872Y-113672597D01*
X120311184Y-113623364D01*
X120294217Y-113585480D01*
X120285191Y-113563731D01*
X120284300Y-113560598D01*
X120279464Y-113547253D01*
X120266944Y-113517911D01*
X120253786Y-113488501D01*
X120234692Y-113444214D01*
X120211382Y-113386808D01*
X120188212Y-113327071D01*
X120183124Y-113313500D01*
X120163502Y-113261165D01*
X120145760Y-113214589D01*
X120132797Y-113181362D01*
X120129721Y-113173800D01*
X120118293Y-113143342D01*
X120101328Y-113094312D01*
X120080682Y-113032437D01*
X120058210Y-112963446D01*
X120035768Y-112893065D01*
X120015212Y-112827023D01*
X119998397Y-112771048D01*
X119991895Y-112748350D01*
X119977073Y-112694298D01*
X119959954Y-112630373D01*
X119942277Y-112563241D01*
X119925783Y-112499568D01*
X119912209Y-112446021D01*
X119903297Y-112409267D01*
X119902432Y-112405450D01*
X119893686Y-112366219D01*
X119882049Y-112314138D01*
X119871220Y-112265750D01*
X119839282Y-112113792D01*
X119816070Y-111982314D01*
X119814740Y-111973650D01*
X119786342Y-111781608D01*
X119762722Y-111610165D01*
X119743508Y-111455046D01*
X119728329Y-111311976D01*
X119716814Y-111176681D01*
X119708590Y-111044887D01*
X119703286Y-110912319D01*
X119700530Y-110774703D01*
X119699912Y-110652850D01*
X119701777Y-110457616D01*
X119707529Y-110277151D01*
X119717741Y-110103037D01*
X119732986Y-109926859D01*
X119753836Y-109740198D01*
X119771224Y-109605100D01*
X119781709Y-109528854D01*
X119791361Y-109463677D01*
X119801691Y-109400222D01*
X119814210Y-109329143D01*
X119827682Y-109255850D01*
X119902315Y-108906881D01*
X119996616Y-108554047D01*
X120108404Y-108204252D01*
X120235499Y-107864397D01*
X120355168Y-107585800D01*
X120388571Y-107514619D01*
X120427547Y-107434450D01*
X120470005Y-107349319D01*
X120513853Y-107263254D01*
X120556998Y-107180282D01*
X120597347Y-107104430D01*
X120632810Y-107039726D01*
X120661292Y-106990196D01*
X120679500Y-106961539D01*
X120695994Y-106936133D01*
X120703373Y-106920535D01*
X120703400Y-106920125D01*
X120710154Y-106905402D01*
X120729166Y-106872546D01*
X120758567Y-106824533D01*
X120796485Y-106764335D01*
X120841051Y-106694928D01*
X120890392Y-106619286D01*
X120935728Y-106550750D01*
X121072319Y-106353480D01*
X121221163Y-106153990D01*
X121386590Y-105946490D01*
X121395510Y-105935636D01*
X121583112Y-105718506D01*
X121790899Y-105497781D01*
X122014775Y-105277323D01*
X122250647Y-105060996D01*
X122494418Y-104852666D01*
X122741995Y-104656196D01*
X122789362Y-104620350D01*
X122838918Y-104581116D01*
X122866681Y-104553509D01*
X122872812Y-104536383D01*
X122857475Y-104528597D01*
X122820832Y-104529006D01*
G04 #@! TD*
D11*
G04 #@! TO.C, *
X98066726Y-84533274D03*
X96900000Y-84050000D03*
X95733274Y-84533274D03*
X95250000Y-85700000D03*
X95733274Y-86866726D03*
X96900000Y-87350000D03*
X98066726Y-86866726D03*
X98550000Y-85700000D03*
D12*
X96900000Y-85700000D03*
G04 #@! TD*
D11*
G04 #@! TO.C, *
X121866726Y-125533274D03*
X120700000Y-125050000D03*
X119533274Y-125533274D03*
X119050000Y-126700000D03*
X119533274Y-127866726D03*
X120700000Y-128350000D03*
X121866726Y-127866726D03*
X122350000Y-126700000D03*
D12*
X120700000Y-126700000D03*
G04 #@! TD*
D11*
G04 #@! TO.C, *
X136166726Y-67133274D03*
X135000000Y-66650000D03*
X133833274Y-67133274D03*
X133350000Y-68300000D03*
X133833274Y-69466726D03*
X135000000Y-69950000D03*
X136166726Y-69466726D03*
X136650000Y-68300000D03*
D12*
X135000000Y-68300000D03*
G04 #@! TD*
D11*
G04 #@! TO.C, *
X195635476Y-140120774D03*
X194468750Y-139637500D03*
X193302024Y-140120774D03*
X192818750Y-141287500D03*
X193302024Y-142454226D03*
X194468750Y-142937500D03*
X195635476Y-142454226D03*
X196118750Y-141287500D03*
D12*
X194468750Y-141287500D03*
G04 #@! TD*
M02*
