M48
; DRILL file {KiCad 5.1.8} date Thu Jan  7 11:00:10 2021
; FORMAT={-:-/ absolute / inch / decimal}
; #@! TF.CreationDate,2021-01-07T11:00:10+01:00
; #@! TF.GenerationSoftware,Kicad,Pcbnew,5.1.8
; #@! TF.FileFunction,Plated,1,2,PTH
FMAT,2
INCH
T1C0.0157
T2C0.0866
%
G90
G05
T1
X3.75Y-3.374
X3.769Y-3.3281
X3.769Y-3.4199
X3.815Y-3.3091
X3.815Y-3.439
X3.8609Y-3.3281
X3.8609Y-3.4199
X3.8799Y-3.374
X7.5913Y-5.5625
X7.6103Y-5.5166
X7.6103Y-5.6084
X7.6562Y-5.4975
X7.6562Y-5.6275
X7.7022Y-5.5166
X7.7022Y-5.6084
X7.7212Y-5.5625
X5.25Y-2.689
X5.269Y-2.643
X5.269Y-2.7349
X5.315Y-2.624
X5.315Y-2.7539
X5.3609Y-2.643
X5.3609Y-2.7349
X5.3799Y-2.689
X4.687Y-4.9882
X4.706Y-4.9423
X4.706Y-5.0341
X4.752Y-4.9232
X4.752Y-5.0531
X4.7979Y-4.9423
X4.7979Y-5.0341
X4.8169Y-4.9882
T2
X5.315Y-2.689
X4.752Y-4.9882
X3.815Y-3.374
X7.6562Y-5.5625
T0
M30
