%TF.GenerationSoftware,KiCad,Pcbnew,5.1.7*%
%TF.CreationDate,2020-11-17T12:43:39+01:00*%
%TF.ProjectId,split_3x_plate,73706c69-745f-4337-985f-706c6174652e,rev?*%
%TF.SameCoordinates,Original*%
%TF.FileFunction,Legend,Bot*%
%TF.FilePolarity,Positive*%
%FSLAX46Y46*%
G04 Gerber Fmt 4.6, Leading zero omitted, Abs format (unit mm)*
G04 Created by KiCad (PCBNEW 5.1.7) date 2020-11-17 12:43:39*
%MOMM*%
%LPD*%
G01*
G04 APERTURE LIST*
%ADD10C,0.200000*%
G04 APERTURE END LIST*
D10*
X153550000Y-113404761D02*
X153550000Y-111404761D01*
X153192857Y-111404761D01*
X152978571Y-111500000D01*
X152835714Y-111690476D01*
X152764285Y-111880952D01*
X152692857Y-112261904D01*
X152692857Y-112547619D01*
X152764285Y-112928571D01*
X152835714Y-113119047D01*
X152978571Y-113309523D01*
X153192857Y-113404761D01*
X153550000Y-113404761D01*
X152050000Y-113404761D02*
X152050000Y-112071428D01*
X152050000Y-112452380D02*
X151978571Y-112261904D01*
X151907142Y-112166666D01*
X151764285Y-112071428D01*
X151621428Y-112071428D01*
X150478571Y-113404761D02*
X150478571Y-112357142D01*
X150550000Y-112166666D01*
X150692857Y-112071428D01*
X150978571Y-112071428D01*
X151121428Y-112166666D01*
X150478571Y-113309523D02*
X150621428Y-113404761D01*
X150978571Y-113404761D01*
X151121428Y-113309523D01*
X151192857Y-113119047D01*
X151192857Y-112928571D01*
X151121428Y-112738095D01*
X150978571Y-112642857D01*
X150621428Y-112642857D01*
X150478571Y-112547619D01*
X149121428Y-113309523D02*
X149264285Y-113404761D01*
X149550000Y-113404761D01*
X149692857Y-113309523D01*
X149764285Y-113214285D01*
X149835714Y-113023809D01*
X149835714Y-112452380D01*
X149764285Y-112261904D01*
X149692857Y-112166666D01*
X149550000Y-112071428D01*
X149264285Y-112071428D01*
X149121428Y-112166666D01*
X147835714Y-112071428D02*
X147835714Y-113404761D01*
X148478571Y-112071428D02*
X148478571Y-113119047D01*
X148407142Y-113309523D01*
X148264285Y-113404761D01*
X148050000Y-113404761D01*
X147907142Y-113309523D01*
X147835714Y-113214285D01*
X146407142Y-113404761D02*
X147121428Y-113404761D01*
X147121428Y-111404761D01*
X145264285Y-113404761D02*
X145264285Y-112357142D01*
X145335714Y-112166666D01*
X145478571Y-112071428D01*
X145764285Y-112071428D01*
X145907142Y-112166666D01*
X145264285Y-113309523D02*
X145407142Y-113404761D01*
X145764285Y-113404761D01*
X145907142Y-113309523D01*
X145978571Y-113119047D01*
X145978571Y-112928571D01*
X145907142Y-112738095D01*
X145764285Y-112642857D01*
X145407142Y-112642857D01*
X145264285Y-112547619D01*
X143907142Y-113404761D02*
X143907142Y-111404761D01*
X143907142Y-113309523D02*
X144050000Y-113404761D01*
X144335714Y-113404761D01*
X144478571Y-113309523D01*
X144550000Y-113214285D01*
X144621428Y-113023809D01*
X144621428Y-112452380D01*
X144550000Y-112261904D01*
X144478571Y-112166666D01*
X144335714Y-112071428D01*
X144050000Y-112071428D01*
X143907142Y-112166666D01*
X142192857Y-111404761D02*
X141192857Y-113404761D01*
X141192857Y-111404761D02*
X142192857Y-113404761D01*
X140764285Y-111404761D02*
X139764285Y-113404761D01*
X139764285Y-111404761D02*
X140764285Y-113404761D01*
X139335714Y-111404761D02*
X138335714Y-113404761D01*
X138335714Y-111404761D02*
X139335714Y-113404761D01*
X137764285Y-113404761D02*
X137764285Y-111404761D01*
X137050000Y-113404761D02*
X137050000Y-111404761D01*
X151335714Y-116604761D02*
X151335714Y-114604761D01*
X151335714Y-115366666D02*
X151192857Y-115271428D01*
X150907142Y-115271428D01*
X150764285Y-115366666D01*
X150692857Y-115461904D01*
X150621428Y-115652380D01*
X150621428Y-116223809D01*
X150692857Y-116414285D01*
X150764285Y-116509523D01*
X150907142Y-116604761D01*
X151192857Y-116604761D01*
X151335714Y-116509523D01*
X150121428Y-115271428D02*
X149764285Y-116604761D01*
X149407142Y-115271428D02*
X149764285Y-116604761D01*
X149907142Y-117080952D01*
X149978571Y-117176190D01*
X150121428Y-117271428D01*
X147692857Y-116604761D02*
X147692857Y-114604761D01*
X147192857Y-116033333D01*
X146692857Y-114604761D01*
X146692857Y-116604761D01*
X145335714Y-116604761D02*
X145335714Y-115557142D01*
X145407142Y-115366666D01*
X145550000Y-115271428D01*
X145835714Y-115271428D01*
X145978571Y-115366666D01*
X145335714Y-116509523D02*
X145478571Y-116604761D01*
X145835714Y-116604761D01*
X145978571Y-116509523D01*
X146050000Y-116319047D01*
X146050000Y-116128571D01*
X145978571Y-115938095D01*
X145835714Y-115842857D01*
X145478571Y-115842857D01*
X145335714Y-115747619D01*
X144621428Y-115271428D02*
X144621428Y-116604761D01*
X144621428Y-115461904D02*
X144550000Y-115366666D01*
X144407142Y-115271428D01*
X144192857Y-115271428D01*
X144050000Y-115366666D01*
X143978571Y-115557142D01*
X143978571Y-116604761D01*
X142621428Y-115271428D02*
X142621428Y-116890476D01*
X142692857Y-117080952D01*
X142764285Y-117176190D01*
X142907142Y-117271428D01*
X143121428Y-117271428D01*
X143264285Y-117176190D01*
X142621428Y-116509523D02*
X142764285Y-116604761D01*
X143050000Y-116604761D01*
X143192857Y-116509523D01*
X143264285Y-116414285D01*
X143335714Y-116223809D01*
X143335714Y-115652380D01*
X143264285Y-115461904D01*
X143192857Y-115366666D01*
X143050000Y-115271428D01*
X142764285Y-115271428D01*
X142621428Y-115366666D01*
X141692857Y-116604761D02*
X141835714Y-116509523D01*
X141907142Y-116414285D01*
X141978571Y-116223809D01*
X141978571Y-115652380D01*
X141907142Y-115461904D01*
X141835714Y-115366666D01*
X141692857Y-115271428D01*
X141478571Y-115271428D01*
X141335714Y-115366666D01*
X141264285Y-115461904D01*
X141192857Y-115652380D01*
X141192857Y-116223809D01*
X141264285Y-116414285D01*
X141335714Y-116509523D01*
X141478571Y-116604761D01*
X141692857Y-116604761D01*
X140550000Y-116604761D02*
X140550000Y-114604761D01*
X140050000Y-114604761D02*
X139550000Y-116604761D01*
X139050000Y-114604761D01*
M02*
